<svg xmlns="http://www.w3.org/2000/svg" width="840" height="484" viewBox="0 0 840 484">
    <g fill="none" fill-rule="evenodd">
        <path fill="#2879FF" d="M96.781 143.452c-37.125 12.002-80.123 30.693-87.002 69.154-4.483 25.06 10.05 51.29 31.932 64.237 10.686 6.32 23.798 10.768 29.385 21.864 8.685 17.242-6.92 37.01-23.394 47.037-16.477 10.027-36.573 17.98-44.074 35.768-4.943 11.725-3.006 25.383 1.889 37.127 17.947 43.073 70.278 61.937 116.816 59.633 46.54-2.303 90.68-20.467 136.331-29.816 156.77-32.11 321.138 40.772 477.64 7.373 24.355-5.198 48.886-13.33 67.695-29.676 21.199-18.42 33.239-46.214 35.054-74.27 1.733-26.764-7.74-56.902-31.655-68.962-13.976-7.048-30.679-6.761-45.85-2.926-9.688 2.447-19.21 6.282-29.202 6.348-9.994.063-20.987-4.95-23.883-14.529-3.045-10.075 3.894-20.474 11.85-27.347 16.186-13.978 37.827-20.96 52.525-36.497 14.142-14.951 20.096-37.239 15.296-57.267-4.802-20.029-20.205-37.18-39.585-44.07-49.388-17.56-103.197 30.315-153.699 16.287-3.749-1.04-7.693-2.648-9.667-6.006-1.927-3.279-1.486-7.439-.38-11.078 6.187-20.37 30.218-33.337 31.27-54.604.572-11.56-6.251-22.377-14.852-30.108-59.1-53.117-144.732 10.067-204.99 30.013-99.088 32.8-200.092 60.195-299.45 92.315"/>
        <path fill="#FFF" d="M336.395 312.145c-.006-.01-.002-.023.009-.03l14.224-8.421c.008-.006.015-.021.01-.03 0 0-1.564-4.227-2.613-6.461a76.72 76.72 0 0 0-3.334-6.327c-2.418-4.097-8.199-11.185-8.199-11.185-.006-.01-.02-.013-.031-.006l-14.224 8.423c-.011.005-.024.002-.03-.008l-18.71-31.707c-.006-.01-.019-.015-.031-.009 0 0-5.025 2.31-7.519 3.52a99.494 99.494 0 0 0-7.306 3.923 81.29 81.29 0 0 0-6.362 4.169c-1.996 1.449-6.11 4.55-6.11 4.55-.008.006-.01.021-.006.032l18.712 31.707c.004.01.002.023-.008.03l-28.288 16.747c-.01.007-.02.002-.02-.01l-8.133-107.047c0-.01-.01-.021-.023-.021 0 0-10.587-.544-15.565.53-4.979 1.075-14.652 4.797-14.652 4.797-.01.004-.017.017-.017.027l10.91 146.63c0 .011.01.026.018.033l3.387 1.702c.01.006.027.006.036 0l66.514-39.384c.008-.004.023 0 .027.009l16.37 27.738c.005.011.017.015.03.011 0 0 5.025-2.31 7.523-3.519a101.138 101.138 0 0 0 7.303-3.924 81.433 81.433 0 0 0 6.36-4.168c1.995-1.447 6.108-4.553 6.108-4.553.01-.006.013-.02.006-.031l-16.366-27.737M607.214 299.857a99.344 99.344 0 0 0-6.876-4.64 81.159 81.159 0 0 0-6.648-3.685c-2.214-1.093-6.872-3.286-6.872-3.286-.01-.007-.026-.003-.032.008l-19.247 31.382c-.006.009-.02.013-.03.006l-27.997-17.229c-.008-.006-.008-.016 0-.023l90.694-57.201a.024.024 0 0 0 .008-.032s-4.467-9.632-7.74-13.539c-3.272-3.91-11.077-10.738-11.077-10.738a.032.032 0 0 0-.034-.002l-124.335 78.15a.043.043 0 0 0-.019.031l.076 3.797a.04.04 0 0 0 .019.032l65.83 40.517a.023.023 0 0 1 .006.03l-16.84 27.451c-.006.01-.004.026.007.032 0 0 4.387 3.373 6.617 5.019a100.66 100.66 0 0 0 6.878 4.639 82.697 82.697 0 0 0 6.649 3.687c2.211 1.089 6.872 3.285 6.872 3.285.01.004.025 0 .031-.01l16.838-27.455c.006-.01.019-.015.03-.008l14.078 8.668c.01.006.026.004.034-.006 0 0 2.999-3.359 4.48-5.333a76.568 76.568 0 0 0 4.028-5.905c2.49-4.057 6.045-12.489 6.045-12.489a.024.024 0 0 0-.011-.03l-14.079-8.666c-.01-.006-.012-.019-.006-.03l19.247-31.381a.023.023 0 0 0-.004-.03s-4.385-3.37-6.62-5.016"/>
        <path fill="#AFCDFF" d="M420 340.145c-40.092 0-72.592-32.557-72.592-72.715s32.5-72.715 72.592-72.715 72.592 32.557 72.592 72.715-32.5 72.715-72.592 72.715z"/>
        <path fill="#97BEFF" d="M347.989 258.378c21.536 3.067 57.74-12.339 69.347-14.594 23.594-4.586 47.828.873 71.874 1.673a72.41 72.41 0 0 0-6.674-14.942c-8.843.367-18.164-1.171-27.085-1.43-16.941-.494-33.785 3.963-50.699 2.938-7.817-.475-25.41-7.333-41.408-10.029a72.401 72.401 0 0 0-15.355 36.384M420 194.715a72.372 72.372 0 0 0-21.197 3.16c9.094 5.2 27.321 7.065 31.55 7.633 7.605 1.02 15.865 1.386 22.391-2.65.09-.057.18-.122.27-.181A72.162 72.162 0 0 0 420 194.715M492.565 268.443c-20.915-5.293-43.055-5.721-64.137-1.11-11.452 2.504-22.543 6.445-33.923 9.257-14.31 3.534-29.063 5.242-43.8 5.128a48.76 48.76 0 0 1-1.897-.054c2.881 14.543 10.092 27.521 20.233 37.538a249.967 249.967 0 0 0 49.69-24.113c13.65-8.613 27.31-18.872 43.377-20.345 9.974-.913 19.775 1.692 29.65 3.736.5-3.278.763-6.632.807-10.037M488.721 290.85c-9.845-1.459-27.447 7.216-31.756 10.872-3.846 3.263-7.089 7.25-11.242 10.113-5.271 3.633-11.642 5.215-17.838 6.816a681.027 681.027 0 0 0-37.226 10.757c-1.563.498-3.256 1.185-4.018 2.599A72.149 72.149 0 0 0 420 340.145c8.42 0 16.494-1.453 24.015-4.092 7.533-10.772 12.034-24.73 23.956-29.794 2.015-.854 9.096-1.867 15.492-3.53a72.365 72.365 0 0 0 5.258-11.878"/>
        <path fill="#FFF" d="M432.352 313.841c-101.725 0-186.379 73.165-204.41 169.821h408.82c-18.032-96.656-102.685-169.82-204.41-169.82z"/>
        <g fill-rule="nonzero">
            <path fill="#FFF" d="M417.784 250.347c5.758-2.321 9.785-7.92 9.785-14.43.046-8.604-7.07-15.615-15.777-15.615-8.754 0-15.87 7.01-15.87 15.615 0 2.91 1.88 6.544 5.642 10.9a.93.93 0 0 1-.355 1.47l-5.584 2.267a.93.93 0 0 0 .241 1.786c9.8 1.148 17.105.484 21.918-1.993z"/>
            <path fill="#FFF" d="M453.48 269.283c-4.996-1.743-11.253-1.118-18.771 1.875a.372.372 0 0 1-.427-.58c5.802-7.142 8.643-15.92 8.525-26.333-.046-5.9-1.469-10.86-4.269-14.88a1.744 1.744 0 0 0-3.175.996c0 17.48-11.142 29.226-29.072 29.226-3.852 0-9.944-1.547-18.276-4.64a1.862 1.862 0 0 0-1.983 3.042 170.028 170.028 0 0 0 4.576 4.557c1.52 1.447 3.324 3.095 5.805 4.415 8.052 4.234 14.232 4.735 14.84 4.78.094 8.877-6.179 21.305-15.074 21.305-1.357 0-2.668-.182-3.932-.455a16.99 16.99 0 0 1-1.962-.504 1.862 1.862 0 0 0-2.194 2.689c1.788 3.151 5.046 4.942 9.774 5.372 11.001 1.001 16.057-1.32 26.965-7.785 11.657-6.92 20.505-14.249 27.293-12.428 1.481.393 2.59 1.66 3.325 3.8a2.423 2.423 0 0 0 4.68-.385c.468-2.914 1.311-11.29-6.647-14.067z"/>
            <path fill="#97BEFF" stroke="#AFCDFF" stroke-width="1.862" d="M412.89 226.648c3.205 0 6.094 1.701 8.035 4.358.443.467.85.542 1.219.224.37-.317.37-.799 0-1.446-2.257-3.03-5.598-4.996-9.254-4.996-2.573 0-4.966.957-6.952 2.551-.589.495-.76.962-.514 1.402.246.44.719.487 1.417.14 1.715-1.382 3.792-2.233 6.049-2.233z"/>
        </g>
        <path fill="#AFCDFF" d="M470.458 412.15c-.96 7.302-12.25 11.831-25.22 10.118-12.966-1.713-22.7-9.018-21.738-16.32.96-7.299 12.25-11.828 25.22-10.115 12.967 1.713 22.698 9.019 21.738 16.318"/>
        <path fill="#F57C02" d="M307.524 143.492c0 14.856-12.023 26.897-26.852 26.897-14.83 0-26.851-12.041-26.851-26.897 0-14.855 12.02-26.897 26.851-26.897 14.829 0 26.852 12.042 26.852 26.897"/>
        <path fill="#FF9F3E" d="M280.672 116.595a26.678 26.678 0 0 0-13.133 3.45c.194.324.407.63.657.883 2.713 2.743 9.178 2.86 12.786 3.032a43.92 43.92 0 0 0 15.629-2.078c-4.463-3.308-9.964-5.287-15.939-5.287M301.206 130.982c.889-.31 1.788-.632 2.595-1.105a26.847 26.847 0 0 0-2.321-3.377c-2.68 1.2-5.358 2.402-8.037 3.605-2.079.93-4.168 1.867-6.37 2.447-3.244.85-6.639.905-9.992.878-6.96-.055-13.762-.718-20.639-1.475a26.79 26.79 0 0 0-2.621 11.537c0 1.956.219 3.859.614 5.696 1.42-.559 2.662-1.485 3.956-2.301 3.428-2.175 7.301-3.53 11.134-4.867l31.68-11.038M305.35 132.89c-2.08 1.862-3.622 4.333-5.894 6.107a31.536 31.536 0 0 1-7.864 4.506c-1.99.782-4.063 1.365-5.97 2.33-.71.36-1.458.855-1.633 1.634-.31 1.373 1.306 2.362 2.675 2.681 2.719.635 5.55.517 8.338.395 3.306-.142 6.615-.285 9.921-.429a23.35 23.35 0 0 0 1.784-.145c.514-2.078.817-4.24.817-6.477 0-3.765-.78-7.35-2.173-10.602M281.376 142.764a62.273 62.273 0 0 0-13.864 4.53c-2.95 1.365-5.813 2.968-8.923 3.915-.88.268-2.12.371-3.505.437a26.942 26.942 0 0 0 8.53 12.617c.275-.327.545-.662.8-1.004 4.014-5.343 6.743-12.084 12.541-15.402 1.055-.605 2.197-1.082 3.113-1.88.918-.795 1.59-2.027 1.308-3.213M304.92 154.983a5.566 5.566 0 0 0-.892-.03c-5.733.32-11.465.638-17.198.956-3.563.199-7.322.46-10.273 2.468-2.277 1.549-3.795 3.96-5.25 6.3-.49.793-1.378 1.894-2.201 3.06a26.617 26.617 0 0 0 10.87 2.617c.7-.882 1.334-1.834 2.017-2.734 3.835-5.085 9.828-8.48 16.155-9.154 1.676-.18 3.374-.183 5.048-.363a26.54 26.54 0 0 0 1.725-3.12"/>
        <path fill="#3D73AC" d="M305.313 154.173a26.75 26.75 0 0 0 1.6-5.008c-6.914 2.47-15.083 4.656-23.806 6.346-8.84 1.717-17.314 2.748-24.697 3.027a27.071 27.071 0 0 0 3.36 4.052c6.805-.43 14.34-1.422 22.137-2.936 7.693-1.492 14.98-3.367 21.406-5.48"/>
        <path fill="#FFFFFE" d="M254.339 160.709c-9.623 0-17.474-1.536-18.371-6.169-.843-4.367 4.848-8.9 16.92-13.472a2.107 2.107 0 0 1 2.714 1.228 2.112 2.112 0 0 1-1.226 2.72c-12.223 4.63-14.392 8.109-14.272 8.72.446 2.308 15.614 4.981 43.003-.335 11.492-2.228 22.083-5.32 29.819-8.706 8.854-3.876 10.298-6.559 10.2-7.067-.123-.637-3.59-3.129-17.354-2.73-1.13.046-2.134-.882-2.167-2.046a2.11 2.11 0 0 1 2.042-2.171c13.464-.403 20.749 1.67 21.615 6.147.743 3.844-3.395 7.681-12.651 11.734-8.01 3.506-18.914 6.695-30.704 8.982-7.99 1.55-19.708 3.165-29.568 3.165"/>
        <path fill="#FFB839" d="M715.221 203.91c-5.688 10.525-18.813 14.439-29.317 8.74-10.507-5.695-14.414-18.844-8.726-29.367 5.687-10.522 18.811-14.436 29.318-8.74 10.505 5.696 14.412 18.845 8.725 29.368"/>
        <path fill="#FFD58B" d="M706.496 174.543a21.473 21.473 0 0 0-10.622-2.599c.012.304.046.601.126.878.872 2.985 5.406 5.55 7.895 7.058a35.394 35.394 0 0 0 11.868 4.53c-1.896-4.057-5.034-7.572-9.267-9.867M715.535 192.622c.748.123 1.508.239 2.26.213a21.667 21.667 0 0 0-.352-3.284l-7.072-.532c-1.828-.139-3.666-.278-5.448-.713-2.626-.643-5.05-1.909-7.415-3.215-4.91-2.713-9.475-5.795-14.056-8.972a21.516 21.516 0 0 0-6.274 7.164 21.585 21.585 0 0 0-1.743 4.272c1.217.15 2.453-.03 3.68-.112 3.263-.223 6.525.306 9.752.832l26.668 4.347M717.738 195.565c-2.184.52-4.222 1.677-6.51 2.063a25.406 25.406 0 0 1-7.297.171c-1.708-.21-3.401-.595-5.122-.641-.64-.019-1.358.046-1.781.53-.744.854.02 2.174.867 2.925 1.685 1.494 3.734 2.498 5.756 3.483 2.399 1.17 4.795 2.338 7.194 3.506.426.21.87.406 1.319.583a21.72 21.72 0 0 0 3.057-4.274 21.613 21.613 0 0 0 2.517-8.346M696.977 193.352a50.188 50.188 0 0 0-11.556-2.116c-2.611-.166-5.252-.128-7.82-.654-.726-.147-1.642-.552-2.649-1.035a21.71 21.71 0 0 0 1.211 12.212c.323-.127.64-.26.952-.403 4.89-2.245 9.404-5.97 14.78-6.095.98-.023 1.971.076 2.926-.135.954-.213 1.901-.827 2.156-1.774M708.98 211.054a4.112 4.112 0 0 0-.622-.365l-12.55-5.93c-2.599-1.228-5.364-2.487-8.222-2.198-2.205.223-4.205 1.348-6.13 2.447-.651.373-1.702.812-2.732 1.322a21.508 21.508 0 0 0 6.7 6.03c.836-.357 1.648-.787 2.476-1.165 4.663-2.126 10.208-2.23 14.949-.276 1.255.517 2.46 1.164 3.713 1.681a21.735 21.735 0 0 0 2.417-1.546"/>
        <path fill="#83E3B9" d="M484.942 95.331c-8.119-4.34-11.138-14.358-6.742-22.375 4.394-8.017 14.536-10.999 22.655-6.659 8.117 4.34 11.136 14.358 6.742 22.375-4.396 8.02-14.537 11-22.655 6.66z"/>
        <path fill="#B5F3D8" d="M500.855 66.297a16.782 16.782 0 0 0-8.209-1.98 2.8 2.8 0 0 0 .098.668c.674 2.275 4.177 4.23 6.1 5.379a27.587 27.587 0 0 0 9.171 3.45 16.498 16.498 0 0 0-7.16-7.517M507.84 80.072c.577.093 1.165.181 1.746.162-.031-.842-.113-1.68-.272-2.503l-5.465-.405c-1.412-.106-2.833-.212-4.21-.543-2.03-.49-3.902-1.455-5.73-2.45-3.793-2.066-7.322-4.415-10.861-6.835a16.467 16.467 0 0 0-4.848 5.458 16.316 16.316 0 0 0-1.347 3.255c.94.114 1.895-.023 2.844-.085 2.521-.17 5.042.233 7.535.633l20.607 3.313M509.542 82.314c-1.688.395-3.263 1.278-5.03 1.572-1.86.308-3.766.357-5.64.13-1.32-.16-2.628-.453-3.957-.489-.495-.014-1.05.036-1.377.404-.574.65.016 1.657.67 2.23 1.302 1.137 2.886 1.902 4.448 2.653l5.56 2.671c.328.16.671.309 1.018.444.895-.971 1.7-2.05 2.363-3.257a16.298 16.298 0 0 0 1.945-6.358M493.499 80.628a39.276 39.276 0 0 0-8.93-1.612c-2.017-.127-4.058-.098-6.042-.499-.561-.112-1.27-.42-2.047-.789-.61 3.16-.262 6.392.936 9.305.249-.097.494-.198.735-.307 3.779-1.71 7.266-4.549 11.421-4.644.757-.017 1.523.058 2.26-.103.738-.162 1.47-.63 1.667-1.351M502.773 94.115a3.188 3.188 0 0 0-.48-.278l-9.697-4.519c-2.008-.935-4.145-1.895-6.354-1.674-1.703.17-3.25 1.027-4.737 1.864-.503.285-1.315.619-2.11 1.008a16.541 16.541 0 0 0 5.176 4.594c.646-.272 1.274-.6 1.914-.888 3.603-1.62 7.888-1.699 11.551-.21.97.394 1.9.887 2.87 1.28.647-.348 1.268-.745 1.867-1.177"/>
        <path fill="#FFF" d="M272.962 396.075l-27.498 52.252-7.571-3.998c-4.05-2.139-5.602-7.162-3.467-11.218l19.765-37.56c2.138-4.058 7.152-5.615 11.202-3.474l7.57 3.998M617.532 447.24L601.13 406.1l7.948-3.18c4.252-1.702 9.075.374 10.773 4.63l10.254 25.719c1.697 4.259-.373 9.09-4.625 10.792l-7.948 3.18M362.758 331.948L314.861 366.4l-4.993-6.963c-2.67-3.724-1.82-8.913 1.9-11.59l34.429-24.765a8.282 8.282 0 0 1 11.57 1.9l4.991 6.965M579.786 389.014l-47.04-35.625 5.161-6.837a8.281 8.281 0 0 1 11.613-1.616l33.812 25.606a8.314 8.314 0 0 1 1.613 11.633l-5.16 6.839"/>
        <path fill="#AFCDFF" d="M365.052 367.361c3.685 7.274-6.569 19.902-22.903 28.207-16.334 8.308-32.565 9.148-36.25 1.876-3.686-7.272 6.568-19.902 22.902-28.21 16.336-8.305 32.565-9.145 36.25-1.873"/>
        <path fill="#6FA5FF" d="M330.907 375.563c14.755-7.504 29.39-8.89 34.806-3.734.21-1.628.013-3.139-.661-4.468-3.686-7.272-19.915-6.432-36.251 1.873-16.334 8.308-26.588 20.938-22.903 28.21.358.702.864 1.308 1.445 1.86.937-7.278 10.216-16.95 23.564-23.74"/>
        <path fill="#AFCDFF" d="M564.837 392.398c-2.898 4.643-13.7 3.11-24.126-3.422-10.427-6.53-16.533-15.586-13.635-20.227 2.898-4.645 13.7-3.113 24.127 3.418 10.427 6.529 16.532 15.588 13.634 20.23"/>
        <path fill="#6FA5FF" d="M548.3 375.572c9.419 5.9 15.284 13.847 14.202 18.754 1.008-.443 1.804-1.08 2.335-1.928 2.898-4.643-3.207-13.702-13.634-20.231-10.427-6.531-21.229-8.063-24.127-3.418-.28.448-.45.95-.566 1.475 4.502-1.983 13.268.013 21.79 5.348M448.72 395.833c-12.97-1.713-24.26 2.816-25.22 10.116a7.543 7.543 0 0 0-.03 1.586c2.814-5.892 12.989-9.297 24.502-7.776 12.028 1.589 21.256 7.989 21.768 14.733.356-.742.61-1.52.718-2.341.96-7.3-8.771-14.605-21.738-16.318"/>
        <path fill="#F57C02" d="M133.297 236.668c0 3.787-3.064 6.856-6.844 6.856-3.78 0-6.845-3.069-6.845-6.856 0-3.786 3.064-6.856 6.845-6.856 3.78 0 6.844 3.07 6.844 6.856"/>
        <path fill="#FFD58B" d="M524.227 48.913a3.074 3.074 0 0 1-3.07-3.075 3.074 3.074 0 0 1 3.07-3.076 3.072 3.072 0 0 1 3.068 3.076 3.072 3.072 0 0 1-3.068 3.075"/>
        <path fill="#FFB839" d="M567.752 105.96a3.073 3.073 0 0 1-3.069-3.075 3.073 3.073 0 0 1 3.069-3.076 3.074 3.074 0 0 1 3.07 3.076 3.074 3.074 0 0 1-3.07 3.076M54.848 206.077a3.074 3.074 0 0 1-3.07-3.076 3.074 3.074 0 0 1 3.07-3.075 3.074 3.074 0 0 1 3.07 3.075 3.074 3.074 0 0 1-3.07 3.076"/>
        <path fill="#F57C02" d="M493.961 156.945c0 2.186-1.769 3.96-3.953 3.96a3.958 3.958 0 0 1-3.953-3.96 3.957 3.957 0 0 1 3.953-3.96 3.955 3.955 0 0 1 3.953 3.96"/>
        <path fill="#B5F3D8" d="M656.116 342.856a3.958 3.958 0 0 1-3.953-3.96 3.957 3.957 0 0 1 3.953-3.96 3.955 3.955 0 0 1 3.953 3.96c0 2.186-1.769 3.96-3.953 3.96z"/>
        <path fill="#FFB839" d="M776.694 345.485c0 2.185-1.769 3.96-3.953 3.96a3.958 3.958 0 0 1-3.953-3.96 3.957 3.957 0 0 1 3.953-3.96 3.955 3.955 0 0 1 3.953 3.96"/>
        <path fill="#B5F3D8" d="M154.625 403.239c0 2.185-1.77 3.96-3.953 3.96a3.958 3.958 0 0 1-3.953-3.96 3.957 3.957 0 0 1 3.953-3.96 3.955 3.955 0 0 1 3.953 3.96"/>
        <path fill="#FFFFFE" d="M382.869 116.595c0 2.186-1.77 3.96-3.953 3.96a3.958 3.958 0 0 1-3.953-3.96 3.957 3.957 0 0 1 3.953-3.96 3.955 3.955 0 0 1 3.953 3.96M334.938 212.822l5.27 3.016-5.38 2.817-3.011 5.28-2.812-5.39-5.271-3.015 5.38-2.818 3.01-5.278 2.814 5.388M583.185 157.268l3.441 1.97-3.513 1.84-1.965 3.445-1.836-3.517-3.441-1.97 3.512-1.84 1.965-3.445 1.837 3.517M177.069 322.693l3.441 1.968-3.513 1.84-1.965 3.447-1.836-3.519-3.441-1.968 3.512-1.84 1.965-3.447 1.837 3.519M179.034 182.123l3.441 1.97-3.51 1.838-1.968 3.447-1.836-3.517-3.44-1.97 3.511-1.84 1.967-3.445 1.835 3.517M73.802 391.896l3.442 1.97-3.513 1.837-1.965 3.447-1.837-3.516-3.44-1.97 3.51-1.84 1.967-3.447 1.836 3.519M698.953 294.633l3.439 1.969-3.511 1.84-1.967 3.446-1.837-3.516-3.44-1.97 3.512-1.84 1.965-3.447 1.839 3.518M741.41 433.383l3.441 1.97-3.51 1.84-1.968 3.447-1.836-3.517-3.441-1.97 3.512-1.84 1.965-3.447 1.837 3.517"/>
    </g>
</svg>
