<svg xmlns="http://www.w3.org/2000/svg" xmlns:xlink="http://www.w3.org/1999/xlink" width="530" height="433" viewBox="0 0 530 433"><defs><linearGradient id="a" x1="50%" x2="50%" y1="0%" y2="100%"><stop offset="0%" stop-color="#F6F9FF"/><stop offset="100%" stop-color="#D6DEEA"/></linearGradient><path id="b" d="M116.665 248.657c-7.237 0-14.71-.516-22.39-1.638C34.215 238.247 4.249 191.887.246 121.75-3.833 35.007 50.894 5.81 106.365.777c3.727-.314 7.467-.463 11.206-.463 52.261 0 104.052 29.264 108.894 48.73 19.024 76.45-64.587 32.621-70.896 67.461-.763 10.63 9.49 11.791 23.026 11.79 1.891 0 3.848-.022 5.847-.044a528.21 528.21 0 0 1 6.105-.046c26.02 0 55.511 3.607 46.112 56.296a9.56 9.56 0 0 1-.059.398l-2.738-.442c-3.99-.647-7.916-1.276-11.775-1.9-1.997 12.435-7.157 23.988-14.74 33.661a6.826 6.826 0 0 0-.786-.045h-.015c-3.413.006-7.265 2.485-6.597 7.82-20.844 13.423-49.511 24.664-83.284 24.664m29.337-112.156c-.77.475-1.561.926-2.356 1.375-.95.399-1.858.93-2.72 1.562-1.274.768-2.512 1.586-3.62 2.554-5.453 4.744-15.16 25.362-11.165 31.633 3.011 4.746 1.411 10.187-2.804 13.106-5.35 3.701.438 10.135 5.607 13.108.548.315 1.006.423 1.497.423.533 0 1.105-.127 1.874-.255a17.83 17.83 0 0 1 3.054-.256c.588 0 1.246.026 1.989.088-.002-.138 1.46-.631 1.456-.78-.073-2.514-1.494-3.877-3.102-4.965 2.451-.908 5.767-2.94 8.48-5.084 3.015 2.043 6.185 3.711 6.66 3.711.03 0 .05-.007.057-.02.283-.564 1.41-16.798 1.943-24.783 1.605-1.77 3.05-4.11 4.107-6.83.947-2.43 1.456-4.847 1.563-7.043 1.139.682 2.252 1.179 3.084 1.179.212 0 .405-.032.576-.102.303-.12.944-3.85 1.744-3.94.793-.093.943-.514.94-1.132.015-.619-.155-.507.478-.636.61-.108.76-.724.266-1.175-.778-.7 1.157-.989 2.402-1.51 1.234-.513-.717-1.264-.62-4.51.038-1.453 1.945-7.296 1.672-9.385a61.664 61.664 0 0 0-2.483-1.114c-.649-1.742-2.185-1.672-2.866-1.949-.174-.071-.417-.104-.718-.104-2.088 0-6.974 1.603-10.98 3.322.366-1.585.722-3.17 1.077-4.759a15.21 15.21 0 0 1-.589 1.548c-.87 1.944-2.141 3.433-3.627 4.682-1.56.811-2.66 1.549-2.876 2.04"/><path id="c" d="M.056 15.708c-.806-5.037 7.264-7.01 9.366-3.942C8.75 6.955 12.55.646 19.067.102c12.303-1.176 8.737 8.172 14.65 8.307C39.121 8.305 35.094.32 47.381 4.32c2.941.894 4.433 4.256 6.511 8.41 4.21-4.735 6.791-1.651 7.565 2.977a213.163 213.163 0 0 1-61.4 0z"/><path id="d" d="M.055 14.225c-.781-4.562 7.031-6.348 9.066-3.57C8.469 6.298 12.147.585 18.457.093c11.91-1.066 8.458 7.4 14.182 7.522C37.869 7.52 33.97.29 45.865 3.913c2.847.81 4.29 3.854 6.302 7.616 4.076-4.289 6.574-1.496 7.323 2.696a220.41 220.41 0 0 1-59.435 0z"/><path id="e" d="M.065 18.967c-.923-6.083 8.31-8.464 10.714-4.76C10.01 8.396 14.356.78 21.812.123c14.076-1.421 9.996 9.865 16.761 10.03 6.18-.127 1.574-9.767 15.63-4.937 3.366 1.08 5.072 5.139 7.448 10.155 4.818-5.718 7.77-1.994 8.655 3.595a231.171 231.171 0 0 1-70.241 0z"/><path id="f" d="M.065 18.967c-.923-6.083 8.31-8.464 10.714-4.76C10.01 8.396 14.356.78 21.812.123c14.076-1.421 9.996 9.865 16.761 10.03 6.18-.127 1.574-9.767 15.63-4.937 3.366 1.08 5.072 5.139 7.448 10.155 4.818-5.718 7.77-1.994 8.655 3.595a231.171 231.171 0 0 1-70.241 0z"/><path id="g" d="M.072 20.285c-1.025-6.438 9.234-8.958 11.906-5.039-.856-6.148 3.974-14.21 12.26-14.905 15.64-1.504 11.106 10.442 18.624 10.615C49.729 10.823 44.61.62 60.23 5.732c3.74 1.142 5.635 5.439 8.276 10.748 5.353-6.052 8.634-2.11 9.616 3.805a269.528 269.528 0 0 1-78.05 0z"/><path id="h" d="M.957 26.87c-1.42-8.617 12.784-11.99 16.484-6.745-1.186-8.23 5.501-19.02 16.974-19.95C56.069-1.838 49.793 14.152 60.2 14.383c9.51-.178 2.422-13.835 24.048-6.993 5.176 1.53 7.8 7.281 11.459 14.388 7.41-8.101 11.952-2.826 13.314 5.091a385.879 385.879 0 0 1-108.064 0z"/><path id="i" d="M.317 8.404C-.41 2.71 3.783.064 7.498.059 3.783.065-.41 2.71.318 8.404H.316"/><path id="k" d="M.62 3.48C1.429 1.966 2.309.732 3.146.04c.06.031.083.05.063.062C2.361.542 1.303 2.246.621 3.48"/><path id="m" d="M2.852 12.206L.32.874c.238 1.008.752 2.954 1.353 3.822l.033.048c-.058.163-.085.256-.075.266.06.034.352.279.798.643 1.189 1.318 2.373 1.87 2.621 2.045-.57.651-1.171 1.813-1.721 3.242-.288.717-.477 1.266-.477 1.266M.32.874C.23.489.18.24.18.24l.14.634"/><path id="o" d="M1.193 1.664C.65 1.214.293.91.218.868.206.855.238.74.31.538c.288.418.586.793.883 1.126"/></defs><g fill="none" fill-rule="evenodd"><use fill="url(#a)" transform="translate(131.29 128.033)" xlink:href="#b"/><path fill="#CDE0FF" d="M358.42 1.778c-4.426-.6-8.853-.726-13.1-.379l-.082-1.205c4.32-.354 8.82-.223 13.316.385l-.135 1.2zm-38.37 7.113l-.558-.933a56.026 56.026 0 0 1 12.108-5.29l.32 1.037a54.92 54.92 0 0 0-11.87 5.186zm62.883.89a77.424 77.424 0 0 0-11.951-5.113l.317-1.112a78.6 78.6 0 0 1 12.112 5.182l-.478 1.042zm21.032 14.225a80.964 80.964 0 0 0-9.901-8.025l.618-.866a81.997 81.997 0 0 1 10.035 8.132l-.752.76zm-102.252 2.668l-.864-.616c2.453-3.717 5.195-7.1 8.151-10.054l.727.785c-2.903 2.902-5.6 6.229-8.014 9.885zm-119.902.889a90.433 90.433 0 0 0-13.188-.25l-.05-1.395a91.602 91.602 0 0 1 13.317.252l-.08 1.393zm-38.64 3.556l-.342-1.115a93.075 93.075 0 0 1 13.127-3.33l.19 1.154a92.203 92.203 0 0 0-12.976 3.291zm65.032.89a120.471 120.471 0 0 0-12.997-3.29l.204-1.156c4.393.852 8.806 1.969 13.113 3.318l-.32 1.127zm23.758 9.78a122.595 122.595 0 0 0-11.897-6.037l.424-1.076a123.883 123.883 0 0 1 12.004 6.09l-.53 1.023zm-112.437 1.778l-.664-.873c3.344-2.657 7.062-5.056 11.048-7.13l.492.985c-3.926 2.043-7.585 4.404-10.876 7.018zm300.126 1.778c-1.863-3.748-4.2-7.427-6.944-10.932l.933-.627c2.79 3.562 5.163 7.3 7.057 11.113l-1.046.446zm-129.363 4.446l-.978-.32c1.261-4.283 2.741-8.363 4.397-12.128l.93.452c-1.638 3.722-3.101 7.758-4.35 11.996zm-36.347 7.112a130.105 130.105 0 0 0-10.795-7.993l.653-.898a131.297 131.297 0 0 1 10.888 8.063l-.746.828zm-150.956 6.224l-.992-.469a54.052 54.052 0 0 1 7.142-11.09l.848.693a53.002 53.002 0 0 0-6.998 10.866zM425.97 70.24l-1.312-.045c.035-.713.054-1.424.054-2.134 0-3.636-.456-7.314-1.352-10.93l1.283-.228a46.395 46.395 0 0 1 1.38 11.158c0 .724-.019 1.451-.053 2.18zm-154.44 5.335a129.917 129.917 0 0 0-8.854-9.922l.835-.747a131.255 131.255 0 0 1 8.93 10.007l-.911.662zm13.4.89l-.948-.124a183.485 183.485 0 0 1 1.728-13.214l.935.215a181.211 181.211 0 0 0-1.714 13.122zM96.678 88.911c-.007-.372-.01-.742-.01-1.11 0-4.198.47-8.31 1.4-12.227l1.263.221c-.911 3.845-1.373 7.882-1.373 12.005 0 .363.003.727.01 1.093l-1.29.018zm187.127 7.113l-.973-1.844a138.748 138.748 0 0 0-4.175-7.36l.916-.577c1.113 1.825 2.2 3.71 3.245 5.623.025-.869.054-1.729.088-2.583l1.078.044a220.187 220.187 0 0 0-.138 4.605l-.041 2.092zm-181.93 18.671c-1.477-4.44-2.632-8.852-3.432-13.117l1.047-.22c.79 4.213 1.932 8.573 3.392 12.962l-1.008.375zm11.625 24.006a155.097 155.097 0 0 1-6.18-11.955l.97-.492a153.728 153.728 0 0 0 6.133 11.866l-.923.581zm14.196 21.34c-1.068-2.087-2.372-4.213-3.871-6.32a203.8 203.8 0 0 1-3.188-4.603l.864-.636a206.303 206.303 0 0 0 3.17 4.58c1.531 2.15 2.862 4.322 3.956 6.455l-.93.523zm3.76 25.783l-1.054-.343c1.031-3.17 1.555-6.373 1.555-9.519 0-1.11-.065-2.236-.193-3.348l1.102-.126c.133 1.153.2 2.322.2 3.474 0 3.262-.542 6.58-1.61 9.862zm-14.442 21.34l-.816-.767c3.56-3.435 6.447-6.675 8.827-9.903l.939.626c-2.418 3.279-5.345 6.564-8.95 10.043zm-19.697 16.892l-.65-.848c3.93-3.047 7.097-5.603 9.966-8.043l.688.819c-2.882 2.451-6.06 5.015-10.004 8.072zM76.07 240.951l-.71-.858c3.593-2.751 7.488-5.59 10.856-8.033l.685.875c-3.362 2.44-7.25 5.272-10.831 8.016zm-18.414 17.782l-.938-.614c2.135-3.14 5.076-6.43 8.99-10.055l.775.803c-3.852 3.567-6.74 6.795-8.827 9.866zm.016 24.006c-3.473-4.063-5.237-8.12-5.393-12.406l1.093-.041c.146 4.016 1.821 7.845 5.121 11.705l-.821.742zm21.656 15.115c-4.187-2.061-7.91-4.153-11.07-6.218l.585-.895c3.123 2.042 6.809 4.112 10.956 6.155l-.47.958z"/><use fill="#CDE0FF" transform="translate(69.146 211.61)" xlink:href="#c"/><use fill="#CDE0FF" transform="translate(470.51 247.17)" xlink:href="#d"/><use fill="#CDE0FF" transform="translate(236.156 82.992)" xlink:href="#e"/><use fill="#CDE0FF" transform="translate(333.245 108.25)" xlink:href="#f"/><use fill="#CDE0FF" transform="translate(21.633 158.767)" xlink:href="#g"/><path fill="#1A4B76" d="M386.253 370.762c-1.29 10.426 4.2 23.238 24.168 25.776 22.876.41 31.342-14.444 30.656-25.776h-54.824"/><path fill="#FFB839" d="M438.452 366.316V178.713h-51.49v187.603h51.49"/><path fill="#F1F1F1" d="M440.228 178.713l-26.633-48.902-26.632 48.902h53.265"/><path fill="#1A4B76" d="M423.36 148.483l-9.764-18.672 9.765 18.672m-19.529 0h-.002l9.766-18.672-9.764 18.672"/><path fill="#F57C02" d="M423.36 148.483h-19.53l9.765-18.672 9.766 18.672"/><path fill="#FFFFFE" d="M425.136 366.316h1.776V179.602h-1.776zm-24.857 0h1.775V179.602h-1.775z"/><path fill="#EEA530" d="M442.001 372.54h-55.926v-8.002h55.928l-.002 8.002"/><use fill="#CDE0FF" transform="translate(93.741 321.142)" xlink:href="#h"/><path fill="#207F55" d="M508.562 334.114c-2.69 9.248-6.968 18.275-16.032 22.426-8.153 3.74-17.318 3.272-24.663 9.062-10.688 8.424-14.978 21.302-28.564 27.05-5.593 2.366-11.56 3.176-17.593 3.113-1.003-.01-2.59.413-4.475.835-4.59 1.029-10.936 2.058-14.853-3.157-12.156-16.184 76.547-106.774 119.264-95.512 19.58 5.164-10.74 28.1-13.084 36.183"/><path fill="#187070" d="M411.52 398.324c-3.373 0-6.892-.994-9.362-4.257 2.25 2.97 5.323 3.829 8.378 3.829 2.09 0 4.173-.403 5.975-.805.49-.11.96-.22 1.402-.32.674-.024 1.332-.06 1.978-.111-1.908.713-5.07 1.664-8.37 1.664m-9.394-4.298"/><path fill="#101F2F" d="M417.892 396.546c1.17-.255 2.156-.456 2.854-.456h.033a28.97 28.97 0 0 1-.936.352c-.637.048-1.286.082-1.951.104m-16.445-4.392c-.37-1.464-.215-3.283.404-5.388-.619 2.105-.774 3.924-.404 5.388"/><path fill="#18724A" d="M410.245 397.435c-3.182 0-6.384-.889-8.728-3.966l-.015-.018a.823.823 0 0 1-.016-.022v-.001a5.412 5.412 0 0 1-.917-1.994c-.39-1.613-.226-3.616.428-5.934l.01-.038.002-.006.009-.03a.44.44 0 0 0 .007-.024v-.001c4.374-15.237 29.723-43.904 57.887-64.43.905 37.99-13.318 64.622-37.932 74.797h-.035c-.737 0-1.778.22-3.014.502-.461.105-.95.218-1.461.332-1.877.416-4.047.833-6.225.833"/><path fill="#42B381" d="M401.623 392.99l-1.262-1.05c45.289-53.532 73.79-67.23 103.972-81.735 2.375-1.146 4.76-2.292 7.16-3.46l.725 1.464c-2.4 1.17-4.785 2.32-7.17 3.465-30.013 14.427-58.362 28.053-103.425 81.316"/><path fill="#42B381" d="M490.113 336.086c-9.314-4.483-15.852-3.142-24.903-1.28-1.324.27-2.695.553-4.13.828l-.352-1.403c1.423-.271 2.79-.55 4.101-.821 9.06-1.861 16.215-3.331 26.083 1.424l-.8 1.252m-52.985 19.561l-.368-1.356c1.575-.315 2.989-.635 4.234-.917 5.725-1.296 9.18-2.079 17.072-.01l-.478 1.333c-7.452-1.956-10.548-1.25-16.176.022-1.259.288-2.684.607-4.284.928m44.079-32.008l-1.835-.068c3.798-2.738 7.39-7.883 10.081-11.605 1.712-2.367 3.48-4.813 5.515-6.999l1.271 1.146c-1.963 2.104-3.695 4.507-5.381 6.832-2.768 3.834-5.633 7.795-9.651 10.694"/><path fill="#289163" d="M459.21 271.39c4.017 10.162 6.433 21.238 1.127 31.297-4.77 9.051-13.393 15.046-16.002 25.372-3.799 15.02 1.296 29.553-6.988 44.205-3.415 6.035-8.25 10.932-13.754 15.102-3.142 2.375-8.985 14.164-19.116 11.442-22.284-5.98-17.874-21.479-22.39-30.2-9.283-17.935-12.096-33.255-1.894-47.056 4.177-5.649 11.257-8.613 15.146-14.44 3.561-5.335 2.017-17.532 5.266-24.232 3.534-7.284 11.49-12.586 13.155-20.485 3.557-16.895 21.255-36.197 32.067-32.556 21.963 7.397 9.872 32.674 13.383 41.55"/><path fill="#FFF" d="M402.868 400.103l-1.62-.062c3.01-80.07 18.76-112.35 35.437-146.527a1549.55 1549.55 0 0 0 3.943-8.118l1.457.722c-1.314 2.731-2.63 5.432-3.946 8.126-16.597 34.013-32.275 66.138-35.271 145.859"/><path fill="#FFF" d="M416.703 305.856l-1.25-1.046a371.263 371.263 0 0 0 2.994-3.695c6.565-8.186 11.753-14.65 24.276-16.598l.25 1.62c-11.9 1.85-16.664 7.788-23.257 16.004a312.005 312.005 0 0 1-3.013 3.715m-7.996 37.344l-1.244-1.086a164.515 164.515 0 0 0 3.015-4.14c4.012-5.646 6.436-9.052 15.06-12.557l.567 1.608c-8.196 3.33-10.381 6.407-14.354 11.989-.883 1.242-1.884 2.65-3.044 4.185m16.812-61.958l-2.077 1.498c1.737-4.886 1.586-12.003 1.322-17.005-.169-3.172-.343-6.451-.016-9.668l2.025.132c-.318 3.117-.148 6.345.02 9.469.274 5.13.556 10.435-1.274 15.574"/><path fill="#F57C02" d="M177.431 83.319c18.776-.36 12.14 44.793.426 47.685-3.626.895-33.459 5.518-44.387-.086-11.784-6.04-9.525-20.067-7.287-40.196 1.386-12.474 44.931-10.268 51.248-6.936 0 0-.14-.464 0-.467"/><path fill="#FFB839" d="M168.776 107.417c0 6.624-5.162 12.003-11.539 12.003-6.37 0-11.543-5.379-11.543-12.003 0-6.626 5.173-12.004 11.543-12.004 6.377 0 11.539 5.378 11.539 12.004"/><path fill="#FFF" stroke="#FFF" stroke-width=".901" d="M164.337 107.863l-9.766-6.226v12.448l9.766-6.222-9.766-6.226v12.448l9.766-6.222"/><path fill="#1056CA" d="M160.254 252.548c-1.32 29.616-4.29 51.17-6.46 66.917-5.856 42.494-6.609 47.955 41.607 76.498 18.094 10.713 26.358 16.97 31.295 20.708 7.46 5.65 7.46 5.65 24.04 7.383 10.206 1.067 25.627 2.68 52.138 6.468 2.33.333 4.414.495 6.372.495 16.611 0 33.034-10.338 86.444-71.603 16.64-19.092 16.66-29.015 16.707-50.755.006-3.183.013-6.475.069-10.132.883-57.308-15.106-69.7-53.735-99.637-3.23-2.504-6.616-5.128-10.161-7.91-31.124-24.42-60.115-28.067-74.626-28.067-8.505 0-13.442 1.241-14.005 1.575-5.254 3.379-16.174 6.696-27.737 10.208-18.585 5.646-39.651 12.045-43.136 20.178-5.797 13.537-5.797 13.537-7.989 17.438-2.101 3.737-6.468 11.508-20.823 40.236zM309.246 433c-2.053 0-4.228-.168-6.652-.515-26.474-3.783-41.873-5.393-52.064-6.46-16.808-1.757-17.128-1.79-25.03-7.773-4.903-3.712-13.11-9.926-31.108-20.583-49.35-29.214-48.445-35.776-42.562-78.475 2.17-15.746 5.143-37.312 6.453-66.946l.01-.21.094-.189c14.452-28.926 18.85-36.75 20.962-40.51 2.14-3.808 2.14-3.808 7.896-17.247 3.848-8.98 25.382-15.522 44.381-21.293 11.427-3.47 22.22-6.75 27.245-9.982 1.23-.791 7.152-1.887 15.073-1.887 14.767 0 44.256 3.701 75.848 28.49 3.543 2.779 6.925 5.4 10.152 7.901 39.184 30.368 55.402 42.937 54.504 101.236-.056 3.644-.063 6.93-.07 10.105-.046 22.25-.067 32.405-17.194 52.055C343.267 422.564 326.48 433 309.246 433z"/><path fill="#1056CA" d="M356.772 200.051l-17.748-11.813 3.558-5.969 17.748 11.817-3.558 5.965M220.055 415.218L202.31 403.4l3.557-5.965 17.749 11.814-3.56 5.969m158.917-40.904l11.795-17.778 5.96 3.565-11.802 17.774-5.953-3.56M162.36 238.276l11.795-17.775 5.96 3.562-11.8 17.777-5.954-3.564"/><path fill="#FF7233" d="M293.748 214.189c22.433 3.59 42.43 15.946 55.58 33.875 7.797-5.565 15.895-11.346 24.318-17.353-17.764-24.253-44.777-40.945-75.124-45.775-1.313 8.054-2.887 17.71-4.774 29.253m70.222 97.891c-3.585 22.214-15.924 42.018-33.824 55.041 5.557 7.723 11.327 15.753 17.334 24.09 24.212-17.587 40.88-44.348 45.697-74.403-10.114-1.639-19.845-3.212-29.207-4.728"/><path fill="#FFFFFE" d="M292.704 382.44a83.66 83.66 0 0 1-26.177-.117c-1.519 9.502-3.094 19.388-4.738 29.657a113.34 113.34 0 0 0 35.393.138c18.637-2.855 35.54-10.102 49.832-20.546-6.042-8.433-11.847-16.555-17.436-24.367a83.685 83.685 0 0 1-36.874 15.235m72.18-97.776a83.999 83.999 0 0 1-.118 26.228c9.494 1.522 19.362 3.1 29.617 4.745a113.808 113.808 0 0 0 .137-35.435c-2.852-18.675-10.093-35.604-20.518-49.92-8.426 6.043-16.526 11.858-24.325 17.456a84.02 84.02 0 0 1 15.207 36.926m-96.729-70.501a83.577 83.577 0 0 1 26.182.12c1.873-11.705 3.434-21.495 4.738-29.66a113.278 113.278 0 0 0-35.387-.147c-18.646 2.855-35.549 10.106-49.838 20.546 4.802 6.709 10.555 14.749 17.436 24.37a83.752 83.752 0 0 1 36.869-15.229m-72.168 96.877a83.994 83.994 0 0 1 .117-26.224c-11.686-1.874-21.46-3.44-29.618-4.744-1.859 11.445-1.988 23.362-.144 35.44 2.855 18.672 10.095 35.603 20.517 49.915a59032.48 59032.48 0 0 0 24.328-17.463 84.047 84.047 0 0 1-15.2-36.924"/><path fill="#FF7233" d="M229.83 229.478c-6.839-9.512-12.557-17.46-17.33-24.092-24.22 17.587-40.879 44.348-45.7 74.404 8.045 1.3 17.685 2.86 29.21 4.727 3.582-22.21 15.92-42.013 33.82-55.04m37.286 152.937c-22.429-3.588-42.423-15.951-55.575-33.88-9.6 6.853-17.627 12.583-24.323 17.359 17.762 24.25 44.778 40.94 75.123 45.768 1.657-10.127 3.244-19.877 4.775-29.247"/><path fill="#EEECE7" d="M270.233 224.791a69.962 69.962 0 0 1 22.522.102c.656-4.26 1.284-8.31 1.881-12.158a81.074 81.074 0 0 0-26.174-.123c-13.778 2.178-26.283 7.72-36.857 15.695 2.193 3.16 4.499 6.481 6.923 9.976 9.094-6.846 19.844-11.62 31.705-13.492"/><path fill="#FC5D16" d="M237.82 239.108l-6.906-9.716c-17.96 13.227-30.338 33.334-33.931 55.886l11.648 1.907c3.08-19.427 13.724-36.707 29.189-48.077m102.147 16.069c3.18-2.269 6.42-4.578 9.71-6.924-13.203-17.982-33.279-30.375-55.8-33.976-.605 3.694-1.24 7.581-1.904 11.67 19.39 3.084 36.642 13.747 47.994 29.23m-16.035 103.202c2.268 3.182 4.57 6.423 6.91 9.715 17.954-13.222 30.331-33.33 33.927-55.885-3.95-.65-7.836-1.282-11.655-1.907-3.075 19.424-13.72 36.705-29.182 48.077"/><path fill="#EEECE7" d="M365.576 284.974c-2.102-13.798-7.445-26.319-15.143-36.91l-9.634 6.941a72.489 72.489 0 0 1 13.024 31.756 72.536 72.536 0 0 1-.097 22.545c3.845.618 7.757 1.242 11.733 1.885a84.28 84.28 0 0 0 .117-26.217M208.81 308.957a72.568 72.568 0 0 1 .1-22.555l-11.73-1.885a84.23 84.23 0 0 0-.116 26.216 84.165 84.165 0 0 0 15.146 36.912c3.05-2.195 6.257-4.504 9.63-6.935a72.535 72.535 0 0 1-13.03-31.753"/><path fill="#FC5D16" d="M268.891 370.647c-19.396-3.082-36.649-13.74-48.003-29.226-3.398 2.424-6.628 4.727-9.7 6.916 13.204 17.984 33.279 30.385 55.797 33.983.647-3.954 1.28-7.848 1.906-11.673"/><path fill="#EEECE7" d="M292.405 370.025a69.98 69.98 0 0 1-22.518-.098c-.62 3.985-1.244 8.042-1.884 12.16a81.17 81.17 0 0 0 26.169.12c13.78-2.174 26.286-7.718 36.862-15.698-2.346-3.38-4.654-6.707-6.928-9.973-9.095 6.846-19.838 11.617-31.701 13.49"/><path fill="#FC5D16" d="M187.212 365.427c-3.261 2.302-6.207 4.383-8.872 6.26 19.548 26.334 49.262 44.482 82.59 49.754.593-3.575 1.173-7.101 1.747-10.58-30.483-4.793-57.622-21.36-75.465-45.434"/><path fill="#EEECE7" d="M167.536 315.08c-1.849-11.953-1.72-23.747.144-35.075l-10.802-1.711a121.183 121.183 0 0 0-.176 38.4c3.127 20.213 11.088 38.556 22.547 54.068 2.66-1.883 5.6-3.97 8.856-6.28a111.79 111.79 0 0 1-20.569-49.402m181.139 76.131c-14.282 10.465-31.172 17.727-49.795 20.588a112.947 112.947 0 0 1-35.367-.138c-.567 3.561-1.14 7.17-1.724 10.83a123.304 123.304 0 0 0 38.704.177 123.657 123.657 0 0 0 54.51-22.584 6355.202 6355.202 0 0 1-6.328-8.873"/><path fill="#FC5D16" d="M348.79 392.193a6890.43 6890.43 0 0 0 6.25 8.799c26.289-19.37 44.415-48.815 49.678-81.845l-10.562-1.732c-4.782 30.207-21.33 57.103-45.367 74.778m-50.602-207.347c30.478 4.794 57.61 21.362 75.45 45.435 2.926-2.062 5.885-4.153 8.887-6.267-19.542-26.33-49.261-44.479-82.589-49.747-.526 3.173-1.103 6.685-1.748 10.579"/><path fill="#EEECE7" d="M394.204 279.747a111.265 111.265 0 0 1-.137 35.067l10.808 1.712c2.048-12.41 2.2-25.324.18-38.4-3.128-20.216-11.085-38.554-22.541-54.069-2.996 2.121-5.949 4.219-8.868 6.287a111.786 111.786 0 0 1 20.558 49.403"/><path fill="#FC5D16" d="M212.963 205.29c-2.3-3.232-4.379-6.154-6.253-8.795-26.295 19.37-44.417 48.818-49.676 81.845l10.551 1.732c4.788-30.21 21.33-57.106 45.378-74.782"/><path fill="#EEECE7" d="M263.765 184.793a112.845 112.845 0 0 1 35.36.147c.636-3.986 1.205-7.581 1.725-10.83a123.132 123.132 0 0 0-38.711-.179 123.6 123.6 0 0 0-54.503 22.583c1.898 2.665 4.002 5.612 6.33 8.872 14.278-10.464 31.168-17.73 49.8-20.593"/><path fill="#0A0B09" d="M266.42 321.029c4.5-1.681 11.939-7.206 13.088-10.18 1.078-2.79-3.687-2.555-7.396-2.685.811-.205 1.597-.427 2.317-.699 2.288-.858 4.041-2.141 5.254-3.69a27.416 27.416 0 0 1-2.358-5.323c3.634-.24 7.855-4.395 10.178-10.424 1.24-3.205 1.724-6.391 1.532-9.073 1.177-6.238-1.495-12.308-6.707-14.356-.267-.107-.54-.183-.811-.264.241-.933.482-1.864.712-2.797a622.37 622.37 0 0 0 1.44-6.361c-.17.525-.361 1.043-.585 1.547-1.781 4.006-5.247 6.082-8.791 8.097-.942.398-1.844.93-2.698 1.561-1.266.768-2.494 1.586-3.593 2.554-5.412 4.743-15.043 25.357-11.08 31.628 2.989 4.744 1.401 10.185-2.782 13.103-5.31 3.7.435 10.133 5.564 13.105 1.134.658 1.88.413 3.345.168 1.103-.184 2.613-.37 5.004-.168-.002-.137 1.448-.63 1.445-.779-.072-2.514-1.482-3.876-3.078-4.964m106.371 87.076c3.264-1.53.228-4.821-1.061-7.626 2.612-.676 5.653 1.549 9.333 1.495 2.083-.06 10.687-3.794 10.327-7.778-6.162 2.233-7.118 3.021-8.394 2.88-7.665.71-13.405-3.74-20.196-5.865-5.98 8.666 6.682 9.638 9.991 16.894"/><path fill="#F7D0C2" d="M383.702 394.683c-7.097-2.57-12.6-7.588-14.25-11.474l-5.562 2.956c.431.73-.009 4.321-.009 4.321s10.259 4.61 16.741 5.861c4.202.81 5.453-1.112 5.453-1.112s-.372.172-2.373-.552"/><path fill="#0A0B09" d="M354.647 415.218c3.376-.336 1.642-4.327 1.33-7.307 2.534.226 4.591 3.247 7.894 4.392 1.883.623 10.684 0 11.55-3.756-6.17.04-7.26.45-8.36-.094-7.06-1.837-10.868-7.767-16.304-11.907-7.934 5.973 3.1 10.968 3.89 18.672"/><path fill="#F7D0C2" d="M367.228 407.185c-5.628-4.869-9.016-11.61-9.27-15.974l-6 1.074c.153.862-1.393 4.245-1.393 4.245s7.84 7.904 13.329 11.27c3.557 2.181 5.313.707 5.313.707s-.394.047-1.979-1.322"/><path fill="#2879FF" d="M332.463 355.33c-5.751-12.263 7.574-14.707 9.72-9.67 9.268 21.763 17.183 46.284 16.305 47.349-.881 1.063-6.72.853-6.72.853s-19.05-37.979-19.305-38.533"/><path fill="#0D0F0E" d="M355.003 378.764l-.12-.068a412.563 412.563 0 0 0-1.809-5.603 674.05 674.05 0 0 1 1.93 5.67m-17.12-13.69l-1.523-3.202 1.523 3.202"/><path fill="#0D0E0E" d="M336.36 363.649c-2.04-4.585-3.471-7.807-3.538-7.972l-.012-.03.012.03c.068.165 1.498 3.385 3.539 7.971h-.001"/><path fill="#0E1220" d="M331.516 351.03a20.707 20.707 0 0 1-.077-.547h.001c.022.18.048.363.077.547h-.001"/><g transform="translate(330.146 342.31)"><mask id="j" fill="#fff"><use xlink:href="#i"/></mask><path fill="#0F131D" d="M6.838-2.58L-2.588-.307l.12.48 9.426-2.274" mask="url(#j)"/><path fill="#0F131D" d="M6.958-2.1L-2.468.171l.958 3.833 9.427-2.273" mask="url(#j)"/><path fill="#0E131D" d="M7.917 1.732L-1.51 4.005l.24.958L8.156 2.69" mask="url(#j)"/><path fill="#0E121C" d="M8.156 2.69L-1.27 4.963l.24.958 9.426-2.273" mask="url(#j)"/><path fill="#0E121C" d="M8.396 3.648l-9.427 2.273 1.199 4.79 9.426-2.273" mask="url(#j)"/></g><path fill="#0D0E0E" d="M332.193 355.647c-.617-1.465-.988-2.793-1.159-3.986.17 1.193.542 2.52 1.16 3.986m9.493-9.652l-.051-.128.051.128"/><path fill="#1056CA" d="M355.003 378.764c-4.726-2.553-12.023-11.31-17.227-12.97l-.023-.005c-.542-1.07-1.06-2.09-1.545-3.05-2.148-4.24-3.654-7.216-3.725-7.37l-.013-.027-.015-.032-.02-.042-.04-.087-.007-.015-.011-.025c-.652-1.419-1.044-2.705-1.224-3.861-.016-.1-.03-.2-.042-.3-.673-5.308 3.206-7.774 6.642-7.78h.016c1.993 0 3.835.829 4.552 2.411l.024.057c.019.041.036.083.054.124 3.113 7.241 7.637 19.112 10.768 27.636a375.852 375.852 0 0 1 1.836 5.336"/><path fill="#2879FF" d="M342.597 342.807l-.018-.02c-3.371-6.007-12.6 2.343-34.608-1.625l-31.804.495c-.034 1.894-8.179 11.554-9.072 14.128-3.049 8.903 1.525 16.884 20.42 16.576l52.187-8.61c9.104 8.975 24.272 23.904 24.272 23.904s5.619-1.723 6.11-3.03c.492-1.309-16.187-22.056-27.487-41.818"/><path fill="#F7D0C2" d="M278.711 274.834c1.432-2.642-2.503-10.964-2.217-11.87.584-1.882 15.328-7.749 17.655-6.794 1.592.653 7.89-.614-3.629 24.236a3.353 3.353 0 0 1-1.718-1.252c-1.679-2.308-4.93 6.612-5.31 12.816-.419 6.444-1.777 26.573-2.092 27.202-.216.416-10.64-5.41-12.2-8.788.69-3.176-9.1-19.184-8.246-22.266 9.25 2.552 13.745-1.86 15.89-6.273 1.768-3.633 1.942-7.266 1.867-7.01"/><path fill="#F7D0C2" d="M297.446 268.962c.037-1.44 1.865-7.23 1.603-9.3-5.42-2.615-6.11-2.734-8.613 1.807-1.315 2.399-6.569 15.264-6.451 15.39.298.174 6.286 5.807 8.467 4.89.29-.119.905-3.816 1.672-3.904.76-.092.904-.51.9-1.122.016-.614-.147-.502.46-.63.583-.107.729-.717.254-1.165-.746-.693 1.11-.98 2.303-1.496 1.183-.508-.688-1.253-.595-4.47"/><path fill="#FFFFFE" d="M296.395 277.059c.21-.128-1.582-.584-3.534-.54 0 0 3.421 1.106 3.355.846-.062-.182-.178-.19.179-.306"/><g transform="translate(284.87 280.072)"><mask id="l" fill="#fff"><use xlink:href="#k"/></mask><path fill="#0B0B09" d="M.584-.481L-.833 3.194l3.876.765L4.461.284" mask="url(#l)"/></g><g transform="translate(283.095 272.959)"><mask id="n" fill="#fff"><use xlink:href="#m"/></mask><path fill="#D88A6E" d="M.523-.994L-2.923 11.36l3.156.861L3.68-.133" mask="url(#n)"/><path fill="#D7896D" d="M3.68-.133L.233 12.221l.357.097L4.037-.035" mask="url(#n)"/><path fill="#D7896D" d="M4.037-.035L.59 12.318l.025.008L4.062-.03" mask="url(#n)"/><path fill="#D7886D" d="M4.062-.029L.615 12.326l.051.013L4.113-.015" mask="url(#n)"/><path fill="#D8886D" d="M4.113-.015L.666 12.34l.23.063L4.341.048" mask="url(#n)"/><path fill="#D8876D" d="M4.342.048L.895 12.402l.026.007L4.367.055" mask="url(#n)"/><path fill="#D8876D" d="M4.367.055L.921 12.409l.025.007L4.393.062" mask="url(#n)"/><path fill="#D8876D" d="M4.393.062L.946 12.416l.255.069L4.647.131" mask="url(#n)"/><path fill="#D8866D" d="M4.647.131L1.201 12.485l.662.18L5.309.312" mask="url(#n)"/><path fill="#D8866D" d="M5.31.312L1.862 12.665l.025.008L5.335.318" mask="url(#n)"/><path fill="#D8856D" d="M5.335.318L1.888 12.673l.026.006L5.36.326" mask="url(#n)"/><path fill="#D8856D" d="M5.36.326L1.914 12.679l.254.07L5.615.395" mask="url(#n)"/><path fill="#D8846D" d="M5.615.395L2.168 12.749l.306.083L5.92.478" mask="url(#n)"/><path fill="#D7846D" d="M5.92.478L2.474 12.832l.025.007L5.946.485" mask="url(#n)"/><path fill="#D7836D" d="M5.946.485L2.499 12.839l.026.007L5.97.492m.001 0L2.525 12.846l.229.063L6.2.554" mask="url(#n)"/><path fill="#D7826D" d="M6.2.554L2.755 12.91l.076.02L6.277.575" mask="url(#n)"/><path fill="#D7826D" d="M6.277.575L2.83 12.93l.305.084L6.582.659" mask="url(#n)"/><path fill="#D7826D" d="M6.582.659L3.135 13.013l.026.007L6.608.665" mask="url(#n)"/><path fill="#D7816D" d="M6.608.665L3.16 13.02l1.545.421L8.152 1.087" mask="url(#n)"/></g><g transform="translate(284.87 276.515)"><mask id="p" fill="#fff"><use xlink:href="#o"/></mask><path fill="#D88A6E" d="M.198.263l-.358 1.3.87.24.359-1.3" mask="url(#p)"/><path fill="#D7896D" d="M1.069.504l-.358 1.3.435.12.358-1.3m0 0l-.358 1.3.032.009.358-1.3" mask="url(#p)"/><path fill="#D7886D" d="M1.536.633l-.358 1.3.03.008.359-1.3" mask="url(#p)"/></g><path fill="#0A0B09" d="M282.412 248.726c-14.273 11.298-3.235 26.9-3.235 26.9.87-1.486 2.438-6.114 2.106-7.017-.451-1.237-1.825-1.376-1.155-2.936 2.16-5.026 2.708.782 2.708.782.597-2.17 6.967-9.058 9.18-10.648 2.184-1.588 4.396-1.242 4.396-1.242-.387-3.029-7.927-10.644-14-5.84"/><path fill="#FFFFFE" d="M292.125 337.628c3.795 5.377 14.94 3.81 14.94 3.81-3.153 6.622-14.943 30.694-17.745 30.694-7.769 0-26.115 3.714-28.217-11.262 0 0 7.65-27.063-.843-65.944-1.23-5.639 2.257-9.52 8.057-9.52 5.801 0 28.214 24.133 26.952 31.699 0 0-6.293 16.058-3.144 20.523"/><path fill="#B4B5B4" d="M340.905 306.75c-.174-.092-1.394 1.01-1.57.975l-15.403 31.918 2.87-.175c.215-.293.595-1.06.742-1.36l13.892-29.263c.404-.8.384-1.63-.53-2.094"/><path fill="#FFFFFE" d="M341.783 307.769c-.177-.084-1.378-.665-1.542-1.024l-15.581 31.937c.032.13-.03.122-.056.052l-39.722 2.33c-.034.176.018 1.5.033 1.696.06 1.024.768 1.375 1.614 1.323l36.807-2.154c.619-.04 1.137-.288 1.344-.822.012.065.026.111.049.123.923.46 1.609-.004 2.016-.798l15.579-30.579c.404-.794.384-1.62-.54-2.084"/><path fill="#F7D0C2" d="M301.027 335.197a9.926 9.926 0 0 1-1.006.58c-3.979 1.97-6.56 1.903-7.71 2.194-.429.109-.832.215-1.226.312.4 1.047.803 2.09 1.196 3.138 3.286-.292 8.548-.11 10.474-.334 2.508-.288 2.742-.6 2.742-.6-.389-.723-2.661-.614-3.894-.732-.926.093-2.083.083-2.17.031-.408-.26 1.234-.86 2.603-.727 1.342-.134 4.325 1.25 4.596 1.365.562.235 3.529.288 3.917.123.925.03-8.08-4.837-9.522-5.35"/><path fill="#FFFFFE" d="M272.483 334.808c15.614-2.666 22.733-1.237 21.134 2.094-1.625 3.385.147-.327 2.618 6.297 1.684 4.522-9.118 3.853-13.84 4.647-4.175.703-8.579 1.4-12.616 2.466"/><path fill="#B2DACC" d="M269.958 351.201l-.18-.72c3.632-.986 7.547-1.653 11.333-2.304l1.106-.191c1.123-.193 2.58-.301 4.122-.416 3.629-.269 8.147-.602 9.16-2.269.254-.416.268-.907.055-1.502-1.229-3.37-2.234-3.968-2.714-4.256-.763-.454-.624-.746.142-2.381.257-.549.245-.99-.023-1.372-1.156-1.631-7.117-2.549-20.372-.223l-.119-.735c11.702-2.052 19.376-1.86 21.056.517.305.421.565 1.136.102 2.124-.334.717-.572 1.225-.578 1.37.004-.032.078.013.143.051.554.332 1.71 1.019 3.024 4.64.298.82.257 1.549-.119 2.169-1.202 1.98-5.722 2.313-9.708 2.61-1.525.113-2.966.22-4.055.41l-1.11.187c-3.768.647-7.668 1.315-11.265 2.291"/><path fill="#0A0B09" d="M304.874 255.01c-2.482.576-3.556 2.288-4.323 4.132-1.369-2.284-4.007-5.207-6.65-7.522-1.469 1.057-3.136 1.865-4.988 2.625-.442.18-.887.332-1.338.474-.164 2.668-5.05 4.015-5.368 6.668 1.125 1.33 6.84 4.14 8.267 5.551 4.717 4.681 9.635 2.252 11.57-3.577.75-2.26 1.162-6.62 3.245-8.44-.14.03-.272.056-.415.088"/><path fill="#289163" d="M77.13 274.144c-.203.004 0 .524 0 .524-9.087-3.731-71.721-6.2-73.715 7.764-3.217 22.533-6.467 38.234 10.482 44.996 10.894 4.347 34.838 3.196 50.253 1.746l12.36 9.268-.295-10.667c.658-.1 1.18-.184 1.526-.25 16.849-3.238 26.395-53.783-.612-53.38"/><path fill="#FFFFFE" d="M35.313 294.087a2.61 2.61 0 0 0-.084-.53 1.58 1.58 0 0 1-.054-.24c0-.076-.03-.324-.096-.745l-.184-1.116c0-.195-.034-.51-.106-.988-.067-.443-.141-.911-.221-1.403l-.22-1.347c-.06-.362-.094-.593-.094-.691 0-.254-.033-.501-.1-.734-.225-.783-.658-.673-.942-.606a.59.59 0 0 0-.36.24.888.888 0 0 0-.24.29c-.105.19-.155.359-.155.52v1.064h.234c.031.115.046.233.046.365l.183.857c.085.381.172.797.257 1.248.086.453.166.885.239 1.298.095.53.102.697.102.736 0 .312.029.674.085 1.077.056.395.119.744.2 1.09.052.16.085.382.096.658.013.317.02.617.02.9 0 .347-.023.798-.069 1.355a21.986 21.986 0 0 0-.072 1.77c0 .397-.01.88-.028 1.448l-1.966-.09c-.293 0-.683.025-1.17.073-.448.048-.839.071-1.24.076-.413.059-.747.077-.981.034-.272-.048-.578-.107-.86-.158a14.593 14.593 0 0 0-.712-.223 15.386 15.386 0 0 1-.653-.206l-.383-.147v-.932c0-.33.045-.783.14-1.426.001-.076.024-.38.069-.912a24 24 0 0 0 .072-1.945c0-.763.022-1.466.067-2.094.042-.556.065-.927.07-1.115.068-.238.108-.52.122-.857.014-.333.02-.646.02-.942 0-.302-.022-.712-.07-1.229-.047-.48-.07-.926-.07-1.337 0-.438-.006-.814-.02-1.13-.011-.26-.04-.948-.607-.948l-.103.01a1.014 1.014 0 0 0-.526.285l-.089.13c-.09.185-.159.446-.216.82-.034.226-.067.706.025 2.26 0 .851-.007 1.586-.02 2.203-.016.725-.067 1.086-.107 1.26l-.013.117c0 .201-.02.593-.06 1.176-.04.613-.06 1.213-.06 1.804 0 .571-.023 1.25-.07 2.039a31.907 31.907 0 0 0-.067 2.04c-.068.583-.13 1.182-.191 1.801a16.154 16.154 0 0 0-.093 1.406c0 .252-.027.522-.08.797-.069.354-.123.495-.149.549-.094.197-.151.42-.17.662a6.366 6.366 0 0 0-.022.412c0 .146.024.461.073.944.045.43.067.934.067 1.498 0 .599.026 1.189.073 1.75.044.54.068.95.068 1.23 0 .33-.022.686-.066 1.054a8.41 8.41 0 0 0-.075.954c0 .17-.027.402-.08.688-.05.263-.101.485-.157.667a2.94 2.94 0 0 0-.326.78c-.079.3-.117.536-.117.721l.025.16c.036.112.069.207.095.286v.571l.278-.108a.76.76 0 0 0 .49.153.757.757 0 0 0 .518-.212.782.782 0 0 0 .238-.424l.763-.296-.628-.161a4.01 4.01 0 0 0 .018-.404.73.73 0 0 1 .038-.227c.038-.101.064-.193.081-.276a1.19 1.19 0 0 0 .15-.38l.012-.105a3.35 3.35 0 0 1 .06-.37c.053-.27.08-.53.08-.773 0-.185.022-.414.065-.687.04-.27.063-.481.072-.633.07-.208.107-.486.112-.864.008-.376.01-.745.01-1.108 0-.297-.02-.756-.06-1.38a24.965 24.965 0 0 1-.06-1.62v-2.28c.073-.155.127-.37.175-.681.058-.371.086-.718.086-1.033v-.568c.088.02.153.037.198.054.217.074.49.145.822.211.29.06.537.094.747.102.173.069.384.114.639.136.206.015.393.053.555.108l.155.027c.14 0 .425-.02.85-.064.382-.04.74-.06 1.118-.063.21-.02.426-.03.652-.03l.172.002c.299.006.584.02.857.04.274.02.505.04.696.06l.244.024c.102.059.21.099.331.118-.015.55-.023 1.07-.023 1.562a33.9 33.9 0 0 1-.068 2.117 28.85 28.85 0 0 0-.072 1.442c0 .194-.023.497-.067.906-.048.458-.073.875-.073 1.246 0 .33-.022.67-.065 1.007a8 8 0 0 0-.075.71c0 .114-.021.27-.061.473a3.697 3.697 0 0 0-.08.666c0 .213.007.481.02.808.015.328.055.647.122.948.003.225.03.467.078.718.036.199.058.329.061.387l.003.206.14.146a.637.637 0 0 0 .463.209l.236-.032.127-.09a2.09 2.09 0 0 0 .265-.233c.156-.162.239-.393.262-.725.013-.21.02-.466.02-.769a7.85 7.85 0 0 0-.073-.934 7.77 7.77 0 0 1-.066-.929c0-.254.043-.602.14-1.137.002-.07.025-.283.067-.635.048-.416.073-.927.073-1.52a13.76 13.76 0 0 1 .067-1.464c.05-.467.073-.737.073-.81.001-.078.024-.465.07-1.158.045-.728.07-1.536.07-2.403 0-.453.003-.95.01-1.494.007-.54.02-1.078.04-1.612l.059-1.516c.022-.485.032-.897.032-1.234a85.2 85.2 0 0 0-.02-2.02c-.014-.558-.053-.944-.123-1.206m14.772 20.043l-.1-.062h-.115c-.132 0-.25.01-.353.025-.14.024-.285.082-.44.178-.004.003-.087.045-.37.052-.271.006-.669.01-1.197.01-.504 0-.886-.024-1.131-.073a4.51 4.51 0 0 1-.645-.175 8.867 8.867 0 0 0-.768-.192c-.504-.107-1.178-.086-1.897-.101-.333-.006-.517-.051-.612-.086l-.14-.025a1.71 1.71 0 0 1-.457-.068c-.115-.031-.164-.06-.17-.051-.033-.05-.12-.203-.243-.602-.03-.108-.07-.32-.078-.738-.005-.386-.008-.74-.008-1.063 0-.194.02-.502.061-.93.045-.481.067-.912.067-1.315 0-.448.016-.907.052-1.377.038-.5.057-.885.057-1.153 0-.225.018-.438.053-.633.065-.348.073-.477.073-.55 0-.105.018-.266.05-.481.039-.273.059-.559.059-.846v-1.592l-.021-.156.157-.062c.002 0 .065-.038.257-.038.157 0 .305.025.44.077l.15.024c.085 0 .26.007.525.02.288.013.591.025.91.03.317.009.606.012.862.012h.442c.148 0 .338-.02.473-.145.077-.068.143-.162.229-.33.103-.145.169-.345.202-.605l.064-.568h-.511c-.048 0-.202-.004-.465-.011l-.982-.02a78.776 78.776 0 0 1-1.107-.03c-.996-.037-1.46-.022-1.72-.032l.04-.509c.037-.474.055-1.008.055-1.634 0-.573.042-1.31.135-2.247.067-.152.102-.33.102-.527 0-.119.02-.437.06-.957.044-.549.066-1.168.066-1.84 0-.727.02-1.49.055-2.29.037-.82.054-1.464.054-1.932 0-.523.007-.96.02-1.308v-.024c.131.018.248.041.342.069.194.072.447.145.759.22.27.061.487.123.622.173.117.056.296.11.579.174.247.054.517.11.813.166.292.054.574.106.85.153l.579.103c.35.103.585.178.74.267l.009.04c.066.285.278.414.458.414l.089-.01c.155-.035.261-.132.546-.453.28-.314.363-.447.403-.527l.111-.275-.048-.204a.675.675 0 0 0-.196-.335c-.16-.232-.475-.301-.636-.335a4.148 4.148 0 0 0-.843-.092 33.198 33.198 0 0 1-.774-.19c-.216-.057-.284-.095-.275-.08l-.13-.138h-.184c-.036 0-.118-.007-.25-.02a13.629 13.629 0 0 1-.517-.05l-.571-.06a4.691 4.691 0 0 0-.459-.033 1.54 1.54 0 0 1-.417-.06l-.026-.235h-.443a1.01 1.01 0 0 0-.358-.111l-.038-.04a2.503 2.503 0 0 0-.857-.511 1.438 1.438 0 0 0-.47-.105 1.22 1.22 0 0 0-.19.014.523.523 0 0 0-.435.389c-.074.122-.12.265-.138.422a3.078 3.078 0 0 0-.022.326c0 .074-.019.472-.053 1.197a55.44 55.44 0 0 0-.056 2.639c0 1.057-.022 2.009-.063 2.829a43.92 43.92 0 0 0-.064 1.68c0 .185-.023.434-.067.749a9.554 9.554 0 0 1-.155.858l-.015.126c0 .252-.017.652-.052 1.2a24.526 24.526 0 0 0-.056 1.575v4.653c0 .309-.02.657-.062 1.045a11.4 11.4 0 0 0-.064.993 10.87 10.87 0 0 0-.163 1.292 22.59 22.59 0 0 0-.075 1.832c0 .517-.016 1.024-.051 1.52-.039.533-.057.861-.057.989 0 .216.02.565.066 1.049.04.45.091.816.151 1.096.003.321.023.64.06.95.032.276.05.469.05.577 0 .143.007.282.022.416.03.303.175.486.344.566a.613.613 0 0 0 .38.137c.123 0 .306-.04.508-.27a1.902 1.902 0 0 0 .296-.615h.073c.096 0 .263.023.503.064.609.107 1.274.06 1.9.136.358.043.659.064.901.064.166 0 .39.028.676.076.307.052.602.112.903.182.285.055.53.104.74.15.323.074.448.048.574-.018.085-.01.195-.033.332-.061.189-.043.417-.063.67-.063l.225.002c.436 0 .967 0 1.126-.394a.958.958 0 0 0 .153-.494c0-.13-.023-.262-.068-.389-.065-.179-.193-.328-.395-.454m11.721-.144c-.15 0-.425-.02-.822-.06a4.923 4.923 0 0 0-1.36.06c-.548 0-.974.004-1.273.01-.522.013-.78.156-.896.333a.91.91 0 0 1-.123.06l-.1.03c.131-.226.199-.503.207-.844.009-.268.012-.48.012-.636 0-.15.003-.387.012-.716.005-.285.047-.564.123-.827l.018-.132c0-.282.029-.629.084-1.033.06-.446.092-.878.092-1.284 0-.299.025-.869.076-1.71a44.32 44.32 0 0 0 .077-2.573c0-.908.03-1.763.087-2.54.051-.696.08-1.152.087-1.366.09-.27.14-.6.155-1.015.002-.077.03-.248.08-.517.063-.342.095-.685.095-1.016 0-.282.028-.64.084-1.066.067-.51.142-.78.193-.917l.03-1.7c0-.074.013-.211.072-.434.07-.26.104-.532.104-.806 0-.19.045-.453.137-.784l.017-.125c0-.084.03-.336.083-.758.061-.479.091-1.005.091-1.56v-1.982a1.07 1.07 0 0 0 .154-.457c.002-.071.03-.203.076-.402.062-.269.095-.533.1-.786.127-.574.124-.742.073-.88-.057-.166-.232-.444-.784-.444l-.686-.014v.505s-.006.04-.054.14a10.2 10.2 0 0 1-.246.47c-.1.268-.187.644-.266 1.15-.075.485-.156 1.254-.246 2.39a22 22 0 0 1-.086 2.034c-.06.638-.09 1.036-.09 1.194 0 .146-.003.327-.01.539a1.662 1.662 0 0 1-.113.533l-.034.093.005.098c.031.67-.054.998-.13 1.153l-.047.21c0 .075-.027.238-.069.486a5.045 5.045 0 0 0-.084.879c0 .28-.029.61-.083.987-.062.426-.092.76-.092 1.021 0 .202-.028.453-.08.74-.064.343-.13.49-.162.548l-.066.113v.13c0 .148-.007.488-.022 1.019a16.402 16.402 0 0 1-.153 1.752v3.227c0 .373-.025.827-.075 1.363a17.482 17.482 0 0 0-.078 1.553c0 .38-.008.748-.022 1.109l-.004.063h-.15v.504c0 .08-.003.213-.011.409a1.567 1.567 0 0 1-.112.498l-.03.169c0 .229-.008.53-.022.902-.013.325-.054.585-.124.77l-.03.168c0 .197-.025.41-.075.629-.042.181-.081.25-.056.239-.26.214-.285.456-.276.584.017.256.187.483.503.672l.13.076h.966c.204 0 .463-.033.789-.105.306-.066.592-.145.858-.233.23-.077.48-.144.751-.201.207-.043.4-.07.578-.077.19.077.4.124.626.14.208.014.36.021.456.021l.01.103.485.044c.002 0 .048.003.16.044.307.117.585.148 1.032.095.444-.05.644-.362.644-.644v-.455c0-.372-.166-.593-.305-.713-.194-.17-.47-.247-.865-.247m12.722-22.598l-.012.109c0 .279-.029.595-.086.944-.072.448-.142.6-.162.637l-.062.112v.128c0 .127-.022.295-.065.507a3.91 3.91 0 0 0-.08.693.78.78 0 0 1-.044.268c-.04.119-.07.222-.086.316-.117.192-.262.528-.43 1.204a3.923 3.923 0 0 1-.306.604.818.818 0 0 0-.622.602.804.804 0 0 0-.524.207.778.778 0 0 0-.2.267c-.244.155-.418.261-.485.302a36.93 36.93 0 0 1-.614.225c-.166.06-.29.13-.38.208v-4.948c0-.295.03-.794.09-1.498a73.07 73.07 0 0 1 .22-2.144c0-.65.023-1.278.07-1.862a19.353 19.353 0 0 0 .08-1.344 3.73 3.73 0 0 1 .18-.056h.822c.107 0 .245.022.408.066.168.044.31.1.46.178.08.038.13.067.16.09v.41h.64c.077.115.162.218.253.31.03.03.102.111.23.314.11.176.206.335.285.48.043.08.107.227.17.483.064.255.078.399.078.476v.129l.063.113c.006.013.062.125.062.503 0 .307-.038.632-.113.967zm1.72-2.176c-.039-.394-.178-.712-.385-.91 0 0-.014-.033-.024-.125a1.02 1.02 0 0 0-.315-.823l-.255-.25c-.324-.401-.61-.684-.862-.858a8.91 8.91 0 0 0-.923-.592l-.644-.353a1.678 1.678 0 0 0-.753-.196 16.21 16.21 0 0 0-.545-.01h-1.056l-.178.032c-.197.074-.36.127-.487.157a.76.76 0 0 0-.607.77c0 .076-.026.248-.066.512-.052.33-.08.667-.08 1 0 .352-.026.763-.079 1.225-.057.5-.085.951-.085 1.34 0 .295-.024.737-.072 1.327a23.987 23.987 0 0 0-.074 1.86c0 .603-.024 1.5-.071 2.69a86.956 86.956 0 0 0-.074 3.519c0 .532-.01 1.113-.032 1.742l-.06 1.904a76.388 76.388 0 0 0-.042 1.821c-.008.575-.01 1.07-.009 1.44a40.794 40.794 0 0 0-.146 3.207 268.669 268.669 0 0 0-.021 3.048c0 .762.007 1.46.02 2.091.016.706.032 1.434.65 1.434h.43l.12-.07a.914.914 0 0 0 .379-.486c.06-.16.098-.4.125-.807.02-.338.034-.834.042-1.496.006-.649.01-1.526.01-2.632 0-.634.004-1.277.01-1.93.008-.651.022-1.26.041-1.828.022-.57.04-1.068.062-1.496.02-.4.03-.7.032-.901a5.9 5.9 0 0 0 .083-.894c.014-.397.024-.854.03-1.366l.023-1.648.002-.36.092.01c.323.02.497.028.924-.135.224-.085.45-.205.69-.365.242-.095.455-.213.632-.35.172-.132.305-.249.354-.34.2 0 .409-.087.676-.28.211-.151.38-.325.498-.52.178-.195.357-.486.546-.885.19-.404.334-.776.388-1.015.167-.333.293-.647.375-.933.119-.407.134-.557.134-.654a4.57 4.57 0 0 1 .083-.493c.061-.3.13-.596.216-.911.086-.387.16-.836.226-1.353.064-.52.097-1.021.097-1.49 0-.629-.015-1.078-.045-1.374z"/><path fill="#2879FF" d="M420.144 70.34c.152.002 0 .39 0 .39 6.836-2.785 53.96-4.629 55.459 5.797 2.424 16.824 4.87 28.548-7.886 33.597-8.195 3.245-26.21 2.386-37.808 1.303l-9.298 6.922.22-7.967a30.904 30.904 0 0 1-1.148-.187c-12.676-2.417-19.858-40.156.46-39.855"/><path fill="#FFFFFE" d="M433.936 85.018a1.797 1.797 0 0 0-.067-.393 1.145 1.145 0 0 1-.042-.177 5.14 5.14 0 0 0-.076-.555l-.145-.83c0-.145-.026-.379-.082-.733-.053-.33-.11-.677-.174-1.043l-.173-.999a4.463 4.463 0 0 1-.074-.514c0-.19-.026-.372-.078-.545-.177-.582-.517-.5-.74-.451a.47.47 0 0 0-.283.18.668.668 0 0 0-.189.215.764.764 0 0 0-.121.386v.79h.184a.994.994 0 0 1 .036.27l.144.638c.066.283.134.591.201.927.069.336.13.657.188.964.074.393.08.517.08.546 0 .232.023.501.067.8a8.7 8.7 0 0 0 .157.81c.041.12.067.284.075.49.01.234.016.457.016.667 0 .258-.018.594-.054 1.007-.038.44-.056.882-.056 1.315 0 .295-.008.653-.023 1.075l-1.544-.067c-.23 0-.537.019-.919.056-.352.034-.66.052-.974.055-.325.045-.587.058-.772.025-.213-.035-.454-.078-.674-.116a11.54 11.54 0 0 0-.561-.167 11.535 11.535 0 0 1-.513-.152l-.3-.11v-.692c0-.245.035-.581.11-1.06 0-.056.019-.282.053-.677.038-.434.057-.92.057-1.445 0-.566.018-1.089.053-1.554.033-.414.051-.69.056-.83a2.63 2.63 0 0 0 .095-.636c.01-.247.016-.48.016-.7 0-.224-.018-.528-.057-.913a10.055 10.055 0 0 1-.053-.993c0-.325-.006-.605-.016-.84-.008-.192-.032-.703-.478-.703l-.08.008a.812.812 0 0 0-.413.21l-.07.096c-.071.139-.125.332-.17.611-.026.167-.053.525.02 1.678 0 .633-.006 1.178-.016 1.637-.012.539-.052.807-.084.936l-.01.087c0 .15-.016.44-.047.873-.032.455-.048.902-.048 1.34 0 .425-.018.93-.054 1.515a22.454 22.454 0 0 0-.053 1.516c-.053.432-.103.877-.15 1.337-.05.478-.073.82-.073 1.044 0 .188-.021.388-.063.594a1.8 1.8 0 0 1-.117.407c-.074.145-.12.31-.134.492a4.62 4.62 0 0 0-.016.306c0 .108.018.341.056.7.036.32.054.694.054 1.113 0 .445.019.883.056 1.3.036.401.054.706.054.914 0 .246-.017.51-.052.783a5.85 5.85 0 0 0-.058.709c0 .126-.022.299-.063.51-.04.196-.08.361-.124.496-.112.175-.199.37-.256.579a2.083 2.083 0 0 0-.093.536l.02.118c.028.084.054.155.075.213v.425l.218-.08c.086.064.21.114.386.114a.616.616 0 0 0 .594-.473l.6-.22-.494-.12a2.92 2.92 0 0 0 .014-.3.48.48 0 0 1 .03-.168c.029-.076.05-.143.064-.205a.86.86 0 0 0 .117-.284l.01-.076a2.02 2.02 0 0 1 .046-.276c.042-.2.063-.394.063-.574 0-.138.017-.307.051-.511.032-.2.05-.357.057-.47.055-.153.084-.36.088-.641.006-.28.009-.554.009-.823 0-.22-.016-.562-.048-1.025-.03-.441-.047-.843-.047-1.204v-1.693c.057-.116.099-.276.137-.507.045-.275.068-.533.068-.767v-.42c.069.012.12.026.155.038.17.055.385.109.646.158.228.044.422.068.588.075.135.051.3.084.5.1.163.013.31.04.437.082l.121.02c.111 0 .334-.016.668-.049a9.42 9.42 0 0 1 .88-.046 5.58 5.58 0 0 1 .51-.023l.136.002a13.949 13.949 0 0 1 1.22.075l.192.018c.08.043.165.072.26.088a39.19 39.19 0 0 0-.018 1.158 23.8 23.8 0 0 1-.054 1.574c-.038.556-.056.913-.056 1.07 0 .145-.018.37-.053.675-.038.34-.057.65-.057.924 0 .245-.017.498-.05.75-.042.294-.06.47-.06.526 0 .084-.017.2-.048.35a2.61 2.61 0 0 0-.062.496c0 .158.005.358.016.6.01.243.042.48.095.705.003.167.024.347.061.533.028.147.046.244.048.289l.002.152.11.107a.516.516 0 0 0 .365.155l.184-.022.1-.068a1.66 1.66 0 0 0 .208-.172c.123-.12.188-.292.207-.54.01-.155.015-.345.015-.571 0-.165-.018-.397-.057-.693a5.323 5.323 0 0 1-.053-.69c0-.19.035-.449.11-.844.002-.054.02-.211.053-.473a9.45 9.45 0 0 0 .058-1.129c0-.41.017-.776.052-1.087.04-.347.058-.548.058-.602 0-.058.019-.345.055-.86.036-.54.055-1.14.055-1.785 0-.337.002-.706.008-1.11.005-.402.015-.8.032-1.198l.045-1.126c.018-.36.026-.666.026-.917 0-.588-.006-1.088-.016-1.5-.01-.414-.041-.702-.096-.896m10.417 14.889l-.075-.047h-.086a1.72 1.72 0 0 0-.264.019.903.903 0 0 0-.33.133c-.004.001-.065.032-.278.038-.203.005-.501.007-.898.007a4.8 4.8 0 0 1-.848-.055 3.279 3.279 0 0 1-.484-.13 7.68 7.68 0 0 0-.575-.142c-.378-.079-.884-.063-1.423-.074-.25-.006-.388-.038-.459-.065l-.105-.019c-.11 0-.224-.016-.343-.05-.086-.024-.123-.044-.128-.037-.025-.037-.09-.153-.182-.448-.023-.079-.052-.238-.058-.548-.004-.286-.006-.55-.006-.79 0-.144.015-.373.045-.69.034-.358.05-.678.05-.978 0-.333.013-.674.04-1.022.028-.372.042-.658.042-.857 0-.166.014-.325.04-.469.049-.259.055-.355.055-.41 0-.078.014-.197.037-.358a4.33 4.33 0 0 0 .045-.627v-1.182l-.016-.117.117-.045c.003-.001.05-.03.193-.03.118 0 .229.02.33.057l.112.02c.064 0 .196.004.394.014a26.62 26.62 0 0 0 1.33.03h.33c.113 0 .255-.013.356-.107a.794.794 0 0 0 .172-.245.982.982 0 0 0 .151-.45l.048-.421h-.383l-.349-.008-.736-.015a50.005 50.005 0 0 1-.83-.022c-.748-.028-1.097-.016-1.29-.025.006-.093.017-.219.03-.377.027-.352.04-.75.04-1.215 0-.425.032-.972.102-1.668a.965.965 0 0 0 .076-.393c0-.087.016-.324.046-.71.032-.407.049-.867.049-1.366 0-.54.014-1.107.04-1.702a31.31 31.31 0 0 0 .041-1.435c0-.389.006-.712.015-.971v-.018c.099.014.187.03.257.051.145.054.336.108.57.163.201.046.364.093.466.129.088.042.222.081.434.129.185.041.388.082.61.123.22.041.43.079.636.115l.435.075c.264.077.44.133.555.199l.007.03c.05.212.21.307.344.307l.067-.008c.115-.024.196-.098.41-.336.209-.233.271-.331.302-.39l.083-.206-.037-.15a.49.49 0 0 0-.146-.25c-.12-.172-.357-.224-.477-.25a3.223 3.223 0 0 0-.633-.066 26.484 26.484 0 0 1-.58-.143c-.162-.042-.213-.07-.206-.058l-.098-.102h-.137a14.945 14.945 0 0 1-.575-.052l-.43-.046a3.466 3.466 0 0 0-.344-.024c-.101 0-.206-.015-.312-.045l-.02-.174h-.333a.761.761 0 0 0-.268-.083c.007 0 .002-.007-.028-.03a1.869 1.869 0 0 0-.642-.38 1.108 1.108 0 0 0-.353-.076.923.923 0 0 0-.142.01.393.393 0 0 0-.327.288.761.761 0 0 0-.103.313c-.012.1-.018.18-.018.243 0 .055-.013.351-.039.89a40.339 40.339 0 0 0-.042 1.96c0 .785-.017 1.492-.048 2.1a32.537 32.537 0 0 0-.046 1.249c0 .138-.018.323-.052.556a7.016 7.016 0 0 1-.116.638l-.01.094c0 .187-.014.484-.04.89-.028.43-.042.82-.042 1.171v3.456c0 .23-.015.488-.046.776-.03.297-.046.543-.049.738a8.183 8.183 0 0 0-.122.96c-.037.45-.056.907-.056 1.36 0 .384-.011.761-.038 1.13-.029.395-.043.64-.043.735 0 .16.015.42.05.78.03.332.068.605.113.813.002.237.017.475.044.706.025.204.038.347.038.429 0 .105.006.208.017.308.023.226.131.362.258.42a.47.47 0 0 0 .285.104c.092 0 .23-.031.38-.201a1.42 1.42 0 0 0 .223-.459h.054c.072 0 .198.017.378.049.456.078.955.045 1.424.1.269.033.494.048.677.048.124 0 .292.02.507.057.23.04.45.083.677.135.214.04.398.077.554.112.243.053.337.036.431-.013.064-.01.147-.025.25-.048.14-.03.312-.046.502-.046l.168.002c.328 0 .726 0 .844-.293a.705.705 0 0 0 .065-.655.662.662 0 0 0-.297-.337m9.199-.107c-.114 0-.328-.016-.639-.045a3.961 3.961 0 0 0-1.057.045c-.426 0-.754.003-.988.007-.405.01-.606.116-.696.247a.66.66 0 0 1-.098.045l-.074.024a1.31 1.31 0 0 0 .16-.629c.008-.2.008-.356.008-.472 0-.111.004-.287.008-.531a2.2 2.2 0 0 1 .098-.615l.013-.098c0-.21.024-.467.065-.767.05-.332.07-.653.07-.955 0-.222.02-.644.061-1.27.041-.648.062-1.29.062-1.91 0-.675.02-1.31.065-1.887.041-.519.062-.857.07-1.015a2.77 2.77 0 0 0 .119-.755c0-.057.024-.184.061-.383.05-.255.074-.51.074-.755 0-.21.025-.476.066-.792.053-.38.11-.58.151-.681l.02-1.262c0-.056.013-.158.058-.324.053-.193.082-.394.082-.598 0-.142.033-.338.107-.582l.012-.093c0-.063.024-.25.065-.564a9.28 9.28 0 0 0 .07-1.159v-1.472a.774.774 0 0 0 .119-.34 2.25 2.25 0 0 1 .061-.298c.05-.2.074-.396.078-.584.098-.427.094-.55.058-.654-.046-.123-.18-.33-.611-.33l-.533-.01v.375s-.008.03-.045.104a5.603 5.603 0 0 1-.188.35 4.357 4.357 0 0 0-.21.854c-.057.36-.118.931-.192 1.775 0 .56-.02 1.068-.065 1.51a14.3 14.3 0 0 0-.07.888c0 .109-.004.243-.008.4-.004.128-.033.26-.086.397l-.029.068.004.073c.025.497-.04.74-.098.858l-.037.154c0 .056-.025.177-.053.362a3.516 3.516 0 0 0-.066.653c0 .207-.024.454-.065.732-.05.317-.074.565-.074.759 0 .151-.02.336-.062.55-.049.254-.098.364-.123.408l-.053.083v.096c0 .11-.004.364-.016.759-.011.384-.05.805-.12 1.3v2.397c0 .278-.02.615-.058 1.013-.04.421-.061.806-.061 1.154 0 .282-.006.556-.017.823l-.002.047h-.118v.375c0 .058-.002.158-.009.303a1.123 1.123 0 0 1-.086.37l-.024.125c0 .171-.006.394-.017.67a1.83 1.83 0 0 1-.096.573l-.024.125a2 2 0 0 1-.058.466c-.033.135-.063.187-.044.178-.202.16-.222.34-.214.434.014.191.146.36.391.499l.102.058h.75c.16 0 .36-.026.614-.079.238-.05.46-.107.668-.173.176-.057.373-.107.582-.15a2.94 2.94 0 0 1 .45-.057c.148.058.312.093.488.104.16.01.28.016.353.017l.008.076.377.031c.004 0 .037.004.127.035.238.086.45.11.799.07.348-.04.504-.269.504-.48v-.338a.663.663 0 0 0-.238-.529c-.151-.125-.364-.183-.676-.183m9.305-16.787l-.008.082c0 .207-.023.442-.066.7-.058.332-.112.446-.128.473l-.046.084v.096c0 .093-.02.218-.05.375a2.74 2.74 0 0 0-.062.516.558.558 0 0 1-.035.199 1.418 1.418 0 0 0-.066.235c-.093.142-.205.392-.337.893a2.91 2.91 0 0 1-.236.448.632.632 0 0 0-.317.168.563.563 0 0 0-.167.28.65.65 0 0 0-.41.154.608.608 0 0 0-.155.198c-.19.115-.325.195-.376.225l-.476.168a.937.937 0 0 0-.298.153v-3.674c0-.22.023-.59.07-1.113.05-.534.104-1.05.17-1.593 0-.484.02-.95.054-1.383.043-.457.062-.744.062-.862v-.137c.035-.011.081-.025.143-.041h.64c.08 0 .189.016.317.049.131.033.24.073.356.133.062.027.1.05.124.065v.306h.5c.057.084.127.16.197.229.023.023.077.084.178.233.085.131.159.25.22.358.035.058.086.168.132.358.05.19.062.297.062.354v.095l.05.084c.004.009.047.094.047.374 0 .228-.031.47-.09.718zm1.34-1.616c-.032-.292-.14-.53-.299-.676 0 0-.011-.025-.019-.093a.756.756 0 0 0-.244-.612l-.201-.185c-.252-.298-.473-.508-.67-.637a6.81 6.81 0 0 0-.716-.44l-.504-.262a1.348 1.348 0 0 0-.584-.146 13.253 13.253 0 0 0-.422-.007h-.825l-.136.023a3.7 3.7 0 0 1-.38.117c-.29.066-.471.285-.471.572 0 .057-.02.184-.05.38a4.365 4.365 0 0 0-.063.743c0 .261-.02.567-.062.91a8.14 8.14 0 0 0-.07.996c0 .219-.015.547-.054.985-.038.465-.058.93-.058 1.383a55.9 55.9 0 0 1-.054 1.998c-.039.88-.058 1.76-.058 2.614 0 .395-.008.827-.023 1.294l-.047 1.413c-.019.475-.027.927-.034 1.354-.004.427-.008.795-.004 1.07a29.22 29.22 0 0 0-.117 2.381 185.02 185.02 0 0 0-.015 2.265c0 .566.004 1.084.015 1.553.012.524.024 1.066.508 1.066h.333l.093-.054a.676.676 0 0 0 .294-.359c.046-.12.077-.3.097-.6.015-.25.027-.62.035-1.111.003-.483.007-1.134.007-1.956 0-.47 0-.948.008-1.433.004-.484.015-.937.031-1.358.015-.424.03-.794.05-1.112.012-.297.02-.52.024-.668.03-.156.054-.375.061-.665.012-.295.02-.634.028-1.015l.015-1.224c0-.09 0-.179.004-.268l.07.008c.251.015.387.02.72-.1.174-.063.348-.152.534-.27.19-.072.356-.159.492-.261.135-.099.24-.185.275-.252.155 0 .317-.065.526-.208.167-.113.295-.243.387-.386.14-.146.28-.362.426-.659.148-.3.26-.577.302-.753.128-.247.229-.481.29-.693.094-.303.105-.415.105-.487.004-.058.027-.18.066-.366.047-.222.1-.442.167-.677.065-.287.124-.62.174-1.004a10.364 10.364 0 0 0 .042-2.128z"/></g></svg>