<?xml version="1.0" encoding="UTF-8"?>
<svg width="277px" height="121px" viewBox="0 0 277 121" version="1.1" xmlns="http://www.w3.org/2000/svg" xmlns:xlink="http://www.w3.org/1999/xlink">
    <!-- Generator: Sketch 52.2 (67145) - http://www.bohemiancoding.com/sketch -->
    <title>Group 8</title>
    <desc>Created with Sketch.</desc>
    <defs>
        <polygon id="path-1" points="0 0.1867319 12.3165702 0.1867319 12.3165702 8.88083226 0 8.88083226"></polygon>
        <polygon id="path-3" points="0.263322981 0.24377739 6.59343478 0.24377739 6.59343478 10.6897549 0.263322981 10.6897549"></polygon>
        <polygon id="path-5" points="7.17757287e-05 0.17338119 27.0053122 0.17338119 27.0053122 27.3037894 7.17757287e-05 27.3037894"></polygon>
        <polygon id="path-7" points="0 0.197130434 51.9913812 0.197130434 51.9913812 37.5069726 0 37.5069726"></polygon>
    </defs>
    <g id="registration-&amp;-login" stroke="none" stroke-width="1" fill="none" fill-rule="evenodd">
        <g id="mobile_login" transform="translate(-42.000000, -519.000000)">
            <g id="Group-8" transform="translate(42.000000, 519.000000)">
                <g id="Group-36" transform="translate(138.000000, 24.000000)">
                    <path d="M37.2321429,16.3074872 C30.9316274,14.6984086 20.7507331,14.0126553 14.6992005,11.5913978 C10.5829432,21.1083595 27.6096729,29.2933599 34.3479929,31.4623656 L37.2321429,16.3074872 Z" id="Fill-1" fill="#F8C4BF"></path>
                    <path d="M19.8571429,18.426172 L19.9632663,18.2150538 C20.2942991,18.3895495 20.7389925,18.4172472 21.3009643,18.4532543 C22.5578638,18.5332699 24.4581367,18.6545244 27.3035714,20.4979623 L27.1793588,20.6989247 C24.3839709,18.8865699 22.519575,18.7680851 21.2870959,18.6893005 C20.6970858,18.6520624 20.2309868,18.6228259 19.8571429,18.426172" id="Fill-3" fill="#D2A066"></path>
                    <path d="M28.8961286,16.2014205 C30.8683768,16.6510065 31.3481852,28.0789914 28.7737193,28.6425236 C28.1563121,29.1104118 25.6991923,21.7629434 22.1144778,17.8654494 C17.4796052,12.8234743 14.4968107,17.9755581 17.7405067,20.7244382 C18.0642508,22.3007935 22.2699465,32.9839948 24.2874653,35.4394485 C26.8389981,38.0985885 39.885262,46.3774053 41.8920588,49.6774194 L49.6428571,40.549319 C46.7380947,33.0087914 45.986365,34.4466989 42.2521385,21.5070071 C40.2548724,14.5819665 38.6045813,11.2804765 35.2277541,10.7107451 C25.2283188,9.02457635 9.19598413,9.14885455 9.24274386,9.10752688 C7.98231584,11.5370032 15.1883782,13.0746875 28.8961286,16.2014205" id="Fill-5" fill="#FFD5CB"></path>
                    <path d="M133.567929,62.134443 C137.925024,67.9470536 132.254069,65.3148389 139,69.8464895 C124.784636,77.7525851 97.3523342,79.7887709 76.176282,72.4713203 C54.4337002,66.0883768 38.9485594,50.3509108 35.577381,44.2712982 C40.5111325,42.2262517 45.2205954,39.8778743 49.6804518,37.2580645 C59.5151902,46.684654 74.27117,52.5335934 87.9262596,53.6222764 C101.675175,54.9513795 114.321413,51.5196354 122.104195,47.9458251 C122.198616,48.4579728 129.292448,56.5548685 133.567929,62.134443" id="Fill-7" fill="#799921"></path>
                    <path d="M54.6071429,41.317317 C52.9010904,40.0486332 51.2862675,38.6951524 49.786682,37.2580645 C45.2930269,39.8971886 40.5481905,42.2628792 35.577381,44.3230026 C36.3363267,45.6919552 37.708371,47.5491607 39.6220906,49.6774194 C44.6397154,46.9308856 49.6336324,44.1403169 54.6071429,41.317317" id="Fill-9" fill="#64840E"></path>
                    <path d="M35.6857172,45.5376344 L35.577381,45.3412057 C37.5425291,44.2919396 39.2738368,43.4821072 40.8012,42.7681646 C43.3204614,41.5898832 45.496954,40.5722897 47.855487,38.9139785 L47.9880952,39.096169 C45.6126902,40.7658126 43.4279096,41.7880553 40.8991762,42.9701142 C39.374477,43.6828945 37.6461293,44.4915646 35.6857172,45.5376344" id="Fill-11" fill="#FFFFFF"></path>
                    <path d="M50.2113293,41.1715969 C49.8790508,41.4859338 49.3553698,41.4707401 49.0412608,41.1384695 C48.7274007,40.8061989 48.7428324,40.2818889 49.0746131,39.9680502 C49.4068917,39.6542114 49.9305726,39.6689071 50.2444327,40.0006795 C50.5580439,40.3334482 50.54311,40.85726 50.2113293,41.1715969" id="Fill-13" fill="#FFFFFF"></path>
                    <path d="M45.0930277,1.42122619 C46.8329565,2.92961371 48.5071435,6.2540089 47.8369332,8.35957571 C47.6138273,9.06220813 43.152601,10.7634409 43.152601,10.7634409 L40.5416667,2.24154663 C40.5416667,2.24154663 43.1219612,-0.288745745 45.0930277,1.42122619" id="Fill-15" fill="#2879FF"></path>
                    <polygon id="Fill-17" fill="#FC5D16" points="39.6561103 1.65591398 8.27380952 16.8552461 12.4682934 25.6666667 43.8511905 10.467936"></polygon>
                    <g id="Group-21" transform="translate(0.827381, 15.731183)">
                        <mask id="mask-2" fill="white">
                            <use xlink:href="#path-1"></use>
                        </mask>
                        <g id="Clip-20"></g>
                        <polygon id="Fill-19" fill="#FFD5CB" mask="url(#mask-2)" points="8.0794932 0.1867319 -0.000177295918 8.88083226 12.3165702 8.42683584"></polygon>
                    </g>
                    <g id="Group-24" transform="translate(0.000000, 22.354839)" fill="#2879FF">
                        <polygon id="Fill-22" points="3.38335816 0.0643258892 0.451044846 3.8783416 4.92144054 3.67995037"></polygon>
                    </g>
                    <polygon id="Fill-25" fill="#FFFFFF" points="9.20097401 19.0430108 9.10119048 18.8401961 40.4415844 4.13978495 40.5416667 4.34259955"></polygon>
                    <polygon id="Fill-27" fill="#FFFFFF" points="11.6828191 22.3548387 11.5833333 22.1525998 42.924025 7.4516129 43.0238095 7.65443545"></polygon>
                    <g id="Group-31" transform="translate(38.886905, 0.000000)">
                        <mask id="mask-4" fill="white">
                            <use xlink:href="#path-3"></use>
                        </mask>
                        <g id="Clip-30"></g>
                        <polygon id="Fill-29" fill="#FFB839" mask="url(#mask-4)" points="1.91376812 0.243690119 6.59343478 9.77718968 4.90787992 10.6897549 0.263322981 1.10767443"></polygon>
                    </g>
                    <path d="M27.3035714,30.5048221 C25.4756259,28.5141484 24.0574411,22.7919283 21.9034404,18.976733 C18.6595724,13.2321683 14.9663534,14.1325407 15.8543095,18.1554261 C16.1023151,19.3912538 23.9069976,30.6915999 25.886235,33.1182796 C26.5683211,30.1037653 26.6746496,33.503294 27.3035714,30.5048221" id="Fill-32" fill="#FFD5CB"></path>
                    <path d="M17.3609816,16.9983516 C17.1984156,16.8241214 17.1119841,16.8032518 17.0820295,16.8026193 C16.5116442,16.8260187 16.1521892,17.0034109 16.0211379,17.3287882 C15.6654272,18.2144846 16.9553466,19.9959961 17.3525569,20.421611 C17.365662,20.4358403 17.3762709,20.44754 17.3856317,20.4570262 C17.6658319,20.4494372 17.9425998,20.4149706 18.210943,20.3808203 C18.4034636,20.3561561 18.5866235,20.3327568 18.7610465,20.3235868 C18.7716554,20.3185274 18.7872568,20.291966 18.7913131,20.2239815 C18.8325007,19.6038991 17.9631936,17.644363 17.3609816,16.9983516 M17.1778218,20.5888846 C16.8642347,20.2524401 15.3646332,18.318833 15.7983506,17.2374043 C15.9684053,16.8149514 16.3993145,16.5875984 17.0804694,16.5591398 C17.2215055,16.5629343 17.3678462,16.6511561 17.5357167,16.831078 C18.2140633,17.5583546 19.218166,19.8486435 18.9991231,20.3975792 C18.9576235,20.499398 18.8755604,20.5613746 18.7725915,20.5661177 C18.6081533,20.5756039 18.4290498,20.5983708 18.2399615,20.6217702 C17.9716183,20.6556043 17.666768,20.6944978 17.3472524,20.6989247 C17.2839109,20.691652 17.2505241,20.6669878 17.1778218,20.5888846" id="Fill-34" fill="#D2A066"></path>
                </g>
                <g id="Group-7" transform="translate(206.000000, 24.000000)">
                    <g id="Group-6" transform="translate(0.000000, 21.666667)" fill="#2879FF">
                        <path d="M3.59362859,13.0486463 C6.46295815,13.0513017 13.0747398,13.0619233 13.089115,13.0619233 C13.6338396,13.061504 14.555531,12.8486526 14.555531,12.0521717 C14.555531,11.473853 14.2928685,11.2159995 14.1364154,11.0611476 L14.1064088,11.0310997 C14.0713778,10.9958806 14.05784,10.944869 14.0722152,10.896932 C14.0860322,10.8496938 14.1244128,10.8125181 14.1736794,10.8027351 C14.6469465,10.6994539 15.1514762,10.2800401 15.1472892,9.81967723 C15.1417066,9.27937277 14.8860224,9.10299816 14.6602052,8.94688846 C14.589585,8.8978334 14.5225935,8.85171326 14.4677442,8.79678836 C14.4327132,8.76142958 14.4194545,8.70985888 14.4335506,8.66248091 C14.4473676,8.61454392 14.4861669,8.57918514 14.5350148,8.56828402 C15.005351,8.4658414 15.5090433,8.04572882 15.5090433,7.58354908 C15.5090433,7.11312363 15.1750628,6.69874113 14.7157523,6.59895391 C14.6533665,6.58553714 14.6089846,6.5297737 14.6089846,6.46604404 C14.6089846,6.40203488 14.6533665,6.34669071 14.7157523,6.33355345 C15.1750628,6.23348672 15.5090433,5.81924398 15.5090433,5.34867876 C15.5090433,4.79244189 15.0571298,4.34018497 14.5015191,4.34018497 L10.7130104,4.18463431 C10.6728155,4.18253794 10.6355514,4.16353085 10.6111275,4.13194554 C10.5867035,4.09966144 10.5773526,4.05927137 10.585587,4.01971986 L10.8220111,2.92765077 C11.0178217,1.61979532 10.5345059,0.891097065 10.3179001,0.639113375 C10.0848255,0.367982838 9.85426311,0.27168957 9.71609315,0.27168957 C9.59341497,0.27168957 9.52084085,0.340590268 9.49348599,0.483283195 C9.37834435,1.18738404 9.06711302,2.49803465 9.06362388,2.51131166 C9.06125127,2.52235255 9.05720386,2.5328344 9.05162124,2.54289697 C8.13383773,4.28931305 6.24788753,4.51306563 4.70750179,4.51306563 C4.47414808,4.51306563 4.24707482,4.5081741 4.04693772,4.50398136 C3.88434378,4.50048741 3.73221725,4.49657418 3.59362859,4.49657418 L3.59362859,13.0486463 Z M13.089115,13.3333333 L13.0886963,13.3333333 C13.0886963,13.3333333 6.2516558,13.323131 3.45755211,13.319637 C3.38274494,13.319637 3.3220339,13.2592616 3.3220339,13.1844911 L3.3220339,4.36128843 C3.3220339,4.28665765 3.38190755,4.22656171 3.45615646,4.22502437 C3.63131131,4.22306776 3.83256493,4.22698098 4.05321817,4.2325713 C4.26158964,4.23704356 4.47749765,4.24179533 4.70750179,4.24179533 C6.1672186,4.24179533 7.95058807,4.03565227 8.80403183,2.43178936 C8.84087716,2.27651821 9.11972926,1.09109078 9.22649696,0.435346198 C9.2786945,0.161700016 9.46152546,0 9.71609315,0 C9.97694129,0 10.2708665,0.168548159 10.5234803,0.461620704 C10.7642309,0.742254786 11.3021168,1.5486585 11.088721,2.97670583 L10.8848156,3.91923385 L14.5071017,4.06877492 C15.2067442,4.06877492 15.779661,4.64276106 15.779661,5.34867876 C15.779661,5.81896446 15.5179755,6.24410833 15.1228652,6.46604404 C15.5179755,6.68825928 15.779661,7.11396217 15.779661,7.58354908 C15.779661,8.10261033 15.3368193,8.55053475 14.8539223,8.75052846 C15.0899277,8.91572243 15.4120452,9.17329644 15.4184652,9.81674231 C15.4234896,10.3497794 14.9560843,10.8086049 14.4549042,11.0006324 C14.6255929,11.193778 14.8269861,11.507954 14.8269861,12.0521717 C14.8269861,13.0631811 13.7348851,13.3333333 13.089115,13.3333333 Z" id="Fill-1"></path>
                        <polygon id="Fill-4" points="0 13.3333333 5.39830508 13.3333333 5.39830508 4.16666667 0 4.16666667"></polygon>
                    </g>
                    <g id="Group-6" transform="translate(24.084746, 0.000000)" fill="#FC5D16">
                        <path d="M5.3373567,20.8040702 C9.94739218,20.8083764 20.5691269,20.8249861 20.5926496,20.8249861 C21.4685604,20.8245759 22.9482205,20.4856165 22.9482205,19.2161079 C22.9482205,18.2937609 22.5268754,17.8820062 22.2749349,17.6355276 L22.2268578,17.5877493 C22.1705272,17.5317687 22.1490679,17.4497458 22.1721779,17.3734646 C22.1938435,17.2975935 22.256158,17.2397673 22.334567,17.2231577 C23.0957532,17.0587019 23.9058418,16.3902157 23.8990326,15.6559061 C23.89016,14.7946662 23.4795445,14.5135329 23.1170061,14.2645936 C23.0031068,14.1862618 22.8958103,14.1128513 22.8079097,14.0250869 C22.7513727,13.9691063 22.730326,13.8872885 22.752817,13.8116224 C22.774689,13.7353411 22.8372099,13.677515 22.9152062,13.6607004 C23.6706148,13.4974749 24.4796717,12.8275533 24.4796717,12.0909881 C24.4796717,11.340479 23.9440146,10.6806052 23.2059384,10.5210708 C23.1054511,10.4997448 23.034883,10.4109551 23.034883,10.3094518 C23.034883,10.2073334 23.1054511,10.1191588 23.2059384,10.0976278 C23.9440146,9.93870855 24.4796717,9.27821956 24.4796717,8.52750544 C24.4796717,7.64083845 23.7541823,6.91985761 22.8615579,6.91985761 L16.7747512,6.67132838 C16.7101669,6.66845758 16.6505348,6.63790407 16.6113303,6.58725496 C16.5717132,6.53640079 16.5568567,6.47139769 16.5700624,6.40885526 L16.9501397,4.66730513 C17.2643946,2.58228433 16.4887647,1.42043068 16.1402574,1.01851872 C15.7663704,0.586668424 15.3951657,0.432875583 15.1733509,0.432875583 C14.976503,0.432875583 14.8601276,0.542991257 14.8161773,0.770194547 C14.6315035,1.8932924 14.1311304,3.98261941 14.1251466,4.00333018 C14.1214325,4.02117015 14.1150359,4.03798483 14.106576,4.0543894 C12.6316618,6.83865499 9.60177364,7.19545438 7.12673221,7.19545438 C6.75181347,7.19545438 6.38741804,7.18766221 6.06552854,7.18048521 C5.80492184,7.17474361 5.56020328,7.16920707 5.3373567,7.16879696 L5.3373567,20.8040702 Z M20.5926496,21.2578616 L20.5920306,21.2578616 C20.5920306,21.2578616 9.60734481,21.2414571 5.11904959,21.2365357 C4.9987537,21.2365357 4.90136149,21.1399538 4.90136149,21.0204055 L4.90136149,6.95328192 C4.90136149,6.83455385 4.99751566,6.73838206 5.11636717,6.73612643 C5.39822683,6.73284552 5.72135437,6.73981746 6.07563917,6.74760963 C6.41032172,6.75519674 6.75697196,6.76278386 7.12673221,6.76278386 C9.47239882,6.76278386 12.3370091,6.43407729 13.7081346,3.87660488 C13.7675603,3.6297161 14.2151106,1.7392945 14.3871976,0.694118355 C14.4709714,0.257346687 14.7647988,0 15.1733509,0 C15.5928389,0 16.0649435,0.268419772 16.4704005,0.736360122 C16.8574933,1.18297453 17.7220555,2.46929785 17.378294,4.74522684 L17.0514523,6.24870565 L22.8710495,6.48677697 C23.9943614,6.48677697 24.9152542,7.40256207 24.9152542,8.52750544 C24.9152542,9.27678416 24.4951472,9.95572829 23.8598281,10.3094518 C24.4951472,10.6633804 24.9152542,11.3421195 24.9152542,12.0909881 C24.9152542,12.9185986 24.2037959,13.6328126 23.4279596,13.9516764 C23.8070052,14.2151748 24.3245045,14.625084 24.3344087,15.6515999 C24.343075,16.5015617 23.5917932,17.2327954 22.7864504,17.5385356 C23.0610881,17.8469415 23.3840093,18.3483061 23.3840093,19.2161079 C23.3840093,20.8280619 21.6297115,21.2578616 20.5926496,21.2578616 Z" id="Fill-1"></path>
                        <polygon id="Fill-4" points="0 21.6666667 8.57738261 21.6666667 8.57738261 6.94968553 0 6.94968553"></polygon>
                    </g>
                </g>
                <g id="Group-64" transform="translate(67.000000, 80.500000) scale(-1, 1) translate(-67.000000, -80.500000) translate(0.000000, 51.000000)">
                    <path d="M20.0887549,51.7186055 C20.3176061,51.3610591 20.6903651,51.036017 20.9116268,50.8603185 L20.0426344,43.2625311 C23.292672,42.6262098 21.1188773,41.7664586 21.1188773,38.3415098 L21.1188773,35.2316469 L31.2808639,38.5274574 C31.1468809,38.1579049 22.3941974,29.29421 23.3954215,27.271335 C23.7608829,26.5213954 24.6862124,26.2522839 25.8246305,27.1928564 C25.8246305,27.1928564 30.2387735,30.7252741 33.1656756,32.199677 C36.7791312,34.0117139 40.145054,37.1051783 55.6856281,41.0048058 C56.1868239,41.130723 56.4366921,41.3295551 56.4863154,41.587539 L71.962963,44.840889 L61.0680103,54.6597979 L54.4313249,53.860077 C53.4216356,55.0952372 36.0648469,57.3380282 35.045233,57.3380282 L21.4169093,55.2762066 L21.2989809,54.244271 C20.5420788,53.8996092 19.990092,53.4012112 19.8531899,52.6676701 C19.8531899,52.6676701 19.8196212,52.1429173 20.0887549,51.7186055" id="Fill-1" fill="#FFD5CB"></path>
                    <path d="M2.64888578,17.5013674 C5.18882206,23.1450207 11.8020496,25.6518548 17.4205823,23.0995849 C23.0382453,20.5481887 25.5335348,13.903491 22.9935985,8.25983768 C20.4527925,2.61589307 13.8398549,0.108767718 8.221902,2.66074639 C2.60336929,5.2124338 0.108079762,11.8568403 2.64888578,17.5013674" id="Fill-3" fill="#F7F7F7"></path>
                    <polygon id="Fill-5" fill="#78C2D0" points="20.1155309 34.9014085 24.8148148 32.7923289 19.7757334 24.9295775 17.3703704 26.0095519"></polygon>
                    <polygon id="Fill-7" fill="#2879FF" points="30.1776671 59 34.7407407 56.9339104 24.4149255 34.0704225 19.8518519 36.1362266"></polygon>
                    <g id="Group-11">
                        <mask id="mask-6" fill="white">
                            <use xlink:href="#path-5"></use>
                        </mask>
                        <g id="Clip-10"></g>
                        <path d="M2.63570689,16.1084395 C1.33370291,10.0778407 5.14373755,4.13068891 11.1454006,2.82148401 C17.1473572,1.51345856 23.0683055,5.34229318 24.3700159,11.3708279 C25.6720199,17.3996576 21.8616918,23.3476939 15.8606157,24.6554245 C9.8586591,25.9634499 3.93771087,22.1369742 2.63570689,16.1084395 M8.66965591,26.4007362 C15.6313855,29.0831319 23.4375392,25.5874958 26.1064126,18.5941596 C28.77646,11.601708 25.296916,3.7573886 18.3360669,1.07528773 C11.3752178,-1.6053388 3.56671605,1.89147674 0.899016726,8.88363348 C-1.77132417,15.8775594 1.70910036,23.7195199 8.66965591,26.4007362" id="Fill-9" fill="#2879FF" mask="url(#mask-6)"></path>
                    </g>
                    <path d="M2.46796377,8.69586721 C3.81979262,5.25020703 6.62642981,2.76765572 9.94022603,1.66197183 C7.52973244,2.97860857 5.55913384,5.09657517 4.49302839,7.81364785 C2.0762846,13.9772536 5.22698038,20.8886509 11.5319435,23.2519047 C14.3106036,24.2932843 17.238078,24.2769901 19.8518519,23.4055366 C16.7952067,25.0745373 13.0310985,25.4554163 9.50598598,24.134706 C3.20102288,21.7714522 0.0509223502,14.8600549 2.46796377,8.69586721" id="Fill-12" fill="#E4E3E0"></path>
                    <path d="M2.85395714,9.81231997 C0.485543988,16.0176017 3.58471048,23.0006319 9.76254672,25.3792238 C12.778241,26.5403275 16.0600958,26.4439666 19.0024177,25.1083394 C21.9010726,23.791507 24.1242262,21.4236551 25.262835,18.4409432 C26.4106524,15.4361549 26.3236155,12.1610788 25.0189535,9.22072989 C23.7139944,6.28008268 21.3473636,4.02649143 18.3542454,2.87374101 C15.3394423,1.71293567 12.0581816,1.8089982 9.11496856,3.14581875 C6.21661071,4.46175614 3.99375412,6.82960811 2.85395714,9.81231997 M9.61788133,25.758999 C3.23181009,23.2992611 0.0283775703,16.0808478 2.47699536,9.66703285 C3.65392411,6.58378349 5.95252952,4.13627718 8.94832115,2.77559016 C11.9898591,1.39431832 15.3822181,1.29467581 18.4995049,2.49515916 C21.5927303,3.68609592 24.0401599,6.01605988 25.3881919,9.05575293 C26.737115,12.0951477 26.8262313,15.4794128 25.6403909,18.5865287 C24.4631651,21.670673 22.1648567,24.116986 19.1693621,25.477673 C16.126933,26.8589449 12.7351681,26.9588857 9.61788133,25.758999" id="Fill-14" fill="#FFFFFF"></path>
                    <polygon id="Fill-16" fill="#FFFFFF" points="26.4691358 34.7883147 26.1826094 34.0704225 21.5061728 36.6768175 21.7935728 37.3943662"></polygon>
                    <path d="M17.9071051,40.385118 C17.9071051,40.385118 16.2700479,38.5792227 16.5829657,37.3953813 C16.8819356,36.2545019 19.133003,35.7323944 19.133003,35.7323944 C22.3743703,37.0498953 32.5648166,38.5144814 30.2722087,42.1450677 C29.1224178,45.0229242 19.7924954,41.2592751 17.9071051,40.385118" id="Fill-18" fill="#FFD5CB"></path>
                    <path d="M18.7340066,45.3710335 C18.7340066,45.3710335 17.0969836,43.5651382 17.410198,42.3812968 C17.7091616,41.2404173 19.960182,40.7183099 19.960182,40.7183099 C23.2014815,42.0358108 33.3917147,43.5003969 31.099458,47.1309832 C29.949388,50.0088397 20.6196606,46.2451906 18.7340066,45.3710335" id="Fill-20" fill="#FFD5CB"></path>
                    <path d="M18.7339683,49.525963 C18.7339683,49.525963 17.097215,47.7200678 17.4101327,46.5362264 C17.7094056,45.3953469 19.9601688,44.8732394 19.9601688,44.8732394 C23.2015346,46.1907404 33.3919762,47.6553265 31.0993694,51.2859128 C29.949579,54.1637693 20.6202673,50.4001201 18.7339683,49.525963" id="Fill-22" fill="#FFD5CB"></path>
                    <path d="M20.073225,54.308723 C20.073225,54.308723 18.8143824,52.9043216 19.0553431,51.9831425 C19.2847873,51.0966472 21.015216,50.6901408 21.015216,50.6901408 C23.5078012,51.7144897 31.092158,51.8197169 29.5802476,55.6778527 C28.6961344,57.9161358 21.5228282,54.988585 20.073225,54.308723" id="Fill-24" fill="#FFD5CB"></path>
                    <path d="M131.331601,47.44179 C133.561331,54.0059419 130.00722,50.0510691 134,56.0720403 C112.154646,60.9756113 62.6711429,58.998606 51.2839506,55.4078654 L55.2862609,41.1351459 C79.6570645,41.863123 108.800087,35.7904203 124.159266,31.5774648 C124.276226,32.0444852 129.1758,41.0937607 131.331601,47.44179" id="Fill-26" fill="#FFB839"></path>
                    <path d="M60.382716,40.7722513 C58.6188206,40.7889615 56.8722237,40.7725445 55.1504586,40.7183099 L51.2839506,55.2772349 C52.5941773,55.7137506 54.427546,56.1265202 56.6749643,56.5070423 C57.7053448,51.205532 58.814685,45.9213182 60.382716,40.7722513" id="Fill-28" fill="#F57C02"></path>
                    <path d="M53.1669672,54.8450704 L52.9382716,54.8238882 C53.2044876,52.0304859 54.0099845,48.900522 54.7886812,45.8729388 C55.2570903,44.0539176 55.698997,42.3355118 56.0217913,40.7183099 L56.2469136,40.7621452 C55.9232259,42.3855253 55.4804259,44.1065789 55.0111234,45.9291304 C54.2345112,48.9478878 53.4313965,52.0696142 53.1669672,54.8450704" id="Fill-30" fill="#FFFFFF"></path>
                    <path d="M25.6610266,37.3943662 C26.3137199,37.4117925 26.9613426,37.59634 27.5438931,37.906014 C28.1236267,38.2202589 28.6422319,38.6544882 29.0540738,39.1798485 C29.2591496,39.4426715 29.4371825,39.7300627 29.5701437,40.0405938 C29.700288,40.3514105 29.791558,40.6893666 29.7760646,41.0398925 C29.7678954,41.3878473 29.615497,41.7486576 29.3405602,41.9780563 C29.0690037,42.2108832 28.7258961,42.3185835 28.3932113,42.3680057 L28.3892675,42.3682913 L28.3827885,42.3688627 C27.8698172,42.3900028 27.3529022,42.3831466 26.8390858,42.3368669 C26.3247061,42.2905872 25.8139884,42.2045983 25.3139752,42.0877564 C24.3133855,41.8526441 23.3375851,41.5741088 22.3333333,41.4189861 L22.3654469,41.2018715 C22.873911,41.2752905 23.3789947,41.3724207 23.8790079,41.4864059 L25.3669344,41.8477875 C25.861877,41.959773 26.3582281,42.0537608 26.8610582,42.1026116 C27.3627616,42.1531764 27.8689721,42.1646035 28.3751826,42.1486056 L28.3653232,42.1497483 C28.6746272,42.1117532 28.9819592,42.0194795 29.216895,41.8269331 C29.4532392,41.6378148 29.5895808,41.342139 29.6059193,41.0298938 C29.62761,40.7170773 29.5518334,40.3971189 29.4346472,40.0983006 C29.3149257,39.7989109 29.1492875,39.5169475 28.9557613,39.2569813 C28.5675821,38.7361918 28.0692591,38.2982488 27.5067091,37.9740052 C26.9461309,37.6471905 26.3128748,37.4377891 25.6610266,37.3943662" id="Fill-32" fill="#D2A066"></path>
                    <path d="M28.526924,43.2112676 C29.0852125,43.3425271 29.6340899,43.522578 30.1283224,43.794378 C30.617394,44.0637915 31.0645713,44.4345001 31.2904367,44.9210884 C31.4030659,45.1613331 31.4525499,45.4278297 31.4243167,45.6898183 C31.3985122,45.9526025 31.2943833,46.2087574 31.1334845,46.431766 C30.8107762,46.8817607 30.2788994,47.1909498 29.7115035,47.3532343 L29.7108963,47.3532343 L29.6969315,47.3572118 L29.6802345,47.3577422 C29.1264997,47.3752434 28.5709435,47.366758 28.0166016,47.3211486 C27.4634741,47.2765999 26.9145967,47.1922756 26.3757375,47.0851467 L24.7709997,46.7483799 C24.2373014,46.6401902 23.7011745,46.5473804 23.1604938,46.4765799 L23.1951022,46.2745198 C23.7421582,46.346381 24.2858746,46.4399863 24.8235195,46.5492366 L26.4267394,46.8860035 C26.9604376,46.9918066 27.4968682,47.0742747 28.0390667,47.1177627 C28.5806582,47.1623114 29.1264997,47.1707968 29.6717341,47.1538259 L29.6416795,47.1583338 C30.174467,47.0228316 30.6750747,46.7515619 30.9868541,46.3482372 C31.3034908,45.950216 31.3827259,45.4185487 31.181147,44.9574168 C30.9871577,44.4925725 30.5688208,44.1170908 30.0964462,43.8370705 C29.6195179,43.5549289 29.0794444,43.3587025 28.526924,43.2112676" id="Fill-34" fill="#D2A066"></path>
                    <path d="M27.7942997,48.1971831 C28.3858302,48.2545543 28.9776617,48.4016838 29.5210269,48.6644811 C30.0628869,48.9254277 30.5620001,49.3020421 30.9292608,49.7989511 C31.2908018,50.2884573 31.5268119,50.9324958 31.3952603,51.568823 C31.3311402,51.8822057 31.1724957,52.1743055 30.9533434,52.3997807 C30.7344922,52.6277234 30.4635622,52.7902752 30.1811929,52.9062515 C29.6131431,53.1400547 28.9939175,53.1752177 28.4081067,53.1801529 C27.8159741,53.1906401 27.2199282,53.1758346 26.6271936,53.09132 C26.0329538,53.0098899 25.4603884,52.8393184 24.8908334,52.7063775 C24.3200742,52.5712775 23.7429933,52.4725743 23.1604938,52.4003976 L23.189092,52.1650521 C23.7770101,52.2409302 24.363423,52.3445686 24.9408049,52.4849122 C25.5190899,52.6237136 26.0817212,52.7939766 26.6572969,52.8763321 C27.2331736,52.962389 27.8189845,52.9799705 28.4050964,52.9731846 C28.9930144,52.9713339 29.5752129,52.9392554 30.1104501,52.7233421 C30.3744563,52.6166193 30.6228088,52.4676391 30.8202867,52.2646806 C31.0177645,52.0635729 31.157745,51.8075614 31.2167476,51.5293417 C31.337763,50.966425 31.130652,50.3692706 30.7907854,49.9050571 C30.4473064,49.434983 29.9722758,49.0694727 29.4508861,48.8153119 C28.9279912,48.5596089 28.3578341,48.4130964 27.7771408,48.3532575 L27.7942997,48.1971831 Z" id="Fill-36" fill="#D2A066"></path>
                    <path d="M25.8129805,52.3556869 C26.6048551,52.3138882 27.3836236,52.6419532 27.9734011,53.168837 C28.2696005,53.4333789 28.5259571,53.7496192 28.7091813,54.1120581 C28.8895222,54.4706471 29.0027595,54.8913842 28.9264816,55.3049715 C28.8884737,55.5092902 28.7990896,55.7039842 28.6693386,55.8607294 C28.5401118,56.0185746 28.3765468,56.1387459 28.202759,56.2283931 C27.8512516,56.4065877 27.4648818,56.4734106 27.0840166,56.4984349 C26.3186164,56.5413335 25.5579345,56.4184123 24.8148148,56.2512174 C25.5608178,56.4010878 26.3235968,56.5061346 27.0803469,56.4456365 C27.4564939,56.4123625 27.8355242,56.3367398 28.1684209,56.1571703 C28.5013175,55.9842006 28.7705182,55.6685103 28.8271368,55.2854471 C28.8895222,54.9054087 28.7775955,54.5121708 28.5983032,54.1750311 C28.4169138,53.8348666 28.1652754,53.5370507 27.8764155,53.2912082 C27.3005305,52.7995233 26.5589835,52.5105072 25.8224169,52.5671555 L25.8129805,52.3556869 Z" id="Fill-38" fill="#D2A066"></path>
                    <path d="M26.4691358,41.297121 L26.556738,39.8873239 C26.556738,39.8873239 27.5060427,40.1419577 27.7930663,40.370484 C28.1992794,40.7298952 28.1165206,41.3442883 28.1165206,41.3442883 C28.0792476,41.8316255 26.4691358,41.297121 26.4691358,41.297121" id="Fill-40" fill="#FFD5CB"></path>
                    <path d="M26.6217147,42.5454614 C26.7852057,42.6478442 27.3220077,42.9664392 27.679429,42.9664392 C27.9596994,42.9664392 27.9667827,42.7772535 27.9696543,42.7063487 C27.9706115,42.6898148 28.0364674,41.625288 27.6949358,41.0189401 C27.5002397,40.7063864 26.9195977,40.3512262 26.6935052,40.220545 L26.6217147,42.5454614 Z M27.679429,43.2112676 C27.2270527,43.2112676 26.5466696,42.7604017 26.5179534,42.7416421 L26.4691358,42.7088923 L26.5560502,39.8873239 L26.6477507,39.9366076 C26.6835503,39.9556851 27.5301046,40.414818 27.8000371,40.8469243 C28.1907693,41.5413468 28.119553,42.6790042 28.1164899,42.7276519 C28.1084494,42.9448179 28.0255552,43.2112676 27.679429,43.2112676 Z" id="Fill-42" fill="#D2A066"></path>
                    <path d="M28.0526857,47.3156599 C27.5824559,47.2245147 27.3948501,47.0037936 27.3948501,47.0037936 L27.2962963,44.0422535 C27.2962963,44.0422535 28.4778371,44.4534274 28.7664274,44.9822738 C29.1805301,45.8059819 28.8766927,47.6986059 28.0526857,47.3156599" id="Fill-44" fill="#FFD5CB"></path>
                    <path d="M27.5419811,46.8450942 C27.6037019,46.8994213 27.7694892,47.0208767 28.071302,47.0801994 C28.142211,47.1120463 28.198339,47.1257842 28.2518703,47.1257842 C28.5035474,47.1257842 28.6387739,46.8157451 28.6966996,46.6305959 C28.8471066,46.1513311 28.8251348,45.492537 28.6461644,45.1309809 C28.4673938,44.7984616 27.8018477,44.4824903 27.4600862,44.3485459 L27.5419811,46.8450942 Z M28.2518703,47.3661972 C28.1835579,47.3661972 28.1120497,47.3490248 28.039343,47.3146801 C27.6116916,47.2319406 27.4285266,47.0180667 27.4207366,47.0090122 L27.392373,46.9752919 L27.2962963,44.0422535 L27.3951694,44.0772227 C27.4395125,44.0928339 28.491363,44.4696891 28.7660106,44.9801764 C28.9833318,45.4191642 29.0118952,46.1725623 28.835122,46.7364401 C28.7074857,47.1426443 28.5003515,47.3661972 28.2518703,47.3661972 Z" id="Fill-46" fill="#D2A066"></path>
                    <path d="M28.7704782,50.6892541 C28.3031605,50.66553 28.1234568,50.5602668 28.1234568,50.5602668 L28.1298433,49.028169 C28.1298433,49.028169 29.3844657,49.1958325 29.6549022,49.4560001 C29.8330643,49.6499794 29.7650147,50.1029301 29.7650147,50.1029301 C29.7566462,50.6326352 29.0034763,50.6992222 28.7704782,50.6892541" id="Fill-48" fill="#FFD5CB"></path>
                    <path d="M28.2774035,50.4593719 C28.3430955,50.4852948 28.5040307,50.535328 28.7913581,50.5500117 C28.801741,50.5503742 28.813921,50.5505555 28.8274986,50.5505555 C28.8590467,50.5505555 29.6044206,50.5452984 29.6120081,50.0853919 C29.6283812,49.9706419 29.6443549,49.6677236 29.5297434,49.5428219 C29.362219,49.3813018 28.6400071,49.2442544 28.2827947,49.1905956 L28.2774035,50.4593719 Z M28.8274986,50.6901408 C28.8111256,50.6901408 28.7965496,50.6897783 28.7835709,50.6892344 C28.3438942,50.666937 28.1659868,50.5650579 28.158599,50.5610697 L28.1234568,50.5402226 L28.1294469,49.028169 L28.2173024,49.0399522 C28.3363067,49.0560861 29.3887753,49.2032852 29.6449539,49.4503693 C29.8262557,49.6479641 29.7717454,50.050405 29.7645572,50.0957249 C29.7581677,50.5632451 29.1723314,50.6901408 28.8274986,50.6901408 Z" id="Fill-50" fill="#D2A066"></path>
                    <path d="M27.8775327,55.6752517 C27.458922,55.6504581 27.2962963,55.5632039 27.2962963,55.5632039 L27.4029065,54.0140845 C27.4029065,54.0140845 28.4705144,54.3287717 28.7162599,54.5428544 C29.0674111,54.8770904 28.9198433,55.1686529 28.9198433,55.1686529 C28.9204456,55.5977719 28.0856334,55.6857412 27.8775327,55.6752517" id="Fill-52" fill="#FFD5CB"></path>
                    <path d="M27.5056943,54.6155791 C27.5695158,54.636614 27.7005874,54.6696389 27.9171059,54.6824702 L27.9405775,54.6831013 C28.088,54.6831013 28.4485126,54.6378761 28.6228351,54.4984144 C28.6887665,54.445827 28.7206773,54.3865084 28.7204135,54.3162516 L28.7280616,54.2859613 C28.7317537,54.2777577 28.8280135,54.0667771 28.5661342,53.8160404 C28.4284695,53.6952998 27.8952167,53.5104025 27.5877129,53.413221 L27.5056943,54.6155791 Z M27.9405775,54.8450704 C27.9266,54.8450704 27.9142049,54.8448601 27.9031285,54.844229 C27.519408,54.8215113 27.3601178,54.7405267 27.3435031,54.7312713 L27.2962963,54.7056087 L27.4002041,53.1830986 L27.5294296,53.2218029 C27.6272717,53.2506208 28.4936097,53.5118749 28.7193586,53.7096035 C29.0231703,54.000517 28.9498546,54.2626125 28.9234821,54.3299244 C28.9195262,54.4378337 28.8667811,54.533122 28.7668292,54.6130549 C28.5284214,54.8036316 28.0895823,54.8450704 27.9405775,54.8450704 Z" id="Fill-54" fill="#D2A066"></path>
                    <path d="M25.6027847,28.8783612 C26.0408153,29.5924386 26.4691358,29.915493 26.4691358,29.915493 L26.2215299,28.0324084 C26.2215299,28.0324084 25.167811,26.6584119 24.9606635,26.5931511 C24.6717,26.5514492 24.9013244,27.337828 24.9013244,27.337828 C24.9013244,27.337828 24.9478966,27.8030479 25.6027847,28.8783612" id="Fill-56" fill="#FFD5CB"></path>
                    <path d="M25.1668181,26.7833907 C25.1098967,26.7833907 25.0971385,26.7983244 25.090923,26.8055424 C25.0156821,26.8929047 25.1193836,27.1731612 25.2132711,27.3349433 L25.2217766,27.3593351 C25.222758,27.3623218 25.3320209,27.7837021 26.4668493,28.7250253 C26.97816,29.1464055 27.4868537,29.4179506 27.772769,29.5535987 L27.3841335,28.062963 C26.6484088,27.5796077 25.4268898,26.8224673 25.1795763,26.7828929 C25.1838291,26.7836396 25.1746693,26.7833907 25.1668181,26.7833907 Z M28.1234568,29.915493 L27.8938086,29.8281306 C27.8610952,29.8159347 27.0841515,29.5160155 26.2813642,28.854451 C25.1828477,27.9432442 25.0029239,27.4892586 24.9767531,27.4028918 C24.9195047,27.3013424 24.7101388,26.8986293 24.8799214,26.7007573 C24.9267016,26.6460003 25.0235333,26.5792963 25.2175239,26.5934833 C25.6202261,26.6572006 27.2578598,27.7262072 27.5820497,27.9397596 L27.614436,27.9614136 L28.1234568,29.915493 Z" id="Fill-58" fill="#D2A066"></path>
                    <path d="M39.5067415,47.3390851 C38.5162642,47.1487581 37.6070001,46.6601981 36.8245474,46.0542426 C36.037238,45.4453048 35.355155,44.7195138 34.7329702,43.9544103 C34.1110551,43.187409 33.5498476,42.3748593 33.014542,41.5492958 C32.4768081,40.7237323 31.9738799,39.8778347 31.4320988,39.056338 C31.9935761,39.8642787 32.5172798,40.698518 33.0736307,41.5091699 C33.6286325,42.3206351 34.207108,43.115833 34.8427834,43.861958 C35.478189,44.6061852 36.1699851,45.3062197 36.9529775,45.8818096 C37.7340812,46.4552306 38.6142057,46.8987846 39.5623226,47.0568481 L39.7037037,47.0804356 L39.6473131,47.3661972 L39.5067415,47.3390851 Z" id="Fill-60" fill="#D2A066"></path>
                    <path d="M58.7283951,42.3797394 C58.7283951,42.8392491 58.3578905,43.2112676 57.9010547,43.2112676 C57.4449384,43.2112676 57.0740741,42.8392491 57.0740741,42.3797394 C57.0740741,41.9209527 57.4449384,41.5492958 57.9010547,41.5492958 C58.3578905,41.5492958 58.7283951,41.9209527 58.7283951,42.3797394" id="Fill-62" fill="#FFFFFF"></path>
                </g>
                <path d="M96.5587285,0.80303352 C94.9555437,0.549311772 93.3366068,0.420776167 91.7471014,0.420776167 L91.7435779,0.420776167 L91.6121727,0.420985508 L91.6098928,0 L91.7473086,0 C93.3583695,0 94.9990691,0.130210336 96.6233948,0.387281546 L96.5587285,0.80303352 Z M81.9109873,2.23032302 L81.7582339,1.83927333 C83.2847312,1.23008993 84.9140312,0.764933389 86.6001215,0.456992225 L86.6745292,0.871278809 C85.0149687,1.17419578 83.4126129,1.63139735 81.9109873,2.23032302 Z M105.979901,3.85627749 C104.520764,3.11060351 102.976235,2.47232166 101.388388,1.9590166 L101.51544,1.55812786 C103.124221,2.07834118 104.689684,2.72520604 106.167889,3.48071907 L105.979901,3.85627749 Z M73.8233498,7.8335543 L73.5139051,7.55199015 C74.6362381,6.29615124 75.9125681,5.1717787 77.3080747,4.2104831 L77.5426972,4.55819913 C76.1747567,5.50065401 74.9235056,6.60283635 73.8233498,7.8335543 Z M113.860274,9.84511559 C112.781674,8.63637848 111.549284,7.50614439 110.196681,6.48665189 L110.44519,6.14940293 C111.820385,7.1854334 113.073294,8.33450822 114.169719,9.56376078 L113.860274,9.84511559 Z M69.0537972,16.5034274 L68.6554364,16.3794973 C69.1634397,14.7152334 69.8188076,13.1399395 70.603508,11.6973681 L70.9684994,11.9000105 C70.1972711,13.317461 69.5530955,14.8661685 69.0537972,16.5034274 Z M118.597701,18.5122673 C118.175712,16.917086 117.551227,15.3641916 116.741862,13.8960806 L117.105817,13.691554 C117.93197,15.1898103 118.569099,16.7747338 119,18.4038284 L118.597701,18.5122673 Z M67.6997434,26.4002503 L67.282936,26.4002503 L67.282936,26.3443562 C67.282936,24.613103 67.3888478,22.9289516 67.5973551,21.3394225 L68.0102244,21.3946887 C67.8044116,22.966005 67.6997434,24.631525 67.6997434,26.3443562 L67.6997434,26.4002503 Z M30.6892836,29.3377285 L30.6399548,28.9203018 C32.2908103,28.7197528 33.9756571,28.6075458 35.648068,28.5866117 L35.6534568,29.0073878 C33.9955544,29.0279033 32.3258379,29.1392729 30.6892836,29.3377285 Z M45.5478121,29.9425157 C43.9278389,29.6130124 42.27118,29.3666176 40.623848,29.2106583 L40.662399,28.7915569 C42.3244468,28.9489816 43.9958214,29.1972604 45.6296812,29.5299039 L45.5478121,29.9425157 Z M21.0222967,31.63211 L20.8809428,31.2362455 C22.433348,30.6712331 24.0535285,30.1878638 25.6960934,29.7995356 L25.7908129,30.209426 C24.164,30.5935674 22.5597789,31.0727498 21.0222967,31.63211 Z M55.0263963,32.9484486 C53.5098477,32.2837897 51.9416904,31.6930283 50.3658644,31.1927024 L50.4902226,30.7916044 C52.0803498,31.2959077 53.6623938,31.8919026 55.1924145,32.5628418 L55.0263963,32.9484486 Z M12.2011529,36.2020322 L11.9615561,35.857875 C13.3002724,34.9089306 14.7500821,34.0309528 16.2703615,33.2478067 L16.4595932,33.6227371 C14.9565168,34.3966722 13.52391,35.2646016 12.2011529,36.2020322 Z M68.3182183,36.4691518 C67.9894981,34.7592515 67.7358073,33.0742627 67.5644002,31.4614968 L67.9783058,31.4164884 C68.1486766,33.0173219 68.4007093,34.6905875 68.7271496,36.3889741 L68.3182183,36.4691518 Z M63.6815217,37.8780193 C62.3268461,36.9093968 60.9131003,36.0042046 59.480079,35.1873546 L59.6848555,34.8207978 C61.1303127,35.6445562 62.5558725,36.5579126 63.9225694,37.5342808 L63.6815217,37.8780193 Z M5.17035321,43.2015705 L4.82836808,42.9610373 C5.75898216,41.6089013 6.85540721,40.3072166 8.08738273,39.0921993 L8.37817373,39.3934415 C7.16526647,40.5898275 6.08645883,41.8709967 5.17035321,43.2015705 Z M70.5400853,43.7615587 L69.97239,43.1984304 C69.2028198,42.434753 68.4029892,41.688451 67.5954897,40.9810865 L67.8682488,40.6628876 C68.4883818,41.2067565 69.1043696,41.7726063 69.7056416,42.3516445 C69.6175545,42.0328176 69.5313328,41.7160841 69.4482201,41.4012347 L69.8505189,41.2927958 C69.9985052,41.852156 70.1545748,42.4177964 70.3187277,42.9899264 L70.5400853,43.7615587 Z M1.50966148,52.3876794 L1.09720668,52.3280172 C1.33390184,50.6620785 1.77827525,49.0120497 2.41789107,47.4237767 L2.80381611,47.5822481 C2.17684337,49.1389106 1.74138231,50.7556541 1.50966148,52.3876794 Z M2.0647137,62.378706 C1.52375541,60.7249091 1.16560371,59.0537369 1,57.4110351 L1.41452743,57.3681201 C1.57702218,58.9804674 1.92874871,60.6219131 2.46038014,62.2468209 L2.0647137,62.378706 Z M6.79758064,71.2972766 C5.75960395,69.8907119 4.84453465,68.4558861 4.0776589,67.0319461 L4.44347936,66.8311877 C5.20102824,68.2373337 6.10552709,69.6554122 7.13168974,71.0458576 L6.79758064,71.2972766 Z M13.6207021,78.7096361 C12.3321436,77.5490475 11.1227598,76.3604072 10.025713,75.1780471 L10.3295616,74.890412 C11.4181106,76.0641891 12.6185821,77.2429904 13.8982282,78.395624 L13.6207021,78.7096361 Z M21.3657326,85.0660776 C20.7281894,84.43282 19.9969631,83.8129602 19.1934016,83.2234548 C18.613685,82.7974451 18.0385282,82.3641085 17.4849268,81.9341213 L17.7384104,81.6004312 C18.2895246,82.0279062 18.8611579,82.4595682 19.4385946,82.8828564 C20.2587371,83.4845035 21.0050938,84.1181799 21.6579745,84.7667195 L21.3657326,85.0660776 Z M25.5570195,93.9239393 L25.1404194,93.9172404 L25.141663,93.7269491 C25.141663,92.085294 24.8239277,90.5263288 24.1967477,89.0929684 L24.5779057,88.9229832 C25.2287138,90.4103536 25.5582631,92.0266784 25.5582631,93.7269491 L25.5570195,93.9239393 Z M22.7054853,103.606397 L22.3353123,103.412965 C23.1813628,101.759378 23.8164188,100.251282 24.2777878,98.8028494 L24.6742833,98.932013 C24.2064891,100.402636 23.561899,101.931875 22.7054853,103.606397 Z M17.3798441,112.187928 L17.0391026,111.945929 C18.1552177,110.341118 19.0418919,109.01201 19.8297012,107.763288 L20.181635,107.989377 C19.3896804,109.243541 18.49969,110.577464 17.3798441,112.187928 Z M11.5913831,120.43221 L11.2473253,120.195863 C12.1953496,118.784902 13.2329117,117.319932 14.1305709,116.057394 L14.4690325,116.302951 C13.572617,117.563396 12.5377492,119.025645 11.5913831,120.43221 Z M6.9360328,129.259717 L6.53601383,129.14102 C6.93541101,127.763345 7.60280017,126.242061 8.5765251,124.490502 L8.94027292,124.696284 C7.9818855,126.42021 7.32589584,127.912815 6.9360328,129.259717 Z M9.80311177,138.029446 C8.09028443,136.978971 6.99696833,135.735902 6.46098436,134.228644 L6.85271278,134.086292 C7.35553456,135.499137 8.39081681,136.67103 10.0190806,137.669169 L9.80311177,138.029446 Z M19.2758926,141 C17.4878285,140.716342 15.8678553,140.367998 14.4611565,139.965854 L14.574737,139.560569 C15.9652693,139.958945 17.5686614,140.302684 19.3407661,140.583829 L19.2758926,141 Z" id="Fill-110" fill="#78C2D0"></path>
                <g id="Group-12" transform="translate(34.000000, 32.000000)">
                    <g id="Group-3">
                        <mask id="mask-8" fill="white">
                            <use xlink:href="#path-7"></use>
                        </mask>
                        <g id="Clip-2"></g>
                        <path d="M9.43650608,1.53241291 C9.54912486,1.53328517 9.43650608,1.82461953 9.43650608,1.82461953 C14.5043514,-0.26240445 49.4394453,-1.64435276 50.5515558,6.16846715 C52.3459867,18.7752201 54.1588044,27.560899 44.705147,31.3435937 C38.6289039,33.7757413 25.2735227,33.1320144 16.6759978,32.3205232 L9.78211934,37.5069726 L9.94587624,31.5372351 C9.57929061,31.4825735 9.28826298,31.4345993 9.09520221,31.3970922 C-0.302145856,29.5859927 -5.62683094,1.30649794 9.43650608,1.53241291" id="Fill-1" fill="#FC5D16" mask="url(#mask-8)"></path>
                    </g>
                    <path d="M10.941388,25.5927147 C10.9367311,25.4369539 10.9494599,25.2486814 10.9774013,25.0270104 C11.0078264,24.8065217 11.0205553,24.6430763 11.0180716,24.5340142 C11.0143461,24.4273166 11.0276959,24.2881072 11.0587419,24.1152038 C11.089167,23.942596 11.1025167,23.8036822 11.0997226,23.6958024 C11.0950657,23.5403371 11.108105,23.3662515 11.1375987,23.1750234 C11.1677133,22.9823174 11.1792004,22.8085273 11.1745435,22.6512887 C11.2335309,22.5437044 11.2636455,22.4254799 11.2648873,22.2977974 C11.2661292,22.1704105 11.2655083,22.0784909 11.263956,22.0193787 C11.2636455,21.9907092 11.2661292,21.9422372 11.2726488,21.8772137 L11.5492687,21.9017453 C11.5560989,21.8343573 11.566344,21.7474623 11.5809357,21.6413558 C11.6122921,21.4137736 11.6247105,21.1870781 11.6185013,20.9686583 C11.6107398,20.7316181 11.6352662,20.4431503 11.6908385,20.0736987 C11.749205,20.1446334 11.8168853,20.1939921 11.9019513,20.2043368 C12.0053345,20.2173415 12.1391428,20.2194104 12.3033762,20.214977 C12.4157627,20.2123169 12.5706823,20.2330062 12.7662721,20.2767493 C12.9640351,20.3199012 13.1459647,20.3920182 13.3129922,20.4957602 C13.427552,20.550439 13.5511151,20.6154625 13.6821292,20.6902395 C13.8128329,20.7650165 13.9081441,20.8016661 13.9702361,20.7993017 C14.0826227,20.7972327 14.2207774,20.8595962 14.3843898,20.986392 C14.54645,21.1146656 14.713167,21.2535794 14.8820573,21.406089 C15.051258,21.5580075 15.2040043,21.697808 15.3412277,21.8260816 C15.4790719,21.9540596 15.548615,22.047457 15.5504777,22.1062737 L15.5632066,22.5306997 C15.5666217,22.638284 15.5923898,22.8700041 15.6386484,23.226451 C15.6610015,23.3946254 15.665348,23.5657554 15.6799396,23.7357031 L15.4160485,23.7552102 C15.4312611,23.9393449 15.4415063,24.123184 15.4486468,24.3339192 C15.517569,24.8591316 15.5548242,25.2330167 15.5613438,25.4478897 L15.5625857,25.5338981 C15.5591706,25.6849299 15.5188108,25.8164546 15.4694477,25.8971429 C15.3946268,25.9719199 15.3095608,26.080982 15.2170437,26.2193047 C15.1400496,26.3319135 15.0506371,26.4406801 14.9522212,26.5408754 C14.9382505,26.5553579 14.8761585,26.6088545 14.6684608,26.7114143 C14.499881,26.7956492 14.3371999,26.8680617 14.2040125,26.9215583 C14.0053181,26.9806706 13.7942053,27.0315071 13.5790565,27.0711123 C13.3977478,27.103033 13.2142659,27.0994862 13.03482,27.0563343 L12.9587573,27.0474674 C12.8261909,27.0519009 12.6526437,27.0244137 12.4396681,26.9650058 L12.3133109,26.9283562 L12.2325913,27.1822434 C12.0528349,27.1293379 11.8898434,27.0808659 11.7560351,27.0377139 C11.5368503,26.9375186 11.3518162,26.8405745 11.2003117,26.7522017 C11.0491176,26.6635333 10.9718131,26.589643 10.9699503,26.5314174 C10.8740182,26.4072817 10.8308642,26.339007 10.8411094,26.3292535 C10.9010282,26.268959 10.9330056,26.1714238 10.9407671,26.0345789 C10.9457344,25.8962562 10.9457344,25.7496578 10.941388,25.5927147 Z M11.2540212,9.64511393 C11.2192497,9.08975425 11.1689552,8.46759773 11.1003435,7.73076342 C11.0997226,7.71953209 11.0991017,7.70268509 11.1289058,7.67431121 L11.1754749,7.60899216 C11.182305,7.5995342 11.1872723,7.58948512 11.1919292,7.58002716 C11.2372564,7.58830287 11.3061785,7.60278538 11.4108036,7.62849921 L11.4871767,7.63559268 C11.519775,7.634706 11.6188118,7.64179947 11.8286828,7.72721668 C12.0084391,7.80110701 12.176398,7.88445529 12.3428046,7.9867195 C12.5992446,8.12267769 12.7901775,8.24917793 12.9078419,8.36296903 C13.0211598,8.47291783 13.1329254,8.64552563 13.2375504,8.86808328 C13.314855,9.04955792 13.4024047,9.19645188 13.5045461,9.31822313 C13.5526674,9.3734931 13.5703636,9.40452703 13.5740891,9.40393591 L13.5775042,9.505609 L13.6613284,9.58186381 C13.679956,9.5987108 13.6982731,9.61851341 13.7162798,9.64186275 L13.9367065,9.48107741 C13.971478,9.5239338 14.0043867,9.57033692 14.037606,9.626198 C14.095662,9.72757553 14.1850745,9.85437132 14.3021179,10.0080632 C14.3670041,10.113283 14.4464818,10.2808663 14.5405512,10.5069707 C14.6358625,10.7348484 14.7175135,10.9497215 14.7842624,11.1533632 C15.0258003,11.6555219 15.1521575,12.2776784 15.1648864,13.0198328 C15.1745106,13.3340145 15.1859977,13.606522 15.1977951,13.8414932 C15.210524,14.0749866 15.2480897,14.2209939 15.3111131,14.2789239 C15.3129758,14.3368539 15.299626,14.4595119 15.2688905,14.6466022 C15.2387759,14.8319191 15.2269784,15.0568412 15.2353608,15.3222553 C15.2359817,15.3320088 15.233498,15.3444224 15.234119,15.3541759 L14.9587409,15.3612694 C14.9643292,15.6024474 14.9528422,15.8536745 14.923038,16.1075617 C14.8926129,16.3647 14.8522531,16.5665683 14.8010272,16.7075511 C14.7432816,16.8707009 14.6923662,17.0243928 14.6501436,17.1638977 C14.6073001,17.3031071 14.569424,17.3465546 14.5616625,17.3542392 L14.4887044,17.3956178 L14.4921195,17.505271 C14.4921195,17.505271 14.4828057,17.5235958 14.4443086,17.5629055 L14.2341272,17.775414 C14.1621004,17.8495999 14.1040444,17.9163968 14.0649264,17.975509 C14.0261189,18.0301879 13.9994194,18.1034871 14.0009717,18.1838798 C13.7280773,18.3638766 13.5014415,18.503086 13.3030575,18.6130348 C13.1018794,18.7673178 12.87959,18.9148028 12.646745,19.0522388 C12.4092431,19.1890837 12.2164474,19.2857323 12.0705311,19.3436623 C11.9643538,19.3850409 11.8432744,19.4355818 11.7231264,19.4861228 C11.7122603,19.4066168 11.7041883,19.3279975 11.6731423,19.2467182 L11.6424068,18.2385586 C11.6399231,18.1646683 11.6287465,18.0027007 11.5554779,17.4449765 C11.5014579,17.0373975 11.4368822,16.5999668 11.3626823,16.1634227 L11.3487116,15.7706218 L11.0708498,15.7803753 C11.0534641,15.3852098 11.0289377,15.0612747 10.9966499,14.8088653 C10.9566005,14.47695 10.9640516,14.2322252 11.0211762,14.0740999 C11.0786113,13.9162702 11.0991017,13.5420896 11.0873042,12.9500803 C11.0739544,12.3589577 11.0547059,11.6185767 11.027075,10.7292328 C11.0180716,10.4091399 10.9991335,10.0467817 10.9749177,9.66166536 L11.2540212,9.64511393 Z M16.4082788,22.9187717 L16.3704027,21.6655918 L15.5765564,20.9565403 C15.3573716,20.8063951 15.1235952,20.6399941 14.8742958,20.4599973 C14.6203395,20.2743848 14.4210241,20.1150773 14.2654836,19.9743901 L14.1953197,19.9282825 C13.978929,19.8277917 13.7848915,19.7364632 13.6122757,19.6516371 C13.6101025,19.6507505 13.6069979,19.6507505 13.6048247,19.6486815 C13.679956,19.6132142 13.7591233,19.5682889 13.8438789,19.5150878 L13.6895803,19.2937124 C13.7796137,19.236078 13.874304,19.1707589 13.978929,19.0912529 C14.2099113,18.9136206 14.4048802,18.7433773 14.5638357,18.5820008 C14.7243436,18.4218066 14.8774004,18.2314651 15.0254898,18.0133409 C15.172027,17.7928522 15.3011783,17.6282245 15.4098393,17.5182757 C15.5436476,17.1907938 15.6153639,16.9791719 15.6218836,16.8801589 C15.6197103,16.8225244 15.6364752,16.7450874 15.6693839,16.6534634 C15.7016718,16.5588838 15.7175052,16.4575062 15.7140902,16.3502175 C15.7709044,16.1923877 15.7960516,15.9252003 15.7907738,15.5492464 C15.7830123,15.1727013 15.7709044,14.6720204 15.7513454,14.0463172 C15.7460676,13.8683893 15.7255772,13.6999193 15.7150216,13.5246515 L16.0056122,13.5086912 C15.9888473,13.2166766 15.9637001,12.9308688 15.9314122,12.6494945 C15.8842223,12.2164972 15.8572123,11.9481275 15.8544181,11.8423166 C15.8503821,11.7119741 15.8202675,11.5517798 15.7612801,11.3516848 C15.7075705,11.1601611 15.6439262,10.9831199 15.5740727,10.8199701 C15.5070133,10.6615492 15.4281565,10.4886459 15.3375022,10.3074668 C15.245606,10.1191942 15.1655073,9.97052691 15.0866504,9.84402668 C14.8215176,9.4704372 14.7938866,9.36373957 14.7920239,9.36373957 L14.7892297,9.26768215 L14.7227913,9.19526964 C14.6638039,9.13231508 14.5622834,8.98512555 14.3961873,8.61774286 C14.3313012,8.50868075 14.2524443,8.38720505 14.1642737,8.25508916 C14.0804495,8.12829336 14.0071809,8.01332002 13.9432261,7.91105581 L13.8941734,7.85194355 C13.8252513,7.78987568 13.6917535,7.69145376 13.4943009,7.5590423 L13.3902968,7.49047208 L13.2310308,7.71036969 C13.0851146,7.61372114 12.9410611,7.52032377 12.806011,7.43786217 C12.6374312,7.28535254 12.4539493,7.16180792 12.2552549,7.06397713 C12.0571814,6.96732859 11.9007095,6.89136934 11.7864602,6.83462157 C11.7231264,6.7778738 11.6060829,6.7320618 11.4353299,6.69836781 C11.2648873,6.6640827 11.1233176,6.64871351 11.0103101,6.65078244 C10.7929881,6.59876366 10.6588693,6.59433024 10.6085748,6.64102892 C10.5595221,6.68536311 10.4800444,6.76309574 10.3688997,6.87452234 C10.2841441,7.0917599 10.2478202,7.26850555 10.2630328,7.40564599 C10.2648956,7.46446269 10.2925265,7.709483 10.3471675,8.14366255 C10.4018084,8.57813765 10.4362695,9.05842476 10.452103,9.58629723 C10.4589331,9.80176141 10.4697992,10.0024475 10.4822176,10.2004736 L10.203114,10.2161384 C10.2198788,10.5069707 10.2437843,10.7785915 10.2729675,11.0289319 C10.3207784,11.4314864 10.3471675,11.6853736 10.3502721,11.7900022 C10.3536871,11.8958132 10.3555499,12.0660565 10.3577231,12.2977766 C10.3589649,12.5159008 10.3347491,12.7502809 10.284765,12.9958923 L10.2804186,13.0532312 C10.2894219,13.3529304 10.2782453,13.6201178 10.2465784,13.8485867 C10.210565,14.1077939 10.1953525,14.2942931 10.1996989,14.4202022 C10.2021826,14.5283777 10.2158429,14.7887672 10.238196,15.2040308 C10.2621014,15.6204766 10.3127064,16.1013549 10.3887691,16.601149 L10.3906319,16.6632169 L10.6697354,16.6558279 C10.6868107,17.2076408 10.7212718,17.7349221 10.770014,18.2338296 C10.8227922,18.7492885 10.8519755,19.1104644 10.8581847,19.3158795 C10.8647044,19.5215902 10.8553905,19.8198115 10.8308642,20.2123169 C10.8072692,20.6048223 10.7985764,20.9320087 10.8066483,21.1947627 C10.7554224,21.5101266 10.7104057,21.8009589 10.6722191,22.071693 C10.6349639,22.3412449 10.6157154,22.5061681 10.6175782,22.5652804 C10.6209932,22.6731603 10.607333,22.8173942 10.5769079,22.9991644 C10.5700778,23.0387696 10.5734928,23.0739414 10.568215,23.1126599 L10.284765,23.0801482 C10.2655165,23.23384 10.2565131,23.3786651 10.26117,23.5149188 C10.2667583,23.6958024 10.2562027,23.8539276 10.2295031,23.9830879 C10.1816923,24.2044633 10.1779667,24.3005208 10.1832446,24.3025897 C10.1186689,24.6782481 10.0910379,25.0116412 10.1000413,25.2941978 C10.1071819,25.5392182 10.0947634,25.7452244 10.0637174,25.9066008 C10.0587501,25.9320191 10.0531618,25.9518217 10.0491258,25.9695554 L9.9047619,25.9733977 L9.91935353,26.4575271 C9.92307905,26.5689537 9.96561207,26.681267 10.047884,26.799196 C10.1273618,26.9138737 10.2490621,27.0122957 10.3924946,27.0793881 C10.7628735,27.2877588 10.9109629,27.3714026 10.9904407,27.4039144 C11.1559159,27.4828292 11.2170765,27.5307102 11.236325,27.5472616 L11.710087,27.7863707 C11.877425,27.86499 12.0503512,27.935038 12.2478038,27.9971059 C12.4468087,28.0458735 12.6389835,28.0760208 12.8196712,28.0869565 L12.8376779,27.8188824 C12.8699658,27.8197691 12.9044268,27.8253848 12.9360937,27.8268626 C13.131994,27.8310004 13.3667018,27.8298182 13.6451845,27.8215425 C13.8603333,27.8153357 14.0444361,27.7908041 14.1981138,27.7473566 C14.3502392,27.7045002 14.4570375,27.681742 14.5191295,27.6796731 C14.6299637,27.6184919 14.7137879,27.5847979 14.7696707,27.5771133 C14.8264849,27.5717932 14.8851619,27.5673598 14.9469434,27.5664731 C15.0071727,27.5061786 15.0854086,27.4470663 15.1810303,27.3903185 C15.276652,27.3335708 15.3791038,27.2496314 15.4890067,27.1411604 C15.5982886,27.028256 15.7050868,26.9041202 15.8081596,26.763433 C15.9121637,26.6245192 16.0186515,26.4997924 16.1285543,26.3886613 C16.2359735,26.2281715 16.2958923,26.0667951 16.3055166,25.8995074 C16.3166931,25.7331064 16.3151408,25.4390229 16.3021015,25.0190303 C16.2968237,24.8147974 16.2840948,24.5041625 16.2663986,24.0888989 C16.2586371,23.9210201 16.2440455,23.7602347 16.2275911,23.6009272 L16.5079365,23.5755089 C16.4840311,23.3316708 16.4489491,23.0990641 16.4082788,22.9187717 Z" id="Fill-4" fill="#FFFFFF"></path>
                    <path d="M24.8986245,26.6209418 C24.8015216,26.6241307 24.6209442,26.6142741 24.3608674,26.5945611 C24.0726818,26.5716591 23.7850641,26.5954308 23.5070999,26.6623972 C23.150772,26.6734134 22.8767828,26.6826901 22.6825769,26.6928365 C22.5712777,26.6992143 22.2740065,26.7154486 22.178891,26.9122894 C22.1533376,26.9308429 22.1178468,26.9528751 22.0692954,26.9766468 C22.0017208,27.007376 21.9361338,27.0239002 21.8660039,27.0256396 L21.8441415,27.0267991 C21.8554986,26.9818649 21.8699788,26.9331621 21.888718,26.8772117 C21.9614032,26.7325526 21.9957584,26.5507865 21.9949066,26.3249558 C21.9949066,26.1402907 21.9929191,25.9941821 21.9903637,25.8872097 C21.9869566,25.7819767 21.9844013,25.616155 21.9832656,25.3885849 C21.9809942,25.1775391 22.0022887,24.9821478 22.0477169,24.7876262 L22.0548151,24.7200799 C22.0505562,24.5771601 22.0548151,24.412498 22.0675918,24.227543 L21.8168846,24.2095693 C21.822847,24.128108 21.8265381,24.0518648 21.8356237,23.9634458 C21.8640164,23.6654306 21.8753735,23.3816203 21.8677074,23.1137545 C21.8620289,22.9024188 21.8660039,22.4994604 21.8827555,21.9040097 C21.8986554,21.3094287 21.8980876,20.7189062 21.8819038,20.1347615 C21.8807681,20.0831597 21.8807681,20.0364861 21.8793484,19.9848842 L22.1317592,19.9785065 C22.1184147,19.4117557 22.1212539,18.864428 22.1416967,18.3527579 C22.1612876,17.8506544 22.1703732,17.5349553 22.1703732,17.3931951 C22.2223318,17.20853 22.2478852,16.983859 22.2504406,16.6985993 C22.2501566,16.687873 22.2501566,16.6200369 22.2921778,16.3240509 C22.318583,16.1408353 22.3322114,15.9576197 22.333915,15.7781728 L22.0704311,15.7752738 C22.0709989,15.7314992 22.0795167,15.6833761 22.078381,15.6384419 C22.0724186,15.427686 22.0837756,15.1667777 22.1121683,14.8536877 C22.140277,14.5403079 22.1805946,14.3023015 22.2317014,14.1382192 L22.214098,13.5259544 L22.2013213,13.0742931 C22.198482,12.9676106 22.214098,12.8394757 22.2473174,12.6843802 C22.2802529,12.5295746 22.2944492,12.3710003 22.2896224,12.206918 C22.2853635,12.0468942 22.3131884,11.837008 22.3696898,11.5801583 L22.6008061,11.6853913 L22.6249398,11.5642139 C22.6238041,11.5105827 22.6371487,11.3302661 22.6644056,11.0255832 C22.6933661,10.6930701 22.7027357,10.3315671 22.6922304,9.95180063 L22.6519129,8.5466645 C22.7001804,8.46578293 22.7311284,8.37040645 22.7422015,8.25183812 C22.7422015,8.24198159 22.7422015,8.18226258 22.7839387,7.95266328 C22.8182939,7.76944767 22.8341938,7.58797146 22.8305027,7.4131629 C22.9046076,6.9991884 22.8909791,6.90960989 22.8645739,6.83452628 C22.833342,6.74697705 22.7606568,6.64899149 22.5920043,6.61507341 L22.3373221,6.60869565 L22.3447042,6.86728476 L22.0951327,6.87511201 C22.0951327,6.87598171 22.0951327,6.90960989 22.0573704,7.00150759 C22.02046,7.0922457 21.9767353,7.18733227 21.9105804,7.32648337 C21.8543629,7.50679999 21.8072311,7.76451941 21.7666295,8.11413652 C21.7285834,8.44838904 21.691389,8.99745606 21.6567499,9.76597594 L21.6607249,9.93179766 L21.9125678,9.92657949 C21.9222214,10.3936053 21.9179625,10.824104 21.8961001,11.2044503 C21.8699788,11.6332096 21.8591896,11.8993361 21.8620289,12.0054388 C21.8648682,12.1095122 21.8660039,12.2399664 21.8657199,12.3930326 C21.8648682,12.5466786 21.8390308,12.7046731 21.7876401,12.869915 C21.8171685,13.287948 21.7904794,13.6016178 21.7095603,13.8146929 L21.4662351,13.7390295 L21.4480638,13.8436827 C21.4497674,13.8961543 21.4361389,14.0141428 21.4134248,14.1988079 C21.3833286,14.4168113 21.3711197,14.6191602 21.3759465,14.7971576 C21.381625,14.9934186 21.3705519,15.2291058 21.342727,15.4969716 C21.311779,15.7851303 21.2984345,16.0196579 21.3032612,16.1941766 C21.3075201,16.3443438 21.2953113,16.5232109 21.2663508,16.7246901 C21.2317117,16.9673348 21.191962,17.0841638 21.1641372,17.1398242 L21.1357445,17.1986735 L21.1380159,17.2641905 C21.1394356,17.3343458 21.1405713,17.4650899 21.141707,17.655263 L21.3961053,17.6538135 C21.3961053,17.7483203 21.396957,17.851524 21.397241,17.9750206 C21.3989445,18.349569 21.3773661,18.7533971 21.3333575,19.1856351 L21.3705519,20.4739423 L21.3978088,21.4282869 C21.3983767,21.462205 21.3978088,21.5053998 21.3983767,21.5407674 L21.1459659,21.5436663 C21.1482373,21.7839919 21.1411391,22.0669324 21.122116,22.3933577 C21.0994019,22.7948666 21.0931555,23.1459332 21.1019572,23.4668504 C21.1093393,23.7318173 21.1124625,23.9904064 21.1101911,24.241748 C21.1093393,24.2962489 21.1082036,24.3400235 21.1053644,24.372782 L21.0156435,24.3759709 L21.0230256,24.6360095 C21.0247292,24.6916699 21.0247292,24.785307 21.0241613,24.9209793 C21.0241613,25.0331699 21.0014472,25.1566665 20.9571547,25.2995862 L20.9449458,25.3862658 C20.9497726,25.5451299 20.9514761,25.7573353 20.9492047,26.0167941 C20.9475011,26.2510318 20.9250709,26.4406252 20.8807784,26.5826752 L20.8691374,26.668775 C20.8725445,26.8128543 20.8603357,26.9653407 20.8310912,27.1262342 C20.7990075,27.3022023 20.7745898,27.3433679 20.7797005,27.3381497 C20.653921,27.4526595 20.6070731,27.6034065 20.6510817,27.7518343 L20.8958265,27.6767507 C20.9111585,27.7298021 20.9642528,27.7860423 21.0585165,27.8425724 L21.5778183,27.8269179 L21.5874718,28.0869565 C21.7109799,28.0828979 21.8742377,28.0544879 22.0704311,28.0008568 C22.2626494,27.9507044 22.4420911,27.8915652 22.6076203,27.8260482 C22.7572496,27.7680686 22.9196557,27.7147274 23.0973938,27.6689235 C23.2413446,27.630367 23.3770615,27.607755 23.502841,27.5993479 C23.6223742,27.65037 23.7544001,27.6808093 23.897783,27.687187 C24.0789282,27.6941446 24.1655259,27.6921153 24.253827,27.6921153 L24.2569502,27.7901009 L24.5099289,27.7845928 C24.5116324,27.7845928 24.5462715,27.7845928 24.6419548,27.8188008 C24.8276428,27.8898258 24.9928881,27.9025813 25.2623345,27.8611259 C25.5084989,27.8208301 25.5914055,27.6384841 25.5871466,27.4932452 L25.5783449,27.1755169 C25.5720985,26.9505559 25.4769831,26.8206816 25.3986193,26.7519757 C25.2887397,26.6554397 25.1300247,26.6142741 24.8986245,26.6209418" id="Fill-6" fill="#FFFFFF"></path>
                    <path d="M31.0033969,26.9571967 C30.8244561,27.0494519 30.6929893,27.1216263 30.6074316,27.1719738 C30.4370987,27.2258136 30.2727653,27.2720867 30.1188657,27.3113752 C29.9647053,27.3497906 29.7795041,27.3480444 29.5622188,27.3081739 C29.3464985,27.3157406 29.1545153,27.2994431 28.9844433,27.2621918 C28.8154146,27.2234854 28.6875997,27.1818687 28.5994335,27.1358866 C28.5120498,27.0925238 28.4251879,27.0316994 28.3362391,26.9571967 C28.2483338,26.8826941 28.1599068,26.8227428 28.0725231,26.7785069 C27.9838352,26.6856697 27.9016685,26.5939965 27.8257621,26.5031965 C27.7498557,26.4147246 27.7115112,26.3469156 27.7099461,26.2986053 C27.7083811,26.2514591 27.6739493,26.1463988 27.6043032,25.9854615 C27.5364831,25.8233601 27.4785751,25.6705716 27.431101,25.528551 L27.158777,24.9619237 L27.1642548,24.9581404 L27.3893655,24.9296198 L27.1115637,22.2009617 C27.0959129,21.5924267 27.0935653,21.0906982 27.1055643,20.7079993 C27.1165198,20.3340311 27.1360833,20.0240886 27.1626897,19.7831192 C27.1906003,19.5360383 27.2211194,19.3433792 27.2581596,19.1920457 L27.3580639,18.7578352 L27.1319098,18.6932275 C27.1410394,18.6527749 27.1499082,18.6158146 27.1598204,18.5727428 C27.2393786,18.3306093 27.3019819,18.0774168 27.3463258,17.8154936 C27.3917131,17.5553165 27.4342312,17.3507254 27.4725756,17.2063766 L27.5857831,16.7902096 C27.6209974,16.6580839 27.6389958,16.569321 27.6374308,16.5213018 C27.6363874,16.4732825 27.6447345,16.3018683 27.6622112,16.0079322 C27.6799488,15.7131231 27.6849049,15.3985242 27.6760361,15.0612252 C27.6682107,14.7731097 27.6749927,14.4471607 27.6961213,14.0848336 C27.7167282,13.7239616 27.7253361,13.4707691 27.7216842,13.3264203 C27.7177715,13.1814894 27.728988,13.0222983 27.7537684,12.8485559 C27.7798531,12.6815071 27.7895044,12.5534557 27.7892435,12.4582903 L27.7895044,12.4582903 L28.0232231,12.4352992 C28.0232231,12.432971 28.0221797,12.3890261 28.050612,12.2429312 C28.0764358,12.1014926 28.0881739,11.9728592 28.0853046,11.8648886 C28.0855654,11.8587771 28.0915649,11.7947514 28.1565157,11.542141 L28.1651237,11.4626909 C28.1651237,11.4586166 28.1666888,11.4172909 28.1977295,11.2799267 C28.2290311,11.1387792 28.2438994,11.0057804 28.2412909,10.8823854 C28.239465,10.8064277 28.2493772,10.7167917 28.27181,10.607075 C28.3028508,10.4557416 28.3169365,10.3195415 28.3135455,10.2005119 C28.3122412,10.1280465 28.3208492,10.0340452 28.3391085,9.91879894 C28.365454,9.76833859 28.3771921,9.63795902 28.3735402,9.51892946 C28.3717143,9.44529993 28.3826699,9.3379114 28.4051027,9.20054721 C28.4481424,8.94822783 28.4476207,8.87081496 28.447099,8.83909314 C28.4457948,8.77012002 28.4570112,8.68659561 28.4810091,8.59230324 C28.5120498,8.47414676 28.5363086,8.44213392 28.5503943,8.42467237 C28.5976076,8.35715438 28.7189013,8.2221184 29.0533068,7.93487591 C29.0926947,7.88860281 29.1759048,7.81468225 29.3441509,7.72126296 C29.3702356,7.72679245 29.4130144,7.73872451 29.4771827,7.76055144 L29.8491502,7.88598357 L29.9143618,7.64326804 L29.9182745,7.63744752 L30.3914505,7.96659773 C30.5766517,8.09610422 30.7135962,8.22939404 30.8038492,8.37374285 C30.9366202,8.51256217 31.0785208,8.64497892 31.227986,8.77012002 C31.3782337,8.8949701 31.4760512,8.98169579 31.5198735,9.02767787 C31.5652608,9.12313434 31.6497751,9.27854213 31.7715906,9.49652047 C31.8939277,9.71362574 32.0230468,9.94004383 32.1581654,10.1769388 C32.2953708,10.4621442 32.410665,10.7394918 32.5037873,11.0116009 C32.5971705,11.283128 32.6683816,11.5144935 32.7155949,11.7054065 C32.776633,11.8753655 32.8280198,12.2193581 32.8710595,12.7321456 L32.6386451,12.7565917 C32.6673382,13.1037855 32.6913361,13.5301384 32.7116822,14.0307028 L32.76646,16.1243426 L32.8509743,16.1208502 C32.8574955,16.1866221 32.8647992,16.2922645 32.8647992,16.4534928 C32.8681902,16.5978416 32.8807108,16.8577276 32.8981876,17.2314048 C32.9164469,17.6085742 32.9534871,17.9755578 33.0033088,18.282008 C33.0087866,18.4752491 33.0126993,18.6955557 33.0147861,18.9411815 L33.2477222,18.9373982 C33.2495481,19.0605021 33.2505915,19.1786586 33.2516349,19.3148586 C33.2524174,19.7190935 33.2352016,20.0182681 33.1963354,20.2126733 C33.2010306,20.389908 33.1955529,20.5883876 33.1843364,20.7976352 L32.9537479,20.7810467 L32.9396622,21.0013533 C32.9159252,21.3174073 32.9083606,21.5671075 32.9130558,21.7679153 C32.9190553,21.9920052 32.9125342,22.2172592 32.8934923,22.4352375 C32.8747114,22.6476864 32.8658426,22.8327788 32.8679294,22.9832391 C32.8303674,23.1235136 32.7959357,23.2768842 32.7641124,23.4413138 C32.7335933,23.5923562 32.7163774,23.7177883 32.7111605,23.8225576 C32.6673382,23.9095743 32.614908,24.0530501 32.5397842,24.3149733 C32.4659646,24.5734042 32.3707555,24.8201941 32.2549395,25.0489404 C32.1273855,25.303588 32.0206992,25.5448484 31.9369674,25.765155 C31.8399324,26.0227128 31.8015879,26.0794629 31.8005445,26.0815 C31.7608958,26.1274821 31.7024662,26.1903437 31.6236905,26.2703758 C31.5895195,26.3050079 31.5475232,26.3358566 31.498484,26.3658323 L31.6059529,26.5939965 C31.5613481,26.6210619 31.5146565,26.6460901 31.4617046,26.6679171 C31.3349331,26.768903 31.1823378,26.8655236 31.0033969,26.9571967 M33.6979437,17.0503867 C33.6950743,16.9723918 33.6890749,16.8725699 33.6822928,16.7500481 L33.4480525,16.7675096 C33.4360535,16.5681569 33.4177943,16.3129273 33.3909271,15.9875604 C33.3465831,15.441596 33.3171074,14.877879 33.3019783,14.3004837 C33.2865884,13.7239616 33.23781,13.0176419 33.1564258,12.1818157 C33.1548608,12.1335055 33.133993,12.0240797 33.0953877,11.8506284 C33.0565215,11.6789231 33.0126993,11.4979051 32.9641818,11.305828 C32.9255765,11.1507112 32.8535828,10.9510675 32.7633298,10.7240674 L32.9793109,10.6172609 L32.9174902,10.4668006 C32.7904579,10.1650068 32.6545567,9.88824123 32.5303937,9.67753854 C32.4336196,9.42958454 32.3026745,9.17028053 32.1393844,8.90748421 C31.9763552,8.64730712 31.8488012,8.46861727 31.7444625,8.35802746 C31.6505577,8.26024278 31.5420454,8.15809272 31.4217951,8.05623368 C31.3148479,7.96426952 31.2188563,7.87579767 31.134342,7.78674377 C31.0323509,7.67935524 30.8810598,7.55916157 30.6713391,7.41946918 C30.4832686,7.2946191 30.3027626,7.16307543 30.0956503,7.00650354 C29.9193179,6.91541246 29.7518543,6.83101497 29.5914336,6.75214697 C29.1842519,6.55512249 29.1928598,6.60750714 28.9914861,6.64126613 C28.8707141,6.66338409 28.7708098,6.72129823 28.69386,6.81268034 L28.8441077,6.97012531 L28.8459336,6.99107917 L28.605433,7.00010097 C28.5190927,7.00097405 28.4671842,7.02716637 28.4523159,7.07664076 C28.4364043,7.12495105 28.4293614,7.19712545 28.4322307,7.29403705 C28.4343175,7.39007557 28.4001466,7.50415769 28.3312831,7.63686547 C28.2603327,7.76811812 28.1839046,7.88452844 28.1004337,7.9831862 C27.9332309,8.18137478 27.8333266,8.33765565 27.802025,8.454357 C27.7709843,8.57193144 27.7365525,8.77564951 27.701599,9.06463815 C27.7065551,9.2578793 27.6976863,9.4787679 27.6726451,9.73021421 C27.6494297,9.98224257 27.6395175,10.178394 27.6436911,10.3241979 C27.6470821,10.4682557 27.6356048,10.6201712 27.6100418,10.7802354 C27.5836963,10.9394265 27.5719582,11.0439048 27.5724799,11.091342 C27.4835312,11.2962242 27.4339703,11.5581474 27.4251015,11.8765297 C27.4274491,11.9728592 27.4162327,12.1224465 27.3911914,12.3241274 C27.3841486,12.3826236 27.3810184,12.432971 27.3760623,12.4876839 L27.1405177,12.4603275 C27.1274754,12.6093327 27.1225193,12.7408763 27.1256495,12.8540854 C27.1303447,13.0339393 27.123041,13.2263074 27.1047817,13.4268242 C27.0828706,13.6535333 27.0740018,13.8214552 27.0768711,13.9262245 C27.0776537,13.9716245 27.0753061,14.0854156 27.0445261,14.3313325 C27.0184415,14.5461095 27.0072251,14.7370225 27.0108769,14.8944674 C27.0145288,15.0239739 27.0043557,15.2119766 26.9824446,15.453528 C26.9576642,15.7131231 26.9474912,15.949145 26.9529689,16.1528631 C26.9576642,16.3266055 26.9331446,16.5538967 26.8799319,16.8309533 C26.8228064,17.1350752 26.7766365,17.4086395 26.7393355,17.6432063 C26.7041212,17.8297539 26.6569079,18.0206668 26.6000433,18.21449 C26.5679592,18.3259529 26.5439613,18.4150068 26.5283105,18.4819427 L26.7552471,18.5477146 C26.7409005,18.6067928 26.7338577,18.6504467 26.7343794,18.6746018 C26.6811666,18.9074225 26.6545603,19.0718521 26.6569079,19.1678906 C26.6323883,19.2260958 26.6031735,19.3576394 26.5705676,19.5604844 C26.5361359,19.7642025 26.5061385,20.017395 26.4800538,20.321808 C26.4529258,20.625639 26.4338839,20.9652661 26.4221458,21.3424356 C26.4106686,21.7181499 26.4093644,22.0991027 26.4197982,22.4832568 L26.6676026,24.6220055 L26.4370141,24.6548915 L26.4894443,25.1071456 L26.8760192,25.945591 C26.9720107,26.193545 27.0862616,26.4333503 27.2148591,26.6574401 C27.3484126,26.8905518 27.463446,27.0573096 27.5636111,27.1623699 C27.7582028,27.3762739 27.9454907,27.5450689 28.1210406,27.6635164 C28.1966861,27.7313254 28.3085894,27.7863293 28.4705752,27.8372588 C28.5957816,27.8759653 28.697251,27.9152538 28.7752442,27.9559974 L28.8255876,27.9821897 L28.8803654,27.9810256 C28.9938337,27.9763692 29.1255613,27.985391 29.2695487,28.0072179 C29.4380557,28.0334102 29.5656098,28.0435961 29.6261262,28.0380666 C29.8215004,28.0741539 29.96001,28.0892872 30.0617403,28.086668 C30.1629488,28.0828846 30.300415,28.0590205 30.5210913,28.0011064 C30.5758692,27.9778243 30.632212,27.9525051 30.6909026,27.9236935 L30.594911,27.6786498 C30.6841205,27.635869 30.7688957,27.5989087 30.8698434,27.5395394 C31.0268731,27.4472842 31.1692955,27.3518278 31.2963278,27.2520059 C31.423621,27.1984572 31.5772597,27.1044558 31.7546355,26.9697109 C31.9322721,26.8323467 32.0624347,26.6926543 32.1453839,26.5453952 C32.315456,26.44179 32.4351846,26.3143207 32.5032656,26.1574578 C32.5731726,26.00205 32.6477747,25.8006601 32.7281155,25.5576536 C32.8094997,25.4109765 32.8786241,25.2299585 32.9347061,25.0166366 C32.9881797,24.8027326 33.0573041,24.6228786 33.1394708,24.4759106 C33.1788587,24.3292336 33.2130296,24.1723706 33.243027,24.0024116 C33.2738069,23.8330345 33.2873709,23.7000357 33.2850233,23.6045793 C33.2826757,23.5082497 33.2962397,23.3732137 33.3262371,23.1980162 C33.3465831,23.0795687 33.3729286,22.9745084 33.3977091,22.8679929 L33.6183854,22.9349289 L33.6543822,22.7920352 L33.6640336,22.7102569 C33.6606426,22.575512 33.6702939,22.3936208 33.6927267,22.1677848 C33.7182897,21.9076077 33.7287236,21.707673 33.72455,21.5528472 C33.7206373,21.4221766 33.7310712,21.2615304 33.7542865,21.0749828 C33.7806321,20.8561314 33.792631,20.6946121 33.7902834,20.5828582 C33.7874141,20.490894 33.7965437,20.2848477 33.8174115,19.9650103 C33.8390617,19.6215999 33.8461046,19.2752791 33.8380183,18.9344879 C33.8291496,18.5963159 33.8153247,18.2377721 33.7965437,17.8603116 C33.7772411,17.482269 33.7462003,17.2212189 33.6979437,17.0503867" id="Fill-8" fill="#FFFFFF"></path>
                    <path d="M43.5462935,6.30618995 C43.4493545,6.1456619 43.32498,5.98513385 43.2092281,5.86980017 C43.1182989,5.72482602 43.0012405,5.56312409 42.8614499,5.39115071 L42.6876914,5.56752614 C42.6832494,5.56224368 42.6801139,5.55666775 42.675672,5.55255917 C42.5371878,5.38205314 42.4026229,5.27493661 42.2714549,5.22944878 C42.1400255,5.13788616 41.9960542,5.07919217 41.8398022,5.05512764 C41.6830276,5.03018269 41.4925465,4.99907488 41.2662685,4.95652174 C41.0418196,4.96297808 40.8296513,4.97999933 40.6323766,5.00611816 C40.4340568,5.03253045 40.2226724,5.09826772 40.0010976,5.20156913 C39.7371938,5.30839219 39.5315578,5.4116936 39.3865413,5.51382114 C39.2428312,5.61536174 39.0614953,5.79643268 38.8433173,6.0558601 C38.6672072,6.26539763 38.5167036,6.46730495 38.3918066,6.66070163 C38.391284,6.66187551 38.3910227,6.66187551 38.3910227,6.66275592 L38.2002803,6.50927115 C38.0764284,6.70354824 37.9946443,6.84617463 37.9460442,6.95593238 C37.8851634,7.04544071 37.83996,7.17720871 37.8018115,7.37148581 C37.7657534,7.54639388 37.747463,7.71455216 37.7490308,7.87067816 C37.7098371,8.03003233 37.6714274,8.26011276 37.6338015,8.57324518 C37.5953917,8.88402983 37.5588109,9.18835815 37.5248431,9.48388237 C37.4472397,9.73450569 37.385575,9.97808574 37.3422007,10.2111009 C37.2925554,10.4737565 37.2800135,10.5820469 37.2771393,10.6410343 C37.2123391,10.951232 37.1611261,11.1780843 37.1180131,11.3406666 C37.0830001,11.5281939 37.0508613,11.7462421 37.0205515,11.9904091 L37.2536231,12.0267993 C37.2494424,12.0555594 37.2463069,12.0807978 37.2426489,12.1092644 C37.2110327,12.3827784 37.1974455,12.6216629 37.2031939,12.8256245 C37.2094649,13.0777152 37.1974455,13.3664896 37.1673971,13.6937085 C37.1370873,14.0191667 37.1028582,14.3099954 37.0660162,14.5632599 C37.0302193,14.816231 36.9923321,15.1014838 36.9515707,15.4190183 C36.9136835,15.7356723 36.8747512,15.9968606 36.836864,16.202583 C36.7994994,16.4549671 36.7678832,16.7792514 36.7378347,17.1733815 C36.729996,17.2887152 36.7242476,17.4169616 36.7190218,17.5537185 L36.4856889,17.5455014 C36.4744534,17.8873939 36.4744534,18.2979583 36.4869954,18.7616408 C36.4997986,19.2643548 36.5073761,19.711603 36.5084212,20.1025049 C36.5097277,20.263033 36.5060696,20.3701495 36.5021503,20.4411692 L36.444405,20.4432235 L36.4464953,20.7005966 C36.4472792,20.745791 36.4349985,20.8499728 36.4127888,21.0119682 C36.3861371,21.2135821 36.3751629,21.4530535 36.3822177,21.7227524 C36.3884887,21.9584088 36.3801274,22.1647181 36.3560886,22.3410935 C36.3223821,22.6011079 36.3161111,22.6912032 36.3176788,22.7452016 C36.3195079,22.8156344 36.3367531,22.9157077 36.3782983,23.0897353 C36.4080855,23.2106449 36.4240243,23.3295003 36.4271598,23.4559858 C36.4316017,23.6226767 36.4535501,23.7870199 36.4919599,23.9434394 C36.5314149,24.112478 36.5361181,24.1591398 36.5361181,24.1653026 L36.5421278,24.3851116 L36.7002088,24.4121108 C36.721896,24.4414578 36.7699735,24.527738 36.8355575,24.7493078 C36.8885996,24.9089554 36.9612385,25.0706574 37.052429,25.2279573 C37.134997,25.3655947 37.1966617,25.4583312 37.2489199,25.5205468 C37.3116297,25.6373478 37.4080461,25.7500403 37.5407819,25.8650805 C37.6536596,25.9636864 37.7521663,26.0555425 37.836302,26.1435834 L37.9178247,26.2002231 C38.1501124,26.2929596 38.3254386,26.3578165 38.4479841,26.3989023 C38.5255875,26.425608 38.6152103,26.4370534 38.7241687,26.4344121 L38.7197267,26.1705827 C38.8216302,26.1682349 38.9441757,26.1529745 39.089976,26.1215732 C39.3149475,26.1142365 39.5197997,26.0863568 39.7040098,26.03588 C39.8890038,25.9856966 40.0457784,25.9349263 40.1730271,25.8818083 C40.3023661,25.8286902 40.4429407,25.752388 40.5957959,25.6508474 C40.7486511,25.548133 40.84559,25.4477662 40.8863514,25.3506277 L41.2435362,25.1322861 C41.2874331,25.1311122 41.3498816,25.064201 41.4340173,24.9306722 C41.516324,24.7965565 41.5988919,24.6548105 41.6814599,24.5071951 C41.7648117,24.3586993 41.875599,24.1488683 42.0161736,23.8777021 C42.1549191,23.6050685 42.2450645,23.3673579 42.2819065,23.1619289 C42.4060197,22.9057297 42.4964264,22.654226 42.5549556,22.4091786 C42.6132234,22.1661855 42.6592107,21.8674331 42.6931785,21.5173234 C42.6876914,21.3127749 42.698143,21.1041178 42.7229657,20.8895913 C42.7477883,20.6747713 42.7598077,20.5441772 42.7582399,20.4951677 C42.7731335,20.4223871 42.7788819,20.3592911 42.7893336,20.2909126 L43.0239729,20.3346396 C43.0550665,20.1292107 43.0678697,19.9410964 43.0639504,19.7688296 L43.0924311,19.7664818 L43.1577538,19.6408767 C43.2196798,19.5187932 43.1830991,19.3940685 43.1433828,19.3027993 C43.1420764,19.2127041 43.1436441,19.0953161 43.1457344,18.9521028 C43.1499151,18.7921617 43.1689893,18.646894 43.2016507,18.5245171 L43.2113185,18.4414651 C43.2063539,18.2592203 43.2196798,18.0925293 43.2492057,17.9425662 C43.2541702,17.920556 43.2580896,17.9020674 43.2622702,17.8865135 L43.3780221,17.8832853 L43.3714898,17.6200428 C43.3696608,17.54961 43.3612995,17.4818184 43.3490188,17.4316351 C43.3270704,17.3218773 43.2640993,17.2388253 43.1799636,17.1959787 C43.074402,17.0929708 42.9061306,17.0589282 42.8086691,17.0398527 C42.6213235,16.9999408 42.4300585,16.9829195 42.2408838,16.9855608 C42.0608543,16.9459423 41.8578313,16.9063239 41.6341662,16.8722814 C41.3901204,16.8323695 41.2215877,16.8162286 41.1196843,16.8185764 L40.6438734,16.8344237 L40.5761991,16.9353774 C40.4740343,17.0876883 40.4301374,17.2587813 40.4497342,17.4430804 C40.4996408,17.7926031 40.9459258,17.7673647 41.2346523,17.7485826 C41.3490977,17.7450609 41.4972497,17.7606149 41.6764953,17.7946574 C41.9038185,17.8380909 42.0023252,17.8780028 42.0404736,17.8976653 L42.0922093,17.9173278 C42.1828772,17.9387511 42.2393161,17.9560658 42.2738065,17.968685 C42.2753742,17.9901083 42.2779871,18.022977 42.2790323,18.066704 C42.2819065,18.1427127 42.2722387,18.2879803 42.2505516,18.4989852 L42.4828393,18.5289191 C42.4810102,18.5377232 42.4810102,18.5432992 42.4802263,18.5521033 C42.4564489,18.7859988 42.447565,19.0292854 42.453836,19.2810826 C42.4595844,19.4847507 42.4462585,19.6992772 42.4122907,19.9234882 C42.3798906,20.1479927 42.3427873,20.3102816 42.3017646,20.4088875 C42.3046388,20.5057326 42.2889614,20.6653802 42.2557774,20.8895913 C42.223116,21.1149762 42.1873192,21.3292092 42.1496933,21.5349316 C42.1585772,21.8674331 42.1384578,22.1494577 42.0924705,22.3862879 L41.8599216,22.3672124 C41.8155021,22.5861409 41.7358084,22.8156344 41.6305081,23.0369108 C41.5421918,23.195091 41.4533528,23.3870204 41.3571978,23.6226767 C41.2599975,23.864496 41.1863135,23.9798296 41.1408488,24.0326542 L41.0993036,24.103087 C41.0854552,24.1341948 41.0342421,24.2336811 40.8495094,24.4470338 C40.7102413,24.6084422 40.5657474,24.7299388 40.3729147,24.8464463 C40.2284208,24.9714645 40.0891527,25.0694835 39.9577233,25.1381555 L40.0570139,25.3735183 C40.0421203,25.3799747 40.0269654,25.3923004 40.0123331,25.3987568 C39.855036,25.4771132 39.6632484,25.5449048 39.4398446,25.5997837 C39.1741117,25.6573038 38.9815403,25.6787271 38.8652658,25.6634666 C38.7482074,25.6467389 38.5744489,25.5704367 38.3463419,25.4330927 C38.2149126,25.3391824 38.0800864,25.2529022 37.9444764,25.1757196 C37.8083438,25.0973631 37.6949435,24.9878989 37.6047982,24.8443921 C37.5580271,24.7005918 37.4929656,24.5300858 37.4103977,24.3334609 C37.3719879,24.2430722 37.3388039,24.15239 37.3079716,24.0605339 L37.5248431,23.9689713 C37.4916592,23.8691915 37.4631784,23.7685313 37.4336526,23.6470347 C37.3892331,23.5102777 37.3455975,23.3385978 37.303791,23.1355166 C37.2525779,22.8854803 37.2405585,22.7695596 37.2389908,22.7155612 C37.2366392,22.6201834 37.2366392,22.4666987 37.2397747,22.2524656 C37.2423876,22.0614167 37.2601554,21.9008886 37.2938619,21.7758705 L37.303791,21.6931119 C37.2998716,21.5537137 37.2990877,21.4031636 37.3045748,21.2408748 L37.3806105,21.238527 L37.375646,20.9767518 C37.3743395,20.9268619 37.3842686,20.7270089 37.4049106,20.3736711 C37.4252913,19.9924537 37.4294719,19.5425643 37.4164074,19.0383829 C37.4056944,18.6151993 37.3983783,18.2113847 37.3944589,17.8289933 L37.1611261,17.832515 C37.1598196,17.7614953 37.1582519,17.6878343 37.1582519,17.6191623 C37.1561616,17.1725011 37.1741906,16.8998675 37.2152133,16.8018486 C37.2126004,16.705297 37.2238359,16.567953 37.2502263,16.392458 C37.275049,16.2163761 37.2870683,16.080793 37.2847167,15.9836544 C37.2834103,15.9349384 37.2962135,15.8486582 37.3231265,15.7280421 C37.3503008,15.6056651 37.363104,15.5202654 37.3615363,15.470669 C37.3607524,15.4231268 37.3727718,15.3104344 37.3991622,15.1355263 C37.4247687,14.9588574 37.4354816,14.7986228 37.4315622,14.6524748 C37.4712785,14.5069137 37.5073366,14.3179191 37.5397367,14.0890125 C37.5734432,13.8592256 37.5880755,13.6722852 37.5841562,13.5267241 C37.5802368,13.3808696 37.5909497,13.1901141 37.6144659,12.9573925 C37.6209982,12.8966442 37.6178627,12.8467543 37.6217821,12.7883538 L37.8634762,12.8112445 C37.8770633,12.6301735 37.8809827,12.4564393 37.8775859,12.2926831 C37.8739279,12.1685453 37.8843795,12.044701 37.9063279,11.922911 C37.938728,11.7485898 37.9515313,11.6485166 37.9499635,11.5804316 C37.9499635,11.5795512 37.9510087,11.5478564 37.97557,11.468913 C38.0152863,11.3456556 38.0322702,11.2499844 38.0299186,11.1780843 C38.0309637,11.166052 38.0380186,11.0909237 38.1135317,10.7634113 C38.1785931,10.482854 38.2292836,10.1829277 38.2601159,9.90471825 C38.3390258,9.54785882 38.4022582,9.22797659 38.4526873,8.94536505 C38.5088649,8.62606976 38.5370843,8.57324518 38.5302908,8.5817558 L38.5671328,8.53773531 L38.7354042,7.91411171 L38.5112165,7.83957035 L38.5248037,7.78498494 C38.5190553,7.58131681 38.5585102,7.39555034 38.640033,7.22797901 C38.7226009,7.05982074 38.8258109,6.87199998 38.9494015,6.66510368 C39.0771728,6.51484708 39.223757,6.3613623 39.3917671,6.20552977 C39.5610836,6.04969723 39.708713,5.92027699 39.8370069,5.81991028 C40.0577978,5.71514151 40.2524595,5.6332634 40.4196858,5.57456941 C40.5861281,5.51704931 40.7826189,5.48271333 41.0073292,5.47655046 C41.2315168,5.4683333 41.4219979,5.46715942 41.5779886,5.47038759 C41.7279696,5.47655046 41.8654087,5.50032152 41.9921348,5.54111384 L41.9401379,5.79643268 C42.042564,5.83076867 42.13689,5.88623448 42.2184128,5.95784115 C42.307513,6.03649109 42.3906035,6.11484756 42.4676844,6.19467138 C42.5042651,6.27596255 42.54372,6.37456845 42.5852653,6.48373926 C42.6302074,6.60875745 42.6741042,6.71704786 42.7156495,6.80890395 C42.7245334,6.91367271 42.7459593,7.01814801 42.7817561,7.11822125 C42.8133723,7.20567529 42.8167691,7.23737005 42.8167691,7.23737005 C42.8178143,7.29987914 42.8314014,7.38586583 42.9157984,7.59246866 C42.9103113,7.61917443 42.8967241,7.65468429 42.8734693,7.69195497 L42.830095,7.76297469 L42.846295,8.39716322 L43.0615988,8.40948895 C43.0775375,8.41036936 43.0926924,8.41036936 43.1083698,8.41036936 C43.2465928,8.40567384 43.3801124,8.34404516 43.5131095,8.21609227 C43.5747742,8.14301826 43.6278163,8.04353195 43.676939,7.9132313 C43.7260617,7.78028942 43.7493166,7.64558672 43.7456585,7.51293831 L43.7276294,6.81359947 C43.7237101,6.66275592 43.6662261,6.5019344 43.5462935,6.30618995" id="Fill-10" fill="#FFFFFF"></path>
                </g>
                <g id="Group-12" transform="translate(145.000000, 87.000000)" fill="#FFB839">
                    <path d="M1.38342193,6.86617545 C1.14089341,10.0151549 1.01738074,21.0825397 1.34954588,24.0134042 L13.9019705,16.3312659 L1.38342193,6.86617545 Z M0.768556676,25.6857143 L0.46367225,25.1947397 C-0.325070057,23.9258125 0.0493651921,6.38960743 0.437290903,5.60157021 L0.747871302,4.97142857 L15.8979592,16.4266372 L0.768556676,25.6857143 Z" id="Fill-1"></path>
                    <path d="M1.56390323,25.0316681 C2.60944064,26.3698431 4.54700168,27.5868324 6.1396704,27.8537261 C6.23682731,27.8622803 7.29968271,27.9002043 15.9152397,27.9002043 C22.892338,27.9002043 30.993345,27.8731158 31.3954748,27.8483083 C33.935937,27.4185982 36.7978095,26.4394179 37.8345411,25.1648297 L25.1882936,17.1149642 L19.7789143,21.6222159 L14.3674804,17.1115424 L1.56390323,25.0316681 Z M15.9152397,29 C6.35394393,29 6.05425452,28.954092 5.95533647,28.9392646 C3.86308755,28.5876836 1.37545994,26.9255863 0.283251993,25.1539943 L0,24.6951996 L14.467279,15.7457086 L19.7789143,20.1736907 L25.0970072,15.7428571 L39.3265306,24.799847 L39.1187146,25.2309829 C37.9044001,27.7493638 32.5942325,28.7601949 31.542531,28.9375537 C31.2360905,28.9851726 19.8170726,29 15.9152397,29 Z" id="Fill-3"></path>
                    <path d="M26.2209959,16.6681672 L38.9789474,24.8116719 C39.2064953,24.1796636 39.3253089,23.5360506 39.3253089,22.9186225 C39.3253089,20.1525446 39.4514529,17.9083794 39.5742371,15.7386032 C39.6957995,13.5834072 39.822249,11.3556076 39.822249,8.62077304 C39.822249,7.72780835 39.5711827,6.77979585 39.1075349,5.89635295 L26.2209959,16.6681672 Z M39.4972679,26.5142857 L24.2653061,16.7910577 L39.3964749,4.14285714 L39.7614677,4.70047655 C40.5717824,5.9383083 41,7.29426968 41,8.62077304 C41,11.3871485 40.8729397,13.6313137 40.7504609,15.8010899 C40.6288985,17.9556908 40.5030599,20.183788 40.5030599,22.9186225 C40.5030599,23.9059124 40.255048,24.942894 39.7865133,25.9156036 L39.4972679,26.5142857 Z" id="Fill-6"></path>
                    <path d="M2.26567933,5.70478066 L20.5555244,20.8581985 L38.6655762,4.90200851 C37.6764198,3.52845661 36.2604015,2.57424079 34.7997287,2.31449377 C30.0460787,1.5400796 25.6194057,1.16358218 21.2746972,1.16358218 C16.9305762,1.16358218 12.5039031,1.5400796 7.74232117,2.31600217 C5.8224706,2.6565996 3.28950171,4.06333636 2.26567933,5.70478066 Z M20.5769703,22.3714286 L0.836734694,6.01611506 L1.02769152,5.60220924 C2.04211295,3.3993373 5.20670827,1.58563338 7.55694616,1.16780571 C12.3855099,0.381625993 16.8703514,0 21.2746972,0 C25.6796305,0 30.1641782,0.381625993 34.9851037,1.16690067 C36.9049543,1.50810145 38.7390211,2.82463571 39.898276,4.69053039 L40.1632653,5.11559839 L20.5769703,22.3714286 Z" id="Fill-9"></path>
                </g>
            </g>
        </g>
    </g>
</svg>