<?xml version="1.0" encoding="UTF-8"?>
<svg width="339px" height="249px" viewBox="0 0 339 249" version="1.1" xmlns="http://www.w3.org/2000/svg" xmlns:xlink="http://www.w3.org/1999/xlink">
    <!-- Generator: Sketch 52.2 (67145) - http://www.bohemiancoding.com/sketch -->
    <title>Group 16</title>
    <desc>Created with Sketch.</desc>
    <defs>
        <polygon id="path-1" points="0.000120107058 0.2888933 45.1897688 0.2888933 45.1897688 45.4944497 0.000120107058 45.4944497"></polygon>
        <polygon id="path-3" points="0 0 49.4933333 0 49.4933333 49.2325581 0 49.2325581"></polygon>
        <polygon id="path-5" points="0 0 29.0133333 0 29.0133333 28.8604651 0 28.8604651"></polygon>
        <polygon id="path-7" points="0 0 16.15 0 16.15 29.5 0 29.5"></polygon>
        <polygon id="path-9" points="0.106220508 0.293491817 16.5946563 0.293491817 16.5946563 29.8146785 0.106220508 29.8146785"></polygon>
    </defs>
    <g id="registration-&amp;-login" stroke="none" stroke-width="1" fill="none" fill-rule="evenodd">
        <g id="1280_login" transform="translate(-79.000000, -111.000000)">
            <g id="Group-16" transform="translate(79.000000, 111.000000)">
                <path d="M228.062144,1.41812302 C225.209018,0.970061214 222.32786,0.743072805 219.499079,0.743072805 L219.492808,0.743072805 L219.258951,0.743442493 L219.254894,0 L219.499448,0 C222.36659,0 225.286479,0.229945913 228.177228,0.683922731 L228.062144,1.41812302 Z M201.99413,3.93865555 L201.722281,3.24807844 C204.438928,2.17228647 207.33853,1.35083982 210.339199,0.807028822 L210.47162,1.5386413 C207.518165,2.07357978 204.666514,2.88097829 201.99413,3.93865555 Z M244.828637,6.81002196 C242.231868,5.49319344 239.48313,4.36601484 236.6573,3.45953995 L236.883411,2.75158751 C239.746495,3.67026209 242.532489,4.8125979 245.163192,6.14680175 L244.828637,6.81002196 Z M187.600877,13.8337236 L187.05017,13.3364932 C189.047542,11.1187352 191.318977,9.13314112 193.802506,7.43553399 L194.220054,8.0495857 C191.785584,9.7139209 189.558781,11.660328 187.600877,13.8337236 Z M258.853031,17.3860552 C256.933488,15.2514769 254.740251,13.2555316 252.333076,11.4551512 L252.775338,10.8595839 C255.222719,12.6891696 257.452472,14.7183869 259.403737,16.8891946 L258.853031,17.3860552 Z M179.11269,29.1443505 L178.403743,28.9254953 C179.307816,25.986476 180.474149,23.204574 181.87065,20.6570543 L182.520211,21.0149122 C181.147686,23.5180694 180.001272,26.253021 179.11269,29.1443505 Z M267.284044,32.6918762 C266.533047,29.8748539 265.421675,27.1325086 263.98128,24.539887 L264.628996,24.1787018 C266.099269,26.8245586 267.233142,29.6234661 268,32.5003779 L267.284044,32.6918762 Z M176.702933,46.6217186 L175.961157,46.6217186 L175.961157,46.523012 C175.961157,43.4656925 176.149644,40.4915529 176.520717,37.6845122 L177.255484,37.7821098 C176.889207,40.5569876 176.702933,43.4982251 176.702933,46.523012 L176.702933,46.6217186 Z M110.836861,51.8091801 L110.749072,51.0720223 C113.687035,50.7178613 116.685491,50.5197085 119.661816,50.4827397 L119.671406,51.2258125 C116.720902,51.262042 113.749373,51.458716 110.836861,51.8091801 Z M137.280004,52.8772087 C134.397001,52.2953198 131.44871,51.8601971 128.517018,51.5847795 L128.585625,50.8446642 C131.543507,51.1226696 134.517987,51.5611195 137.425704,52.1485537 L137.280004,52.8772087 Z M93.6329008,55.8609602 L93.3813389,55.1618803 C96.144094,54.1640925 99.027466,53.310483 101.950675,52.6247118 L102.119243,53.3485608 C99.2240679,54.0269382 96.369098,54.873154 93.6329008,55.8609602 Z M154.148671,58.1855581 C151.449729,57.0117988 148.658941,55.9685394 145.854504,55.0849852 L146.07582,54.376663 C148.905707,55.2672413 151.721209,56.319743 154.444127,57.5045929 L154.148671,58.1855581 Z M77.9342552,63.9312484 L77.5078541,63.3234814 C79.8903153,61.6476859 82.4704851,60.0972146 85.176067,58.7142119 L85.5128354,59.376323 C82.8378688,60.7430594 80.2883144,62.2757857 77.9342552,63.9312484 Z M177.803609,64.4029703 C177.218598,61.383359 176.767115,58.4077406 176.462068,55.5596645 L177.19868,55.4801816 C177.501882,58.3071855 177.950415,61.2621013 178.531368,64.2613798 L177.803609,64.4029703 Z M169.551861,66.8909703 C167.140997,65.1804241 164.625009,63.5818933 162.074717,62.1393709 L162.43915,61.4920473 C165.011573,62.9467694 167.548587,64.559718 169.980844,66.2839426 L169.551861,66.8909703 Z M65.421815,76.2921351 L64.8131974,75.8673637 C66.469375,73.4795491 68.42064,71.1808294 70.6131388,69.0351604 L71.1306482,69.5671414 C68.9720844,71.6799081 67.0521725,73.9423985 65.421815,76.2921351 Z M181.757779,77.2810504 L180.747474,76.2865898 C179.3779,74.9379681 177.954472,73.6200306 176.517397,72.3708549 L177.002816,71.8089292 C178.106442,72.7693786 179.202692,73.7686451 180.272752,74.791202 C180.115987,74.2281673 179.962541,73.6688294 179.814629,73.1128187 L180.530585,72.9213203 C180.79395,73.9091265 181.071701,74.9080234 181.363837,75.9183806 L181.757779,77.2810504 Z M58.9070247,92.5144126 L58.1729949,92.4090516 C58.5942321,89.4670748 59.3850661,86.5531942 60.5233655,83.7483717 L61.2101812,84.0282255 C60.0943823,86.7772251 59.3194092,89.6323253 58.9070247,92.5144126 Z M59.8948295,110.15814 C58.9321071,107.237605 58.2947185,104.286386 58,101.385445 L58.7377183,101.309659 C59.0269039,104.156996 59.6528579,107.055719 60.5989816,109.925237 L59.8948295,110.15814 Z M68.3177282,125.907957 C66.4704816,123.424023 64.8419684,120.890182 63.4771896,118.375564 L64.128226,118.021034 C65.4764062,120.504228 67.0861075,123.008494 68.9123292,125.463961 L68.3177282,125.907957 Z M80.4605716,138.997868 C78.1673742,136.948318 76.0150811,134.84923 74.0627096,132.761232 L74.6034571,132.253281 C76.5407054,134.326121 78.6771376,136.407834 80.954474,138.443336 L80.4605716,138.997868 Z M94.2441004,150.223073 C93.1094897,149.104767 91.8081546,148.010121 90.3780877,146.96908 C89.3463886,146.216765 88.3228045,145.451511 87.3375817,144.692172 L87.7886964,144.102889 C88.7694929,144.857792 89.7868064,145.620088 90.814448,146.367598 C92.2740237,147.430081 93.6022855,148.549126 94.7641919,149.694419 L94.2441004,150.223073 Z M101.70317,165.86568 L100.961763,165.85385 L100.963977,165.517804 C100.963977,162.618711 100.398515,159.865644 99.2823476,157.334391 L99.9606796,157.034204 C101.118897,159.660837 101.705383,162.515198 101.705383,165.517804 L101.70317,165.86568 Z M96.628406,182.964488 L95.9696236,182.622896 C97.4753066,179.702731 98.6054911,177.039499 99.4265716,174.481628 L100.132199,174.709725 C99.299684,177.306783 98.152532,180.007354 96.628406,182.964488 Z M87.1505701,198.119106 L86.5441656,197.691747 C88.5304722,194.857719 90.1084516,192.51057 91.5104853,190.305382 L92.1368081,190.704645 C90.7273973,192.919445 89.1435161,195.275097 87.1505701,198.119106 Z M76.8490716,212.678158 L76.2367654,212.26078 C77.9239272,209.769083 79.7704361,207.182007 81.3679651,204.952419 L81.9703121,205.386063 C80.3749963,207.611954 78.5332825,210.194224 76.8490716,212.678158 Z M68.5641262,228.26716 L67.852228,228.057547 C68.5630196,225.62463 69.7507461,222.938108 71.4836464,219.844929 L72.1309942,220.208332 C70.4253895,223.252712 69.2579502,225.888587 68.5641262,228.26716 Z M73.6665548,243.754128 C70.6183028,241.899034 68.6725708,239.703826 67.718701,237.042073 L68.4158448,236.790685 C69.3106971,239.285709 71.1531486,241.355223 74.0509061,243.117895 L73.6665548,243.754128 Z M90.5248936,249 C87.3427457,248.499073 84.4597425,247.883912 81.9562955,247.173741 L82.1584303,246.458026 C84.6331063,247.161542 87.4866008,247.768569 90.6403465,248.26506 L90.5248936,249 Z" id="Fill-110" fill="#78C2D0"></path>
                <path d="M228.062144,1.41812302 C225.209018,0.970061214 222.32786,0.743072805 219.499079,0.743072805 L219.492808,0.743072805 L219.258951,0.743442493 L219.254894,0 L219.499448,0 C222.36659,0 225.286479,0.229945913 228.177228,0.683922731 L228.062144,1.41812302 Z M201.99413,3.93865555 L201.722281,3.24807844 C204.438928,2.17228647 207.33853,1.35083982 210.339199,0.807028822 L210.47162,1.5386413 C207.518165,2.07357978 204.666514,2.88097829 201.99413,3.93865555 Z M244.828637,6.81002196 C242.231868,5.49319344 239.48313,4.36601484 236.6573,3.45953995 L236.883411,2.75158751 C239.746495,3.67026209 242.532489,4.8125979 245.163192,6.14680175 L244.828637,6.81002196 Z M187.600877,13.8337236 L187.05017,13.3364932 C189.047542,11.1187352 191.318977,9.13314112 193.802506,7.43553399 L194.220054,8.0495857 C191.785584,9.7139209 189.558781,11.660328 187.600877,13.8337236 Z M258.853031,17.3860552 C256.933488,15.2514769 254.740251,13.2555316 252.333076,11.4551512 L252.775338,10.8595839 C255.222719,12.6891696 257.452472,14.7183869 259.403737,16.8891946 L258.853031,17.3860552 Z M179.11269,29.1443505 L178.403743,28.9254953 C179.307816,25.986476 180.474149,23.204574 181.87065,20.6570543 L182.520211,21.0149122 C181.147686,23.5180694 180.001272,26.253021 179.11269,29.1443505 Z M267.284044,32.6918762 C266.533047,29.8748539 265.421675,27.1325086 263.98128,24.539887 L264.628996,24.1787018 C266.099269,26.8245586 267.233142,29.6234661 268,32.5003779 L267.284044,32.6918762 Z M176.702933,46.6217186 L175.961157,46.6217186 L175.961157,46.523012 C175.961157,43.4656925 176.149644,40.4915529 176.520717,37.6845122 L177.255484,37.7821098 C176.889207,40.5569876 176.702933,43.4982251 176.702933,46.523012 L176.702933,46.6217186 Z M110.836861,51.8091801 L110.749072,51.0720223 C113.687035,50.7178613 116.685491,50.5197085 119.661816,50.4827397 L119.671406,51.2258125 C116.720902,51.262042 113.749373,51.458716 110.836861,51.8091801 Z M137.280004,52.8772087 C134.397001,52.2953198 131.44871,51.8601971 128.517018,51.5847795 L128.585625,50.8446642 C131.543507,51.1226696 134.517987,51.5611195 137.425704,52.1485537 L137.280004,52.8772087 Z M93.6329008,55.8609602 L93.3813389,55.1618803 C96.144094,54.1640925 99.027466,53.310483 101.950675,52.6247118 L102.119243,53.3485608 C99.2240679,54.0269382 96.369098,54.873154 93.6329008,55.8609602 Z M154.148671,58.1855581 C151.449729,57.0117988 148.658941,55.9685394 145.854504,55.0849852 L146.07582,54.376663 C148.905707,55.2672413 151.721209,56.319743 154.444127,57.5045929 L154.148671,58.1855581 Z M77.9342552,63.9312484 L77.5078541,63.3234814 C79.8903153,61.6476859 82.4704851,60.0972146 85.176067,58.7142119 L85.5128354,59.376323 C82.8378688,60.7430594 80.2883144,62.2757857 77.9342552,63.9312484 Z M177.803609,64.4029703 C177.218598,61.383359 176.767115,58.4077406 176.462068,55.5596645 L177.19868,55.4801816 C177.501882,58.3071855 177.950415,61.2621013 178.531368,64.2613798 L177.803609,64.4029703 Z M169.551861,66.8909703 C167.140997,65.1804241 164.625009,63.5818933 162.074717,62.1393709 L162.43915,61.4920473 C165.011573,62.9467694 167.548587,64.559718 169.980844,66.2839426 L169.551861,66.8909703 Z M65.421815,76.2921351 L64.8131974,75.8673637 C66.469375,73.4795491 68.42064,71.1808294 70.6131388,69.0351604 L71.1306482,69.5671414 C68.9720844,71.6799081 67.0521725,73.9423985 65.421815,76.2921351 Z M181.757779,77.2810504 L180.747474,76.2865898 C179.3779,74.9379681 177.954472,73.6200306 176.517397,72.3708549 L177.002816,71.8089292 C178.106442,72.7693786 179.202692,73.7686451 180.272752,74.791202 C180.115987,74.2281673 179.962541,73.6688294 179.814629,73.1128187 L180.530585,72.9213203 C180.79395,73.9091265 181.071701,74.9080234 181.363837,75.9183806 L181.757779,77.2810504 Z M58.9070247,92.5144126 L58.1729949,92.4090516 C58.5942321,89.4670748 59.3850661,86.5531942 60.5233655,83.7483717 L61.2101812,84.0282255 C60.0943823,86.7772251 59.3194092,89.6323253 58.9070247,92.5144126 Z M59.8948295,110.15814 C58.9321071,107.237605 58.2947185,104.286386 58,101.385445 L58.7377183,101.309659 C59.0269039,104.156996 59.6528579,107.055719 60.5989816,109.925237 L59.8948295,110.15814 Z M68.3177282,125.907957 C66.4704816,123.424023 64.8419684,120.890182 63.4771896,118.375564 L64.128226,118.021034 C65.4764062,120.504228 67.0861075,123.008494 68.9123292,125.463961 L68.3177282,125.907957 Z M80.4605716,138.997868 C78.1673742,136.948318 76.0150811,134.84923 74.0627096,132.761232 L74.6034571,132.253281 C76.5407054,134.326121 78.6771376,136.407834 80.954474,138.443336 L80.4605716,138.997868 Z M94.2441004,150.223073 C93.1094897,149.104767 91.8081546,148.010121 90.3780877,146.96908 C89.3463886,146.216765 88.3228045,145.451511 87.3375817,144.692172 L87.7886964,144.102889 C88.7694929,144.857792 89.7868064,145.620088 90.814448,146.367598 C92.2740237,147.430081 93.6022855,148.549126 94.7641919,149.694419 L94.2441004,150.223073 Z M101.70317,165.86568 L100.961763,165.85385 L100.963977,165.517804 C100.963977,162.618711 100.398515,159.865644 99.2823476,157.334391 L99.9606796,157.034204 C101.118897,159.660837 101.705383,162.515198 101.705383,165.517804 L101.70317,165.86568 Z M96.628406,182.964488 L95.9696236,182.622896 C97.4753066,179.702731 98.6054911,177.039499 99.4265716,174.481628 L100.132199,174.709725 C99.299684,177.306783 98.152532,180.007354 96.628406,182.964488 Z M87.1505701,198.119106 L86.5441656,197.691747 C88.5304722,194.857719 90.1084516,192.51057 91.5104853,190.305382 L92.1368081,190.704645 C90.7273973,192.919445 89.1435161,195.275097 87.1505701,198.119106 Z M76.8490716,212.678158 L76.2367654,212.26078 C77.9239272,209.769083 79.7704361,207.182007 81.3679651,204.952419 L81.9703121,205.386063 C80.3749963,207.611954 78.5332825,210.194224 76.8490716,212.678158 Z M68.5641262,228.26716 L67.852228,228.057547 C68.5630196,225.62463 69.7507461,222.938108 71.4836464,219.844929 L72.1309942,220.208332 C70.4253895,223.252712 69.2579502,225.888587 68.5641262,228.26716 Z M73.6665548,243.754128 C70.6183028,241.899034 68.6725708,239.703826 67.718701,237.042073 L68.4158448,236.790685 C69.3106971,239.285709 71.1531486,241.355223 74.0509061,243.117895 L73.6665548,243.754128 Z M90.5248936,249 C87.3427457,248.499073 84.4597425,247.883912 81.9562955,247.173741 L82.1584303,246.458026 C84.6331063,247.161542 87.4866008,247.768569 90.6403465,248.26506 L90.5248936,249 Z" id="Fill-110" fill="#78C2D0"></path>
                <g id="Group-7" transform="translate(218.000000, 16.000000)">
                    <g id="Group-6" transform="translate(0.000000, 67.296296)" fill="#2879FF">
                        <path d="M6.53323415,24.1762418 C11.7496891,24.1811617 23.7699401,24.2008412 23.7960744,24.2008412 C24.7863863,24.2000644 26.4620257,23.8056979 26.4620257,22.3299958 C26.4620257,21.2584999 25.984504,20.7807546 25.7000716,20.4938485 L25.6455194,20.4381763 C25.5818329,20.3729233 25.557221,20.27841 25.5833553,20.1895934 C25.6084747,20.1020715 25.6782507,20.0331933 25.7678177,20.0150675 C26.6282195,19.8237104 27.5454569,19.0466299 27.537845,18.1936798 C27.5276957,17.1926157 27.0628606,16.8658327 26.6523239,16.5765961 C26.523936,16.485708 26.4021452,16.4002576 26.3024289,16.298494 C26.2387424,16.232982 26.214638,16.137433 26.2402648,16.0496521 C26.2653842,15.9608355 26.3359214,15.8953236 26.4247272,15.8751262 C27.2798006,15.6853228 28.1955157,14.9069476 28.1955157,14.0506312 C28.1955157,13.1790374 27.5883374,12.4112787 26.7533088,12.2263952 C26.6398911,12.2015369 26.5592046,12.0982196 26.5592046,11.9801427 C26.5592046,11.861548 26.6398911,11.7590075 26.7533088,11.7346671 C27.5883374,11.5492657 28.1955157,10.7817659 28.1955157,9.90991315 C28.1955157,8.87932983 27.3739348,8.04139826 26.3638318,8.04139826 L19.4763046,7.75319745 C19.4032301,7.74931334 19.3354839,7.71409743 19.291081,7.65557687 C19.2466781,7.59576161 19.2296781,7.52092779 19.2446482,7.44764762 L19.6744685,5.42428629 C20.0304531,3.00112078 19.1517827,1.65100484 18.7579922,1.18413506 C18.3342615,0.681790424 17.915098,0.503380397 17.6639043,0.503380397 C17.4408748,0.503380397 17.3089347,0.63103808 17.2592034,0.895416364 C17.0498754,2.19995877 16.4840553,4.62830309 16.477712,4.65290244 C16.4733986,4.67335875 16.4660404,4.69277929 16.4558912,4.711423 C14.7873563,7.94714391 11.3586897,8.3617077 8.55826102,8.3617077 C8.13402284,8.3617077 7.72120255,8.35264478 7.35735234,8.34487657 C7.06175576,8.33840306 6.785189,8.33115272 6.53323415,8.33115272 L6.53323415,24.1762418 Z M23.7960744,24.7037037 L23.7953132,24.7037037 C23.7953132,24.7037037 11.3655405,24.684801 6.28584646,24.6783275 C6.14984666,24.6783275 6.03947368,24.5664652 6.03947368,24.427932 L6.03947368,8.08049828 C6.03947368,7.94222404 6.14832427,7.83087961 6.28330915,7.82803126 C6.60174151,7.8244061 6.96762157,7.83165643 7.36877023,7.84201405 C7.74759057,7.85030015 8.14011238,7.85910413 8.55826102,7.85910413 C11.2120332,7.85910413 14.4542075,7.47716684 16.0057724,4.50556528 C16.0727574,4.21788235 16.5797119,2.02154874 16.7738161,0.806599761 C16.8687115,0.299594197 17.201099,0 17.6639043,0 C18.1381275,0 18.6724849,0.312282283 19.131738,0.855280582 C19.5694239,1.37523317 20.547303,2.86932005 20.1593484,5.51517442 L19.7886474,7.26146938 L26.373981,7.53853575 C27.6459344,7.53853575 28.6875,8.60200452 28.6875,9.90991315 C28.6875,10.781248 28.2117544,11.5689451 27.4934421,11.9801427 C28.2117544,12.3918582 28.6875,13.180591 28.6875,14.0506312 C28.6875,15.0123364 27.8824116,15.8422408 27.0045025,16.2127847 C27.4335615,16.5188524 28.0191726,16.9960798 28.0308443,18.188242 C28.0399786,19.1758412 27.1902336,20.025943 26.2790856,20.3817273 C26.5893986,20.7395831 26.9555324,21.3216814 26.9555324,22.3299958 C26.9555324,24.2031717 24.9700876,24.7037037 23.7960744,24.7037037 Z" id="Fill-1"></path>
                        <polygon id="Fill-4" points="0 24.7037037 9.81414474 24.7037037 9.81414474 7.71990741 0 7.71990741"></polygon>
                    </g>
                    <g id="Group-6" transform="translate(34.593750, 0.000000)" fill="#FC5D16">
                        <path d="M9.94116724,39.2610146 C18.5276523,39.2691412 38.3113106,39.3004865 38.3551231,39.3004865 C39.986563,39.2997125 42.7425242,38.6600353 42.7425242,36.2642446 C42.7425242,34.5236104 41.957742,33.7465554 41.4884869,33.2814059 L41.3989403,33.1912397 C41.2940208,33.0855942 41.2540515,32.9308024 41.2970954,32.786846 C41.337449,32.6436635 41.4535137,32.5345353 41.5995555,32.50319 C43.0173132,32.1928323 44.5261549,30.9312788 44.5134723,29.5455049 C44.4969465,27.9201906 43.7321491,27.3896416 43.0568982,26.9198484 C42.8447534,26.7720222 42.6449068,26.6334835 42.4811863,26.4678562 C42.3758826,26.3622108 42.3366819,26.2078059 42.3785728,26.0650105 C42.4193108,25.9210541 42.5357598,25.8119258 42.6810329,25.7801935 C44.0880297,25.4721577 45.5949498,24.2078954 45.5949498,22.8178647 C45.5949498,21.4015194 44.5972541,20.1562191 43.2225403,19.8551489 C43.0353763,19.8149031 42.9039387,19.6473409 42.9039387,19.455786 C42.9039387,19.2630702 43.0353763,19.0966689 43.2225403,19.0560361 C44.5972541,18.7561269 45.5949498,17.5096656 45.5949498,16.0929333 C45.5949498,14.4196336 44.2436794,13.0590133 42.5811096,13.0590133 L31.2440438,12.5899941 C31.1237516,12.5845764 31.012683,12.5269164 30.9396621,12.4313324 C30.8658726,12.3353615 30.8382016,12.212689 30.8627981,12.0946602 L31.5707161,8.80804251 C32.156036,4.87323401 30.7113758,2.68060764 30.0622588,1.92212764 C29.3658703,1.10714861 28.674478,0.81691392 28.2613337,0.81691392 C27.8946921,0.81691392 27.6779354,1.02472196 27.5960751,1.45349535 C27.2521084,3.57298258 26.3201316,7.51591765 26.3089863,7.55500259 C26.3020686,7.58866981 26.2901546,7.62040214 26.2743975,7.65136051 C23.5272757,12.9057694 17.8839158,13.5791139 13.2739933,13.5791139 C12.5756832,13.5791139 11.8969735,13.5644087 11.2974337,13.5508644 C10.8120371,13.540029 10.3562332,13.5295805 9.94116724,13.5288066 L9.94116724,39.2610146 Z M38.3551231,40.1174004 L38.3539702,40.1174004 C38.3539702,40.1174004 17.8942924,40.0864421 9.53455632,40.0771545 C9.31049756,40.0771545 9.12909836,39.8948872 9.12909836,39.6692781 L9.12909836,13.122091 C9.12909836,12.8980298 9.30819164,12.7165364 9.52956016,12.7122796 C10.0545417,12.7060879 10.6563874,12.7192453 11.3162654,12.7339505 C11.939633,12.7482687 12.5852912,12.762587 13.2739933,12.762587 C17.6429469,12.762587 22.9784662,12.1422587 25.5322749,7.3158492 C25.6429592,6.84992577 26.47655,3.28236091 26.7970732,1.30992592 C26.9531072,0.485659389 27.5003794,0 28.2613337,0 C29.0426569,0 29.9219819,0.506556287 30.6771713,1.38964372 C31.3981563,2.23248527 33.0084585,4.66000826 32.3681808,8.95509476 L31.7594174,11.7924291 L42.5987884,12.2417124 C44.6910283,12.2417124 46.40625,13.9699633 46.40625,16.0929333 C46.40625,17.5069568 45.6237738,18.7882462 44.4404514,19.455786 C45.6237738,20.1237128 46.40625,21.4046152 46.40625,22.8178647 C46.40625,24.3797143 45.0811135,25.7275643 43.636069,26.3293175 C44.3420654,26.8265863 45.3059409,27.6001585 45.3243882,29.5373784 C45.3405297,31.1414088 43.9412193,32.521378 42.441217,33.0983646 C42.9527474,33.6803819 43.5542087,34.626547 43.5542087,36.2642446 C43.5542087,39.3062912 40.2867172,40.1174004 38.3551231,40.1174004 Z" id="Fill-1"></path>
                        <polygon id="Fill-4" points="0 40.8888889 15.9759221 40.8888889 15.9759221 13.115304 0 13.115304"></polygon>
                    </g>
                </g>
                <g id="Group-64" transform="translate(226.500000, 165.500000) scale(-1, 1) translate(-226.500000, -165.500000) translate(114.000000, 116.000000)">
                    <path d="M34.2306624,87.0279814 C34.6132765,86.4277535 35.2364886,85.8820918 35.606414,85.5871395 L34.1535539,72.8324198 C39.5872602,71.764201 35.952914,70.3209012 35.952914,64.5712981 L35.952914,59.3506428 L52.9426407,64.8834559 C52.7186357,64.263073 38.0851093,49.3832221 39.7590461,45.9873382 C40.3700575,44.7283836 41.917107,44.276615 43.820417,45.8555929 C43.820417,45.8555929 51.2003799,51.7856084 56.0938389,54.2607496 C62.1351403,57.3026908 67.7625938,62.4958172 93.7447286,69.0422831 C94.5826731,69.2536655 95.0004252,69.5874532 95.08339,70.0205415 L120.958647,75.4820745 L102.743481,91.9654826 L91.6476713,90.6229581 C89.9595817,92.6964726 60.9409353,96.4615385 59.2362527,96.4615385 L36.4511908,93.0002735 L36.2540274,91.2679204 C34.9885702,90.6893224 34.0657088,89.8526411 33.8368236,88.6212153 C33.8368236,88.6212153 33.7807004,87.7402912 34.2306624,87.0279814" id="Fill-1" fill="#FFD5CB"></path>
                    <path d="M5.0785493,30.265467 C9.40750029,39.8432446 20.6787822,44.0975633 30.2547519,39.766136 C39.8292392,35.4361917 44.0820963,24.1595534 39.7531453,14.5817758 C35.4227119,5.00350389 24.1519241,0.748690978 14.5769427,5.07962392 C5.00097308,9.41006257 0.748115967,20.6862065 5.0785493,30.265467" id="Fill-3" fill="#F7F7F7"></path>
                    <polygon id="Fill-5" fill="#78C2D0" points="34.2839889 59.2307692 42.2932331 55.6514752 33.7048536 42.3076923 29.6052632 44.1405043"></polygon>
                    <polygon id="Fill-7" fill="#2879FF" points="50.8468045 99 58.3646617 95.4936636 41.3524436 56.6923077 33.8345865 60.1981594"></polygon>
                    <g id="Group-11">
                        <mask id="mask-2" fill="white">
                            <use xlink:href="#path-1"></use>
                        </mask>
                        <g id="Clip-10"></g>
                        <path d="M4.41050206,26.8403985 C2.23177298,16.7920213 8.60735508,6.88268635 18.6503335,4.70124715 C28.6938031,2.5217732 38.601716,8.90150025 40.7799539,18.9464382 C42.958683,28.9918675 36.5826098,38.9026764 26.5406136,41.0816591 C16.4971441,43.261133 6.58923114,36.8853365 4.41050206,26.8403985 M14.5075067,43.9897533 C26.1570276,48.4592471 39.2195792,42.6347062 43.6855809,30.9821851 C48.1535472,19.331138 42.3309968,6.26068139 30.6829493,1.79167891 C19.0349018,-2.674867 5.96842105,3.15163921 1.50438394,14.802195 C-2.96407349,26.4556988 2.85995028,39.5222248 14.5075067,43.9897533" id="Fill-9" fill="#2879FF" mask="url(#mask-2)"></path>
                    </g>
                    <path d="M3.89911608,15.1512258 C6.1612204,9.38717349 10.8577514,5.23425217 16.402945,3.38461538 C12.3693072,5.5871434 9.0717747,9.13017133 7.28779019,13.6754104 C3.24369351,23.9861619 8.51596043,35.5478521 19.0664708,39.5012073 C23.7161859,41.2432731 28.6149217,41.2160153 32.9887218,39.7582095 C27.873836,42.5501875 21.5751056,43.1873387 15.6763025,40.9779963 C5.1257922,37.024641 -0.145478637,25.4629509 3.89911608,15.1512258" id="Fill-12" fill="#E4E3E0"></path>
                    <path d="M4.54130677,16.0936842 C0.585424231,26.4139765 5.76186001,38.0277785 16.0804966,41.9837252 C21.1175114,43.9148107 26.5990855,43.7545484 31.5135489,41.5332047 C36.3550768,39.3431196 40.0683371,35.405035 41.9701179,30.4443484 C43.8872796,25.4469453 43.7419047,20.0000141 41.5627706,15.1097832 C39.3831404,10.2190562 35.4302348,6.47100393 30.4309281,4.55381116 C25.3954017,2.62322186 19.9148199,2.78298793 14.9988681,5.00631629 C10.1578363,7.19491289 6.44507214,11.1329975 4.54130677,16.0936842 M15.8388667,42.6153469 C5.17242211,38.5244426 -0.178165788,26.5191641 3.91167991,15.8520504 C5.87746526,10.7241552 9.71675023,6.65359371 14.7205224,4.39057192 C19.8007032,2.09331454 25.4668487,1.92759447 30.6735503,3.9241741 C35.8400628,5.90487635 39.9279239,9.77994765 42.1794973,14.8354024 C44.4325592,19.8903609 44.5814072,25.5188896 42.600737,30.6864783 C40.6344555,35.815862 36.7956667,39.8844388 31.7923907,42.1474606 C26.7107215,44.444718 21.0455682,44.6109342 15.8388667,42.6153469" id="Fill-14" fill="#FFFFFF"></path>
                    <polygon id="Fill-16" fill="#FFFFFF" points="44.8308271 58.6349552 44.3424846 57.5384615 36.3721805 61.5194156 36.8620117 62.6153846"></polygon>
                    <path d="M30.2107466,67.9730055 C30.2107466,67.9730055 27.4534463,64.908242 27.9804946,62.8991586 C28.4840505,60.9629855 32.27553,60.0769231 32.27553,60.0769231 C37.7349744,62.3128384 54.8987732,64.7983702 51.037327,70.9597955 C49.1007308,75.8437718 33.386315,69.4565272 30.2107466,67.9730055" id="Fill-18" fill="#FFD5CB"></path>
                    <path d="M31.9020396,76.4345439 C31.9020396,76.4345439 29.1447969,73.3697804 29.672345,71.3606971 C30.1758903,69.424524 33.9672905,68.5384615 33.9672905,68.5384615 C39.4266208,70.7743769 56.5900606,73.2599087 52.7292059,79.421334 C50.7921395,84.3053103 35.0780523,77.9180657 31.9020396,76.4345439" id="Fill-20" fill="#FFD5CB"></path>
                    <path d="M31.9019752,83.2037747 C31.9019752,83.2037747 29.1451868,80.1390112 29.6722349,78.1299279 C30.1763013,76.1937548 33.9672683,75.3076923 33.9672683,75.3076923 C39.4267102,77.5436077 56.590501,80.0291395 52.7290566,86.1905647 C50.7924613,91.0745411 35.0790742,84.6872965 31.9019752,83.2037747" id="Fill-22" fill="#FFD5CB"></path>
                    <path d="M33.8749429,91.2516743 C33.8749429,91.2516743 31.7954451,89.0044752 32.1934911,87.5304856 C32.5725129,86.111994 35.4310298,85.4615385 35.4310298,85.4615385 C39.5485623,87.1006111 52.0772562,87.2689864 49.5797125,93.4424349 C48.1192348,97.023938 36.2695605,92.3395295 33.8749429,91.2516743" id="Fill-24" fill="#FFD5CB"></path>
                    <path d="M220.497581,79.3846979 C224.25983,90.5246428 218.262939,83.8128748 225,94.0309941 C188.140102,102.352787 104.646061,98.9976342 85.4323308,92.9038307 L92.1854715,68.6817665 C133.306587,69.9172079 182.479918,59.6112956 208.395626,52.4615385 C208.592972,53.2541134 216.860075,68.6115322 220.497581,79.3846979" id="Fill-26" fill="#FFB839"></path>
                    <path d="M100.657895,68.6280778 C97.7062522,68.6558393 94.7835565,68.6285648 91.9024135,68.5384615 L85.4323308,92.726078 C87.6248195,93.4512877 90.6927162,94.1370467 94.4534693,94.7692308 C96.177673,85.9615135 98.034005,77.1825318 100.657895,68.6280778" id="Fill-28" fill="#F57C02"></path>
                    <path d="M89.16659,92.2307692 L88.8157895,92.1952441 C89.2241432,87.5103663 90.45971,82.2610335 91.6541675,77.1834056 C92.372669,74.1326842 93.0505179,71.2507073 93.5456582,68.5384615 L93.8909774,68.6119788 C93.3944668,71.3345861 92.7152476,74.2210037 91.9953758,77.2776459 C90.8041157,82.3404717 89.5722031,87.5759891 89.16659,92.2307692" id="Fill-30" fill="#FFFFFF"></path>
                    <path d="M42.8896131,62.6153846 C44.0020335,62.6449586 45.105812,62.9581519 46.0986844,63.4836961 C47.0867558,64.0169974 47.9706427,64.7539228 48.6725671,65.6455056 C49.0220889,66.0915394 49.32552,66.5792677 49.552133,67.1062663 C49.773945,67.6337498 49.9295014,68.2072911 49.9030952,68.8021644 C49.8891719,69.3926744 49.6294311,70.0050012 49.1608414,70.3943112 C48.698013,70.7894389 48.1132361,70.9722158 47.5462234,71.0560896 L47.5395018,71.0565744 L47.5284592,71.057544 C46.6541745,71.0934207 45.7731682,71.081785 44.8974432,71.0032443 C44.0207579,70.9247035 43.1503141,70.7787729 42.2981146,70.5804818 C40.5927553,70.1814755 38.9296459,69.7087766 37.2180451,69.4455197 L37.2727779,69.077057 C38.1393808,69.2016555 39.0002224,69.3664941 39.8524219,69.559937 L42.3883757,70.1732335 C43.2319332,70.3632827 44.0778913,70.5227883 44.9348919,70.6056924 C45.7899722,70.6915054 46.6527342,70.7108982 47.5154962,70.6837483 L47.4986922,70.6856876 C48.0258557,70.6212066 48.5496583,70.46461 48.9500721,70.1378417 C49.3528864,69.8168913 49.5852608,69.3151033 49.6131073,68.7851957 C49.650076,68.2543185 49.5209257,67.7113209 49.321199,67.2041998 C49.1171512,66.6961091 48.8348451,66.2175924 48.5050079,65.7764068 C47.843413,64.8925811 46.9940941,64.1493531 46.0353096,63.5990831 C45.0798859,63.0444497 44.0005932,62.6890772 42.8896131,62.6153846" id="Fill-32" fill="#D2A066"></path>
                    <path d="M47.6902202,72.7692308 C48.6036806,73.0098104 49.5017429,73.3398177 50.3103962,73.8379878 C51.1106055,74.3317836 51.8422679,75.011239 52.2118245,75.9030849 C52.396106,76.3434186 52.4770707,76.8318682 52.4308761,77.3120556 C52.3886553,77.7937009 52.2182818,78.2631958 51.9550224,78.6719383 C51.4270134,79.4967135 50.5567673,80.0634123 49.6284054,80.3608562 L49.627412,80.3608562 L49.604563,80.3681465 L49.5772437,80.3691186 C48.671234,80.4011959 47.762244,80.3856432 46.8552409,80.3020479 C45.9502247,80.2203966 45.0521624,80.0658424 44.1704918,79.8694905 L41.5448519,79.2522456 C40.6716255,79.0539497 39.7944253,78.8838428 38.9097744,78.7540756 L38.9664,78.3837287 C39.861482,78.51544 40.7511,78.6870049 41.6307838,78.8872449 L44.2539401,79.5044898 C45.1271665,79.6984116 46.0048634,79.8495637 46.8919979,79.9292709 C47.7781389,80.0109222 48.671234,80.0264748 49.5633356,79.9953695 L49.5141608,80.0036319 C50.3858971,79.7552759 51.2049815,79.2580779 51.7151086,78.5188421 C52.2331832,77.7893268 52.3628261,76.8148576 52.0330068,75.9696695 C51.7156053,75.1176773 51.0311309,74.4294736 50.2582411,73.9162369 C49.4779005,73.3991121 48.594243,73.0394576 47.6902202,72.7692308" id="Fill-34" fill="#D2A066"></path>
                    <path d="M46.491515,80.3846154 C47.4593653,80.4819794 48.4277082,80.7316711 49.3167514,81.1776613 C50.2033319,81.6205107 51.019971,82.2596587 51.6208755,83.102957 C52.2124217,83.9336923 52.5985768,85.0266823 52.3833347,86.1065858 C52.2784227,86.6384239 52.0188516,87.134143 51.6602791,87.5167942 C51.3021991,87.9036331 50.8589089,88.179498 50.3969019,88.3763199 C49.4674701,88.7731046 48.4543056,88.8327794 47.4958137,88.8411548 C46.5269782,88.8589525 45.5517397,88.8338263 44.5819192,88.6903975 C43.609636,88.5522034 42.6728159,88.2627285 41.7409214,88.0371161 C40.8070566,87.8078395 39.8628484,87.6403314 38.9097744,87.5178411 L38.9565662,87.1184391 C39.918506,87.2472109 40.8779831,87.4230944 41.8226838,87.6612699 C42.7688622,87.8968281 43.6894282,88.1857795 44.6311737,88.325544 C45.5734117,88.4715901 46.5319037,88.5014275 47.4908882,88.4899113 C48.452828,88.4867705 49.4054095,88.4323304 50.2811539,88.0659066 C50.7131156,87.8847885 51.119465,87.631956 51.4425743,87.2875176 C51.7656837,86.9462199 51.9947169,86.5117459 52.0912557,86.0395826 C52.2892587,85.0842632 51.9503879,84.0708395 51.394305,83.2830282 C50.8323115,82.4852711 50.0550759,81.8649678 49.2019885,81.4336346 C48.3464384,80.999684 47.4135587,80.7510393 46.46344,80.6494875 L46.491515,80.3846154 Z" id="Fill-36" fill="#D2A066"></path>
                    <path d="M44.1305592,87.1603973 C45.5881648,87.0837863 47.0216458,87.6850818 48.1072508,88.6507836 C48.6524657,89.1356506 49.124342,89.7152733 49.4616033,90.3795714 C49.7935571,91.0368131 50.0019933,91.8079633 49.8615884,92.566009 C49.7916272,92.9404956 49.6270977,93.2973416 49.3882646,93.5846329 C49.1503965,93.8739402 48.8493221,94.0941968 48.5294305,94.2585073 C47.8824099,94.5851121 47.171218,94.7075889 46.4701585,94.7534546 C45.0612845,94.8320817 43.6610953,94.6067849 42.2932331,94.3003409 C43.6664027,94.5750317 45.0704518,94.7675672 46.4634036,94.6566829 C47.1557783,94.5956965 47.8534605,94.457091 48.4662241,94.1279662 C49.0789878,93.8109377 49.5745062,93.2323231 49.6787243,92.5302236 C49.7935571,91.8336683 49.5875334,91.1129201 49.2575095,90.4949919 C48.9236257,89.8715195 48.4604342,89.3256661 47.9287291,88.8750724 C46.8686961,87.9738851 45.5037288,87.4441604 44.1479288,87.5479885 L44.1305592,87.1603973 Z" id="Fill-38" fill="#D2A066"></path>
                    <path d="M44.8308271,69.7172138 L45.0099933,66.8461538 C45.0099933,66.8461538 46.951535,67.3647169 47.5385628,67.8301122 C48.3693601,68.5620552 48.2000997,69.8132702 48.2000997,69.8132702 C48.1238679,70.8057354 44.8308271,69.7172138 44.8308271,69.7172138" id="Fill-40" fill="#FFD5CB"></path>
                    <path d="M45.1428852,70.9061382 C45.4772612,71.0625156 46.575142,71.549131 47.306149,71.549131 C47.8793649,71.549131 47.8938519,71.2601728 47.899725,71.1518741 C47.9016828,71.1266207 48.0363728,69.5006843 47.3378638,68.5745611 C46.9396666,68.097173 45.7521229,67.5547085 45.2897131,67.3551088 L45.1428852,70.9061382 Z M47.306149,71.9230769 C46.3809377,71.9230769 44.9894012,71.2344336 44.93067,71.2057806 L44.8308271,71.1557593 L45.0085867,66.8461538 L45.1961348,66.9214287 C45.2693529,66.9505673 47.000747,67.6518374 47.5528198,68.3118276 C48.3519548,69.3724743 48.2063016,71.1101088 48.200037,71.1844123 C48.1835922,71.5161072 48.014055,71.9230769 47.306149,71.9230769 Z" id="Fill-42" fill="#D2A066"></path>
                    <path d="M47.2236782,79.4612719 C46.2619525,79.3220586 45.8782564,78.9849337 45.8782564,78.9849337 L45.6766917,74.4615385 C45.6766917,74.4615385 48.0932085,75.0895569 48.6834406,75.8973061 C49.5303739,77.1554208 48.908958,80.0461758 47.2236782,79.4612719" id="Fill-44" fill="#FFD5CB"></path>
                    <path d="M46.1791724,78.7425396 C46.3054053,78.8255177 46.6444777,79.0110262 47.2617527,79.1016344 C47.4067776,79.1502767 47.5215719,79.1712597 47.6310555,79.1712597 C48.1457918,79.1712597 48.4223604,78.6977124 48.5408315,78.4149193 C48.8484477,77.6829 48.8035104,76.6766716 48.4374757,76.1244382 C48.0718495,75.6165552 46.710658,75.133947 46.0116788,74.9293631 L46.1791724,78.7425396 Z M47.6310555,79.5384615 C47.4913414,79.5384615 47.3450909,79.5122328 47.1963893,79.4597754 C46.3217462,79.3334008 45.9471325,79.0067342 45.9312002,78.9929045 L45.8731903,78.9414009 L45.6766917,74.4615385 L45.8789096,74.5149496 C45.9696012,74.5387939 48.1208721,75.1143947 48.6825882,75.8941025 C49.1270589,76.5646035 49.1854774,77.7153283 48.8239365,78.5765835 C48.5628916,79.1970115 48.1392555,79.5384615 47.6310555,79.5384615 Z" id="Fill-46" fill="#D2A066"></path>
                    <path d="M48.6917253,85.4597325 C47.7359555,85.4114183 47.3684211,85.1970492 47.3684211,85.1970492 L47.3814829,82.0769231 C47.3814829,82.0769231 49.9474681,82.4183708 50.5005715,82.9482036 C50.8649531,83.3432436 50.7257764,84.2656804 50.7257764,84.2656804 C50.7086608,85.3444279 49.168259,85.4800326 48.6917253,85.4597325" id="Fill-48" fill="#FFD5CB"></path>
                    <path d="M47.6832768,84.9915761 C47.8176316,85.0443684 48.1467804,85.1462612 48.7344295,85.1761646 C48.7556649,85.1769029 48.7805757,85.1772721 48.808345,85.1772721 C48.872868,85.1772721 50.3973253,85.166566 50.4128435,84.2299638 C50.4463301,83.9962747 50.4789999,83.3793798 50.2445937,83.1250168 C49.9019685,82.79608 48.4248826,82.5169821 47.6943029,82.4077057 L47.6832768,84.9915761 Z M48.808345,85.4615385 C48.7748584,85.4615385 48.7450472,85.4608001 48.7185029,85.4596926 C47.8192651,85.4142838 47.4554045,85.2068063 47.4402947,85.1986844 L47.3684211,85.156229 L47.3806722,82.0769231 L47.5603565,82.1009196 C47.8037469,82.1337763 49.9562822,82.4335481 50.480225,82.9367365 C50.8510279,83.3391395 50.739542,84.1587126 50.7248406,84.2510068 C50.7117727,85.2031145 49.5136056,85.4615385 48.808345,85.4615385 Z" id="Fill-50" fill="#D2A066"></path>
                    <path d="M47.4141259,93.075694 C46.7720111,93.0378249 46.5225564,92.9045547 46.5225564,92.9045547 L46.6860878,90.5384615 C46.6860878,90.5384615 48.3237115,91.0191083 48.7006652,91.3460938 C49.2393025,91.856599 49.0129455,92.3019255 49.0129455,92.3019255 C49.0138694,92.957353 47.7333355,93.0917156 47.4141259,93.075694" id="Fill-52" fill="#FFD5CB"></path>
                    <path d="M46.8437559,92.6095626 C46.9416529,92.6524004 47.142706,92.7196557 47.4748279,92.7457868 L47.5108314,92.7470719 C47.7369655,92.7470719 48.2899626,92.6549706 48.5573592,92.370956 C48.6584925,92.2638614 48.707441,92.1430588 48.7070365,91.9999805 L48.718768,91.9382941 C48.7244314,91.9215873 48.8720861,91.4919241 48.4703845,90.9812974 C48.2592181,90.7354084 47.4412516,90.358864 46.9695657,90.1609533 L46.8437559,92.6095626 Z M47.5108314,93.0769231 C47.4893911,93.0769231 47.470378,93.0764947 47.4533876,93.0752096 C46.8647916,93.0289447 46.6204535,92.8640192 46.5949679,92.8451705 L46.5225564,92.7929084 L46.6819425,89.6923077 L46.8801639,89.7711293 C47.0302458,89.8298171 48.3591378,90.3618627 48.7054184,90.7645381 C49.1714408,91.356985 49.0589805,91.8907441 49.0185272,92.0278251 C49.0124592,92.2475831 48.9315525,92.4416384 48.7782344,92.604422 C48.4125362,92.9925326 47.7393927,93.0769231 47.5108314,93.0769231 Z" id="Fill-54" fill="#D2A066"></path>
                    <path d="M43.0589441,48.9211215 C43.9548152,50.1935665 44.8308271,50.7692308 44.8308271,50.7692308 L44.3244172,47.413682 C44.3244172,47.413682 42.1693251,44.9652992 41.7456619,44.8490082 C41.1546665,44.7746978 41.6243001,46.1759796 41.6243001,46.1759796 C41.6243001,46.1759796 41.7195507,47.0049748 43.0589441,48.9211215" id="Fill-56" fill="#FFD5CB"></path>
                    <path d="M41.9873129,45.1880041 C41.9000001,45.1880041 41.88043,45.2146152 41.8708959,45.2274772 C41.7554825,45.3831519 41.9145523,45.8825528 42.0585681,46.1708393 L42.0716148,46.2143041 C42.0731202,46.2196263 42.2407205,46.9705017 43.9814551,48.6478857 C44.7657642,49.3987611 45.5460589,49.8826389 45.9846297,50.124356 L45.3884946,47.4681286 C44.2599526,46.6068172 42.3862417,45.2576364 42.0068829,45.1871171 C42.0134063,45.1884477 41.999356,45.1880041 41.9873129,45.1880041 Z M46.5225564,50.7692308 L46.1702947,50.6135561 C46.120115,50.5918237 44.9283465,50.0573849 43.6969361,48.8785149 C42.0119009,47.2547966 41.7359124,46.4458203 41.6957687,46.2919197 C41.6079541,46.1109645 41.2868039,45.3933528 41.5472367,45.0407563 C41.6189937,44.9431824 41.7675257,44.8243196 42.0650914,44.8496001 C42.6828038,44.9631407 45.1948009,46.8680492 45.6920819,47.2485873 L45.7417599,47.2871734 L46.5225564,50.7692308 Z" id="Fill-58" fill="#D2A066"></path>
                    <path d="M67.3267656,79.4915297 C65.6048791,79.162068 64.0241769,78.3163559 62.6639288,77.2674288 C61.2952377,76.2133392 60.1094765,74.9569733 59.0278447,73.6325562 C57.946682,72.3048538 56.9710557,70.8983059 56.0404583,69.4692308 C55.1056395,68.0401556 54.2313283,66.5758815 53.2894737,65.1538462 C54.265569,66.5524156 55.1759972,67.996509 56.1431805,69.3997716 C57.1080186,70.8044422 58.1136641,72.1809537 59.2187485,73.4725185 C60.3233638,74.7607981 61.5260108,75.9725787 62.8871971,76.9689422 C64.2451,77.961551 65.7751446,78.7293563 67.4233902,79.002969 L67.6691729,79.0437997 L67.5711413,79.5384615 L67.3267656,79.4915297 Z" id="Fill-60" fill="#D2A066"></path>
                    <path d="M98.9661654,70.6530179 C98.9661654,71.3548635 98.3978415,71.9230769 97.6970925,71.9230769 C96.9974471,71.9230769 96.4285714,71.3548635 96.4285714,70.6530179 C96.4285714,69.9522766 96.9974471,69.3846154 97.6970925,69.3846154 C98.3978415,69.3846154 98.9661654,69.9522766 98.9661654,70.6530179" id="Fill-62" fill="#FFFFFF"></path>
                </g>
                <path d="M26.0873002,32.6535399 C24.8401076,25.0682897 37.3156182,22.0988159 40.5648909,26.7169725 C39.5241199,19.4724085 45.3974261,9.97336523 55.4735473,9.15423081 C74.4924126,7.38236541 68.9796721,21.4579094 78.1207722,21.6620235 C86.4726309,21.5052187 80.2480197,9.48361032 99.2426881,15.5067625 C103.788742,16.8525471 106.094032,21.9152322 109.306263,28.1713601 C115.814666,21.0398622 119.804786,25.6836075 121,32.6535399 C89.5211579,37.1154867 57.566441,37.1154867 26.0873002,32.6535399" id="Fill-1" fill="#F2F2F2"></path>
                <g id="Group-9" transform="translate(0.000000, 150.000000)">
                    <g id="Group-3" transform="translate(0.000000, 23.767442)">
                        <mask id="mask-4" fill="white">
                            <use xlink:href="#path-3"></use>
                        </mask>
                        <g id="Clip-2"></g>
                        <path d="M15.2590946,33.3160849 C10.4295928,28.1013773 10.7622347,19.9817023 16.0033576,15.1782929 C21.2441707,10.3739593 29.4065954,10.7029979 34.2391943,15.9164732 C39.068696,21.1299485 38.7345056,29.2493154 33.4936925,34.0564218 C28.2522599,38.859215 20.0870477,38.5258631 15.2590946,33.3160849 M6.15728175,34.408259 C5.50934244,35.8011276 4.8595448,37.1961527 4.21191522,38.5871728 L9.09685726,43.8610334 C10.5497651,43.3295806 12.0023633,42.8005925 13.4574392,42.270372 C15.0614917,43.2898372 16.7829289,44.0696094 18.561355,44.6087644 C19.0950068,46.0549323 19.6264904,47.4977112 20.159213,48.9395659 L27.3614982,49.2325581 C28.0147028,47.8347602 28.6657393,46.436346 29.3139884,45.0397804 C31.1326784,44.6401895 32.9111046,43.998749 34.5953751,43.1068325 C35.9940816,43.7532024 37.3946464,44.4008046 38.7952112,45.0416289 L44.095491,40.1843041 C43.5624587,38.7390605 43.030975,37.2941249 42.494226,35.8501137 C43.5200267,34.2511338 44.3064119,32.5403178 44.8515234,30.7678841 C46.3010243,30.2392041 47.7502155,29.7086755 49.2034331,29.178455 L49.4933333,22.0160113 C48.087813,21.3656363 46.6819829,20.7204987 45.2801792,20.0735127 C44.8784692,18.2641083 44.2339369,16.4993768 43.3376002,14.8206021 C43.9889464,13.4298901 44.6337885,12.035173 45.2848251,10.6419964 L40.3980247,5.36813575 C38.9457362,5.89866432 37.4925186,6.43042524 36.0399205,6.95972145 C34.4349389,5.94272099 32.7135017,5.16079212 30.9350755,4.61855619 C30.4004946,3.17762581 29.8687012,1.73577117 29.3356689,0.292992258 L22.1352421,0 C21.4842055,1.39656562 20.8328593,2.79744448 20.181513,4.19524245 C18.3625132,4.59329292 16.5871843,5.23411721 14.9016749,6.12510944 C13.5011101,5.47873956 12.1020939,4.8345263 10.6999805,4.18877259 L5.40124932,9.04917833 C5.93490105,10.4919572 6.46762362,11.937509 6.99941702,13.3818283 C5.97516497,14.9808081 5.19218668,16.6922403 4.64552661,18.4637497 C3.19602567,18.9942783 1.7446664,19.5223422 0.293926579,20.053795 L0,27.217163 C1.40552035,27.8650733 2.81258932,28.5117513 4.21687078,29.1593536 C4.62167798,30.9675255 5.26342284,32.7341056 6.15728175,34.408259" id="Fill-1" fill="#78C2D0" mask="url(#mask-4)"></path>
                    </g>
                    <g id="Group-3" transform="translate(34.986667, 0.000000)">
                        <mask id="mask-6" fill="white">
                            <use xlink:href="#path-5"></use>
                        </mask>
                        <g id="Clip-2"></g>
                        <path d="M8.94498647,19.5301188 C6.11389925,16.4732212 6.30889622,11.7134117 9.38127856,8.89761999 C12.4534794,6.08128649 17.238349,6.2741712 20.0712518,9.33034636 C22.9023391,12.3865215 22.7064343,17.1461504 19.6342335,19.9641094 C16.5616696,22.7795398 11.7751659,22.5841267 8.94498647,19.5301188 M3.60944103,20.1703587 C3.22961454,20.9868679 2.84869868,21.8046413 2.46905375,22.6200668 L5.33264046,25.7116403 C6.18434508,25.400099 7.03586814,25.0900025 7.88884369,24.7791836 C8.82915029,25.3768011 9.83826866,25.833909 10.8807943,26.1499654 C11.1936247,26.997719 11.5051841,27.8434859 11.8174697,28.688711 L16.039499,28.8604651 C16.422412,28.0410663 16.8040541,27.2213063 17.1840621,26.4026299 C18.2501908,26.1683869 19.2927165,25.7923701 20.2800475,25.2695225 C21.0999788,25.648429 21.9209996,26.0280579 22.7420203,26.4037135 L25.8490809,23.5563162 C25.5366137,22.7091044 25.2250543,21.8620732 24.9104084,21.0155839 C25.5117398,20.0782509 25.9727242,19.0753587 26.2922723,18.0363459 C27.1419798,17.72643 27.9915057,17.4154305 28.8433918,17.1046116 L29.0133333,12.9059377 C28.1894076,12.5246833 27.3653003,12.1464993 26.5435533,11.7672316 C26.3080682,10.7065463 25.9302389,9.67204849 25.4048001,8.68793914 C25.7866238,7.87269421 26.1646347,7.05510143 26.5462768,6.23841168 L23.6816007,3.1468382 C22.8302592,3.4578377 21.978373,3.76955962 21.1268499,4.07983671 C20.1859987,3.48366403 19.1768803,3.02529193 18.1343546,2.70742949 C17.8209796,1.86274617 17.5092386,1.01752103 17.1967714,0.171754082 L12.9758316,0 C12.5941895,0.818676398 12.2123658,1.63988125 11.8305421,2.45928006 C10.7642319,2.69261999 9.72352184,3.06827561 8.73546459,3.5905814 C7.91444385,3.21167491 7.09433092,2.83403266 6.27240237,2.45548738 L3.1662496,5.30469075 C3.47907993,6.15045769 3.79136557,6.99785007 4.10310653,7.84452004 C3.50268291,8.78185304 3.04369564,9.78510638 2.72323974,10.8235774 C1.87353229,11.1345769 1.02273548,11.4441316 0.172301787,11.7556729 L0,15.9548887 C0.823925723,16.3346982 1.64875925,16.7137853 2.47195873,17.0934142 C2.70925951,18.153377 3.08545477,19.1889584 3.60944103,20.1703587" id="Fill-1" fill="#78C2D0" mask="url(#mask-6)"></path>
                    </g>
                </g>
                <g id="Group-15" transform="translate(97.000000, 78.000000)">
                    <path d="M54.2584388,0 L11.9,0 C14.2471516,5.73010532 10.2490821,23.575647 14.0683461,29.168467 C16.5584367,32.8190105 22.3730433,37.4789137 29.2557358,39.2870248 C30.4451351,40.3312259 31.8270536,41.4185887 32.0712628,43.7019985 C32.4621031,47.3374614 33.5396831,51.5147857 25.6052557,54.7857143 L43.8217895,54.7857143 C35.526059,52.4263815 37.1463848,48.241777 36.4285256,43.3385042 C36.1869536,41.6863992 36.9686342,40.6411581 37.8842871,39.8340864 C39.5025031,39.5907168 41.1317955,39.1398591 42.7378802,38.4326312 C47.8246061,36.2064237 54.6413673,32.6193227 56.6319629,23.1752313 C58.2185319,15.6125739 53.3037546,7.66666147 54.2584388,0" id="Fill-1" fill="#FFB839"></path>
                    <polygon id="Fill-3" fill="#FFAE00" points="44.5127454 58.1571429 23.8 58.1571429 23.8 55.1395313 45.05 54.7857143"></polygon>
                    <g id="Group-7" transform="translate(0.000000, 4.214286)">
                        <mask id="mask-8" fill="white">
                            <use xlink:href="#path-7"></use>
                        </mask>
                        <g id="Clip-6"></g>
                        <path d="M10.5991423,29.5 C14.9242576,29.5 15.5509049,26.4141651 15.6373031,25.4747435 C15.8158247,23.600156 14.9435151,21.2691564 13.3940724,20.9707332 C-2.84827086,17.7987226 5.59377125,3.40206064 7.68242199,2.58073171 C9.73620116,1.77323346 12.1584739,2.02058964 14.7025369,3.30365011 C15.2037506,3.55632579 15.8074972,3.33769483 16.0484753,2.81106554 C16.2920558,2.28603209 16.0823059,1.65141719 15.5800513,1.39608177 C12.5326927,-0.140186324 9.55195438,-0.414671898 6.97041745,0.602946129 C4.33787436,1.63918236 2.2965865,3.91539122 0.906928517,7.36401519 C-0.316178694,10.3934635 -0.304207858,13.1867266 0.955332334,15.6634801 C2.73430274,19.1684907 7.00893232,21.7878065 13.0005962,23.0400139 C13.2306445,23.1730011 13.84428,24.3799929 13.5731145,25.6071988 C13.3040309,26.7838695 12.3052468,27.3870994 10.5991423,27.3870994 C10.0370335,27.3870994 9.58682594,27.8610658 9.58682594,28.4435497 C9.58682594,29.0260336 10.0370335,29.5 10.5991423,29.5" id="Fill-5" fill="#FFB839" mask="url(#mask-8)"></path>
                    </g>
                    <g id="Group-10" transform="translate(51.000000, 4.214286)">
                        <mask id="mask-10" fill="white">
                            <use xlink:href="#path-9"></use>
                        </mask>
                        <g id="Clip-9"></g>
                        <path d="M5.77436875,29.8146785 C1.36765,29.8146785 0.723775,26.7266274 0.63186875,25.7865311 C0.44805625,23.9105973 1.34161875,21.5779236 2.92155625,21.279286 C19.4992125,18.1049973 10.8887125,3.69799579 8.7467125,2.87607699 C6.6599625,2.0679988 4.17636875,2.31553263 1.59130625,3.59951459 C1.0733375,3.85237173 0.4570875,3.63358376 0.20793125,3.10657624 C-0.03750625,2.58116571 0.17605625,1.94609504 0.68924375,1.69057624 C3.79918125,0.153204812 6.84165,-0.121477895 9.47824375,0.896870977 C12.1637125,1.93385143 14.2488687,4.21169504 15.6694312,7.66279579 C16.9231812,10.6944198 16.8998062,13.489689 15.6179,15.9682214 C13.8058062,19.4757492 9.43786875,22.0969462 3.3343375,23.3500529 C3.08836875,23.4831356 2.4567125,24.6909943 2.74305625,25.9190815 C3.0134625,27.0965973 4.03399375,27.7002605 5.77436875,27.7002605 C6.34386875,27.7002605 6.8129625,28.1745672 6.8129625,28.7574695 C6.8129625,29.3403717 6.34386875,29.8146785 5.77436875,29.8146785" id="Fill-8" fill="#FFB839" mask="url(#mask-10)"></path>
                    </g>
                    <path d="M33.2352801,12.0953161 C33.4214855,11.7015613 33.7256724,11.7015613 33.9118778,12.0953161 L35.3189343,15.0651886 C35.5051397,15.4552879 36.0037394,15.8297205 36.4218039,15.8887315 L39.562674,16.3629085 C39.9838164,16.4297528 40.0740978,16.7289856 39.7714498,17.0386628 L37.4995384,19.3411365 C37.1958645,19.6523803 37.0076072,20.2565904 37.0768572,20.6858563 L37.6170068,23.9445171 C37.6898475,24.378483 37.4395218,24.5633493 37.0681368,24.3607274 L34.2581276,22.8191302 C33.8780223,22.6165084 33.2727264,22.6165084 32.9018544,22.8191302 L30.0826118,24.3607274 C29.7117399,24.5633493 29.462953,24.378483 29.5327159,23.9445171 L30.0708137,20.6858563 C30.1421155,20.2565904 29.9553971,19.6523803 29.655314,19.3411365 L27.377247,17.0386628 C27.0730601,16.7289856 27.171036,16.4297528 27.5896135,16.3629085 L30.7279188,15.8887315 C31.1475222,15.8297205 31.6425312,15.4552879 31.8287366,15.0651886 L33.2352801,12.0953161 Z" id="Fill-11" fill="#FFFFFF"></path>
                    <polygon id="Fill-13" fill="#F57C02" points="46.75 59 22.1 59 23.2196406 53.9428571 46.75 54.632947"></polygon>
                </g>
            </g>
        </g>
    </g>
</svg>