<?xml version="1.0" encoding="UTF-8"?>
<svg width="301px" height="242px" viewBox="0 0 301 242" version="1.1" xmlns="http://www.w3.org/2000/svg" xmlns:xlink="http://www.w3.org/1999/xlink">
    <!-- Generator: Sketch 52.2 (67145) - http://www.bohemiancoding.com/sketch -->
    <title>Group 17</title>
    <desc>Created with Sketch.</desc>
    <defs>
        <polygon id="path-1" points="0 0.336372093 89.9850829 0.336372093 89.9850829 63.9997519 0 63.9997519"></polygon>
        <polygon id="path-3" points="0 0.287491396 17.9438146 0.287491396 17.9438146 13.67288 0 13.67288"></polygon>
        <polygon id="path-5" points="0.392349938 0.373620043 9.82418518 0.373620043 9.82418518 16.3834172 0.392349938 16.3834172"></polygon>
        <polygon id="path-7" points="0.101652523 0.413394524 16.9267706 0.413394524 16.9267706 6.10743364 0.101652523 6.10743364"></polygon>
        <polygon id="path-9" points="0.0818077383 0.0625293785 9.84719368 0.0625293785 9.84719368 4.93220339 0.0818077383 4.93220339"></polygon>
    </defs>
    <g id="registration-&amp;-login" stroke="none" stroke-width="1" fill="none" fill-rule="evenodd">
        <g id="1280_login" transform="translate(-864.000000, -125.000000)">
            <g id="Group-17" transform="translate(864.000000, 125.000000)">
                <path d="M211.203226,1.37825611 C208.431618,0.942790417 205.632778,0.722183208 202.884819,0.722183208 L202.878728,0.722183208 L202.651553,0.722542503 L202.647611,0 L202.885178,0 C205.670402,0 208.506865,0.22348157 211.315022,0.664695987 L211.203226,1.37825611 Z M185.880012,3.8279303 L185.61593,3.156767 C188.254959,2.11121817 191.071715,1.3128644 193.986651,0.784341265 L194.115288,1.49538632 C191.246217,2.01528637 188.476043,2.79998693 185.880012,3.8279303 Z M227.490676,6.61857556 C224.968101,5.33876631 222.297898,4.24327547 219.552806,3.36228381 L219.772456,2.67423364 C222.553738,3.56708203 225.260132,4.67730398 227.815672,5.9740001 L227.490676,6.61857556 Z M171.897995,13.4448237 L171.363022,12.9615718 C173.303327,10.8061603 175.509863,8.87638614 177.922434,7.22650292 L178.328053,7.82329212 C175.963139,9.44083879 173.799959,11.3325276 171.897995,13.4448237 Z M241.114373,16.8972906 C239.249674,14.8227205 237.119101,12.8828861 234.780703,11.1331188 L235.210329,10.5542944 C237.587784,12.332446 239.75383,14.3046169 241.649345,16.4143979 L241.114373,16.8972906 Z M163.652327,28.3250314 L162.963636,28.1123287 C163.841879,25.2559325 164.974888,22.5522366 166.331488,20.0763339 L166.962491,20.4241316 C165.629181,22.8569189 164.515521,25.5149842 163.652327,28.3250314 Z M249.3045,31.7728275 C248.57496,29.0349986 247.495341,26.3697474 246.0961,23.8500106 L246.725311,23.4989793 C248.153575,26.0704545 249.255052,28.7906779 250,31.5867126 L249.3045,31.7728275 Z M161.311421,45.3110679 L160.590839,45.3110679 L160.590839,45.2151361 C160.590839,42.2437654 160.77394,39.3532361 161.134411,36.6251082 L161.848185,36.7199621 C161.492373,39.4168313 161.311421,42.2753834 161.311421,45.2151361 L161.311421,45.3110679 Z M97.327236,50.3526972 L97.2419558,49.6362627 C100.095977,49.2920579 103.008763,49.0994758 105.90005,49.0635462 L105.909366,49.7857295 C103.043162,49.8209404 100.156533,50.0120854 97.327236,50.3526972 Z M123.014862,51.3907008 C120.21423,50.8251703 117.350176,50.4022799 114.502246,50.134605 L114.568893,49.4152962 C117.442264,49.6854861 120.331759,50.1116101 123.156398,50.6825301 L123.014862,51.3907008 Z M80.614818,54.2905718 L80.3704435,53.6111447 C83.0542627,52.6414071 85.8552526,51.8117947 88.6949412,51.1453022 L88.8586936,51.8488021 C86.0462374,52.5081086 83.2728381,53.3305352 80.614818,54.2905718 Z M139.401566,56.5498195 C136.779737,55.4090575 134.068685,54.3951267 131.344376,53.5364113 L131.559368,52.8480018 C134.308401,53.7135438 137.04346,54.736457 139.688581,55.8879979 L139.401566,56.5498195 Z M65.3647051,62.1339844 L64.9504868,61.5433032 C67.2648778,59.9146184 69.7713284,58.4077346 72.399608,57.0636116 L72.7267544,57.7071091 C70.1282154,59.0354232 67.6515054,60.5250608 65.3647051,62.1339844 Z M162.380649,62.592445 C161.812353,59.6577224 161.373768,56.7657559 161.077438,53.9977462 L161.793003,53.9204978 C162.087543,56.6680276 162.52326,59.5398736 163.087615,62.454835 L162.380649,62.592445 Z M154.364665,65.0105012 C152.022683,63.3480427 149.57858,61.7944505 147.101153,60.3924809 L147.455174,59.7633552 C149.9541,61.1771815 152.418627,62.7447861 154.781391,64.4205386 L154.364665,65.0105012 Z M53.2097632,74.1473763 L52.6185346,73.7345462 C54.2273929,71.413859 56.1229074,69.1797619 58.2527634,67.094413 L58.7554868,67.6114387 C56.6585963,69.6648103 54.793539,71.8636965 53.2097632,74.1473763 Z M166.221842,75.1084908 L165.240403,74.1419869 C163.90996,72.8312783 162.527202,71.5503911 161.131186,70.3363329 L161.602735,69.7902043 C162.67483,70.7236531 163.739758,71.6948278 164.779245,72.6886381 C164.626959,72.1414316 164.477897,71.5978181 164.334211,71.0574382 L165.029711,70.8713233 C165.285551,71.8313599 165.555367,72.8021754 165.839156,73.784129 L166.221842,75.1084908 Z M46.8811097,89.9136059 L46.1680522,89.8112067 C46.577254,86.9519361 47.3454928,84.1199719 48.4512693,81.3939998 L49.1184618,81.6659862 C48.0345428,84.3377048 47.2817118,87.112541 46.8811097,89.9136059 Z M47.8406915,107.061325 C46.9054755,104.222894 46.2862979,101.354641 46,98.5352518 L46.7166406,98.4615963 C46.9975638,101.228887 47.6056334,104.04612 48.524725,106.834969 L47.8406915,107.061325 Z M56.022936,122.368375 C54.2284678,119.954272 52.6464836,117.491663 51.3206984,115.047737 L51.9531338,114.703173 C53.2627946,117.116559 54.8265045,119.550424 56.6005484,121.936862 L56.022936,122.368375 Z M67.818841,135.090297 C65.5911635,133.098365 63.5003645,131.058287 61.603775,129.028989 L62.1290726,128.535317 C64.0109709,130.549885 66.0863622,132.573076 68.2986319,134.551355 L67.818841,135.090297 Z M81.2085547,145.999935 C80.1063614,144.913067 78.8422073,143.849194 77.4529994,142.837419 C76.4507775,142.106253 75.4564386,141.362512 74.499365,140.62452 L74.9375908,140.051804 C75.8903645,140.785484 76.878612,141.526351 77.8768924,142.252846 C79.2947659,143.28546 80.5850774,144.373046 81.7137864,145.486143 L81.2085547,145.999935 Z M88.4545082,161.202789 L87.7342844,161.191292 L87.7364343,160.864693 C87.7364343,158.0471 87.1871293,155.37143 86.102852,152.911336 L86.7618031,152.619588 C87.8869289,155.17238 88.4566582,157.946498 88.4566582,160.864693 L88.4545082,161.202789 Z M83.5247373,177.820908 L82.8847772,177.488919 C84.3474407,174.650847 85.4453342,172.062485 86.2429552,169.576522 L86.928422,169.798207 C86.119693,172.322255 85.0053168,174.946906 83.5247373,177.820908 Z M74.3176966,192.549493 L73.728618,192.134148 C75.658173,189.379791 77.1910673,187.098627 78.5530428,184.955431 L79.1614707,185.34347 C77.7923288,187.496007 76.2537013,189.785435 74.3176966,192.549493 Z M64.3105267,206.699254 L63.715715,206.293609 C65.3546721,203.87196 67.1484237,201.357613 68.700309,199.190704 L69.285446,199.612157 C67.7357107,201.775473 65.9466173,204.28515 64.3105267,206.699254 Z M56.262294,221.850011 L55.5707358,221.64629 C56.261219,219.281769 57.4150105,216.670771 59.0983993,213.664549 L59.7272515,214.017736 C58.0703783,216.976531 56.9362945,219.538306 56.262294,221.850011 Z M61.218939,236.901602 C58.2577799,235.098659 56.3676402,232.965165 55.4410238,230.37824 L56.1182492,230.133919 C56.9875343,232.558802 58.7773443,234.570136 61.5923088,236.283255 L61.218939,236.901602 Z M77.5956109,242 C74.5043815,241.513155 71.7037499,240.915288 69.2718299,240.225082 L69.4681894,239.529487 C71.8721604,240.213225 74.6441264,240.803188 77.7077652,241.285721 L77.5956109,242 Z" id="Fill-110" fill="#78C2D0"></path>
                <g id="Group-12" transform="translate(195.000000, 23.000000)">
                    <g id="Group-3">
                        <mask id="mask-2" fill="white">
                            <use xlink:href="#path-1"></use>
                        </mask>
                        <g id="Clip-2"></g>
                        <path d="M16.3324144,2.61482171 C16.5273315,2.61631008 16.3324144,3.11342636 16.3324144,3.11342636 C25.1036851,-0.447751938 85.5682707,-2.80582946 87.4930773,10.5255194 C90.5988232,32.0369612 93.7363923,47.0283411 77.3742928,53.4829147 C66.8577182,57.6329922 43.7426354,56.5345736 28.8623039,55.1498915 L16.9305912,63.9997519 L17.2140166,53.8133333 C16.5795414,53.720062 16.0758398,53.6382016 15.7416961,53.5742016 C-0.522944751,50.483845 -9.73874586,2.22933333 16.3324144,2.61482171" id="Fill-1" fill="#FC5D16" mask="url(#mask-2)"></path>
                    </g>
                    <path d="M19.8502494,43.397201 C19.8426792,43.1353844 19.8633709,42.8189193 19.9087918,42.446315 C19.95825,42.0756981 19.9789417,41.8009646 19.9749043,41.6176433 C19.9688481,41.4382965 19.9905492,41.204301 20.0410168,40.9136697 C20.090475,40.6235352 20.112176,40.3900366 20.1076339,40.2087026 C20.1000638,39.9473828 20.1212602,39.6547643 20.1692044,39.3333311 C20.2181579,39.0094138 20.2368309,38.7172921 20.2292607,38.4529915 C20.3251491,38.2721543 20.3741026,38.073432 20.3761213,37.858812 C20.37814,37.6446888 20.3771307,37.4901822 20.3746073,37.3908211 C20.3741026,37.342631 20.37814,37.2611548 20.3887382,37.1518576 L20.8384042,37.1930925 C20.849507,37.0798208 20.8661613,36.9337599 20.8898811,36.7554067 C20.9408533,36.3728664 20.9610403,35.9918165 20.9509468,35.6246771 C20.9383299,35.226239 20.9781993,34.7413568 21.0685362,34.1203497 C21.1634152,34.2395831 21.2734345,34.3225496 21.4117156,34.3399378 C21.5797726,34.3617973 21.7972878,34.3652749 22.0642612,34.3578228 C22.2469537,34.3533516 22.4987868,34.388128 22.8167325,34.4616552 C23.1382108,34.5341888 23.4339507,34.6554094 23.7054662,34.8297882 C23.8916914,34.9216972 24.0925523,35.0309944 24.3055254,35.1566862 C24.5179938,35.2823781 24.6729292,35.343982 24.7738644,35.3400075 C24.9565569,35.3365299 25.1811376,35.4413559 25.4471016,35.6544855 C25.7105422,35.8700991 25.981553,36.1035978 26.2560965,36.3599495 C26.5311447,36.6153075 26.7794451,36.8502966 27.0025117,37.0659102 C27.2265877,37.2810271 27.339635,37.4380176 27.3426631,37.536882 L27.3633548,38.2502948 C27.3689062,38.4311321 27.4107943,38.8206277 27.4859909,39.4197752 C27.5223276,39.7024576 27.529393,39.9901081 27.5531128,40.2757713 L27.1241385,40.3085605 C27.1488677,40.6180704 27.1655219,40.9270835 27.1771295,41.2813059 C27.2891675,42.1641295 27.3497285,42.7925886 27.3603267,43.1537662 L27.3623454,43.2983367 C27.356794,43.5522044 27.2911862,43.7732828 27.2109427,43.9089108 C27.0893159,44.0346026 26.9510348,44.2179239 26.8006415,44.4504289 C26.675482,44.6397118 26.5301354,44.8225363 26.3701532,44.9909534 C26.3474428,45.0152969 26.2465077,45.1052187 25.9088797,45.2776103 C25.6348409,45.4191999 25.3703909,45.5409172 25.1538851,45.630839 C24.8308927,45.7302002 24.4877133,45.8156507 24.1379731,45.8822227 C23.8432426,45.9358777 23.5449793,45.929916 23.2532768,45.8573824 L23.1296313,45.8424782 C22.9141348,45.8499303 22.6320212,45.8037274 22.2858137,45.7038695 L22.0804108,45.6422656 L21.9491951,46.0690216 C21.656988,45.9800934 21.3920333,45.8986173 21.1745181,45.8260837 C20.8182171,45.6576666 20.5174305,45.4947143 20.2711488,45.3461694 C20.0253718,45.1971277 19.8997076,45.0729263 19.8966795,44.9750556 C19.7407348,44.7663973 19.6705849,44.6516352 19.6872392,44.6352406 C19.7846416,44.5338922 19.8366231,44.3699464 19.84924,44.1399254 C19.8573148,43.9074204 19.8573148,43.6610048 19.8502494,43.397201 Z M20.3584577,16.5910604 C20.301934,15.6575626 20.2201766,14.6117868 20.1086433,13.3732504 C20.1076339,13.3543718 20.1066246,13.3260539 20.1550734,13.2783605 L20.2307748,13.1685665 C20.2418776,13.1526687 20.2499524,13.1357773 20.2575226,13.1198796 C20.3312052,13.1337901 20.4432432,13.1581336 20.6133189,13.2013557 L20.7374691,13.213279 C20.79046,13.2117886 20.9514515,13.2237119 21.2926122,13.3672887 C21.5848194,13.4914902 21.8578488,13.6315893 22.128355,13.8034841 C22.545217,14.0320147 22.8555925,14.2446475 23.0468645,14.4359176 C23.2310711,14.6207293 23.4127543,14.9108638 23.58283,15.2849584 C23.7084942,15.5899971 23.8508127,15.8369095 24.016851,16.0415934 C24.0950757,16.134496 24.1238422,16.1866606 24.1298983,16.185667 L24.1354498,16.3565681 L24.2717122,16.484744 C24.3019927,16.5130619 24.3317686,16.5463479 24.3610397,16.5855955 L24.7193594,16.3153333 C24.7758831,16.3873701 24.8293787,16.4653686 24.883379,16.5592648 C24.9777533,16.7296692 25.1230999,16.9427988 25.3133626,17.2011377 C25.4188398,17.3780005 25.5480367,17.6596893 25.7009534,18.0397456 C25.8558888,18.4227827 25.9886185,18.7839604 26.0971237,19.1262594 C26.4897613,19.9703322 26.6951643,21.016108 26.715856,22.2635869 C26.7315009,22.7916913 26.7501739,23.2497461 26.7693516,23.6447065 C26.7900433,24.037183 26.8511091,24.2826049 26.9535582,24.3799788 C26.9565863,24.4773527 26.9348852,24.6835271 26.8849223,24.998005 C26.8359688,25.3095021 26.8167911,25.6875712 26.8304174,26.1337027 C26.8314267,26.1500972 26.8273893,26.1709631 26.8283987,26.1873577 L26.3807514,26.199281 C26.3898356,26.6046744 26.3711626,27.0269592 26.3227137,27.4537152 C26.2732555,27.8859361 26.2076477,28.2252543 26.1243762,28.4622306 C26.0305066,28.7364673 25.9477398,28.9948062 25.8791039,29.2292984 C25.8094587,29.4632939 25.7478882,29.5363243 25.7352713,29.5492413 L25.6166726,29.6187941 L25.622224,29.8031089 C25.622224,29.8031089 25.6070837,29.8339109 25.544504,29.899986 L25.2028386,30.2571893 C25.0857539,30.3818875 24.9913795,30.4941655 24.9277904,30.5935267 C24.864706,30.6854357 24.8213039,30.8086435 24.8238272,30.9437746 C24.3802174,31.2463292 24.0118042,31.4803247 23.6893165,31.6651364 C23.3622868,31.9244689 23.000939,32.1723749 22.6224324,32.4033895 C22.2363555,32.6334105 21.922952,32.795866 21.6857545,32.8932399 C21.5131554,32.9627927 21.3163319,33.0477464 21.1210225,33.1327002 C21.1033589,32.9990595 21.0902373,32.8669092 21.0397697,32.7302876 L20.9898068,31.0356837 C20.9857694,30.9114823 20.9676011,30.6392328 20.8484977,29.7017606 C20.7606841,29.0166656 20.6557116,28.2813933 20.5350941,27.5476114 L20.5123837,26.8873568 L20.0606991,26.9037514 C20.0324373,26.2395223 19.9925679,25.6950233 19.9400816,25.2707513 C19.8749785,24.7128386 19.8870907,24.3014835 19.979951,24.0356925 C20.073316,23.7703983 20.1066246,23.1414424 20.0874469,22.1463408 C20.0657459,21.1527296 20.034456,19.9082315 19.9895398,18.4133434 C19.9749043,17.8753029 19.944119,17.2662192 19.9047543,16.6188815 L20.3584577,16.5910604 Z M28.7370817,38.9026006 L28.6755113,36.7961448 L27.3850558,35.6043081 C27.0287549,35.3519309 26.6487341,35.0722293 26.2434797,34.7696747 C25.830655,34.4576807 25.5066533,34.1899025 25.2538108,33.953423 L25.1397542,33.8759214 C24.7879953,33.7070075 24.472573,33.5534945 24.1919734,33.4109113 C24.1884407,33.4094209 24.1833939,33.4094209 24.1798612,33.4059433 C24.3019927,33.3463266 24.430685,33.2708121 24.5684614,33.1813871 L24.3176376,32.8092797 C24.4639936,32.7124026 24.6179196,32.6026086 24.7879953,32.4689679 C25.1634739,32.1703877 25.4804102,31.8842277 25.7388041,31.6129718 C25.9997214,31.3437031 26.2485264,31.0237603 26.4892567,30.6571178 C26.7274635,30.2865008 26.9374086,30.0097801 27.114045,29.8249684 C27.3315602,29.2745078 27.4481403,28.9187949 27.4587385,28.7523651 C27.4552057,28.655488 27.4824582,28.5253249 27.5359538,28.3713151 C27.5884401,28.2123374 27.6141785,28.041933 27.6086271,27.8615926 C27.7009827,27.5962984 27.7418615,27.1471861 27.733282,26.5152494 C27.7206651,25.882319 27.7009827,25.0407303 27.6691882,23.9889928 C27.6606087,23.6899158 27.6273001,23.4067366 27.6101411,23.1121309 L28.0825175,23.0853034 C28.055265,22.5944594 28.0143863,22.1140484 27.9619,21.6410895 C27.8851893,20.9132692 27.8412825,20.4621697 27.8367405,20.2843133 C27.8301797,20.0652221 27.7812262,19.7959534 27.6853378,19.459616 C27.5980289,19.137686 27.4945704,18.8400994 27.3810184,18.5658627 C27.2720085,18.2995749 27.1438209,18.0089436 26.9964556,17.7044018 C26.8470717,17.3879366 26.7168654,17.1380434 26.5886778,16.9254106 C26.1576848,16.2974483 26.1127687,16.1181014 26.1097406,16.1181014 L26.1051985,15.9566396 L25.997198,15.8349222 C25.9013096,15.7291026 25.7362807,15.4816934 25.4662793,14.8641641 C25.3608021,14.6808428 25.2326145,14.4766557 25.0892866,14.2545836 C24.9530242,14.041454 24.8339208,13.8481966 24.7299576,13.6763018 L24.6502188,13.5769407 C24.5381809,13.4726115 24.3211704,13.3071753 24.0001967,13.0846064 L23.8311304,12.9693474 L23.5722318,13.3389708 C23.3350343,13.1765154 23.1008648,13.0195248 22.8813309,12.880916 C22.6072921,12.6245644 22.3090288,12.4168996 21.9860364,12.2524569 C21.6640534,12.0900015 21.4096969,11.9623225 21.2239763,11.8669358 C21.1210225,11.7715491 20.9307598,11.6945442 20.6531882,11.6379084 C20.3761213,11.5802789 20.1459893,11.5544451 19.9622874,11.5579227 C19.6090145,11.4704849 19.3909946,11.4630328 19.3092372,11.5415281 C19.2294984,11.616049 19.1003015,11.7467088 18.9196276,11.9340045 C18.7818512,12.2991567 18.7228041,12.5962464 18.7475332,12.8267642 C18.7505613,12.9256286 18.7954774,13.3374804 18.8843003,14.0672879 C18.9731232,14.7975921 19.0291422,15.6049012 19.0548807,16.4921961 C19.0659835,16.8543674 19.0836472,17.1916984 19.1038342,17.5245581 L18.6501308,17.5508888 C18.6773833,18.0397456 18.7162434,18.4963099 18.7636829,18.9171043 C18.8414029,19.5937535 18.8843003,20.0205096 18.8893471,20.1963787 C18.8948985,20.3742352 18.8979266,20.6603952 18.9014593,21.0498908 C18.903478,21.4165333 18.8641133,21.8105002 18.7828605,22.2233457 L18.7757951,22.3197259 C18.7904307,22.8234868 18.7722623,23.2725991 18.7207854,23.6566299 C18.6622431,24.0923284 18.637514,24.4058127 18.6445794,24.6174519 C18.6486168,24.7992828 18.6708225,25.2369685 18.7071592,25.9349804 C18.7460192,26.6349795 18.8282813,27.4432823 18.9519268,28.2833806 L18.9549549,28.3877097 L19.4086582,28.3752896 C19.4364154,29.3028257 19.4924344,30.1891269 19.5716685,31.0277348 C19.6574633,31.8941638 19.7049028,32.5012602 19.7149963,32.8465401 C19.7255945,33.1923168 19.7104542,33.6935937 19.6705849,34.3533516 C19.6322295,35.0131094 19.6180986,35.5630732 19.6312202,36.0047334 C19.5479487,36.534825 19.4747708,37.0236818 19.4126957,37.4787557 C19.3521346,37.9318424 19.3208447,38.20906 19.3238728,38.3084211 C19.3294242,38.4897551 19.3072185,38.7321963 19.2577602,39.0377317 C19.2466574,39.1043037 19.2522088,39.1634235 19.2436293,39.2285051 L18.7828605,39.1738565 C18.7515706,39.4321954 18.736935,39.6756301 18.7445052,39.9046575 C18.7535893,40.2087026 18.7364304,40.4744936 18.6930283,40.6915976 C18.6153082,41.063705 18.6092521,41.2251668 18.6178316,41.2286445 C18.5128591,41.8600844 18.467943,42.4204812 18.4825786,42.8954273 C18.4941861,43.3072792 18.4739991,43.6535527 18.4235315,43.9248086 C18.4154567,43.9675338 18.4063725,44.0008198 18.3998118,44.0306282 L18.1651376,44.0370866 L18.1888574,44.8508542 C18.1949135,45.0381499 18.264054,45.2269361 18.3977931,45.4251615 C18.52699,45.6179221 18.7248228,45.7833584 18.957983,45.8961332 C19.5600609,46.2463812 19.8007912,46.3869772 19.9299881,46.4416258 C20.1989802,46.5742729 20.2984013,46.6547554 20.3296912,46.6825765 L21.0998261,47.0844923 C21.3718463,47.2166426 21.6529506,47.3343855 21.9739242,47.4387147 C22.2974213,47.5206876 22.6098155,47.5713618 22.9035367,47.5897436 L22.9328078,47.1391409 C22.9852941,47.1406313 23.0413131,47.1500706 23.09279,47.1525546 C23.4112403,47.1595099 23.792775,47.1575227 24.245469,47.1436121 C24.5952092,47.1331792 24.8944818,47.0919444 25.1442962,47.0189139 C25.3915873,46.9468771 25.5651957,46.9086231 25.6661308,46.9051455 C25.8463,46.8023067 25.9825624,46.7456708 26.073404,46.7327539 C26.1657596,46.7238114 26.2611433,46.7163593 26.3615737,46.7148689 C26.4594808,46.6135206 26.5866591,46.5141594 26.7420991,46.4187728 C26.8975392,46.3233861 27.0640822,46.1822933 27.2427373,45.9999656 C27.4203831,45.8101859 27.5939915,45.6015275 27.7615438,45.365048 C27.9306101,45.1315494 28.1037139,44.9218974 28.282369,44.7350985 C28.4569868,44.4653331 28.5543891,44.1940772 28.5700341,43.9128852 C28.5882024,43.6331837 28.585679,43.1388621 28.5644827,42.4329013 C28.5559032,42.0896086 28.5352115,41.5674659 28.506445,40.869454 C28.4938281,40.5872684 28.4701083,40.3170062 28.4433605,40.049228 L28.8990826,40.0065027 C28.8602225,39.596638 28.8031942,39.205652 28.7370817,38.9026006 Z" id="Fill-4" fill="#FFFFFF"></path>
                    <path d="M41.7875796,45.8900442 C41.6256843,45.8955262 41.3246159,45.8785819 40.8910016,45.8446934 C40.4105228,45.8053228 39.9309908,45.8461885 39.4675537,45.9613099 C38.8734642,45.9802476 38.4166544,45.9961952 38.0928638,46.0136378 C37.9072996,46.0246017 37.4116728,46.05251 37.2530911,46.3908972 C37.2104871,46.4227923 37.1513148,46.4606677 37.0703672,46.5015333 C36.9577032,46.5543596 36.8483529,46.5827662 36.7314285,46.5857564 L36.6949784,46.5877498 C36.7139135,46.5105038 36.7380558,46.4267792 36.7692987,46.3305955 C36.8904835,46.0819133 36.9477623,45.7694408 36.9463421,45.3812175 C36.9463421,45.0637615 36.9430285,44.8125875 36.9387681,44.6286922 C36.9330875,44.4477872 36.9288271,44.1627246 36.9269336,43.7715111 C36.9231466,43.4087042 36.9586499,43.0728088 37.0343904,42.7384085 L37.0462249,42.6222904 C37.0391242,42.3765983 37.0462249,42.0935292 37.0675269,41.7755748 L36.6495341,41.7446764 C36.659475,41.604637 36.6656289,41.473568 36.680777,41.3215679 C36.7281148,40.8092526 36.74705,40.3213571 36.7342687,39.8608714 C36.7248012,39.4975662 36.7314285,38.8048442 36.7593578,37.7812105 C36.785867,36.7590718 36.7849202,35.7439102 36.7579376,34.7397126 C36.7560441,34.6510043 36.7560441,34.5707681 36.7536772,34.4820599 L37.1745103,34.4710959 C37.1522616,33.4967999 37.1569954,32.5558941 37.1910786,31.6762868 C37.2237417,30.8131253 37.2388898,30.2704101 37.2388898,30.0267115 C37.325518,29.7092554 37.368122,29.3230256 37.3723824,28.8326382 C37.371909,28.8141989 37.371909,28.6975824 37.441969,28.1887557 C37.4859931,27.8737914 37.5087153,27.5588272 37.5115555,27.2503417 L37.0722607,27.2453581 C37.0732074,27.1701055 37.0874088,27.0873776 37.0855153,27.0101316 C37.0755743,26.6478231 37.0945095,26.1992981 37.1418473,25.6610681 C37.1887117,25.1223397 37.2559314,24.7131852 37.3411394,24.4311128 L37.31179,23.3785741 L37.290488,22.6021275 C37.2857542,22.4187306 37.31179,22.198455 37.3671752,21.9318318 C37.4220871,21.665707 37.445756,21.3931034 37.4377086,21.1110311 C37.4306079,20.8359357 37.4769989,20.4751223 37.5712012,20.0335743 L37.9565309,20.2144794 L37.9967681,20.0061645 C37.9948745,19.9139676 38.0171233,19.603987 38.0625676,19.0802095 C38.1108522,18.5085893 38.1264736,17.887133 38.1089587,17.2342799 L38.041739,14.8187236 C38.1222132,14.6796808 38.1738114,14.51572 38.1922732,14.3118903 C38.1922732,14.294946 38.1922732,14.1922836 38.2618598,13.7975816 C38.3191385,13.4826174 38.3456477,13.1706433 38.3394938,12.8701316 C38.4630454,12.1584719 38.4403233,12.0044783 38.3962991,11.8754028 C38.3442276,11.7248977 38.2230428,11.5564517 37.9418562,11.4981434 L37.5172361,11.4871795 L37.5295439,11.9317176 L37.1134446,11.9451734 C37.1134446,11.9466684 37.1134446,12.0044783 37.0504853,12.1624588 C36.9889461,12.3184458 36.9160459,12.4819083 36.8057488,12.7211216 C36.71202,13.0311022 36.6334392,13.4741453 36.5657462,14.0751688 C36.5023135,14.6497791 36.440301,15.5936751 36.3825488,16.9148304 L36.3891761,17.199893 L36.8090625,17.1909225 C36.8251573,17.9937823 36.8180567,18.7338485 36.7816066,19.3876983 C36.7380558,20.1247744 36.7200674,20.5822699 36.7248012,20.7646701 C36.729535,20.9435817 36.7314285,21.1678442 36.7309551,21.4309789 C36.729535,21.6951103 36.6864576,21.9667171 36.6007761,22.2507829 C36.6500074,22.9694197 36.6055099,23.5086464 36.4705972,23.8749418 L36.0649122,23.7448696 L36.034616,23.9247779 C36.0374562,24.0149813 36.0147341,24.2178143 35.9768638,24.5352703 C35.9266858,24.9100379 35.9063305,25.2578939 35.9143779,25.5638876 C35.9238455,25.9012781 35.9053837,26.3064457 35.8589927,26.7669314 C35.8073945,27.2623023 35.7851457,27.6654765 35.7931931,27.9654899 C35.8002938,28.2236409 35.7799386,28.5311297 35.731654,28.8774907 C35.6739019,29.294619 35.6076289,29.4954585 35.5612379,29.5911438 L35.5139001,29.6923112 L35.5176871,29.8049408 C35.520054,29.9255442 35.5219475,30.150305 35.523841,30.4772299 L35.9479878,30.4747381 C35.9479878,30.6372038 35.9494079,30.8146204 35.9498813,31.0269222 C35.9527216,31.6708048 35.9167448,32.3650218 35.8433712,33.1080783 L35.9053837,35.3227951 L35.950828,36.9633999 C35.9517748,37.0217081 35.950828,37.0959639 35.9517748,37.156764 L35.5309417,37.1617476 C35.5347287,37.574889 35.5228943,38.0612894 35.4911779,38.622444 C35.4533077,39.3126742 35.4428934,39.9161895 35.4575681,40.4678753 C35.4698759,40.9233773 35.4750831,41.3679154 35.4712961,41.7999945 C35.4698759,41.8936864 35.4679824,41.968939 35.4632486,42.0252538 L35.3136612,42.0307357 L35.325969,42.4777657 C35.3288093,42.573451 35.3288093,42.7344216 35.3278625,42.9676546 C35.3278625,43.1605204 35.2899923,43.3728222 35.2161453,43.6185143 L35.19579,43.7675242 C35.2038375,44.0406261 35.2066777,44.4054265 35.2028907,44.8514597 C35.2000504,45.2541354 35.1626536,45.5800636 35.0888066,45.8242606 L35.0693981,45.9722738 C35.0750786,46.2199593 35.0547234,46.4820972 35.0059654,46.7586877 C34.9524737,47.0611929 34.9117632,47.1319601 34.920284,47.1229896 C34.7105775,47.3198423 34.6324701,47.5789901 34.7058437,47.834151 L35.1138956,47.7050754 C35.139458,47.7962755 35.2279797,47.8929576 35.3851413,47.990138 L36.2509497,47.9632265 L36.2670446,48.4102564 C36.4729641,48.4032794 36.7451564,48.35444 37.0722607,48.2622432 C37.3927376,48.1760267 37.6919126,48.074361 37.967892,47.9617314 C38.2173622,47.8620592 38.4881345,47.7703607 38.7844692,47.6916197 C39.0244718,47.6253376 39.2507466,47.5864655 39.460453,47.572013 C39.6597452,47.6597246 39.879866,47.7120525 40.1189219,47.7230164 C40.4209371,47.7349771 40.5653174,47.7314886 40.712538,47.7314886 L40.7177452,47.8999346 L41.139525,47.8904658 C41.1423653,47.8904658 41.2001174,47.8904658 41.3596458,47.9492724 C41.6692351,48.0713708 41.9447411,48.0932987 42.3939769,48.0220331 C42.8043957,47.9527609 42.9426221,47.6392918 42.9355214,47.3896128 L42.9208467,46.8434091 C42.9104324,46.4566808 42.7518507,46.233415 42.6211984,46.1153035 C42.4380011,45.9493492 42.1733827,45.8785819 41.7875796,45.8900442" id="Fill-6" fill="#FFFFFF"></path>
                    <path d="M53.5769656,46.468097 C53.2587363,46.626692 53.0249352,46.7507663 52.8727789,46.8373182 C52.5698579,46.9298736 52.2776065,47.0094213 52.0039107,47.0769618 C51.7297511,47.1430013 51.4003884,47.1399995 51.013967,47.0714585 C50.6303291,47.0844663 50.2889052,47.0564495 49.9864481,46.9924111 C49.6858467,46.9258713 49.45854,46.8543284 49.3017448,46.775281 C49.1463413,46.7007364 48.9918655,46.5961737 48.8336786,46.468097 C48.6773473,46.3400202 48.5200882,46.2369585 48.3646847,46.1609129 C48.2069617,46.0013173 48.060836,45.8437229 47.9258437,45.6876293 C47.7908513,45.5355382 47.7226593,45.4189684 47.719876,45.3359186 C47.7170926,45.25487 47.655859,45.0742618 47.5320001,44.7975961 C47.4113884,44.5189291 47.3084045,44.2562717 47.2239764,44.0121254 L46.739674,43.0380418 L46.7494157,43.0315379 L47.1497538,42.9825085 L46.6557097,38.2916979 C46.6278762,37.2455711 46.6237012,36.3830543 46.6450402,35.7251602 C46.6645236,35.082275 46.6993155,34.5494557 46.7466324,34.1352075 C46.7962687,33.710453 46.850544,33.3792546 46.9164165,33.1190987 L47.0940868,32.3726514 L46.6918932,32.2615849 C46.7081294,32.1920432 46.7239017,32.1285052 46.7415296,32.0544608 C46.8830164,31.6382114 46.9943502,31.2029506 47.0732117,30.7526808 C47.1539288,30.3054128 47.229543,29.9537021 47.297735,29.7055534 L47.4990638,28.9901247 C47.5616891,28.7629886 47.5936976,28.6103972 47.5909143,28.5278478 C47.5890587,28.4452983 47.6039032,28.1506217 47.6349839,27.645319 C47.6665285,27.1385153 47.6753424,26.5976913 47.6595701,26.0178438 C47.6456534,25.5225471 47.6577146,24.9622113 47.6952898,24.3393381 C47.7319372,23.7189664 47.7472456,23.2837056 47.7407511,23.035557 C47.7337927,22.7864077 47.75374,22.5127437 47.7978097,22.2140647 C47.8441988,21.9268927 47.8613628,21.7067608 47.8608989,21.5431628 L47.8613628,21.5431628 L48.2770093,21.5036391 C48.2770093,21.4996367 48.2751537,21.4240914 48.3257178,21.1729409 C48.3716431,20.9297953 48.3925182,20.7086628 48.3874154,20.5230515 C48.3878792,20.5125452 48.3985487,20.4024793 48.5140576,19.9682191 L48.529366,19.8316373 C48.529366,19.8246331 48.5321494,19.7535905 48.5873524,19.517449 C48.6430194,19.2748036 48.6694612,19.0461666 48.6648223,18.8340395 C48.661575,18.7034613 48.6792029,18.549369 48.7190975,18.360756 C48.7743006,18.1006001 48.7993507,17.8664598 48.7933201,17.6618372 C48.7910007,17.5372626 48.8063091,17.3756657 48.8387814,17.177547 C48.8856344,16.918892 48.9065095,16.6947578 48.9000151,16.4901352 C48.8967678,16.3635593 48.9162513,16.1789487 48.9561459,15.9428072 C49.0326879,15.5090473 49.0317602,15.3759676 49.0308324,15.3214349 C49.0285129,15.2028639 49.0484602,15.0592778 49.0911382,14.8971807 C49.1463413,14.694059 49.1894831,14.639026 49.2145333,14.609008 C49.2984976,14.4929385 49.514207,14.2607994 50.1089154,13.7670035 C50.178963,13.6874559 50.3269442,13.5603797 50.626154,13.3997835 C50.6725431,13.4092892 50.7486213,13.4298015 50.8627385,13.467324 L51.5242473,13.6829532 L51.6402201,13.2657032 L51.6471785,13.2556972 L52.488677,13.8215362 C52.8180397,14.0441696 53.0615826,14.2733069 53.2220889,14.5214556 C53.4582095,14.7600986 53.7105663,14.987735 53.9763759,15.2028639 C54.2435772,15.4174925 54.4175364,15.5665818 54.4954701,15.6456292 C54.5761872,15.8097275 54.7264879,16.0768875 54.9431251,16.4516121 C55.16069,16.8248357 55.3903161,17.2140689 55.6306117,17.6213129 C55.8746185,18.1116067 56.0796584,18.5883924 56.2452675,19.0561726 C56.4113405,19.5229523 56.5379828,19.9206906 56.6219471,20.2488873 C56.7304977,20.5410623 56.8218842,21.1324167 56.8984262,22.0139448 L56.4850992,22.05597 C56.5361273,22.6528276 56.5788052,23.3857668 56.6149888,24.2462824 L56.7124059,27.8454389 L56.8627066,27.8394353 C56.8743039,27.952503 56.8872929,28.1341118 56.8872929,28.4112779 C56.8933234,28.6594266 56.9155902,29.1061943 56.9466709,29.7485792 C56.9791433,30.3969677 57.0450158,31.0278457 57.1336191,31.5546613 C57.1433608,31.8868604 57.1503191,32.2655873 57.1540303,32.6878403 L57.5682851,32.6813364 C57.5715323,32.8929632 57.5733879,33.0960849 57.5752434,33.3302252 C57.5766351,34.0251416 57.5460183,34.5394497 57.4768985,34.87365 C57.4852485,35.1783325 57.4755068,35.5195369 57.4555595,35.8792525 L57.0454797,35.8507354 L57.0204296,36.2294623 C56.9782155,36.7727879 56.9647627,37.2020451 56.9731127,37.5472519 C56.9837822,37.9324827 56.9721849,38.3197147 56.9383209,38.6944392 C56.9049207,39.0596581 56.8891484,39.3778487 56.8928596,39.6365037 C56.8260592,39.8776482 56.7648256,40.1413062 56.7082309,40.4239755 C56.6539556,40.6836311 56.6233388,40.8992603 56.614061,41.0793682 C56.5361273,41.2289578 56.4428851,41.4756056 56.3092845,41.9258754 C56.1780033,42.3701416 56.008683,42.7943958 55.8027154,43.1876314 C55.5758726,43.6253937 55.3861411,44.0401422 55.237232,44.4188691 C55.0646645,44.8616344 54.9964725,44.9591929 54.994617,44.962695 C54.9241055,45.0417423 54.8201939,45.1498071 54.6800988,45.2873895 C54.619329,45.3469252 54.5446426,45.399957 54.457431,45.4514878 L54.6485542,45.8437229 C54.5692288,45.8902507 54.4861923,45.9332765 54.3920224,45.970799 C54.1665713,46.144403 53.895195,46.3105025 53.5769656,46.468097 M58.3689612,29.4373927 C58.3638584,29.3033124 58.3531889,29.1317096 58.3411277,28.9210834 L57.9245535,28.9511014 C57.9032145,28.608396 57.8707421,28.1696331 57.8229613,27.610298 C57.7440998,26.6717356 57.6916801,25.702655 57.6647744,24.7100603 C57.6374048,23.7189664 57.5506572,22.5047389 57.4059232,21.067878 C57.4031398,20.9848282 57.3660285,20.7967155 57.2973726,20.4985369 C57.2282529,20.20336 57.1503191,19.8921735 57.0640354,19.5619757 C56.9953795,19.2953159 56.8673455,18.9521103 56.7068392,18.5618765 L57.0909411,18.3782665 L56.9809989,18.1196115 C56.7550839,17.6008006 56.5133966,17.1250156 56.2925844,16.7627985 C56.1204808,16.3365431 55.8876074,15.890776 55.5972116,15.4390053 C55.3072796,14.9917374 55.0804368,14.6845533 54.8948804,14.4944394 C54.7278796,14.3263387 54.5349008,14.1507335 54.321047,13.9756285 C54.1308517,13.8175338 53.9601397,13.6654427 53.809839,13.512351 C53.6284575,13.3277403 53.3594007,13.1211165 52.9864322,12.8809727 C52.6519667,12.6663441 52.330954,12.4402086 51.9626244,12.1710473 C51.649034,12.0144535 51.3512159,11.8693665 51.0659228,11.7337853 C50.3417888,11.3950824 50.3570972,11.4851363 49.9989732,11.5431711 C49.7841916,11.5811939 49.6065213,11.6807535 49.4696734,11.8378477 L49.7368747,12.1085098 L49.7401219,12.1445314 L49.3124143,12.1600407 C49.1588663,12.1615416 49.066552,12.2065686 49.0401102,12.2916195 C49.0118128,12.3746693 48.9992878,12.4987436 49.0043906,12.6653435 C49.0081017,12.8304424 48.947332,13.0265599 48.8248647,13.2546966 C48.6986863,13.4803318 48.5627662,13.6804517 48.414321,13.8500533 C48.1169668,14.1907574 47.9392965,14.4594184 47.8836296,14.6600386 C47.8284265,14.8621597 47.7671929,15.2123696 47.7050315,15.7091672 C47.7138454,16.0413663 47.6980731,16.4210938 47.6535396,16.8533528 C47.6122532,17.2866124 47.5946254,17.6238144 47.6020476,17.8744646 C47.6080782,18.122113 47.587667,18.3832695 47.5422057,18.6584343 C47.4953527,18.9320983 47.4744776,19.1117059 47.4754054,19.1932548 C47.3172185,19.5454658 47.2290792,19.9957356 47.2133069,20.5430635 C47.2174819,20.7086628 47.1975346,20.9658168 47.153001,21.3125246 C47.1404759,21.4130848 47.1349093,21.4996367 47.1260953,21.593693 L46.7072016,21.5466649 C46.6840071,21.8028183 46.6751931,22.0289538 46.6807598,22.2235704 C46.6891099,22.5327557 46.6761209,22.8634538 46.6436485,23.2081604 C46.6046817,23.5978939 46.5889094,23.8865669 46.5940122,24.0666748 C46.5954038,24.1447215 46.5912288,24.3403387 46.5364897,24.763092 C46.4901006,25.1323133 46.4701532,25.4605099 46.4766477,25.7311721 C46.4831422,25.9538055 46.4650504,26.2769991 46.4260836,26.6922479 C46.3820139,27.1385153 46.3639222,27.5442584 46.3736639,27.8944683 C46.3820139,28.1931472 46.3384082,28.5838813 46.2437744,29.0601667 C46.1421822,29.58298 46.0600735,30.0532617 45.993737,30.4565033 C45.9311117,30.7771955 45.8471474,31.1053921 45.7460192,31.4385918 C45.6889605,31.6302066 45.6462826,31.7832983 45.6184491,31.8983673 L46.0220344,32.011435 C45.9965204,32.1129959 45.9839953,32.1880408 45.9849231,32.2295657 C45.8902893,32.6298055 45.8429724,32.9124749 45.8471474,33.0775738 C45.8035417,33.1776338 45.7515859,33.4037692 45.6935995,33.7524782 C45.6323658,34.102688 45.5790183,34.5379488 45.5326292,35.0612624 C45.4843845,35.5835753 45.4505205,36.1674251 45.4296454,36.8158136 C45.4092342,37.4617006 45.4069147,38.116593 45.4254704,38.7769887 L45.866167,42.4536917 L45.4560872,42.5102255 L45.5493293,43.2876914 L46.236816,44.729055 C46.4075279,45.1553104 46.6107123,45.5675574 46.8394106,45.9527882 C47.0769229,46.3535283 47.2814989,46.6402001 47.4596331,46.8208083 C47.8056959,47.1885286 48.1387697,47.4787025 48.4509684,47.6823245 C48.5854969,47.7988943 48.7845062,47.893451 49.0725826,47.9810035 C49.2952503,48.0475433 49.475704,48.1150838 49.6144074,48.1851258 L49.7039384,48.2301527 L49.8013556,48.2281515 C50.0031482,48.2201467 50.2374133,48.235656 50.4934812,48.2731785 C50.7931548,48.3182055 51.0199976,48.335716 51.1276204,48.3262103 C51.4750748,48.3882475 51.721401,48.414263 51.9023186,48.4097603 C52.0823083,48.4032565 52.326779,48.3622319 52.7192309,48.2626722 C52.816648,48.2226482 52.9168485,48.1791222 53.021224,48.1295925 L52.8505121,47.7083401 C53.0091629,47.634796 53.1599275,47.5712579 53.3394534,47.4691968 C53.6187158,47.3106018 53.8720004,47.1465034 54.0979154,46.9749006 C54.3242943,46.8828455 54.5975262,46.7212486 54.9129721,46.4896099 C55.228882,46.2534684 55.4603637,46.0133245 55.6078811,45.7601728 C55.9103381,45.5820661 56.1232641,45.3629348 56.2443397,45.0932732 C56.3686626,44.8261131 56.5013354,44.4799057 56.6442139,44.0621554 C56.7889479,43.8100043 56.9118791,43.4988179 57.0116157,43.1320981 C57.1067134,42.7643778 57.2296445,42.4551926 57.3757702,42.2025412 C57.4458178,41.9503901 57.5065875,41.6807285 57.559935,41.3885535 C57.6146742,41.097379 57.6387965,40.868742 57.6346215,40.7046437 C57.6304465,40.5390445 57.6545688,40.3069054 57.7079163,40.0057249 C57.7440998,39.8021029 57.7909528,39.6214947 57.8350225,39.438385 L58.2274744,39.5534539 L58.2914914,39.3078068 L58.3086553,39.1672225 C58.3026248,38.9355837 58.3197887,38.6228964 58.3596834,38.2346638 C58.4051447,37.7873958 58.4237003,37.4436898 58.4162781,37.1775304 C58.4093197,36.9528958 58.4278754,36.6767303 58.4691617,36.3560382 C58.5160147,35.9798127 58.5373537,35.7021464 58.5331787,35.5100313 C58.5280758,35.3519365 58.544312,34.9977243 58.5814233,34.4478949 C58.6199263,33.8575411 58.6324514,33.2621844 58.6180707,32.6763334 C58.6022984,32.0949851 58.5777122,31.4786158 58.544312,30.829727 C58.5099841,30.1798376 58.454781,29.7310687 58.3689612,29.4373927" id="Fill-8" fill="#FFFFFF"></path>
                    <path d="M74.7823992,10.4737701 C74.6100024,10.2039404 74.3888142,9.93411059 74.1829604,9.74024751 C74.0212514,9.49656212 73.8130742,9.22475918 73.5644698,8.93569109 L73.2554568,9.23215854 C73.2475572,9.22327931 73.241981,9.2139068 73.2340814,9.20700074 C72.9878004,8.92039909 72.7484896,8.74034814 72.5152197,8.66388815 C72.281485,8.50998159 72.0254457,8.41132354 71.7475663,8.37087373 C71.4687576,8.32894406 71.130005,8.27665529 70.7275911,8.20512821 C70.32843,8.21598059 69.9511089,8.24459143 69.6002746,8.28849426 C69.2475815,8.33289038 68.8716545,8.4433874 68.4776048,8.61702558 C68.0082768,8.79658323 67.6425727,8.97022141 67.3846747,9.14188642 C67.1291,9.31256485 66.8066113,9.61692495 66.4186025,10.0529935 C66.1054074,10.4052028 65.837751,10.7445865 65.6156334,11.0696648 C65.614704,11.0716379 65.6142393,11.0716379 65.6142393,11.0731178 L65.2750221,10.815127 C65.0547632,11.1416852 64.909318,11.3814242 64.8228873,11.5659148 C64.7146166,11.7163683 64.6342267,11.9378556 64.5663833,12.2644138 C64.5022573,12.5584148 64.4697296,12.8410701 64.4725177,13.1035005 C64.4028155,13.3713572 64.3345074,13.7580967 64.2675933,14.2844374 C64.1992851,14.8068318 64.1342298,15.3183738 64.0738212,15.8151171 C63.9358109,16.236387 63.8261461,16.6458179 63.7490091,17.0374904 C63.6607196,17.4789852 63.6384149,17.6610093 63.6333034,17.7601607 C63.5180625,18.2815685 63.426985,18.6628818 63.3503126,18.9361646 C63.2880453,19.2513771 63.2308895,19.6178918 63.1769865,20.0283093 L63.5914821,20.0894773 C63.5840472,20.1378197 63.5784711,20.1802427 63.5719655,20.2280919 C63.5157391,20.6878384 63.4915757,21.0893767 63.5017987,21.4322134 C63.512951,21.8559497 63.4915757,22.3413474 63.4381373,22.891366 C63.3842343,23.4384249 63.3233611,23.9272756 63.257841,24.3529851 C63.1941797,24.7782013 63.126801,25.2576794 63.0543107,25.7914195 C62.9869319,26.3236797 62.9176944,26.762708 62.8503156,27.1085045 C62.7838662,27.5327341 62.7276398,28.0778199 62.6742015,28.7403087 C62.660261,28.9341718 62.6500381,29.1497396 62.6407444,29.3796129 L62.2257841,29.3658007 C62.2058028,29.9404839 62.2058028,30.630597 62.2281075,31.4099956 C62.2508769,32.2550018 62.2643527,33.0067762 62.2662114,33.6638388 C62.2685348,33.9336686 62.2620293,34.1137195 62.255059,34.2330958 L62.1523645,34.2365488 L62.156082,34.6691644 C62.157476,34.7451311 62.135636,34.9202491 62.0961381,35.1925454 C62.0487406,35.5314358 62.029224,35.9339606 62.0417704,36.3872944 C62.0529227,36.7834065 62.0380529,37.1301895 61.9953023,37.426657 C61.9353584,37.8637122 61.924206,38.0151523 61.9269941,38.1059177 C61.9302469,38.2243073 61.9609159,38.3925193 62.0348002,38.6850404 C62.0877738,38.888276 62.1161194,39.0880586 62.1216955,39.3006667 C62.1295951,39.5808556 62.1686283,39.8570981 62.2369365,40.1200218 C62.3071033,40.404157 62.3154676,40.4825902 62.3154676,40.4929493 L62.3261553,40.8624237 L62.6072874,40.9078064 C62.6458559,40.9571354 62.7313573,41.1021627 62.8479922,41.4745969 C62.9423225,41.7429468 63.0715039,42.0147497 63.2336776,42.2791533 C63.3805169,42.5105065 63.4901816,42.6663862 63.5831179,42.7709637 C63.6946414,42.9672932 63.8661087,43.1567167 64.1021668,43.3500865 C64.302909,43.515832 64.4780938,43.6702319 64.6277212,43.818219 L64.7727017,43.913424 C65.1858033,44.0693037 65.4976044,44.1783208 65.7155398,44.2473815 C65.8535502,44.2922709 66.0129358,44.3115092 66.2067079,44.3070696 L66.1988083,43.8636017 C66.3800339,43.8596553 66.5979694,43.8340042 66.8572615,43.7812222 C67.257352,43.7688899 67.6216621,43.7220273 67.9492623,43.6371814 C68.2782566,43.5528288 68.5570653,43.4674896 68.783365,43.378204 C69.0133822,43.2889185 69.2633807,43.160663 69.5352192,42.9899846 C69.8070577,42.817333 69.9794544,42.6486277 70.0519447,42.4853487 L70.6871639,42.1183407 C70.7652303,42.1163675 70.8762891,42.0038974 71.0259164,41.7794503 C71.172291,41.5540166 71.3191303,41.3157574 71.4659695,41.0676324 C71.6142028,40.8180276 71.8112277,40.465325 72.0612261,40.0095248 C72.3079718,39.5512582 72.4682869,39.151693 72.5338069,38.8063898 C72.7545305,38.3757474 72.9153102,37.9529977 73.0193987,37.5411003 C73.1230226,37.132656 73.2048065,36.6304865 73.2652151,36.0419912 C73.2554568,35.6981679 73.274044,35.3474385 73.3181887,34.9868433 C73.3623335,34.6257548 73.3837088,34.4062407 73.3809207,34.3238612 C73.4074075,34.2015252 73.4176305,34.0954678 73.4362178,33.9805312 L73.8535015,34.0540314 C73.9087985,33.7087282 73.9315679,33.3925292 73.9245977,33.1029678 L73.9752479,33.0990215 L74.0914182,32.8878932 C74.2015477,32.6826845 74.1364923,32.4730361 74.0658608,32.3196229 C74.0635374,32.1681827 74.0663255,31.9708666 74.0700429,31.730141 C74.0774778,31.4612978 74.1113995,31.2171191 74.1694847,31.0114171 L74.1866779,30.8718159 C74.1778489,30.5654827 74.2015477,30.2852938 74.2540567,30.0332225 C74.2628856,29.9962257 74.2698558,29.9651484 74.2772907,29.939004 L74.4831445,29.9335778 L74.4715274,29.4910965 C74.4682747,29.3727068 74.4534049,29.2587568 74.4315649,29.1744041 C74.3925316,28.9899136 74.2805435,28.8503124 74.1309161,28.778292 C73.9431849,28.6051472 73.6439303,28.5479255 73.4706042,28.5158616 C73.1374278,28.4487741 72.7972811,28.4201633 72.460852,28.4246029 C72.1406866,28.3580087 71.7796293,28.2914145 71.3818622,28.2341929 C70.94785,28.1671054 70.6481306,28.1399744 70.466905,28.1439208 L69.6207205,28.1705584 L69.5003681,28.3402503 C69.3186778,28.5962679 69.2406113,28.8838562 69.2754624,29.1936424 C69.3642165,29.7811511 70.157892,29.7387282 70.6713647,29.7071576 C70.8748951,29.7012381 71.1383693,29.7273825 71.4571406,29.7846042 C71.8614132,29.8576111 72.036598,29.9246986 72.1044415,29.9577491 L72.1964484,29.9907995 C72.3576927,30.0268097 72.4580639,30.0559138 72.5194018,30.0771253 C72.5221899,30.1131355 72.5268367,30.168384 72.5286954,30.2418843 C72.5338069,30.3696464 72.5166137,30.6138251 72.4780452,30.9685008 L72.8911467,31.0188164 C72.887894,31.0336151 72.887894,31.0429876 72.8864999,31.0577864 C72.8442139,31.4509387 72.8284148,31.8598763 72.8395671,32.2831194 C72.8497901,32.6254628 72.8260914,32.986058 72.7656828,33.3629318 C72.7080623,33.7402988 72.6420776,34.0130883 72.5691227,34.1788339 C72.5742342,34.3416197 72.5463533,34.6099696 72.4873388,34.9868433 C72.4292536,35.3656902 72.3655923,35.7257921 72.2986782,36.0715886 C72.3144774,36.6304865 72.2786969,37.1045384 72.196913,37.5026237 L71.7833468,37.4705598 C71.704351,37.8385543 71.5626232,38.2243073 71.3753567,38.5962482 C71.2182945,38.8621316 71.0603029,39.1847435 70.8893002,39.5808556 C70.7164388,39.9873267 70.5853987,40.1811898 70.5045442,40.2699821 L70.4306598,40.3883717 C70.4060317,40.4406605 70.3149542,40.6078859 69.9864246,40.9665079 C69.7387496,41.2378176 69.4817809,41.4420397 69.1388461,41.637876 C68.8818775,41.8480176 68.6342024,42.0127766 68.4004677,42.1282065 L68.5770466,42.5238253 C68.5505598,42.5346777 68.5236083,42.5553959 68.4975861,42.5662483 C68.217848,42.6979568 67.876772,42.8119068 67.4794696,42.9041521 C67.0068889,43.000837 66.6644188,43.0368472 66.4576357,43.0111961 C66.2494585,42.9830785 65.9404455,42.8548231 65.5347789,42.6239632 C65.3010442,42.4661103 65.0612687,42.321083 64.8200992,42.1913477 C64.5780003,42.0596392 64.3763287,41.8756419 64.2160137,41.6344229 C64.1328357,41.3927107 64.0171301,41.1061091 63.8702909,40.7756046 C63.8019827,40.6236712 63.7429682,40.4712445 63.6881358,40.3168446 L64.0738212,40.1629381 C64.0148067,39.9952194 63.9641565,39.8260208 63.9116475,39.6217987 C63.8326517,39.3919254 63.7550499,39.1033506 63.6807009,38.7619937 C63.5896234,38.3417104 63.5682481,38.1468608 63.56546,38.0560954 C63.5612779,37.895776 63.5612779,37.6377852 63.566854,37.2776833 C63.5715008,36.9565514 63.6030992,36.6867216 63.663043,36.4765799 L63.6807009,36.3374721 C63.6737307,36.1031592 63.6723367,35.8501013 63.682095,35.5773118 L63.8173172,35.5733654 L63.8084883,35.1333505 C63.8061648,35.0494912 63.8238227,34.7135605 63.8605325,34.119639 C63.8967777,33.478855 63.9042126,32.722641 63.8809785,31.8751683 C63.8619266,31.1638438 63.8489155,30.4850764 63.8419453,29.8423191 L63.426985,29.8482386 C63.4246616,29.7288624 63.4218735,29.6050465 63.4218735,29.4896166 C63.4181561,28.7388288 63.4502191,28.2805622 63.523174,28.1158032 C63.5185272,27.9535107 63.5385085,27.7226509 63.5854413,27.4276633 C63.629586,27.1316891 63.6509613,26.903789 63.6467792,26.7405099 C63.6444558,26.6586238 63.6672252,26.5135964 63.7150873,26.3108541 C63.7634142,26.1051521 63.7861836,25.9616046 63.7833955,25.8782386 C63.7820014,25.7983255 63.8033768,25.6089021 63.8503096,25.3149011 C63.8958483,25.0179403 63.9149002,24.7486039 63.90793,24.5029453 C63.9785616,24.2582733 64.0426876,23.9405944 64.100308,23.555828 C64.1602519,23.1695817 64.1862741,22.8553558 64.1793038,22.6106838 C64.1723336,22.3655186 64.1913856,22.0448799 64.2332069,21.6537007 C64.2448239,21.5515896 64.2392477,21.4677303 64.2462179,21.3695655 L64.676048,21.4080422 C64.7002115,21.1036821 64.7071817,20.8116542 64.7011408,20.5363983 C64.6946353,20.3277365 64.7132225,20.119568 64.7522557,19.9148525 C64.8098762,19.6218381 64.8326456,19.4536261 64.8298575,19.3391828 C64.8298575,19.3377029 64.8317162,19.2844276 64.8753963,19.1517325 C64.9460278,18.9445506 64.9762321,18.783738 64.9720499,18.6628818 C64.9739087,18.6426569 64.9864551,18.5163746 65.1207479,17.9658627 C65.2364535,17.4942772 65.3266017,16.9901346 65.3814341,16.5224954 C65.5217678,15.9226544 65.6342206,15.384968 65.7239041,14.9099295 C65.8238106,14.3732297 65.8739961,14.2844374 65.8619144,14.2987429 L65.9274345,14.2247493 L66.2266892,13.1765075 L65.8279927,13.0512118 L65.8521561,12.9594598 C65.8419331,12.6171163 65.9121,12.3048636 66.0570805,12.0231949 C66.2039198,11.7405395 66.3874688,11.4248338 66.607263,11.0770641 C66.8344921,10.8244995 67.0951783,10.5665087 67.3939683,10.3045716 C67.6950817,10.0426344 67.9576266,9.82509344 68.185785,9.65638817 C68.5784406,9.48028354 68.9246281,9.34265556 69.2220241,9.24399751 C69.518026,9.14731261 69.8674662,9.08959765 70.2670921,9.07923856 C70.6657885,9.06542643 71.0045411,9.06345327 71.2819558,9.06887946 C71.5486828,9.07923856 71.7931051,9.11919507 72.0184755,9.18776241 L71.9260039,9.61692495 C72.1081589,9.67463991 72.2759088,9.76787177 72.4208894,9.88823459 C72.5793457,10.0204364 72.7271143,10.1521449 72.8641952,10.2863198 C72.9292506,10.4229612 72.9994174,10.5887068 73.0733018,10.7722107 C73.1532269,10.9823524 73.2312934,11.1643765 73.3051777,11.3187764 C73.3209768,11.494881 73.3590807,11.6704923 73.422742,11.8387043 C73.4789684,11.9857048 73.4850093,12.0389802 73.4850093,12.0389802 C73.486868,12.144051 73.5110314,12.288585 73.6611235,12.6358614 C73.6513652,12.6807508 73.6272017,12.7404389 73.5858451,12.8030868 L73.508708,12.922463 L73.5375183,13.9884633 L73.9204156,14.0091815 C73.9487611,14.0106613 73.9757126,14.0106613 74.0035935,14.0106613 C74.2494098,14.0027687 74.4868619,13.8991777 74.7233847,13.6841032 C74.8330494,13.5612739 74.9273797,13.3940485 75.0147398,13.1750276 C75.1020998,12.9515671 75.1434564,12.7251469 75.1369509,12.5021797 L75.1048879,11.326669 C75.0979177,11.0731178 74.9956878,10.8027947 74.7823992,10.4737701" id="Fill-10" fill="#FFFFFF"></path>
                </g>
                <g id="Group-12" transform="translate(111.000000, 189.000000)" fill="#FFB839">
                    <path d="M1.80156187,9.10226209 C1.48572899,13.2464512 1.32488456,27.8115942 1.75744677,31.668735 L18.1038478,21.5587185 L1.80156187,9.10226209 Z M1.0008533,33.8695652 L0.60381741,33.2234221 C-0.423322639,31.5534606 0.0642858452,8.47507856 0.569462289,7.4379885 L0.973915763,6.60869565 L20.703125,21.6842311 L1.0008533,33.8695652 Z" id="Fill-1"></path>
                    <path d="M2.04179355,32.8071818 C3.40682145,34.5582701 5.93645344,36.1507791 8.0158025,36.5000267 C8.14264816,36.5112205 9.530286,36.5608465 20.7785451,36.5608465 C29.8876728,36.5608465 40.4641481,36.5253993 40.9891588,36.4929372 C44.3059237,35.9306338 48.0423139,34.6493133 49.3958452,32.9814325 L32.8852158,22.4476644 L25.8228635,28.3456939 L18.7578286,22.4431869 L2.04179355,32.8071818 Z M20.7785451,38 C8.29555274,38 7.90428562,37.9399264 7.77514065,37.9205238 C5.04355198,37.4604573 1.79576663,35.285496 0.369806828,32.9672536 L0,32.3668911 L18.8881232,20.6559052 L25.8228635,26.4502052 L32.7660346,20.6521739 L51.34375,32.503829 L51.0724306,33.0679981 C49.4870515,36.3634619 42.5542273,37.6861996 41.1811518,37.918285 C40.7810706,37.9805974 25.872682,38 20.7785451,38 Z" id="Fill-3"></path>
                    <path d="M33.9849864,21.9704366 L50.3996663,32.4951782 C50.6924348,31.6783647 50.8453031,30.8465533 50.8453031,30.0485834 C50.8453031,26.4736785 51.0076029,23.5732984 51.1655799,20.7690593 C51.3219851,17.9836638 51.4846779,15.1044348 51.4846779,11.5699091 C51.4846779,10.4158332 51.1616502,9.19061294 50.56511,8.04884307 L33.9849864,21.9704366 Z M51.0665496,34.6956522 L31.46875,22.1292614 L50.9368669,5.7826087 L51.4064753,6.50328123 C52.4490452,8.10306656 53,9.85552372 53,11.5699091 C53,15.1451986 52.8365213,18.0455786 52.6789372,20.8498177 C52.5225321,23.6344441 52.3606252,26.5140577 52.3606252,30.0485834 C52.3606252,31.3245661 52.0415273,32.6647708 51.4386995,33.9219098 L51.0665496,34.6956522 Z" id="Fill-6"></path>
                    <path d="M2.69371993,7.37291186 L26.5724913,26.9573308 L50.216529,6.33540163 C48.9251108,4.56021032 47.0763921,3.32697287 45.1693736,2.99127339 C38.9631254,1.99041328 33.18377,1.50382449 27.5114255,1.50382449 C21.8398482,1.50382449 16.0604928,1.99041328 9.84388867,2.99322287 C7.33737903,3.43341417 4.03039722,5.25149391 2.69371993,7.37291186 Z M26.6004905,28.9130435 L0.828125,7.77528336 L1.07743353,7.24034761 C2.40183717,4.39333532 6.5334549,2.0492874 9.60186761,1.50928302 C15.9059215,0.493217002 21.7612201,0 27.5114255,0 C33.2623981,0 39.1173131,0.493217002 45.4113947,1.50811333 C47.9179043,1.94908442 50.3124169,3.6505856 51.8259115,6.06208533 L52.171875,6.6114472 L26.6004905,28.9130435 Z" id="Fill-9"></path>
                </g>
                <g id="Group-36" transform="translate(0.000000, 43.000000)">
                    <path d="M55.0647773,24.1727194 C45.9005581,21.8350442 31.0922541,20.8387793 22.2901851,17.3211679 C16.3030107,31.1474439 41.0687121,43.0386418 50.8697266,46.189781 L55.0647773,24.1727194 Z" id="Fill-1" fill="#F8C4BF"></path>
                    <path d="M28.7651822,27.4994018 L28.9174492,27.2189781 C29.3924183,27.4507568 30.0304689,27.4875471 30.8367917,27.5353745 C32.6402038,27.6416575 35.3667343,27.8027171 39.4493927,30.2513143 L39.2711711,30.5182482 C35.2603205,28.1109379 32.5852665,27.9535573 30.8168932,27.8489094 C29.9703407,27.7994469 29.3015772,27.7606127 28.7651822,27.4994018" id="Fill-3" fill="#D2A066"></path>
                    <path d="M42.0422316,24.5502779 C44.9208994,25.2175294 45.6212216,42.1783374 41.8635647,43.014702 C40.9624051,43.7091168 37.376025,32.8043946 32.1438224,27.0199411 C25.3788227,19.5369096 21.0251746,27.1833586 25.7596311,31.2631004 C26.2321638,33.6026431 32.3707425,49.4580829 35.3154866,53.1023367 C39.0396707,57.0488911 58.0818277,69.3358712 61.0109222,74.2335766 L72.3238866,60.6861351 C68.0841332,49.4948846 66.9869183,51.6289506 61.5364899,32.4245475 C58.6213062,22.1467702 56.2125629,17.2468741 51.2837898,16.4013091 C36.6887442,13.898787 13.2881571,14.0832341 13.356407,14.0218978 C11.5167027,17.6275974 22.0345776,19.9097468 42.0422316,24.5502779" id="Fill-5" fill="#FFD5CB"></path>
                    <path d="M195.057324,91.0947407 C201.428189,99.6599591 193.136222,95.7812383 203,102.458888 C182.214553,114.108978 142.103541,117.109415 111.140302,106.326728 C79.3486949,96.9210913 56.7066037,73.7310236 51.7773279,64.7723622 C58.9913696,61.7588677 65.8774607,58.2983976 72.3985816,54.4379562 C86.7787572,68.3285817 108.354682,76.9473327 128.320906,78.5515703 C148.42432,80.5100806 166.915419,75.453207 178.295261,70.1869904 C178.433322,70.9416697 188.805794,82.8729145 195.057324,91.0947407" id="Fill-7" fill="#799921"></path>
                    <path d="M78.8987854,60.3689516 C76.4672979,58.515271 74.1658319,56.5376929 72.0286036,54.4379562 C65.6241895,58.2939944 58.8617886,61.7505175 51.7773279,64.7605748 C52.858987,66.7607588 54.8144419,69.4743315 57.5418994,72.5839416 C64.6930816,68.5709666 71.8104754,64.4936518 78.8987854,60.3689516" id="Fill-9" fill="#64840E"></path>
                    <path d="M52.7570236,66.810219 L52.5991903,66.5166932 C55.4621833,64.948762 57.9844978,63.7386195 60.2096889,62.6717663 C63.8799606,60.9110459 67.050858,59.3904435 70.4869671,56.9124088 L70.6801619,57.1846582 C67.2194722,59.6796272 64.0365002,61.2071769 60.3524289,62.973542 C58.1311189,64.0386584 55.6131168,65.247064 52.7570236,66.810219" id="Fill-11" fill="#FFFFFF"></path>
                    <path d="M73.5818385,60.6984044 C73.0867451,61.1681219 72.3064631,61.1454176 71.8384423,60.6489017 C71.3707923,60.1523857 71.3937854,59.3689029 71.8881371,58.8999298 C72.3832304,58.4309567 73.1635124,58.4529165 73.6311624,58.9486881 C74.0984415,59.4459485 74.0761902,60.2286869 73.5818385,60.6984044" id="Fill-13" fill="#FFFFFF"></path>
                    <path d="M66.2067614,1.71134696 C68.8952647,3.96534891 71.4821849,8.93303339 70.4465895,12.0794077 C70.1018506,13.1293599 63.2084528,15.6715328 63.2084528,15.6715328 L59.1740891,2.93716185 C59.1740891,2.93716185 63.1611087,-0.843885065 66.2067614,1.71134696" id="Fill-15" fill="#2879FF"></path>
                    <polygon id="Fill-17" fill="#FC5D16" points="57.9999784 2.47445255 12.3279352 24.4038095 18.4323522 37.1167883 64.1052632 15.1882991"></polygon>
                    <g id="Group-21" transform="translate(0.821862, 23.919708)">
                        <mask id="mask-4" fill="white">
                            <use xlink:href="#path-3"></use>
                        </mask>
                        <g id="Clip-20"></g>
                        <polygon id="Fill-19" fill="#FFD5CB" mask="url(#mask-4)" points="11.7708848 0.287491396 -0.000258299595 13.67288 17.9438146 12.9739097"></polygon>
                    </g>
                    <g id="Group-24" transform="translate(0.000000, 32.167883)" fill="#2879FF">
                        <polygon id="Fill-22" points="5.0411869 0.089714767 0.672054587 5.40908984 7.33292204 5.13239528"></polygon>
                    </g>
                    <polygon id="Fill-25" fill="#FFFFFF" points="14.1177285 28.0437956 13.9716599 27.7407273 59.8494455 5.77372263 59.9959514 6.07679098"></polygon>
                    <polygon id="Fill-27" fill="#FFFFFF" points="17.404742 33.8175182 17.2591093 33.5153102 63.1373308 11.5474453 63.2834008 11.8505255"></polygon>
                    <g id="Group-31" transform="translate(57.530364, 0.000000)">
                        <mask id="mask-6" fill="white">
                            <use xlink:href="#path-5"></use>
                        </mask>
                        <g id="Clip-30"></g>
                        <polygon id="Fill-29" fill="#FFB839" mask="url(#mask-6)" points="2.85150502 0.373486289 9.82418518 14.9847942 7.31271678 16.3834172 0.392349938 1.69765279"></polygon>
                    </g>
                    <path d="M41.0931174,45.5837295 C38.3694877,42.6090414 36.2563993,34.0582578 33.0469489,28.3571647 C28.2136017,19.7729914 22.7107236,21.1184288 24.0337739,27.1298758 C24.403301,28.9765882 36.0322392,45.8628339 38.9812931,49.4890511 C39.997598,44.9844255 40.156027,50.0643829 41.0931174,45.5837295" id="Fill-32" fill="#FFD5CB"></path>
                    <path d="M26.2787078,25.3570905 C26.0364852,25.1140932 25.9077027,25.0849864 25.8630706,25.0841044 C25.0131993,25.1167393 24.4776131,25.3641467 24.2823473,25.8179476 C23.7523401,27.0532208 25.6743136,29.5378796 26.266155,30.1314811 C26.2856816,30.1513266 26.3014888,30.167644 26.3154364,30.1808744 C26.7329333,30.1702901 27.1453161,30.1222198 27.5451461,30.0745906 C27.8320009,30.0401917 28.1049081,30.0075569 28.3647976,29.9947675 C28.3806048,29.9877113 28.4038508,29.9506664 28.4098947,29.8558489 C28.471264,28.9910253 27.1760007,26.258077 26.2787078,25.3570905 M26.0058006,30.3647762 C25.5385574,29.8955399 23.3041585,27.1987546 23.9503954,25.6904952 C24.203776,25.1013039 24.8458286,24.7842166 25.860746,24.7445255 C26.0708892,24.7498177 26.288936,24.8728599 26.5390622,25.1237954 C27.5497953,26.1381219 29.0459034,29.3323682 28.7195305,30.0979642 C28.6576963,30.2399699 28.5354227,30.3264082 28.3819996,30.3330233 C28.1369875,30.3462537 27.8701242,30.3780065 27.5883835,30.4106414 C27.1885535,30.4578296 26.734328,30.512074 26.2582514,30.5182482 C26.1638729,30.5081049 26.1141266,30.473706 26.0058006,30.3647762" id="Fill-34" fill="#D2A066"></path>
                </g>
                <g id="Group-21" transform="translate(211.000000, 110.000000)">
                    <path d="M41.2516383,16.440678 L40.898084,13.1678196 C40.4337515,8.92292488 39.9556887,4.53491079 39.6330275,0.113740011 L40.4964738,0 C40.8169506,4.39388996 41.2940773,8.7680538 41.7546652,12.999518 L42.1100917,16.2744748 L41.2516383,16.440678 Z" id="Fill-1" fill="#FFB839"></path>
                    <path d="M20.8058402,24.6610169 L17.9456635,22.9060878 C14.2097181,20.6212372 10.3488496,18.2585174 6.60550459,15.7199767 L7.31325795,14.7966102 C11.0309218,17.3179376 14.8809086,19.6741001 18.604231,21.9519834 L21.4678899,23.7089617 L20.8058402,24.6610169 Z" id="Fill-3" fill="#FFB839"></path>
                    <path d="M0.216978445,49.3220339 L0,47.727627 C4.38934631,46.6006168 8.74082776,45.1838206 12.9519114,43.8125956 L16.243602,42.7457627 L16.5137615,44.3261477 L13.2241981,45.3912279 C9.00035099,46.7671268 4.63355342,48.1891812 0.216978445,49.3220339" id="Fill-5" fill="#FFB839"></path>
                    <path d="M67.5427837,24.6610169 L66.8807339,23.7089617 L69.7452634,21.9519834 C73.4668447,19.6741001 77.3168315,17.3179376 81.0349306,14.7966102 L81.7431193,15.7199767 C77.9997743,18.2585174 74.1389057,20.6212372 70.4047015,22.9060878 L67.5427837,24.6610169 Z" id="Fill-7" fill="#FFB839"></path>
                    <g id="Group-11" transform="translate(72.660550, 42.745763)">
                        <mask id="mask-8" fill="white">
                            <use xlink:href="#path-7"></use>
                        </mask>
                        <g id="Clip-10"></g>
                        <path d="M16.7063429,6.10743364 C12.2045883,5.1265575 7.75658601,3.89527718 3.45293463,2.70396037 L0.101652523,1.7817648 L0.375615826,0.413394524 L3.73079931,1.33710769 C8.02014564,2.52437757 12.4547099,3.75110508 16.9269874,4.72692256 L16.7063429,6.10743364 Z" id="Fill-9" fill="#FFB839" mask="url(#mask-8)"></path>
                    </g>
                    <g id="Group-14" transform="translate(39.633028, 92.067797)">
                        <mask id="mask-10" fill="white">
                            <use xlink:href="#path-9"></use>
                        </mask>
                        <g id="Clip-13"></g>
                        <path d="M0.0818077383,0.0647214689 C0.101193458,0.395179096 1.55253769,4.6001565 1.5732158,4.93225819 L8.78771919,4.93225819 C8.76014838,4.6001565 9.87633506,0.395179096 9.84661029,0.0625293785 C7.45225848,0.0625293785 2.47659035,0.0625293785 0.0818077383,0.0647214689" id="Fill-12" fill="#00518B" mask="url(#mask-10)"></path>
                    </g>
                    <path d="M36.6213382,69.9504751 C37.383384,71.8282697 38.0909336,81.1210252 38.7710099,83.0254237 L54.8118036,83.0254237 C55.5540325,81.113044 56.3259867,71.8131942 57.1569409,69.9327392 C58.9823378,67.3392986 67.3846583,57.7131071 70.2310705,48.6957024 C74.0674215,37.3775005 63.3240171,21.3965151 46.6752083,21.3739017 C30.0772925,21.2311273 18.369621,36.1009549 22.1960637,47.4550721 C25.0636438,56.8728661 33.0682772,65.724883 36.6213382,69.9504751" id="Fill-15" fill="#FFB839"></path>
                    <path d="M46.7810049,36.3508515 C46.6946793,36.3508515 46.5932008,36.4079643 46.53213,36.4487592 C45.746016,36.9759197 44.9061782,39.0428603 45.5026513,41.9868908 C45.6371907,42.6482211 45.7832095,43.2769155 45.9397895,43.8702544 C46.3365199,42.5457806 46.7125872,40.9593131 47.0542162,39.0632577 C47.3829882,37.2428995 47.0707466,36.5067786 46.8604428,36.3721555 C46.8361063,36.3571974 46.8094739,36.3508515 46.7810049,36.3508515 Z M34.1352229,39.9543992 C33.8771645,40.2975295 34.0516524,42.0979435 35.3396487,44.6856987 C36.0862733,46.1828708 37.1446803,47.7820301 38.3298205,48.8785058 C38.0625785,47.2177009 37.7980916,45.7014912 37.5455433,44.3883494 L37.5317679,44.3176382 C37.292995,43.074301 36.732797,40.1615465 35.4962287,39.658863 C35.1160287,39.504749 34.6710845,39.6022034 34.1352229,39.9543992 Z M55.6344298,41.3677151 C55.3529532,41.5236422 54.8239793,42.4274755 54.5627066,42.8739528 L54.3689332,43.2030315 C53.4363412,44.7677417 52.6199215,46.8840894 51.9228882,49.341301 C52.2117116,49.1015178 52.5092594,48.8091545 52.8136949,48.4642111 C54.1949045,46.8995008 56.4030949,43.3571455 55.884223,41.8676791 C55.7740201,41.5521987 55.6808068,41.4189354 55.6344298,41.3677151 Z M48.5405777,82.2033898 C47.2980401,75.477674 47.9023193,61.3327293 50.3814252,51.149874 C50.0434697,51.1870427 49.7096467,51.1616592 49.3790381,51.0755367 C47.8279323,50.6680412 46.6937609,48.9279129 45.8856064,46.9448285 C44.7183741,49.5466353 43.2940017,50.9753626 41.6235095,51.2078934 C40.964588,51.3012684 40.3088808,51.1979213 39.6742958,50.9454464 C41.1450453,60.6791047 42.7301302,74.8122642 42.3283488,82.1417442 L41.3149414,82.0868978 C41.6969781,75.143156 40.1325562,60.5530938 38.5607874,50.3425887 C36.8971829,49.2053181 35.4374538,47.1510693 34.4295565,45.1276432 C33.3651802,42.9895383 32.4697817,40.1579203 33.4482916,39.2151053 L33.5148725,39.1611654 C34.3643531,38.5841445 35.1619466,38.4409092 35.8819388,38.7332725 C37.6268179,39.4421968 38.2141075,42.492294 38.5291041,44.1308883 L38.5428795,44.2015995 C38.8307845,45.7014912 39.1558831,47.5970933 39.4915427,49.7506097 C40.1444948,50.1254693 40.8194876,50.3104061 41.4816233,50.2170311 C42.6226824,50.0583844 44.0690954,49.0122223 45.3786731,45.5464707 C44.9883711,44.348461 44.7050579,43.1540776 44.5089886,42.1831595 C43.8541997,38.9531115 44.7445472,36.436974 45.9627484,35.6206231 C46.4559063,35.2897313 46.9853394,35.2584553 47.4114572,35.5322342 C48.168643,36.0167867 48.397314,37.3331015 48.0533891,39.239129 C47.6047715,41.7271634 47.0679916,43.833539 46.4458044,45.5528165 C47.3370703,48.1600626 48.461599,49.798657 49.6403108,50.1077915 C49.9617359,50.1921009 50.2992322,50.180769 50.6546365,50.074249 C51.4334036,47.1252325 52.3811485,44.5646739 53.4951161,42.6953618 L53.6852161,42.372629 C54.3161276,41.2942844 54.9112233,40.2712394 55.7432551,40.3546423 C56.4526862,40.4221805 56.7461014,41.2648214 56.8429881,41.5426799 C57.6479284,43.8539364 54.4727076,48.1088424 53.5777683,49.1219152 C52.8853268,49.9056302 52.202528,50.4649733 51.5330454,50.7990381 C49.0126134,60.7901574 48.2926212,75.2795922 49.5388323,82.0243456 L48.5405777,82.2033898 Z" id="Fill-17" fill="#FFFFFF"></path>
                    <path d="M33.853211,80.559322 C34.9016263,81.6564471 35.3941069,82.1714889 35.888008,82.6887956 C33.9782253,82.5162091 33.8820969,85.4316084 36.288622,85.5706742 C33.8328488,85.4791716 33.7338792,88.4856205 36.1323541,88.5177823 C33.7329321,88.393212 33.6349095,91.7779018 35.894164,91.9686077 C35.3192877,92.5679043 34.8689521,93.0358359 34.3831011,93.5409121 C37.4862021,94.9320232 54.6477285,94.8418796 55.005724,93.3936926 C54.5833272,92.9139834 54.1164177,92.3799163 53.6371963,91.8395075 C56.0465626,91.6365711 55.407285,88.5825589 53.3980591,88.7243426 C56.093443,88.4412282 55.0639692,85.3854041 53.3866942,85.5955883 C55.6525782,85.1960572 54.9640525,82.9886705 53.6746059,82.7173336 C54.216808,82.007509 54.642046,81.4498868 55.3211009,80.559322 L33.853211,80.559322 Z" id="Fill-19" fill="#2879FF"></path>
                </g>
            </g>
        </g>
    </g>
</svg>