<svg xmlns="http://www.w3.org/2000/svg" width="28" height="29" viewBox="0 0 28 29"><g fill="none"><path fill="#2879FF" d="M12.24 10.87c2.127-.84 3.614-2.866 3.614-5.221C15.872 2.536 13.244 0 10.028 0 6.795 0 4.167 2.536 4.167 5.649c0 1.051.692 2.363 2.077 3.936a.34.34 0 0 1-.13.54l-2.04.812a.34.34 0 0 0 .086.655c3.612.413 6.306.172 8.08-.723z"/><path fill="#2879FF" d="M25.424 17.72c-1.845-.631-4.156-.405-6.933.677a.136.136 0 0 1-.154-.213c2.14-2.583 3.189-5.757 3.145-9.522-.017-2.14-.545-3.94-1.585-5.396a.642.642 0 0 0-1.164.373c0 6.324-4.115 10.572-10.737 10.572-1.422 0-3.67-.559-6.746-1.677a.68.68 0 0 0-.716 1.12 61.891 61.891 0 0 0 1.67 1.628c.562.523 1.228 1.12 2.144 1.597 2.974 1.532 5.256 1.713 5.481 1.73.035 3.21-2.282 7.707-5.567 7.707-.502 0-.986-.066-1.452-.165a6.375 6.375 0 0 1-.73-.184.68.68 0 0 0-.794.993c.662 1.129 1.862 1.77 3.598 1.925 4.063.362 5.93-.478 9.959-2.816 4.305-2.504 7.573-5.155 10.08-4.496.7.182 1.174.881 1.423 2.099a.68.68 0 0 0 1.326.035c.102-.39.171-.69.207-.9.173-1.053.484-4.083-2.455-5.088z"/><path fill="#FFF" stroke="#FFF" stroke-width=".681" d="M10.433 2.296c1.184 0 2.25.615 2.968 1.576.163.17.313.196.45.081.136-.114.136-.289 0-.523-.834-1.096-2.067-1.807-3.418-1.807-.95 0-1.834.346-2.567.923-.217.179-.28.348-.19.507.091.159.265.176.523.05.634-.5 1.4-.807 2.234-.807z"/></g></svg>