<svg xmlns="http://www.w3.org/2000/svg" viewBox="0 0 548 548"><path d="M546 400l-2-3c-10-17-28-38-55-63v-1h-1v-1a330 330 0 0 1-23-23c-6-8-8-15-4-23 2-6 10-18 25-38l19-24c33-44 47-72 43-84l-2-3c-1-1-4-3-9-4a45 45 0 0 0-18-1l-83 1h-5l-4 1h-1l-2 1a20 20 0 0 0-5 8 466 466 0 0 1-50 95 114 114 0 0 1-26 29c-3 3-6 4-8 3l-4-1a19 19 0 0 1-7-7 33 33 0 0 1-3-11 123 123 0 0 1-1-25v-12a4097 4097 0 0 1 1-44 261 261 0 0 0 0-29 44 44 0 0 0-3-9l-6-7a33 33 0 0 0-10-3 190 190 0 0 0-38-4c-36-1-58 2-68 7l-11 8c-4 4-4 7-2 7 12 2 20 6 25 12l1 4a127 127 0 0 1 7 34 211 211 0 0 1-3 59 46 46 0 0 1-7 19 5 5 0 0 1-2 2 21 21 0 0 1-7 1c-3 0-6-1-10-4a69 69 0 0 1-12-11 147 147 0 0 1-14-19 341 341 0 0 1-16-30l-4-8a712 712 0 0 1-25-53c-2-4-4-7-7-9l-1-1-5-3a30 30 0 0 0-6-1H18c-8 0-13 2-16 6l-1 1a9 9 0 0 0-1 5l2 8a942 942 0 0 0 37 77 711 711 0 0 0 94 138l7 7 20 16a332 332 0 0 0 29 19 160 160 0 0 0 38 15c14 4 28 6 41 5h33c7-1 12-3 15-6l2-2a29 29 0 0 0 3-13 94 94 0 0 1 2-22l4-15a37 37 0 0 1 11-12l3-1c4-2 10 0 16 4a97 97 0 0 1 17 17 439 439 0 0 0 40 40l5 3c4 3 9 5 15 7a32 32 0 0 0 16 1l73-1a33 33 0 0 0 17-4c4-2 6-5 7-7v-10l-1-8z"/></svg>