<svg viewBox="0 0 640 480" xmlns="http://www.w3.org/2000/svg" xmlns:xlink="http://www.w3.org/1999/xlink"><defs><path id="b" d="M0 387.865h471V0H0z"/><rect id="a" x="-18" y="-21" width="671" height="511" rx="10"/><mask id="d" maskContentUnits="userSpaceOnUse" maskUnits="objectBoundingBox" x="0" y="0" width="671" height="511" fill="#fff"><use xlink:href="#a"/></mask></defs><g fill="none" fill-rule="evenodd"><g transform="translate(74 46)"><path d="M384.204 341.57H52.829c0-63.518 74.18-115.01 165.687-115.01 91.506 0 165.687 51.493 165.688 115.01z" fill="#E9EEF4"/><path d="M219.01 87.539c-.412 0-.559.005-1.188.008-.628-.003-.702-.008-1.115-.008-32.505 0-70.79 3.092-84.34 9.129l1.6 11.527c2.463 12.52 37.011 20.656 82.74 20.656.413 0 .487-.002 1.115-.003.63.001.776.003 1.189.003 45.728 0 80.313-8.137 82.776-20.656l1.582-11.527c-13.55-6.037-51.854-9.129-84.358-9.129" fill="#DEE5ED"/><path d="M217.82 127.524l1.19.004c22.243 0 42.592-1.987 57.3-5.595 14.486-3.555 23.068-8.51 24.173-13.958l1.44-10.485c-14.642-5.925-52.931-8.628-82.912-8.628-.216 0-.357.002-.537.003l-.644.006-.64-.006a32.732 32.732 0 0 0-.483-.003c-29.97 0-68.249 2.704-82.892 8.628l1.456 10.484c1.104 5.449 9.68 10.405 24.156 13.959 14.698 3.608 35.04 5.595 57.28 5.595l1.112-.004zm1.19 2.65l-1.19-.003-1.113.004c-22.77 0-42.795-1.961-57.91-5.672-15.788-3.876-24.823-9.427-26.126-16.052l-.013-.073-1.737-12.515.909-.404c14.257-6.35 53.992-9.244 84.877-9.244.223 0 .35.002.513.004l.61.005.616-.005c.19-.002.338-.004.565-.004 30.894 0 70.638 2.893 84.895 9.244l.908.404-1.73 12.588c-1.304 6.625-10.345 12.175-26.146 16.052-15.123 3.71-35.154 5.672-57.927 5.672z" fill="#A7B8D1"/><path d="M217.822 74.965c-47.156 0-85.655 9.248-85.655 20.656s38.5 20.656 85.655 20.656c47.156 0 85.656-9.248 85.656-20.656s-38.5-20.656-85.656-20.656" fill="#FFF"/><path d="M217.822 76.288c-22.722 0-44.102 2.136-60.202 6.013-15.11 3.64-24.132 8.62-24.132 13.32 0 4.7 9.021 9.68 24.132 13.32 16.1 3.878 37.48 6.013 60.202 6.013 22.723 0 44.103-2.135 60.203-6.013 15.11-3.64 24.132-8.62 24.132-13.32 0-4.7-9.022-9.68-24.132-13.32-16.1-3.877-37.48-6.013-60.203-6.013m0 41.312c-22.924 0-44.524-2.161-60.82-6.086-11.933-2.874-26.157-7.965-26.157-15.893 0-7.928 14.224-13.018 26.157-15.893 16.296-3.925 37.896-6.086 60.82-6.086 22.925 0 44.525 2.161 60.82 6.086 11.934 2.875 26.158 7.965 26.158 15.893 0 7.928-14.224 13.019-26.157 15.893-16.296 3.925-37.896 6.086-60.82 6.086" fill="#A7B8D1"/><path d="M265.128 86.898c0 5.73-20.274 10.374-45.284 10.374-25.01 0-45.284-4.645-45.284-10.374 0-5.73 6.344-7.303 31.338-8.198 58.726-2.103 59.23 2.468 59.23 8.198" fill="#DEE5ED"/><path d="M219.76 40.054c-24.073 0-43.739 18.022-44.45 40.429h88.901c-.713-22.407-20.379-40.429-44.451-40.429zm-46.986 42.947v-1.26c0-24.374 21.078-44.205 46.986-44.205 25.907 0 46.985 19.83 46.986 44.206V83h-93.972z" fill="#A7B8D1"/><path d="M220.395 98.577l-.638-.002-.593.002c-19.866 0-43.69-2.878-45.452-10.989l-.014-.076-.856-5.579 2.486-.382.85 5.536c1.02 4.356 16.4 8.972 42.986 8.972l.593-.002.638.002c26.598 0 41.985-4.616 43.006-8.971l.84-5.535 2.486.378-.86 5.657c-1.763 8.111-25.597 10.989-45.472 10.989" fill="#A7B8D1"/><path d="M264.192 79.877c2.817 4.987-19.423 9.467-44.432 9.467-25.01 0-47.087-5.077-44.417-9.506 3.497-5.805 5.561-6.226 30.555-7.121 58.725-2.104 56.12 3.31 58.294 7.16" fill="#FFF"/><path d="M219.76 90.752c-23.375 0-47.04-4.248-47.04-11.257h2.516c0 1.502 3.26 3.76 12.45 5.765 8.572 1.87 19.963 2.861 32.074 2.861 12.112 0 23.502-.973 32.075-2.843 9.189-2.004 12.45-4.28 12.45-5.783h2.514c0 7.01-23.663 11.257-47.039 11.257m-44.835 8.966c0 1.326-1.073 2.4-2.397 2.4a2.398 2.398 0 0 1-2.397-2.4c0-1.326 1.073-2.4 2.397-2.4a2.398 2.398 0 0 1 2.397 2.4m47.674 4.8c0 1.326-1.074 2.4-2.397 2.4a2.399 2.399 0 0 1-2.398-2.4 2.399 2.399 0 0 1 4.794 0m46.792-4.8a2.398 2.398 0 0 1-4.794 0c0-1.326 1.072-2.4 2.396-2.4a2.398 2.398 0 0 1 2.397 2.4m-48.168-54.331c0 .85-3.447.85-3.447 0V22.04l3.447-.162v23.51z" fill="#A7B8D1"/><path d="M224.948 25.817a5.454 5.454 0 0 1-5.45 5.457 5.454 5.454 0 0 1-5.45-5.457 5.454 5.454 0 0 1 5.45-5.458c3.01 0 5.45 2.443 5.45 5.458" fill="#A7B8D1"/><mask id="c" fill="#fff"><use xlink:href="#b"/></mask><path fill="#A7B8D1" mask="url(#c)" d="M212.686 46.353h13.623v-1.417h-13.623z"/><path fill="#CFD7E6" mask="url(#c)" d="M217.774 15.95h3.447V2.31h-3.447zm9.971 4.409l-2.797-2.018 7.964-11.066 2.796 2.017zm-16.495 0l2.797-2.018-7.963-11.066-2.797 2.017z"/><path fill="#A7B8D1" mask="url(#c)" d="M292.183 253.65l-10.206-131.89 1.72-.133 10.206 131.89zm-144.761 0l-1.72-.133 10.206-131.89 1.72.133zm50.078-74.026h1.5v-33.543h-1.5zm20.5 22.53h1.5v-26.535H218zm0-39.051h1.5v-27.035H218zm-46.5 3.004h2v-33.043h-2zm71 13.517h1.5v-33.543h-1.5zm26-13.517h1.5v-33.043h-1.5zM185.126 78.24l-2.512-.122c.963-19.828 16.58-29.967 17.244-30.389l1.348 2.126c-.152.097-15.181 9.894-16.08 28.386"/><g mask="url(#c)" fill="#A7B8D1"><path d="M176.256 268.67v-13.713c0-3.523.285-9.047.475-12.57h-.38c-1.522 3.142-3.234 6.19-4.945 9.427l-11.033 16.856h15.883zm0 8.475H149.53v-7.428l23.967-37.52h13.03v36.473h7.608v8.475h-7.609v15.618h-10.271v-15.618zm54.779-14.951c0-17.14-4.185-22.569-10.081-22.569-5.802 0-10.082 5.428-10.082 22.57 0 17.14 4.28 23.14 10.082 23.14 5.896 0 10.08-6 10.08-23.14m-30.623 0c0-20.475 7.989-31.14 20.543-31.14 12.554 0 20.542 10.76 20.542 31.14 0 20.473-7.988 31.71-20.542 31.71-12.554 0-20.543-11.237-20.543-31.71m73.419 6.475v-13.713c0-3.523.285-9.047.476-12.57h-.38c-1.523 3.142-3.235 6.19-4.946 9.427l-11.033 16.856h15.883zm0 8.475h-26.725v-7.428l23.967-37.52h13.03v36.473h7.608v8.475h-7.61v15.618h-10.27v-15.618zm-118.091 28.13h18.447v4.594H161.17v7.83h11.002v4.593H161.17v9.048h13.484v4.594h-18.915zm34.973 14.345c4.167 0 6.461-1.781 6.461-5.25 0-3.516-2.294-4.735-6.46-4.735h-4.355v9.985h4.354zm-9.785-14.345h10.347c6.367 0 11.237 2.25 11.237 9.095 0 4.687-2.435 7.5-6.087 8.766l7.304 12.798h-6.087l-6.6-12h-4.683v12h-5.43v-30.659zm37.501 14.345c4.167 0 6.461-1.781 6.461-5.25 0-3.516-2.294-4.735-6.46-4.735h-4.355v9.985h4.354zm-9.785-14.345h10.347c6.367 0 11.237 2.25 11.237 9.095 0 4.687-2.434 7.5-6.087 8.766l7.305 12.798h-6.087l-6.601-12h-4.682v12h-5.431v-30.659zm47.521 15.189c0-6.844-3.09-11.017-7.912-11.017-4.823 0-7.913 4.173-7.913 11.017 0 6.891 3.09 11.298 7.913 11.298 4.822 0 7.912-4.407 7.912-11.298m-21.396 0c0-9.891 5.525-15.751 13.484-15.751 8.006 0 13.531 5.86 13.531 15.751 0 9.939-5.525 16.033-13.531 16.033-7.959 0-13.484-6.094-13.484-16.033m42.932-.844c4.167 0 6.461-1.781 6.461-5.25 0-3.516-2.294-4.735-6.46-4.735h-4.355v9.985h4.354zm-9.785-14.345h10.347c6.368 0 11.237 2.25 11.237 9.095 0 4.687-2.435 7.5-6.087 8.766l7.304 12.798h-6.086l-6.602-12h-4.682v12h-5.43v-30.659z"/></g><g mask="url(#c)" fill="#A7B8D1"><path d="M137.145 367.977h-4.857v-2.522h12.694v2.522h-4.857v14.305h-2.98zm10.381-3.86h2.955v4.683l-.103 2.444c1.054-1.003 2.313-1.903 4.034-1.903 2.698 0 3.88 1.826 3.88 5.016v7.925h-2.954v-7.539c0-2.084-.592-2.855-1.98-2.855-1.104 0-1.824.54-2.877 1.57v8.824h-2.955v-18.165zm14.338 18.165h2.955V369.65h-2.954v12.633zm-.334-16.518c0-1.003.771-1.698 1.824-1.698 1.054 0 1.825.695 1.825 1.698 0 .978-.771 1.673-1.825 1.673-1.053 0-1.824-.695-1.824-1.673zm5.807 15.077l1.388-1.904c1.13.875 2.21 1.416 3.495 1.416 1.361 0 2.004-.644 2.004-1.518 0-1.056-1.362-1.519-2.698-2.033-1.67-.618-3.546-1.57-3.546-3.68 0-2.212 1.773-3.781 4.6-3.781 1.747 0 3.16.72 4.188 1.517l-1.362 1.801c-.874-.643-1.773-1.08-2.775-1.08-1.259 0-1.85.592-1.85 1.39 0 1.002 1.258 1.388 2.62 1.877 1.722.644 3.624 1.467 3.624 3.834 0 2.161-1.722 3.911-4.908 3.911-1.722 0-3.546-.746-4.78-1.75m25.928-5.043c0-2.52-.822-4.013-2.724-4.013-.925 0-1.798.463-2.775 1.415v5.892c.925.772 1.799 1.055 2.544 1.055 1.67 0 2.955-1.492 2.955-4.349zm-8.454-6.149h2.441l.206 1.338h.103c1.053-.9 2.415-1.647 3.803-1.647 3.135 0 4.959 2.522 4.959 6.433 0 4.322-2.595 6.818-5.396 6.818-1.105 0-2.21-.515-3.238-1.39l.077 2.11v3.963h-2.955v-17.625zm20.943 9.237v-2.83c-3.444.437-4.574 1.338-4.574 2.599 0 1.131.77 1.62 1.824 1.62 1.028 0 1.799-.514 2.75-1.389m-7.427 0c0-2.702 2.236-4.117 7.427-4.683-.052-1.338-.591-2.47-2.313-2.47-1.233 0-2.415.566-3.546 1.235l-1.08-1.981c1.388-.874 3.187-1.647 5.191-1.647 3.135 0 4.703 1.93 4.703 5.455v7.487h-2.441l-.206-1.39h-.103c-1.13.953-2.415 1.699-3.906 1.699-2.21 0-3.726-1.492-3.726-3.705m20.66-5.017c0-1.57-.95-2.496-2.184-2.496-1.233 0-2.21.9-2.21 2.496 0 1.62.977 2.547 2.21 2.547 1.208 0 2.184-.926 2.184-2.547m1.542 10.034c0-.978-.797-1.26-2.235-1.26h-1.722c-.694 0-1.234-.052-1.722-.18-.668.514-.976 1.08-.976 1.671 0 1.133 1.233 1.802 3.238 1.802 2.03 0 3.417-.952 3.417-2.033m-9.122.669c0-1.055.642-1.981 1.799-2.701v-.103c-.643-.412-1.13-1.081-1.13-2.11 0-.978.667-1.827 1.387-2.341v-.103a4.268 4.268 0 0 1-1.645-3.345c0-2.908 2.339-4.529 4.985-4.529.694 0 1.336.13 1.85.309h4.523v2.187h-2.313c.411.489.72 1.26.72 2.136 0 2.804-2.107 4.296-4.78 4.296-.54 0-1.156-.102-1.721-.334-.386.334-.617.643-.617 1.209 0 .721.514 1.158 2.055 1.158h2.236c3.032 0 4.625.926 4.625 3.114 0 2.495-2.62 4.45-6.732 4.45-3.006 0-5.242-1.08-5.242-3.293m21.43-9.803c0-1.955-.848-3.138-2.57-3.138-1.49 0-2.774 1.105-3.031 3.138h5.601zm-8.454 1.21c0-4.117 2.853-6.639 5.807-6.639 3.418 0 5.217 2.47 5.217 5.995 0 .566-.051 1.132-.128 1.441h-8.018c.257 2.239 1.696 3.525 3.726 3.525 1.08 0 2.004-.334 2.93-.927l1.002 1.853c-1.208.798-2.724 1.364-4.317 1.364-3.495 0-6.219-2.444-6.219-6.612zm18.99 6.303h2.955V369.65h-2.956v12.633zm-.334-16.518c0-1.003.77-1.698 1.824-1.698 1.053 0 1.825.695 1.825 1.698 0 .978-.771 1.673-1.825 1.673-1.053 0-1.825-.695-1.825-1.673zm5.807 15.077l1.387-1.904c1.131.875 2.21 1.416 3.495 1.416 1.362 0 2.004-.644 2.004-1.518 0-1.056-1.362-1.519-2.698-2.033-1.67-.618-3.546-1.57-3.546-3.68 0-2.212 1.773-3.781 4.6-3.781 1.747 0 3.16.72 4.188 1.517l-1.362 1.801c-.873-.643-1.773-1.08-2.775-1.08-1.259 0-1.85.592-1.85 1.39 0 1.002 1.26 1.388 2.621 1.877 1.722.644 3.623 1.467 3.623 3.834 0 2.161-1.721 3.911-4.908 3.911-1.721 0-3.546-.746-4.78-1.75m17.475-1.801v-14.923h2.954v15.078c0 .72.334.978.643.978.129 0 .231 0 .463-.052l.385 2.213c-.36.154-.874.257-1.567.257-2.108 0-2.878-1.364-2.878-3.55m15.109-3.063c0-2.546-1.131-4.219-2.981-4.219-1.85 0-2.955 1.673-2.955 4.22 0 2.521 1.105 4.193 2.955 4.193s2.98-1.672 2.98-4.194m-8.967 0c0-4.219 2.852-6.638 5.987-6.638 3.16 0 6.013 2.419 6.013 6.638 0 4.194-2.852 6.613-6.013 6.613-3.135 0-5.987-2.419-5.987-6.613m13.568 4.863l1.387-1.904c1.131.875 2.21 1.416 3.495 1.416 1.362 0 2.005-.644 2.005-1.518 0-1.056-1.362-1.519-2.699-2.033-1.67-.618-3.546-1.57-3.546-3.68 0-2.212 1.773-3.781 4.6-3.781 1.747 0 3.16.72 4.188 1.517l-1.362 1.801c-.873-.643-1.773-1.08-2.775-1.08-1.259 0-1.85.592-1.85 1.39 0 1.002 1.259 1.388 2.621 1.877 1.721.644 3.623 1.467 3.623 3.834 0 2.161-1.722 3.911-4.908 3.911-1.721 0-3.546-.746-4.78-1.75m12.258-2.83v-6.02h-1.799v-2.214l1.953-.128.36-3.448h2.467v3.448h3.212v2.342h-3.212v6.02c0 1.492.565 2.213 1.773 2.213.437 0 .95-.129 1.31-.283l.514 2.187c-.694.232-1.567.463-2.57.463-2.929 0-4.008-1.853-4.008-4.58"/></g><path fill="#A7B8D1" mask="url(#c)" d="M10.5 47.454h34v-2.002h-34zm104 2.003h34v-1.502h-34z"/><path fill="#4D6892" mask="url(#c)" d="M43 54.463h52v-2.002H43z"/><path fill="#A7B8D1" mask="url(#c)" d="M132 42.448h14v-2.003h-14zm-118-.501h23.5v-2.003H14zm100.5.501H129v-2.003h-14.5z"/><path d="M114.723 41.48c-.642-8.013-6.76-14.054-14.229-14.054a13.485 13.485 0 0 0-8.403 2.9l-1.113.874-.266-1.392c-1.358-7.129-7.244-12.303-13.997-12.303-7.17 0-13.26 5.763-14.17 13.406l-.208 1.757-1.255-1.246a13.656 13.656 0 0 0-9.68-3.99c-7.47 0-13.587 6.039-14.23 14.048l-1.719-.138c.715-8.915 7.571-15.638 15.948-15.638 3.567 0 6.953 1.202 9.693 3.413 1.62-7.708 8.088-13.34 15.62-13.34 7.162 0 13.448 5.146 15.396 12.412a15.178 15.178 0 0 1 8.384-2.49c8.377 0 15.233 6.725 15.948 15.643l-1.72.138z" fill="#A7B8D1" mask="url(#c)"/><path fill="#CFD7E6" mask="url(#c)" d="M437 148.584h34v-2.002h-34zm-104.5 2.003h34v-2.003h-34z"/><path fill="#4D6892" mask="url(#c)" d="M402 155.594h52v-2.003h-52z"/><path fill="#CFD7E6" mask="url(#c)" d="M377.5 155.594h14v-2.003h-14zm67-12.517H467v-1.502h-22.5zm-92.5.501h14.5v-2.003H352z"/><path d="M443.848 142.522c-.642-8.009-6.76-14.048-14.229-14.048-3.65 0-7.089 1.417-9.68 3.99l-1.256 1.246-.209-1.757c-.935-7.87-6.325-16.366-13.401-16.366-6.786 0-13.392 8.058-14.765 15.264l-.265 1.392-1.114-.874a13.483 13.483 0 0 0-8.402-2.9c-7.47 0-13.587 6.04-14.23 14.053l-1.719-.138c.715-8.918 7.572-15.643 15.949-15.643 3.02 0 5.891.857 8.382 2.49 1.987-7.52 8.763-15.371 16.164-15.371 7.526 0 13.334 8.173 14.868 16.289a15.354 15.354 0 0 1 9.678-3.403c8.377 0 15.234 6.723 15.948 15.638l-1.719.138z" fill="#CFD7E6" mask="url(#c)"/><path fill="#A7B8D1" mask="url(#c)" d="M79 202.154h27v-1.502H79z"/><path fill="#4D6892" mask="url(#c)" d="M0 203.655h40.5v-2.002H0z"/><path fill="#A7B8D1" mask="url(#c)" d="M42 207.16h11v-1.502H42zm43-10.013h18v-1.502H85zm-73.5.501h12v-1.502h-12z"/><path d="M84.52 196.922c-.508-7.156-5.326-12.553-11.207-12.554-2.858 0-5.555 1.257-7.594 3.538l-1.088 1.218-.172-1.625c-.72-6.828-5.517-11.976-11.159-11.976-5.31 0-9.947 4.62-11.023 10.985l-.217 1.285-.976-.863c-1.899-1.68-4.175-2.567-6.584-2.567-5.88 0-10.698 5.4-11.208 12.559l-1.444-.103c.564-7.927 6.003-13.906 12.652-13.906 2.373 0 4.63.746 6.592 2.168 1.55-6.447 6.53-11.008 12.208-11.008 5.97 0 11.092 4.988 12.386 11.82 2.161-1.928 4.822-2.974 7.627-2.974 6.65 0 12.088 5.976 12.652 13.9l-1.444.103z" fill="#A7B8D1" mask="url(#c)"/><path d="M357.463 202.637c2.784 1.192 4.797 3.743 5.902 7.466.625-2.043 1.608-3.817 2.903-5.175a9.682 9.682 0 0 1 3.12-2.196 9.574 9.574 0 0 1-2.897-2.039c-1.406-1.434-2.467-3.336-3.126-5.535-1.12 3.558-3.174 6.164-5.902 7.48zm5.13 13.88l-.004-.115c-.188-4.85-1.637-12.806-9.09-12.806l-.168.001-.031-1.727c5.446-.107 9.093-5.139 9.293-12.82v-.002l1.724.044v.003c-.103 4.225 1.17 8.108 3.405 10.389 1.566 1.597 3.548 2.409 5.866 2.386l.01 1.727c-2.452.015-4.499.864-6.083 2.524-2.182 2.288-3.346 6.006-3.202 10.215l.004.116-1.723.065zM68.698 235.17c2.784 1.19 4.798 3.742 5.902 7.465.625-2.043 1.608-3.817 2.903-5.175a9.675 9.675 0 0 1 3.12-2.196 9.585 9.585 0 0 1-2.897-2.039c-1.406-1.434-2.466-3.336-3.125-5.534-1.122 3.557-3.175 6.164-5.903 7.478zm5.131 13.88a9.019 9.019 0 0 1-.004-.115c-.19-4.851-1.637-12.807-9.09-12.807l-.169.001-.03-1.727c5.446-.106 9.094-5.14 9.292-12.822l1.725.044v.002c-.104 4.225 1.169 8.11 3.404 10.39 1.553 1.583 3.506 2.386 5.806 2.386h.06l.011 1.727c-2.453.015-4.499.865-6.083 2.525-2.182 2.287-3.347 6.005-3.203 10.214l.005.117-1.724.064zm-.204-142.271c2.783 1.191 4.797 3.743 5.902 7.467.624-2.044 1.608-3.818 2.903-5.176a9.672 9.672 0 0 1 3.12-2.196 9.574 9.574 0 0 1-2.897-2.04c-1.406-1.432-2.467-3.335-3.126-5.534-1.121 3.558-3.175 6.165-5.902 7.479zm5.13 13.88a8.933 8.933 0 0 1-.004-.115c-.19-4.888-1.643-12.924-9.259-12.805l-.03-1.727c5.446-.107 9.093-5.138 9.293-12.819v-.002l1.724.043v.002c-.104 4.225 1.169 8.108 3.405 10.389 1.564 1.596 3.54 2.417 5.858 2.387h.008l.01 1.727h-.001c-2.452.015-4.499.865-6.082 2.524-2.182 2.288-3.346 6.006-3.202 10.215l.004.116-1.724.065z" fill="#4BA2F2" mask="url(#c)"/><path d="M318.692 52.501c-.242-6.853-2.614-13.87-10.138-13.749 6.123-.12 9.932-5.698 10.138-13.663-.17 6.886 3.136 13.706 10.139 13.663-7.182.043-10.417 6.753-10.139 13.75" fill="#FFF" mask="url(#c)"/><path d="M312.7 38.655c2.784 1.192 4.798 3.743 5.902 7.467.625-2.044 1.608-3.818 2.903-5.175a9.672 9.672 0 0 1 3.12-2.197 9.576 9.576 0 0 1-2.897-2.039c-1.406-1.433-2.467-3.335-3.125-5.534-1.122 3.557-3.175 6.164-5.903 7.478zm5.13 13.88l-.004-.114c-.188-4.852-1.637-12.807-9.09-12.807-.056 0-.112 0-.168.002l-.031-1.728c5.446-.106 9.094-5.14 9.293-12.822l1.724.045v.001c-.104 4.225 1.169 8.109 3.405 10.39 1.553 1.584 3.506 2.386 5.805 2.386.02 0 .06-.003.062 0l.01 1.728c-2.453.014-4.5.864-6.084 2.524-2.181 2.287-3.346 6.004-3.202 10.212l.004.119-1.723.065z" fill="#4BA2F2" mask="url(#c)"/><path d="M123.34 156.76a2.309 2.309 0 0 1-2.307 2.31 2.309 2.309 0 0 1-2.307-2.31 2.309 2.309 0 0 1 2.307-2.31 2.309 2.309 0 0 1 2.307 2.31" fill="#FBB326" mask="url(#c)"/><path d="M49.833 253.584a2.309 2.309 0 0 1-2.307 2.31 2.309 2.309 0 0 1-2.307-2.31 2.309 2.309 0 0 1 2.307-2.31 2.309 2.309 0 0 1 2.307 2.31M39.826 142.359a2.309 2.309 0 0 1-2.307 2.31 2.309 2.309 0 0 1-2.307-2.31 2.309 2.309 0 0 1 2.307-2.31 2.309 2.309 0 0 1 2.307 2.31M147.942 2.31a2.309 2.309 0 0 1-2.307 2.31 2.309 2.309 0 0 1-2.307-2.31A2.309 2.309 0 0 1 145.635 0a2.309 2.309 0 0 1 2.307 2.31" fill="#FFC857" opacity=".66" mask="url(#c)"/><path d="M423.755 65.796a2.309 2.309 0 0 1-2.307 2.31 2.309 2.309 0 0 1-2.307-2.31 2.309 2.309 0 0 1 2.307-2.31 2.309 2.309 0 0 1 2.307 2.31m-75.442 31.475a2.309 2.309 0 0 1-2.307 2.31 2.309 2.309 0 0 1-2.307-2.31 2.309 2.309 0 0 1 2.307-2.31 2.309 2.309 0 0 1 2.307 2.31" fill="#FBB326" mask="url(#c)"/><path d="M382.246 246.705a2.309 2.309 0 0 1-2.307 2.31 2.309 2.309 0 0 1-2.307-2.31 2.309 2.309 0 0 1 2.307-2.31 2.309 2.309 0 0 1 2.307 2.31" fill="#FFC857" opacity=".66" mask="url(#c)"/><path d="M278.863 33.952a2.309 2.309 0 0 1-2.307 2.31 2.309 2.309 0 0 1-2.307-2.31 2.309 2.309 0 0 1 2.307-2.31 2.309 2.309 0 0 1 2.307 2.31" fill="#FBB326" mask="url(#c)"/><path d="M336.407 188.13a2.309 2.309 0 0 1-2.307 2.31 2.309 2.309 0 0 1-2.307-2.31 2.309 2.309 0 0 1 2.307-2.31 2.309 2.309 0 0 1 2.307 2.31" fill="#FFC857" opacity=".66" mask="url(#c)"/></g><use stroke="#CFD7E6" mask="url(#d)" stroke-width="2" fill-opacity=".3" fill="#fff" xlink:href="#a"/></g></svg>