<svg viewBox="0 0 640 480" xmlns="http://www.w3.org/2000/svg"><g fill="none" fill-rule="evenodd"><g transform="translate(74 46)"><path d="M384.204 341.57H52.829c0-63.518 74.18-115.01 165.687-115.01 91.506 0 165.687 51.493 165.688 115.01z" fill="#E9EEF4"/><path d="M219.01 87.539c-.412 0-.559.005-1.188.008-.628-.003-.702-.008-1.115-.008-32.505 0-70.79 3.092-84.34 9.129l1.6 11.527c2.463 12.52 37.011 20.656 82.74 20.656.413 0 .487-.002 1.115-.003.63.001.776.003 1.189.003 45.728 0 80.313-8.137 82.776-20.656l1.582-11.527c-13.55-6.037-51.854-9.129-84.358-9.129" fill="#DEE5ED"/><path d="M217.82 127.524l1.19.004c22.243 0 42.592-1.987 57.3-5.595 14.486-3.555 23.068-8.51 24.173-13.958l1.44-10.485c-14.642-5.925-52.931-8.628-82.912-8.628-.216 0-.357.002-.537.003l-.644.006-.64-.006a32.732 32.732 0 0 0-.483-.003c-29.97 0-68.249 2.704-82.892 8.628l1.456 10.484c1.104 5.449 9.68 10.405 24.156 13.959 14.698 3.608 35.04 5.595 57.28 5.595l1.112-.004zm1.19 2.65l-1.19-.003-1.113.004c-22.77 0-42.795-1.961-57.91-5.672-15.788-3.876-24.823-9.427-26.126-16.052l-.013-.073-1.737-12.515.909-.404c14.257-6.35 53.992-9.244 84.877-9.244.223 0 .35.002.513.004l.61.005.616-.005c.19-.002.338-.004.565-.004 30.894 0 70.638 2.893 84.895 9.244l.908.404-1.73 12.588c-1.304 6.625-10.345 12.175-26.146 16.052-15.123 3.71-35.154 5.672-57.927 5.672z" fill="#A7B8D1"/><path d="M217.822 74.965c-47.156 0-85.655 9.248-85.655 20.656s38.5 20.656 85.655 20.656c47.156 0 85.656-9.248 85.656-20.656s-38.5-20.656-85.656-20.656" fill="#FFF"/><path d="M217.822 76.288c-22.722 0-44.102 2.136-60.202 6.013-15.11 3.64-24.132 8.62-24.132 13.32 0 4.7 9.021 9.68 24.132 13.32 16.1 3.878 37.48 6.013 60.202 6.013 22.723 0 44.103-2.135 60.203-6.013 15.11-3.64 24.132-8.62 24.132-13.32 0-4.7-9.022-9.68-24.132-13.32-16.1-3.877-37.48-6.013-60.203-6.013m0 41.312c-22.924 0-44.524-2.161-60.82-6.086-11.933-2.874-26.157-7.965-26.157-15.893 0-7.928 14.224-13.018 26.157-15.893 16.296-3.925 37.896-6.086 60.82-6.086 22.925 0 44.525 2.161 60.82 6.086 11.934 2.875 26.158 7.965 26.158 15.893 0 7.928-14.224 13.019-26.157 15.893-16.296 3.925-37.896 6.086-60.82 6.086" fill="#A7B8D1"/><path d="M265.128 86.898c0 5.73-20.274 10.374-45.284 10.374-25.01 0-45.284-4.645-45.284-10.374 0-5.73 6.344-7.303 31.338-8.198 58.726-2.103 59.23 2.468 59.23 8.198" fill="#DEE5ED"/><path d="M219.76 40.054c-24.073 0-43.739 18.022-44.45 40.429h88.901c-.713-22.407-20.379-40.429-44.451-40.429zm-46.986 42.947v-1.26c0-24.374 21.078-44.205 46.986-44.205 25.907 0 46.985 19.83 46.986 44.206V83h-93.972z" fill="#A7B8D1"/><path d="M220.395 98.577l-.638-.002-.593.002c-19.866 0-43.69-2.878-45.452-10.989l-.014-.076-.856-5.579 2.486-.382.85 5.536c1.02 4.356 16.4 8.972 42.986 8.972l.593-.002.638.002c26.598 0 41.985-4.616 43.006-8.971l.84-5.535 2.486.378-.86 5.657c-1.763 8.111-25.597 10.989-45.472 10.989" fill="#A7B8D1"/><path d="M264.192 79.877c2.817 4.987-19.423 9.467-44.432 9.467-25.01 0-47.087-5.077-44.417-9.506 3.497-5.805 5.561-6.226 30.555-7.121 58.725-2.104 56.12 3.31 58.294 7.16" fill="#FFF"/><path d="M219.76 90.752c-23.375 0-47.04-4.248-47.04-11.257h2.516c0 1.502 3.26 3.76 12.45 5.765 8.572 1.87 19.963 2.861 32.074 2.861 12.112 0 23.502-.973 32.075-2.843 9.189-2.004 12.45-4.28 12.45-5.783h2.514c0 7.01-23.663 11.257-47.039 11.257m-44.835 8.966c0 1.326-1.073 2.4-2.397 2.4a2.398 2.398 0 0 1-2.397-2.4c0-1.326 1.073-2.4 2.397-2.4a2.398 2.398 0 0 1 2.397 2.4m47.674 4.8c0 1.326-1.074 2.4-2.397 2.4a2.399 2.399 0 0 1-2.398-2.4 2.399 2.399 0 0 1 4.794 0m46.792-4.8a2.398 2.398 0 0 1-4.794 0c0-1.326 1.072-2.4 2.396-2.4a2.398 2.398 0 0 1 2.397 2.4m-48.168-54.331c0 .85-3.447.85-3.447 0V22.04l3.447-.162v23.51z" fill="#A7B8D1"/><path d="M224.948 25.817a5.454 5.454 0 0 1-5.45 5.457 5.454 5.454 0 0 1-5.45-5.457 5.454 5.454 0 0 1 5.45-5.458c3.01 0 5.45 2.443 5.45 5.458" fill="#A7B8D1"/><mask id="a" fill="#fff"><path d="M0 387.865h471V0H0z"/></mask><path fill="#A7B8D1" mask="url(#a)" d="M212.686 46.353h13.623v-1.417h-13.623z"/><path fill="#CFD7E6" mask="url(#a)" d="M217.774 15.95h3.447V2.31h-3.447zm9.971 4.409l-2.797-2.018 7.964-11.066 2.796 2.017zm-16.495 0l2.797-2.018-7.963-11.066-2.797 2.017z"/><path fill="#A7B8D1" mask="url(#a)" d="M292.183 253.65l-10.206-131.89 1.72-.133 10.206 131.89zm-144.761 0l-1.72-.133 10.206-131.89 1.72.133zm50.078-74.026h1.5v-33.543h-1.5zm20.5 22.53h1.5v-26.535H218zm0-39.051h1.5v-27.035H218zm-46.5 3.004h2v-33.043h-2zm71 13.517h1.5v-33.543h-1.5zm26-13.517h1.5v-33.043h-1.5zM185.126 78.24l-2.512-.122c.963-19.828 16.58-29.967 17.244-30.389l1.348 2.126c-.152.097-15.181 9.894-16.08 28.386"/><g mask="url(#a)" fill="#a2b6d3"><path d="M167.056 260.57l-5.92-1.52 2.96-29.07h29.87v6.85h-23.58l-1.76 15.9c2.853-1.687 6.093-2.53 9.72-2.53 5.313 0 9.533 1.757 12.66 5.27 3.12 3.507 4.68 8.25 4.68 14.23 0 6.007-1.62 10.74-4.86 14.2-3.247 3.453-7.78 5.18-13.6 5.18-5.147 0-9.35-1.427-12.61-4.28-3.253-2.86-5.107-6.81-5.56-11.85h7c.453 3.333 1.643 5.847 3.57 7.54 1.92 1.693 4.453 2.54 7.6 2.54 3.447 0 6.15-1.173 8.11-3.52 1.96-2.347 2.94-5.59 2.94-9.73 0-3.893-1.06-7.023-3.18-9.39-2.12-2.36-4.943-3.54-8.47-3.54-3.227 0-5.76.707-7.6 2.12l-1.97 1.6zm70.774-6.76v9.61c0 8.673-1.48 15.117-4.44 19.33-2.966 4.22-7.6 6.33-13.9 6.33-6.22 0-10.823-2.063-13.81-6.19-2.993-4.12-4.543-10.277-4.65-18.47v-9.89c0-8.573 1.484-14.94 4.45-19.1 2.96-4.167 7.604-6.25 13.93-6.25 6.274 0 10.894 2.01 13.86 6.03 2.96 4.013 4.48 10.213 4.56 18.6zm-7.41 11.61v-12.13c0-6.273-.88-10.847-2.64-13.72-1.76-2.867-4.55-4.3-8.37-4.3-3.786 0-6.55 1.427-8.29 4.28-1.733 2.86-2.626 7.253-2.68 13.18v11.85c0 6.3.914 10.95 2.74 13.95 1.834 3 4.604 4.5 8.31 4.5 3.66 0 6.377-1.413 8.15-4.24 1.774-2.827 2.7-7.283 2.78-13.37zm50.954-11.61v9.61c0 8.673-1.48 15.117-4.44 19.33-2.966 4.22-7.6 6.33-13.9 6.33-6.22 0-10.823-2.063-13.81-6.19-2.993-4.12-4.543-10.277-4.65-18.47v-9.89c0-8.573 1.484-14.94 4.45-19.1 2.96-4.167 7.604-6.25 13.93-6.25 6.274 0 10.894 2.01 13.86 6.03 2.96 4.013 4.48 10.213 4.56 18.6zm-7.41 11.61v-12.13c0-6.273-.88-10.847-2.64-13.72-1.76-2.867-4.55-4.3-8.37-4.3-3.786 0-6.55 1.427-8.29 4.28-1.733 2.86-2.626 7.253-2.68 13.18v11.85c0 6.3.914 10.95 2.74 13.95 1.834 3 4.604 4.5 8.31 4.5 3.66 0 6.377-1.413 8.15-4.24 1.774-2.827 2.7-7.283 2.78-13.37zm-95.716 52.747v3.07h-12.33v10.07h14.32v3.07h-18.07v-28.44h17.87v3.09h-14.12v9.14h12.33zm23.254 16.21l-6.17-11.5h-6.68v11.5h-3.77v-28.44h9.42c3.2 0 5.664.73 7.39 2.19 1.727 1.46 2.59 3.583 2.59 6.37 0 1.767-.48 3.31-1.44 4.63-.96 1.313-2.29 2.297-3.99 2.95l6.68 12.07v.23h-4.03zm-12.85-25.35v10.78h5.76c1.867 0 3.35-.483 4.45-1.45 1.1-.96 1.65-2.247 1.65-3.86 0-1.76-.526-3.11-1.58-4.05-1.046-.933-2.56-1.407-4.54-1.42h-5.74zm37.479 25.35l-6.17-11.5h-6.68v11.5h-3.77v-28.44h9.42c3.2 0 5.664.73 7.39 2.19 1.727 1.46 2.59 3.583 2.59 6.37 0 1.767-.48 3.31-1.44 4.63-.96 1.313-2.29 2.297-3.99 2.95l6.68 12.07v.23h-4.03zm-12.85-25.35v10.78h5.76c1.867 0 3.35-.483 4.45-1.45 1.1-.96 1.65-2.247 1.65-3.86 0-1.76-.526-3.11-1.58-4.05-1.046-.933-2.56-1.407-4.54-1.42h-5.74zm42.759 10.25v1.8c0 2.787-.47 5.217-1.41 7.29-.94 2.08-2.266 3.667-3.98 4.76-1.72 1.093-3.726 1.64-6.02 1.64-2.24 0-4.226-.55-5.96-1.65-1.733-1.1-3.076-2.67-4.03-4.71-.96-2.033-1.453-4.393-1.48-7.08v-2.05c0-2.733.477-5.147 1.43-7.24.954-2.1 2.297-3.707 4.03-4.82 1.74-1.113 3.73-1.67 5.97-1.67 2.28 0 4.29.55 6.03 1.65 1.734 1.1 3.07 2.697 4.01 4.79.94 2.087 1.41 4.517 1.41 7.29zm-3.73 2.07v-2.11c0-3.373-.68-5.96-2.04-7.76-1.353-1.807-3.246-2.71-5.68-2.71-2.366 0-4.233.903-5.6 2.71-1.36 1.8-2.056 4.303-2.09 7.51v2.09c0 3.267.687 5.833 2.06 7.7 1.374 1.873 3.264 2.81 5.67 2.81 2.42 0 4.294-.883 5.62-2.65 1.334-1.767 2.02-4.297 2.06-7.59zm25.95 13.03l-6.17-11.5h-6.68v11.5h-3.77v-28.44h9.42c3.2 0 5.664.73 7.39 2.19 1.727 1.46 2.59 3.583 2.59 6.37 0 1.767-.48 3.31-1.44 4.63-.96 1.313-2.29 2.297-3.99 2.95l6.68 12.07v.23h-4.03zm-12.85-25.35v10.78h5.76c1.867 0 3.35-.483 4.45-1.45 1.1-.96 1.65-2.247 1.65-3.86 0-1.76-.527-3.11-1.58-4.05-1.047-.933-2.56-1.407-4.54-1.42h-5.74z" style="white-space:pre"/></g><path fill="#A7B8D1" mask="url(#a)" d="M10.5 47.454h34v-2.002h-34zm104 2.003h34v-1.502h-34z"/><path fill="#4D6892" mask="url(#a)" d="M43 54.463h52v-2.002H43z"/><path fill="#A7B8D1" mask="url(#a)" d="M132 42.448h14v-2.003h-14zm-118-.501h23.5v-2.003H14zm100.5.501H129v-2.003h-14.5z"/><path d="M114.723 41.48c-.642-8.013-6.76-14.054-14.229-14.054a13.485 13.485 0 0 0-8.403 2.9l-1.113.874-.266-1.392c-1.358-7.129-7.244-12.303-13.997-12.303-7.17 0-13.26 5.763-14.17 13.406l-.208 1.757-1.255-1.246a13.656 13.656 0 0 0-9.68-3.99c-7.47 0-13.587 6.039-14.23 14.048l-1.719-.138c.715-8.915 7.571-15.638 15.948-15.638 3.567 0 6.953 1.202 9.693 3.413 1.62-7.708 8.088-13.34 15.62-13.34 7.162 0 13.448 5.146 15.396 12.412a15.178 15.178 0 0 1 8.384-2.49c8.377 0 15.233 6.725 15.948 15.643l-1.72.138z" fill="#A7B8D1" mask="url(#a)"/><path fill="#CFD7E6" mask="url(#a)" d="M437 148.584h34v-2.002h-34zm-104.5 2.003h34v-2.003h-34z"/><path fill="#4D6892" mask="url(#a)" d="M402 155.594h52v-2.003h-52z"/><path fill="#CFD7E6" mask="url(#a)" d="M377.5 155.594h14v-2.003h-14zm67-12.517H467v-1.502h-22.5zm-92.5.501h14.5v-2.003H352z"/><path d="M443.848 142.522c-.642-8.009-6.76-14.048-14.229-14.048-3.65 0-7.089 1.417-9.68 3.99l-1.256 1.246-.209-1.757c-.935-7.87-6.325-16.366-13.401-16.366-6.786 0-13.392 8.058-14.765 15.264l-.265 1.392-1.114-.874a13.483 13.483 0 0 0-8.402-2.9c-7.47 0-13.587 6.04-14.23 14.053l-1.719-.138c.715-8.918 7.572-15.643 15.949-15.643 3.02 0 5.891.857 8.382 2.49 1.987-7.52 8.763-15.371 16.164-15.371 7.526 0 13.334 8.173 14.868 16.289a15.354 15.354 0 0 1 9.678-3.403c8.377 0 15.234 6.723 15.948 15.638l-1.719.138z" fill="#CFD7E6" mask="url(#a)"/><path fill="#A7B8D1" mask="url(#a)" d="M79 202.154h27v-1.502H79z"/><path fill="#4D6892" mask="url(#a)" d="M0 203.655h40.5v-2.002H0z"/><path fill="#A7B8D1" mask="url(#a)" d="M42 207.16h11v-1.502H42zm43-10.013h18v-1.502H85zm-73.5.501h12v-1.502h-12z"/><path d="M84.52 196.922c-.508-7.156-5.326-12.553-11.207-12.554-2.858 0-5.555 1.257-7.594 3.538l-1.088 1.218-.172-1.625c-.72-6.828-5.517-11.976-11.159-11.976-5.31 0-9.947 4.62-11.023 10.985l-.217 1.285-.976-.863c-1.899-1.68-4.175-2.567-6.584-2.567-5.88 0-10.698 5.4-11.208 12.559l-1.444-.103c.564-7.927 6.003-13.906 12.652-13.906 2.373 0 4.63.746 6.592 2.168 1.55-6.447 6.53-11.008 12.208-11.008 5.97 0 11.092 4.988 12.386 11.82 2.161-1.928 4.822-2.974 7.627-2.974 6.65 0 12.088 5.976 12.652 13.9l-1.444.103z" fill="#A7B8D1" mask="url(#a)"/><path d="M357.463 202.637c2.784 1.192 4.797 3.743 5.902 7.466.625-2.043 1.608-3.817 2.903-5.175a9.682 9.682 0 0 1 3.12-2.196 9.574 9.574 0 0 1-2.897-2.039c-1.406-1.434-2.467-3.336-3.126-5.535-1.12 3.558-3.174 6.164-5.902 7.48zm5.13 13.88l-.004-.115c-.188-4.85-1.637-12.806-9.09-12.806l-.168.001-.031-1.727c5.446-.107 9.093-5.139 9.293-12.82v-.002l1.724.044v.003c-.103 4.225 1.17 8.108 3.405 10.389 1.566 1.597 3.548 2.409 5.866 2.386l.01 1.727c-2.452.015-4.499.864-6.083 2.524-2.182 2.288-3.346 6.006-3.202 10.215l.004.116-1.723.065zM68.698 235.17c2.784 1.19 4.798 3.742 5.902 7.465.625-2.043 1.608-3.817 2.903-5.175a9.675 9.675 0 0 1 3.12-2.196 9.585 9.585 0 0 1-2.897-2.039c-1.406-1.434-2.466-3.336-3.125-5.534-1.122 3.557-3.175 6.164-5.903 7.478zm5.131 13.88a9.019 9.019 0 0 1-.004-.115c-.19-4.851-1.637-12.807-9.09-12.807l-.169.001-.03-1.727c5.446-.106 9.094-5.14 9.292-12.822l1.725.044v.002c-.104 4.225 1.169 8.11 3.404 10.39 1.553 1.583 3.506 2.386 5.806 2.386h.06l.011 1.727c-2.453.015-4.499.865-6.083 2.525-2.182 2.287-3.347 6.005-3.203 10.214l.005.117-1.724.064zm-.204-142.271c2.783 1.191 4.797 3.743 5.902 7.467.624-2.044 1.608-3.818 2.903-5.176a9.672 9.672 0 0 1 3.12-2.196 9.574 9.574 0 0 1-2.897-2.04c-1.406-1.432-2.467-3.335-3.126-5.534-1.121 3.558-3.175 6.165-5.902 7.479zm5.13 13.88a8.933 8.933 0 0 1-.004-.115c-.19-4.888-1.643-12.924-9.259-12.805l-.03-1.727c5.446-.107 9.093-5.138 9.293-12.819v-.002l1.724.043v.002c-.104 4.225 1.169 8.108 3.405 10.389 1.564 1.596 3.54 2.417 5.858 2.387h.008l.01 1.727h-.001c-2.452.015-4.499.865-6.082 2.524-2.182 2.288-3.346 6.006-3.202 10.215l.004.116-1.724.065z" fill="#4BA2F2" mask="url(#a)"/><path d="M318.692 52.501c-.242-6.853-2.614-13.87-10.138-13.749 6.123-.12 9.932-5.698 10.138-13.663-.17 6.886 3.136 13.706 10.139 13.663-7.182.043-10.417 6.753-10.139 13.75" fill="#FFF" mask="url(#a)"/><path d="M312.7 38.655c2.784 1.192 4.798 3.743 5.902 7.467.625-2.044 1.608-3.818 2.903-5.175a9.672 9.672 0 0 1 3.12-2.197 9.576 9.576 0 0 1-2.897-2.039c-1.406-1.433-2.467-3.335-3.125-5.534-1.122 3.557-3.175 6.164-5.903 7.478zm5.13 13.88l-.004-.114c-.188-4.852-1.637-12.807-9.09-12.807-.056 0-.112 0-.168.002l-.031-1.728c5.446-.106 9.094-5.14 9.293-12.822l1.724.045v.001c-.104 4.225 1.169 8.109 3.405 10.39 1.553 1.584 3.506 2.386 5.805 2.386.02 0 .06-.003.062 0l.01 1.728c-2.453.014-4.5.864-6.084 2.524-2.181 2.287-3.346 6.004-3.202 10.212l.004.119-1.723.065z" fill="#4BA2F2" mask="url(#a)"/><path d="M123.34 156.76a2.309 2.309 0 0 1-2.307 2.31 2.309 2.309 0 0 1-2.307-2.31 2.309 2.309 0 0 1 2.307-2.31 2.309 2.309 0 0 1 2.307 2.31" fill="#FBB326" mask="url(#a)"/><path d="M49.833 253.584a2.309 2.309 0 0 1-2.307 2.31 2.309 2.309 0 0 1-2.307-2.31 2.309 2.309 0 0 1 2.307-2.31 2.309 2.309 0 0 1 2.307 2.31M39.826 142.359a2.309 2.309 0 0 1-2.307 2.31 2.309 2.309 0 0 1-2.307-2.31 2.309 2.309 0 0 1 2.307-2.31 2.309 2.309 0 0 1 2.307 2.31M147.942 2.31a2.309 2.309 0 0 1-2.307 2.31 2.309 2.309 0 0 1-2.307-2.31A2.309 2.309 0 0 1 145.635 0a2.309 2.309 0 0 1 2.307 2.31" fill="#FFC857" opacity=".66" mask="url(#a)"/><path d="M423.755 65.796a2.309 2.309 0 0 1-2.307 2.31 2.309 2.309 0 0 1-2.307-2.31 2.309 2.309 0 0 1 2.307-2.31 2.309 2.309 0 0 1 2.307 2.31m-75.442 31.475a2.309 2.309 0 0 1-2.307 2.31 2.309 2.309 0 0 1-2.307-2.31 2.309 2.309 0 0 1 2.307-2.31 2.309 2.309 0 0 1 2.307 2.31" fill="#FBB326" mask="url(#a)"/><path d="M382.246 246.705a2.309 2.309 0 0 1-2.307 2.31 2.309 2.309 0 0 1-2.307-2.31 2.309 2.309 0 0 1 2.307-2.31 2.309 2.309 0 0 1 2.307 2.31" fill="#FFC857" opacity=".66" mask="url(#a)"/><path d="M278.863 33.952a2.309 2.309 0 0 1-2.307 2.31 2.309 2.309 0 0 1-2.307-2.31 2.309 2.309 0 0 1 2.307-2.31 2.309 2.309 0 0 1 2.307 2.31" fill="#FBB326" mask="url(#a)"/><path d="M336.407 188.13a2.309 2.309 0 0 1-2.307 2.31 2.309 2.309 0 0 1-2.307-2.31 2.309 2.309 0 0 1 2.307-2.31 2.309 2.309 0 0 1 2.307 2.31" fill="#FFC857" opacity=".66" mask="url(#a)"/></g><rect x="-18" y="-21" width="671" height="511" rx="10"/></g></svg>