<svg xmlns="http://www.w3.org/2000/svg" viewBox="0 0 158 171.8"><path d="M70.8 66c12.3-5.1 20.9-17.4 20.9-31.7C91.8 15.4 76.6 0 58 0 39.3 0 24.1 15.4 24.1 34.3c0 10.3 4.5 19.5 11.6 25.8L17.9 72s35.7 3.1 52.9-6z" fill="#f11313"/><path d="M143.1 103.5c-17-6.1-40.7 5.7-40.7 5.7s18.3-24.5 17.9-60.7c-.2-26.5-9.6-35.1-16.8-41.5.6 3.6.9 7.3.9 11 0 38.4-23.8 64.2-62.1 64.2-15.9 0-30.5-.1-42.2-9 .2.6 1.9 7.9 8.7 15.5 3 3.4 7.1 6.8 12.4 9.7 17.2 9.3 30.4 10.4 31.7 10.5.1.1.1.3.2.4 0 19.1-13.4 46.4-32.4 46.4-2.9 0-5.7-.4-8.4-1-7.4-1.5-12-5.3-12-5.3s2.6 19.9 24 21.9c23.5 2.2 34.3-2.9 57.6-17.1 24.9-15.2 43.8-31.3 58.3-27.3 11 3 12.8 20.5 12.8 20.5s3.3-6.9 4.3-13c1-6.4 2.8-24.8-14.2-30.9z" fill="#2671b9"/><path d="M57.2 11.1c7.1 0 13.5 3.2 17.8 8.2l2.7-2.3c-5-5.7-12.4-9.4-20.5-9.4-5.7 0-11 1.8-15.4 4.8l2 2.9c3.8-2.6 8.4-4.2 13.4-4.2z" fill="#fff"/></svg>