<svg xmlns="http://www.w3.org/2000/svg" xmlns:xlink="http://www.w3.org/1999/xlink" width="222" height="129"><defs><path id="a" d="M22.479 9.485a8.049 8.049 0 0 0-.02-.48c-.25-3.49-.648-5.582-1.488-6.944.31-.142.7-.229 1.21-.229.465 0 1.029.072 1.722.238l-1.173 7.4-.251.015zM6.37 9.201C4.31 9.016 2.252 8.773.2 8.472c-.287-1.805 1.56-2.868 3.13-2.868.755 0 1.447.246 1.808.775C4.783 3.825 6.785.476 10.22.188c.125-.012.247-.022.366-.03-.678.34-1.303.766-1.597 1.181 0 0-3.146 5.761-2.62 7.862z"/><path id="b" d="M3.187 2.747c.274-.32.224-1.723.216-2.664H.201c.002.452.914 1.73.964 2.2 1.116.595 2.022.464 2.022.464z"/><path id="c" d="M11.183 1.122c-.691.438-2.03 1.258-3.562 2.271-1.878.87-1.384.273-3.312 3.02-.546.39-2.364 1.357-2.628 1.99C1.67 8.43.966 9.698.626 10.347c-1.424 2.516 2.281 5.332 5.123 2.517 1.9-3.548 7.576-7.32 7.614-7.707.165-1.595 1.657 5.024 2.116 7.746l3.49-1.565c-.354-.14-.944-14.664-7.786-10.217"/><path id="d" d="M30.61 12.069C19.103 9.525 18.19 9.862 15.31 9.33c-1.075-.2-13.138-1.545-13.786-1.651l1.394 6.268c7.781-.005 23.072-.326 27.64.208.313-.706.652-.337.052-2.086"/><path id="e" d="M.142.115C.049-.019 1.148 2.182 1.148 2.182s.146-.798.334-.901c.02-.015-.615-.128-1.34-1.166z"/><path id="g" d="M.766.82C.624.619.398.335.22.262.215.26.219.257.232.252.409.365.595.569.766.82"/><path id="i" d="M.577 2.028S.54 1.941.484 1.826c-.115-.242-.24-.44-.36-.55.052-.03.294-.12.538-.34C.755.876.815.834.827.828.83.826.824.811.812.783L.819.775c.123-.145.228-.47.277-.638L.577 2.028m.519-1.89l.029-.106s-.01.041-.029.105"/><path id="k" d="M.075.302C.15.218.225.124.299.018c.017.05.026.08.023.083C.303.111.213.188.075.302"/></defs><g fill="none" fill-rule="evenodd"><path fill="#EEA530" d="M71.65 57.505l.591.758c.765.985 1.557 2.003 2.397 2.984l.257-.221c-.835-.975-1.624-1.99-2.387-2.972l-.59-.76-.267.21m-5.211 2.214l-.178.94c-.232 1.229-.473 2.497-.652 3.779l.335.047c.179-1.273.418-2.538.65-3.761l.178-.943-.333-.062m8.714-9.114l.077.33.933-.218c1.21-.285 2.461-.58 3.724-.813l-.062-.334c-1.27.236-2.526.531-3.74.816l-.932.22m-31.22 67.208L24.205 89.492 54.1 42.444l.21.133-29.805 46.909 19.634 28.184-.205.143"/><path fill="#2879FF" d="M22.683 89.469c.08 1.354 1.167 2.346 2.302 2.294 1.135-.05 2.037-1.248 1.956-2.603-.08-1.353-1.113-2.352-2.248-2.3-1.135.051-2.09 1.255-2.01 2.609"/><path fill="#217BB3" d="M68.298 117.886l-28.322-.06-.532-2.44 28.834.051c.102 0 .02 2.45.02 2.45"/><path fill="#2879FF" d="M58.63 35.468l-6.065 6.359 8.705 22.365 15.896-18.195L58.63 35.468"/><path fill="#1056CA" d="M53.549 45.466c-2.44-2.219-3.432-7.123-1.64-9.527 2.16-2.901 6.24-1.915 9.931.164.138.077.27.158.402.24-3.35 2.987-5.64 5.925-8.693 9.123"/><path fill="#FFFFFE" d="M52.911 44.877l-.183-.17 8.422-9.111.183.17-8.422 9.111m7.462 16.929l-.188-.164 14.74-16.844.187.165-14.74 16.843"/><path fill="#1A4B76" d="M58.833 115.9c-.087-1.8.969-2.85 2.588-3.085 1.953-.285 3.601.445 4.226 2.677.023.083.043.165.062.248-2.446-.143-4.463.107-6.876.16"/><use fill="#78C2D0" opacity=".221" transform="translate(84.715 48.227)" xlink:href="#a"/><path d="M57.685 26.234c-.585-4.113 5.274-5.723 6.8-3.219-.488-3.929 2.271-9.08 7.003-9.524 8.936-.96 6.346 6.672 10.64 6.783 3.923-.085.998-6.604 9.92-3.338 2.137.73 3.22 3.475 4.73 6.868 3.056-3.868 4.93-1.35 5.492 2.43a137.83 137.83 0 0 1-44.585 0zm126.382 36.313c-.49-3.433 4.402-4.777 5.676-2.687-.408-3.279 1.895-7.579 5.845-7.95 7.46-.801 5.297 5.57 8.881 5.662 3.276-.07.834-5.512 8.282-2.786 1.783.609 2.687 2.9 3.947 5.733 2.552-3.229 4.117-1.126 4.585 2.028a115.052 115.052 0 0 1-37.216 0zM33.365 74.172c-.366-2.568 3.292-3.573 4.245-2.01-.305-2.452 1.418-5.668 4.372-5.946 5.579-.6 3.962 4.166 6.643 4.235 2.45-.053.623-4.123 6.194-2.084 1.333.455 2.01 2.17 2.952 4.288 1.909-2.415 3.079-.843 3.43 1.517a86.051 86.051 0 0 1-27.836 0zM21.511 41.485c-.282-1.985 2.546-2.763 3.283-1.554-.236-1.896 1.096-4.383 3.38-4.597 4.313-.464 3.063 3.22 5.136 3.274 1.894-.041.482-3.188 4.789-1.611 1.03.352 1.553 1.677 2.282 3.315 1.476-1.867 2.38-.651 2.651 1.173a66.53 66.53 0 0 1-21.52 0z" fill="#E7EEF9"/><path fill="#1A4B76" d="M149.4 99.592c-.42 3.28 1.368 7.311 7.869 8.109 7.446.128 10.202-4.544 9.98-8.109H149.4"/><path fill="#FFB839" d="M166.898 97.925V36.07h-17.193v61.854h17.193"/><path fill="#F7D0C2" d="M167.06 36.167l-8.759-16.016-8.759 16.016h17.519"/><path fill="#183F5C" d="M161.632 26.24l-3.33-6.09 3.33 6.09m-6.66 0h-.001l3.33-6.09-3.33 6.09"/><path fill="#2879FF" d="M161.632 26.24h-6.66l3.33-6.09 3.33 6.09"/><path fill="#FFFFFE" d="M161.959 97.925h.652V36.276h-.652zm-7.967 0h.652V36.276h-.652z"/><path fill="#187070" d="M167.6 99.738h-18.598V97.29h18.6l-.001 2.448"/><path fill="#289163" d="M201.05 87.946c-10.455-1.896-24.749 4.547-34.837 12.171-10.348 7.507-16.489 16.194-16.607 16.056a119.463 119.463 0 0 1 17.388 4.087c.32-3.607.55-7.235.692-10.88a129.578 129.578 0 0 1 10.416 6.09c2.346-1.16 4.75-2.26 7.21-3.294a128.953 128.953 0 0 0-3.772-6.63 138.786 138.786 0 0 1 8.009 5.265c-.255-.143 18.834-21.615 11.5-22.865"/><path fill="#187070" d="M167.753 98.986l.025-.05c2.683-1.916 5.595-3.745 8.684-5.327l-.012.033a74.38 74.38 0 0 0-8.697 5.344"/><path fill="#207F55" d="M155.419 117.234a120.448 120.448 0 0 0-4.566-.859 10.938 10.938 0 0 1-.091-.851c7.791-2.85 13.436-9.441 16.991-16.538a74.38 74.38 0 0 1 8.697-5.344c-1.331 3.594-3.776 7.534-6.961 11.408-4.783 5.772-9.96 10.145-14.07 12.184"/><path fill="#289163" d="M174.795 73.28a153.446 153.446 0 0 0-8.935 1.775c2.533.9 5.04 1.862 7.516 2.883.133-.027-.376 8.978-4.203 17.927-3.72 9.057-10.76 18.06-21.226 20.498-10.232 2.78-5.903-19.746-5.89-19.837 3.198.397 6.38.908 9.54 1.529.14-.09-9.207-7.11-8.6-9.147 1.532-4.443 8.072-13.63 15.223-21.107 6.99-7.573 14.59-13.434 14.54-13.436a241.692 241.692 0 0 1 2.035 18.914z"/><path fill="#FFF" d="M145.911 115.835l-.238-.097c2.05-5.031 3.895-10.449 5.849-16.184 4.76-13.977 9.683-28.43 18.26-39.335l.202.16c-8.55 10.87-13.465 25.302-18.219 39.258-1.955 5.74-3.801 11.16-5.854 16.198"/><path fill="#FFB839" d="M82.397 117.886l.143-25.936c.007-.976-.745-1.78-1.672-1.786l-26.214-.165c-.927-.006-2.068-.699-2.537-1.541l-.806-1.44c-.468-.842-1.61-1.535-2.534-1.54l-7.853-.05c-.926-.007-1.688.788-1.693 1.765l-.175 30.693h43.34"/><path fill="#F1F0ED" d="M44.805 109.615h31.06V93.472h-31.06z"/><path fill="#FC5D16" d="M54.334 103.119l-6.592.047v-6.784l6.404.424.188 6.313"/><path fill="#FFFFFE" d="M50.699 102.352a.72.72 0 0 1-.078-.004c-.639-.074-1.123-1.027-1.524-2.998l.252-.051c.455 2.236.96 2.753 1.301 2.792.838.099 1.943-2.289 2.915-4.396.249-.539.506-1.096.755-1.605l.231.113a80.523 80.523 0 0 0-.752 1.6c-1.079 2.338-2.1 4.55-3.1 4.55"/><path fill="#0A0B09" d="M58.95 96.827a.975.975 0 0 1-.155-.012c-.521-.08-.902-.332-1.129-.747-.833-1.522.618-4.819 1.238-6.226l.14-.321c.075-.177.156-.405.25-.67.515-1.457 1.38-3.897 3.4-3.244 2.224.717 1.92 2.192 1.653 3.495-.073.351-.141.683-.16.991l-.256-.015c.019-.326.089-.668.163-1.028.258-1.255.525-2.552-1.48-3.198-1.782-.573-2.562 1.628-3.078 3.086-.095.268-.177.5-.255.684l-.142.324c-.552 1.255-2.02 4.587-1.247 5.998.19.346.498.548.942.616.22.035.428-.028.633-.189 1.126-.884 1.668-4.32 1.768-5.455l.257.023c-.111 1.247-.662 4.69-1.866 5.635a1.085 1.085 0 0 1-.677.253"/><path fill="#F7F7F7" d="M147.07 117.886l11.278-70.358-13.56-5.426-12.203 75.784h14.485"/><path fill="#FFB839" d="M135.12 117.492l-.23-.049c4.228-20.039 7.306-44.662 10.283-64.476.454-3.021.907-6.04 1.365-9.059l.231.036c-.457 3.017-.91 6.037-1.365 9.058-2.977 19.816-6.055 44.443-10.285 64.49m2.958-.076l-.229-.047c3.659-17.447 6.36-39.51 8.974-56.847.757-5.023 1.54-10.217 2.336-15.33l.232.035a3225.951 3225.951 0 0 0-2.336 15.33c-2.614 17.34-5.317 39.406-8.977 56.859m2.337.084l-.23-.048c4.458-21.084 8.436-47.226 12.162-71.418l.231.036c-3.726 24.195-7.704 50.342-12.163 71.43m2.475-.06l-.229-.05c4.583-20.928 8.566-46.838 12.177-70.703l.232.035c-3.613 23.871-7.597 49.785-12.18 70.718m2.611-.013l-.229-.05c.132-.604.263-1.21.392-1.813 1.968-9.178 3.84-23.274 5.895-35.486 1.8-10.704 3.478-21.604 5.1-32.143l.231.036c-1.621 10.54-3.3 21.44-5.1 32.145-2.055 12.216-3.929 26.316-5.896 35.497-.13.605-.261 1.21-.393 1.814"/><path fill="#2879FF" d="M144.788 42.102l-34.415-2.881-12.467 78.665h35.464z"/><path fill="#1056CA" d="M125.079 117.886l2.19-51.73-10.582 51.73h8.392"/><path fill="#F7F7F7" d="M118.11 117.886l9.16-51.73-13.705-3.696-9.873 55.426h14.418"/><path fill="#FFB839" d="M106.342 117.426l-.227-.057c3.31-13.008 5.51-30.697 7.638-43.806.522-3.22 1.063-6.55 1.611-9.822l.232.04c-.549 3.27-1.09 6.6-1.612 9.82-2.128 13.113-4.329 30.808-7.642 43.825m2.905.077l-.228-.054c3.541-14.96 6.047-34.578 8.47-49.552l.53-3.268.232.038-.53 3.267c-2.425 14.978-4.931 34.6-8.474 49.57m2.35.001l-.228-.057c4.344-17.316 7.422-38.184 9.86-52.27l.231.04c-2.439 14.09-5.518 34.963-9.863 52.287m2.445.011l-.226-.059c3.74-14.233 6.435-32.969 9.04-47.09l.882-4.764.23.043-.88 4.763c-2.607 14.125-5.304 32.866-9.046 47.107m2.608-.074l-.226-.06c2.897-10.716 4.827-26.088 6.694-36.956.788-4.583 1.602-9.323 2.476-13.945l.23.044c-.874 4.62-1.688 9.358-2.475 13.94-1.868 10.874-3.8 26.251-6.699 36.977"/><path fill="#F57C02" d="M113.565 62.46l-34.482-1.367-9.92 56.793h35.285z"/><path fill="#FFFFFE" d="M79.484 82.491l3.06-11.372 22.056.87-1.146 13.17-23.97-2.668"/><path fill="#1A4B76" d="M83.182 71.99l-.305 1.132.227.061.256-.953.91.037.01-.234-1.098-.043zm2.267.09l-.008.233 1.17.046.009-.234-1.17-.046zm2.34.09l-.008.236 1.17.046.01-.235-.497-.02h-.007l-.667-.026zm2.342.093l-.01.234 1.171.047.009-.234-1.17-.047zm2.34.093l-.01.234 1.172.046.009-.234-1.17-.046zm2.34.092l-.009.234 1.17.047.01-.234-.566-.023h-.012l-.592-.024zm2.341.093l-.009.234 1.17.046.01-.235-1.17-.045zm2.342.091l-.01.235 1.17.046.01-.234-1.17-.047zm2.34.093l-.01.234 1.17.047.01-.234-.642-.026h-.002l-.527-.02zm1.573.543l-.101 1.17.233.019.073-.84v-.012l.028-.317-.233-.02zm-.203 2.337l-.102 1.168.233.021.102-1.169-.233-.02zM103 77.942l-.102 1.169.233.02.066-.759v-.007h.001v-.009l.035-.393-.233-.02zm-.204 2.338l-.102 1.168.233.02.03-.331v-.017l.001-.004.071-.817-.233-.02zm-.203 2.337l-.102 1.168.233.02v-.003l.001-.004v-.008l.001-.002v-.006l.1-1.144-.233-.021zm-1.791 1.16l-.026.234 1.164.13.026-.234-1.164-.13zm-2.328-.259l-.026.234.961.107h.01l.003.002h.017l.002.002h.006l.013.001.002.001.15.016.026-.233-1.164-.13zm-2.328-.259l-.026.233.674.076h.01l.006.001v.001l.474.052.026-.233-1.164-.13zm-2.329-.258l-.026.232 1.165.13.025-.233-1.164-.13zm-2.327-.26l-.027.233 1.165.13.026-.233-1.164-.13zm-2.33-.259l-.025.234.411.045h.004l.005.001.744.083.026-.233-1.164-.13zm-2.327-.259l-.026.234.368.04h.001l.038.004.006.001.003.001h.002l.017.002h.004l.726.08.025-.232-1.164-.13zm-2.328-.258l-.026.233 1.164.13.026-.235-1.164-.128zm-2.328-.26l-.026.234 1.164.129.026-.233-1.164-.13zm-1.433-.655l-.191.71.235.027.2.022.025-.234-.163-.018.12-.445-.226-.062zm.61-2.265l-.278 1.033v.001l-.002.004v.004l-.002.004-.001.004v.001l-.001.002v.002l-.002.003v.003l-.007.022a3.152 3.152 0 0 1-.012.05l.226.06.305-1.132-.226-.06zm.609-2.265l-.07.255v.004l-.005.017-.002.011v.002h-.001v.002l-.002.005v.002l-.003.01v.002l-.222.822.226.062.304-1.133-.225-.061zm.61-2.266l-.09.33-.001.005-.001.005-.002.006v.001l-.002.005v.004h-.001v.004l-.209.773.226.06.305-1.131-.226-.062z"/><path fill="#0A0B09" d="M125.327 47.695c-.051 0-.102-.004-.154-.012-.522-.08-.902-.332-1.129-.747-.833-1.522.617-4.818 1.237-6.225l.14-.322c.075-.177.156-.405.25-.67.516-1.457 1.379-3.895 3.4-3.244 2.224.716 1.92 2.192 1.653 3.494-.072.352-.14.684-.159.992l-.257-.015c.02-.327.09-.668.164-1.029.258-1.254.524-2.55-1.48-3.197-1.781-.575-2.563 1.628-3.079 3.086-.095.268-.177.5-.255.684-.036.086-.085.195-.141.325-.553 1.254-2.02 4.587-1.247 5.997.19.346.497.548.942.616.219.033.427-.028.633-.19 1.126-.884 1.667-4.32 1.768-5.454l.256.023c-.11 1.247-.661 4.69-1.866 5.635a1.083 1.083 0 0 1-.676.253"/><path fill="#EEA530" d="M129.548 79.665c.742-6.37-1.85-9.797-8.213-10.996l-.075.176c6.186 1.167 8.732 4.594 8.01 10.787l.278.033"/><path fill="#FFB839" d="M130.372 87.48c.05 2.09-.432 1.351-.607-.133-.077-.655-1.08.85-1.08.85-1.031.09-.441-1.991-.81-1.72-.81 2.264-1.106 1.177-1.094.553.873-4.9 3.674-14.588 3.591.45"/><path fill="#78C2D0" d="M92.616.797a25.846 25.846 0 0 0-2.3-.11l.001-.259c.761.002 1.543.04 2.323.112l-.024.257zm-6.885.317L85.685.86c.37-.068.74-.129 1.099-.181.398-.06.804-.108 1.206-.146l.024.257c-.398.037-.8.086-1.193.144-.356.052-.723.113-1.09.18zm11.42.479a30.523 30.523 0 0 0-2.252-.488l.045-.254a30.39 30.39 0 0 1 2.271.492l-.064.25zm-15.9.646l-.079-.245a35.449 35.449 0 0 1 2.238-.64l.063.25c-.748.187-1.495.401-2.222.635zm-11.882.674a18.03 18.03 0 0 0-2.297-.118l-.003-.258c.782-.01 1.568.031 2.33.12l-.03.256zm32.161.127a36.12 36.12 0 0 0-2.166-.797l.081-.245c.723.24 1.457.51 2.182.803l-.097.239zm-39.018.346l-.06-.25a23.155 23.155 0 0 1 2.292-.426l.034.255c-.748.1-1.51.242-2.266.421zm14.454.574l-.114-.232a30.09 30.09 0 0 1 2.13-.946l.095.24c-.728.29-1.438.606-2.11.938zm-3.172.136a14.043 14.043 0 0 0-2.165-.76l.065-.249c.774.204 1.516.465 2.206.774l-.106.235zm67.142.354a24.363 24.363 0 0 0-2.301-.12l.001-.257c.77.003 1.552.044 2.326.12l-.026.257zm-6.883.313l-.05-.253a23.187 23.187 0 0 1 2.306-.333l.024.256c-.765.072-1.532.183-2.28.33zm-75.904.103l-.104-.236c.71-.315 1.44-.601 2.17-.849l.082.245c-.721.245-1.444.527-2.148.84zm47.557.155a41.696 41.696 0 0 0-2.06-1.051l.11-.233c.69.327 1.387.683 2.073 1.057l-.123.227zm39.752.307a25.22 25.22 0 0 0-2.241-.543l.05-.253c.758.148 1.52.332 2.263.549l-.072.247zm-15.805.782l-.1-.238c.714-.302 1.45-.57 2.19-.796l.075.247c-.73.223-1.46.488-2.165.787zm-56.609.26l-.157-.205c.593-.457 1.24-.9 1.923-1.317l.134.22a21.45 21.45 0 0 0-1.9 1.302zm4.44.383a9.98 9.98 0 0 0-1.7-1.524l.15-.21c.65.463 1.236.989 1.742 1.563l-.193.17zm72.258.267a24.437 24.437 0 0 0-2.102-.946l.094-.24c.725.286 1.44.608 2.125.956l-.117.23zm-95.623.085l-.145-.214A26.068 26.068 0 0 1 55.96 5.67l.125.226c-.672.373-1.333.78-1.965 1.209zm55.526.342a46.107 46.107 0 0 0-1.938-1.264l.135-.22c.654.403 1.31.831 1.949 1.272l-.146.212zm16.13 1.089l-.17-.194a14.765 14.765 0 0 1 1.873-1.397l.137.219c-.639.4-1.258.862-1.84 1.372zm27.834.98a20.712 20.712 0 0 0-1.867-1.35l.14-.217c.665.429 1.301.888 1.89 1.368l-.163.2zm-83.775.125l-.21-.15c.436-.614.944-1.214 1.51-1.785l.182.182a14.09 14.09 0 0 0-1.482 1.753zm-19.262.401l-.183-.181a23.504 23.504 0 0 1 1.721-1.572l.164.2a23.265 23.265 0 0 0-1.702 1.553zm62.748.217a46.545 46.545 0 0 0-1.803-1.452l.157-.205c.614.47 1.223.961 1.812 1.46l-.166.197zm-33.75.514a8.09 8.09 0 0 0-.158-.578 9.793 9.793 0 0 0-.64-1.56L79 8.518c.261.504.482 1.043.658 1.6.06.195.116.395.163.598l-.251.058zm43.216 1.244l-.216-.141a18.24 18.24 0 0 1 1.397-1.871l.196.168c-.487.57-.95 1.19-1.377 1.844zm33.957.847a14.49 14.49 0 0 0-1.445-1.785l.187-.177c.555.587 1.05 1.198 1.471 1.817l-.213.145zm-40.05.562a44.029 44.029 0 0 0-1.645-1.627l.176-.188a44.138 44.138 0 0 1 1.655 1.636l-.185.179zm-68.983.216l-.219-.136a19.85 19.85 0 0 1 1.347-1.905l.201.161c-.484.608-.931 1.24-1.329 1.88zm20.264.153l-.252-.053a11.2 11.2 0 0 1 .734-2.225l.235.107a10.936 10.936 0 0 0-.717 2.171zm11.812 1.58l-.251-.058a10.63 10.63 0 0 0 .275-2.273l.257.004c-.01.78-.104 1.563-.281 2.328zm40.933.755l-.241-.09c.276-.735.59-1.455.932-2.14l.23.116a22.203 22.203 0 0 0-.92 2.114zm-1.026.817a35.64 35.64 0 0 0-1.446-1.806l.195-.168a36.27 36.27 0 0 1 1.457 1.82l-.206.154zm38.746.123a8.575 8.575 0 0 0-.598-2.197l.238-.1c.313.755.52 1.517.616 2.264l-.256.033zm-112.623.752l-.247-.073c.218-.737.494-1.472.82-2.187l.234.107a16.546 16.546 0 0 0-.807 2.153zm22.166.568a7.687 7.687 0 0 1-.452-2.308l.257-.012c.038.798.185 1.549.437 2.23l-.242.09zm9.712 1.148l-.19-.174a8.233 8.233 0 0 0 1.268-1.89l.231.114a8.497 8.497 0 0 1-1.309 1.95zm41.84 1.048l-.254-.042c.122-.759.286-1.527.487-2.282l.249.066a23.179 23.179 0 0 0-.483 2.258zm2.62.266a24.23 24.23 0 0 0-1.147-2.004l.218-.138c.433.683.823 1.364 1.159 2.025l-.23.117zm-50.894.728a4.537 4.537 0 0 1-2.034-1.189l.183-.182a4.28 4.28 0 0 0 1.92 1.123l-.069.248zm2.349.124l-.035-.256c.145-.02.293-.044.444-.074a6.148 6.148 0 0 0 1.71-.608l.12.227a6.399 6.399 0 0 1-1.78.634 9.16 9.16 0 0 1-.459.077zm-28.698.658v-.105c0-.743.052-1.491.158-2.226l.254.037a15.52 15.52 0 0 0-.155 2.19v.102l-.257.002zm78.715 2.825a11.574 11.574 0 0 0-.558-2.221l.242-.086c.28.794.471 1.558.571 2.271l-.255.036zm-4.556.017a15.81 15.81 0 0 1-.061-1.42c0-.3.008-.61.023-.917l.257.013c-.015.303-.023.607-.023.903 0 .481.02.952.06 1.398l-.256.023zm1.633 4.342c-.5-.454-.9-1.14-1.19-2.038l.245-.08c.275.856.652 1.504 1.118 1.926l-.173.192zm2.147.095l-.197-.166a4.46 4.46 0 0 0 .943-2.022l.253.05a4.719 4.719 0 0 1-.999 2.138z"/><path fill="#FFB839" d="M13.497 43.381l-.169-1.164c-.222-1.51-.45-3.072-.604-4.645l.413-.04c.152 1.563.38 3.12.6 4.625l.17 1.165-.41.06m-6.359 2.737l-.98-.64c-1.28-.832-2.602-1.693-3.884-2.618l.242-.337c1.273.919 2.592 1.778 3.867 2.607l.981.64-.226.348M.08 53.666l-.077-.407c1.54-.288 3.064-.65 4.54-1.001l1.153-.272.095.403-1.153.273c-1.48.351-3.01.715-4.558 1.004m22.467-7.547l-.227-.348.982-.64c1.274-.83 2.593-1.688 3.867-2.607l.243.337c-1.283.925-2.605 1.786-3.884 2.618l-.981.64m7.058 7.547c-1.548-.29-3.078-.653-4.558-1.004l-1.153-.273.094-.403 1.154.272c1.476.35 3.001.713 4.54 1l-.077.408"/><path fill="#1056CA" d="M13.153 68.605c.006.09.509 1.236.516 1.327h2.497c-.01-.09.376-1.237.366-1.327h-3.38"/><path fill="#FFB839" d="M11.659 60.769c.252.633.486 3.762.711 4.404h5.31c.247-.645.502-3.776.777-4.41.604-.873 3.386-4.115 4.328-7.152 1.27-3.812-2.286-9.194-7.798-9.2-5.494-.05-9.37 4.958-8.104 8.782.95 3.172 3.6 6.153 4.776 7.576"/><path fill="#FFF" d="M15.42 49.657a.166.166 0 0 0-.08.031c-.255.174-.528.855-.334 1.825.044.218.091.425.142.62.129-.436.251-.958.362-1.583.106-.6.005-.842-.063-.887l-.026-.006zm-4.105 1.186c-.084.113-.027.707.391 1.559.242.493.586 1.02.97 1.382a49.457 49.457 0 0 0-.253-1.48l-.005-.023c-.077-.41-.26-1.37-.66-1.535-.125-.05-.269-.018-.443.097zm6.98.466c-.09.051-.262.35-.347.496l-.063.109c-.302.515-.568 1.212-.794 2.022.094-.08.19-.176.29-.29.448-.515 1.164-1.682.996-2.172a.481.481 0 0 0-.081-.165zm-2.303 13.453c-.403-2.216-.206-6.876.598-10.23a.888.888 0 0 1-.325-.025c-.504-.134-.872-.707-1.134-1.36-.379.856-.842 1.327-1.384 1.404a1.221 1.221 0 0 1-.633-.086c.477 3.206.992 7.862.861 10.277l-.329-.019c.124-2.287-.383-7.094-.894-10.457-.54-.375-1.014-1.052-1.342-1.718-.345-.705-.636-1.638-.318-1.948l.022-.018c.275-.19.534-.237.768-.14.567.233.757 1.238.86 1.778l.004.023c.094.494.2 1.118.308 1.828.212.123.432.184.647.153.37-.052.84-.397 1.265-1.538a10.47 10.47 0 0 1-.283-1.108c-.212-1.064.077-1.893.472-2.162.16-.11.332-.12.471-.03.246.16.32.594.209 1.222-.146.82-.32 1.513-.523 2.08.29.859.655 1.399 1.038 1.5a.59.59 0 0 0 .329-.01c.253-.972.56-1.816.922-2.432l.062-.106c.205-.355.398-.692.668-.665.23.022.326.3.357.391.261.762-.77 2.164-1.06 2.497-.225.259-.447.443-.664.553-.818 3.291-1.052 8.065-.647 10.286l-.325.06z"/><path fill="#2879FF" d="M11.463 64.461l.64.702c-.6-.057-.631.904.127.95-.773-.03-.805.96-.05.971-.755-.04-.785 1.075-.074 1.138l-.476.518c.977.46 6.38.43 6.493-.049l-.43-.511c.758-.068.556-1.074-.076-1.027.849-.094.525-1.1-.004-1.032.714-.131.497-.86.091-.948l.518-.712h-6.76"/><path fill="#289163" d="M15.305 27.626H49.07v-5.848H15.305z"/><path fill="#FFFFFE" d="M16.396 26.426c1.851.006 21.807.068 25.721.151l.005.152v-.152a.163.163 0 0 0 .136-.07c.348-.448.032-2.449-.264-3.684-.831-.029-6.071-.201-12.293-.201-5.347 0-9.942.124-13.662.368l.357 3.436zm25.726.455h-.012c-4.081-.087-25.633-.151-25.85-.152h-.137l-.418-4.02.157-.01c3.754-.253 8.41-.38 13.84-.38 6.759 0 12.362.203 12.417.205l.114.004.028.11c.084.34.804 3.327.235 4.056a.462.462 0 0 1-.374.187zm3.384-1.972a.662.662 0 1 1-.778-1.074.663.663 0 0 1 .778 1.074zm.358-1.08a.923.923 0 1 0-1.494 1.086c.28.385.867.512 1.27.281l.867 1.216.211-.154-.962-1.149c.305-.316.375-.912.108-1.28z"/><path fill="#CDE0FF" d="M92.948 29.05c.034 0 0 .087 0 .087 1.512-.617 11.935-1.025 12.267 1.282.535 3.723 1.077 6.316-1.744 7.433-1.813.718-5.798.528-8.363.288l-2.056 1.533.048-1.763a6.316 6.316 0 0 1-.254-.042c-2.803-.535-4.392-8.884.102-8.818"/><path fill="#000" d="M106.584 61.004c0 1.083-.876 1.96-1.957 1.96h-9.275a1.958 1.958 0 0 1-1.956-1.96c0-1.08.875-1.958 1.956-1.958h9.275c1.081 0 1.957.877 1.957 1.958"/><path fill="#289163" d="M100.251 64.221l.954-.217.587-.125c.476.233 1.194-.144 1.704-.126.502.018.322-.142.896-.113.11.007.464.562.426.665-.149.419-.72.533-1.065.617-.342.083-1.063.158-1.41.21-.785.115-1.214.021-1.28.207-.046.126-.867.213-.87.006-.01-.531.082-.856.058-1.124"/><path fill="#1F1F1F" d="M102.509 65.503s-1.62.32-2.365.132c-1.814-.459-5.286-1.38-7.72-2.296-1.867-.704-2.679-1.778-2.679-1.778a1.58 1.58 0 0 1 1.36-2.852s8.294 2.812 11.611 4.371c.714.336-.207 2.423-.207 2.423"/><path fill="#289163" d="M98.778 64.215l-.952-.22-.587-.123c-.475.232-1.906-.141-2.48-.112-.111.006-.583.434-.548.537.15.419.722.533 1.068.617.34.082 1.061.157 1.41.21.784.117 1.213.022 1.279.21.045.123.867.211.87.003.012-.531-.083-.855-.06-1.122"/><path fill="#393636" d="M96.952 65.503s3.319.223 4.471-.192c3.102-1.12 7.243-3.025 7.243-3.025.787-.376 1.96-1.806 1.582-2.595-.374-.788-1.906-1.345-2.694-.969 0 0-2.461 1.107-5.29 2.32-2.374 1.198-2.46 1.116-5.056 2.67l-.256 1.79"/><path fill="#289163" d="M105.08 59.655c.128-.027.3-.013.488.001.75.057 1.785.113 1.605-2.425-.406-5.685-1.207-7.663-3.674-8.814-.557-.26-2.252-.632-2.4-.695-.085-.04-.833-.009-1.6.022-.811.033-1.644.066-1.732.015-.571-.322-3.333.778-4.062 1.807 0 0-3.439 6.296-2.526 8.124.46.92-.601 2.318 3.163 1.673.122-.021 1.187.082 2.745.185 2.125.14 5.168.282 7.992.107"/><path fill="#0A0B09" d="M101.04 43.435c.153-.466.045-1.119-.783-1.327-.311-.08-.553-.15-.843-.063-.391-.615-1.646.396-1.7.422-1.48.696-.48 1.521-.513 2.026-.033.54.372-.337.49-.448 0 0-.105-.122.05-.337.175-.244.607-.362.537.282-.02.16.625-.94.763-1.036l.04-.038.036-.03c.516-.377.98 1.06 1.459.983.158-.026.367-.135.464-.434"/><path fill="#CC7545" d="M97.77 47.19c.07.259-.003.57-.003.57-.015 1.104.708 1.726 1.552 1.726.842 0 1.552-.58 1.632-1.42l.057-1.427s-3.414-.085-3.239.552"/><use fill="#C25F37" transform="translate(97.59 45.905)" xlink:href="#b"/><path fill="#CC7545" d="M101.015 45.447c-.002-.422.103-1.332.02-1.678h-3.59c-.086.357-.134 1.21-.134 1.617v.006c-.156-.049-.274-.272-.289-.018-.042.747.12 1.038.283 1.038.031 0 .06-.006.087-.015.214 1.251.841 2.153 1.838 2.157l.009.002c1.057 0 1.651-.897 1.85-2.144.154-.003.242-.003.306-.84.044-.577-.25-.21-.38-.125"/><path fill="#813B08" d="M96.936 43.942c-.146.178.23.74.3 1.367.014.138.109.352.151.392-.02-.182.043 1.162.106-.973-.036-.302.277-.7.576-.762.21-.043 1.13.213 1.343.213.369.002.694-.325 1.034-.19.113.046.507.127.464.866.008.075.048.758.016.926.017-.037.049-.282.09-.334.062-.079.137-.046.151-.105.054-.221.622-1.993-.024-2.303-.908-1.268-2.896-.39-3.122-.338-.822.19-.599.645-1.085 1.24"/><path fill="#C8292B" d="M95.366 56.968c-.857 0-2.484-.447-2.558-.474l.059-.005c.841.073 1.167.268 2.412.342l.087.137m8.201.529c.045-.023 1.077-.451 1.692-.556l-.022.08c-.87.191-1.044.331-1.626.47l-.044.006"/><path fill="#FFFFFE" d="M93.486 59.302a.395.395 0 0 0 .376.515h10.87a.395.395 0 0 0 .376-.515H93.486"/><path fill="#CDE0FF" d="M104.278 52.834h-9.962c-.28 0-.509.23-.509.51v5.468c0 .282.229.511.51.511h9.96c.28 0 .51-.23.51-.51v-5.468a.512.512 0 0 0-.51-.511"/><path fill="#DA912F" d="M102.973 121.138c.378-.152 8.32-3.712 8.32-3.712l3.11 1.734 2.54 3.665-1.683.434-1.112.455-11.175-2.576"/><path fill="#2879FF" d="M106.874 111.317c.023-.36.08-.692.183-.987.504-1.434 3.398-2.196 3.547-2.268.18-.088 3.287-.196 3.492-.176 1.493.151 3.37 1.232 4.156 1.884 1.002.833.722 1.382.968 2.878 0 0-.524.794-1.21 1.972-.61 2.595-1.378 5.965-.607 6.601.176.146-.57.213-1.68.23-.238.177-.549.262-.94.21l.004-.037c-.425.103-2.19.015-3.646-.266-1.2-.057-2.096-.128-2.12-.181-.16-.342-.303-.663-.442-.965-1.19-.749-2.537-1.715-2.848-2.492-.419-1.04.553-4.506 1.143-6.403"/><path fill="#222C53" d="M108.968 115.191l-.103-.134c.372-1.244.298-1.63.528-2.48l.026-.055c-.001.082-.146 1.832-.451 2.67"/><path fill="#DA912F" d="M114.351 119.16s1.427-4.57 2.237-6.431c1.871-4.306 3.162.59 3.162.59s-.971 6.225-1.265 8.305c-.658 4.66-4.134-2.464-4.134-2.464"/><path fill="#2879FF" d="M112.714 120.314l1.907-3.04s1.522-2.918 1.471-3.624c-.331-4.556 2.238-3.925 2.614-2.815 1.13 3.342-1.08 7.143-1.892 8.636-.697 1.282-.839 1.292-1.814 1.742-.418-.352-1.849-.573-2.286-.9"/><path fill="#222C53" d="M116.456 115.467l-.139-.097c-.025-1.297-.213-1.643-.254-2.522l.008-.061c.025.079.42 1.79.385 2.68"/><path fill="#F7D0C2" d="M112.177 102.154c.505.139 1.356.81 2.6 1.307.086.044-.248.713-.46 1.243-.01.072-.3.331-.117.195.757-.526.99.298.756.656-.338.518-.708.604-.747.657-.095.136.387-.094.516.13l-.144 1.624s.305 2.199-1.88 1.776c-1.52-.295-1.156-1.29-1.156-1.29s.48-1.49.263-1.53c-1.132-.208-.14-1.682-.388-1.763-.707-.229.136-.3.315-1.202.035-.178.389-1.816.442-1.803"/><path fill="#0A0B09" d="M115.988 103.455c-.75-.552-.196-.376-1.14-1.396-.47-.508-.867-.68-1.21-.64a.97.97 0 0 0-1.768.275c-.126.52-.48 1.555.039 1.68a.914.914 0 0 0 .277.024c.443.08 1.555-.25 2.365.128-.027.238-.286 1.321-.658 1.539-.01.07.056.11.24-.027.756-.528.959.19.678.513-.28.323-.66.058-.692.187-.057.224.09.792.22.999.228.36.325.404.464-.08.2-.694 2.387-2.32 1.185-3.202"/><path fill="#0A0B09" d="M112.724 105.262c-.327.063-.697.442-1.228.114-.043-.027-.278.535-.446 1.083-.103.339-.51.636-.548.963-.056.485.257.729.574.717.262-.01.488.108.892-.079.291-.134.729-.223 1.01-.559.212-.253.45-.631.62-1.045.106-.257-.019-.814.768-1.74-.691.588-1.265.476-1.642.546"/><path fill="#FFFFFE" d="M111.45 105.757l.516.125-.574.036z"/><path fill="#F7D0C2" d="M115.177 122.252c1.363-.009 1.973-.566 2.603-.158.294.192.793 1.186.417 1.668-.429.55-1.796.459-2.924.635l-.096-2.145"/><path fill="#0A0B09" d="M116.436 123.191c-.22-1.243.476-.991.842-1.215.515-.315.976-.214.976-.214.882-.276 1.2-.597 1.415.072.08.252.035 1.014.17 1.43.423 1.304-.786 1.358-2.487.896 0 0-.793.305-.916-.969"/><path fill="#723F68" d="M120.44 123.276c-.035-.774-.26-2.055-.867-2.078l-.188.311c.291.38.426 1.334.383 1.661-.033.23.018 1.047-.204 1.21 0 0 .149.21.25.137.44-.323.631-1.118.626-1.241"/><path fill="#FFB839" d="M116.285 124.698c-2.323-.271-9.069-.116-11.88-.732-1.04-.23-1.332-.233-1.582-.44-1.511-1.253.265-4.029 4.158-3.373 2.608.44 9.086 1.236 9.68 1.526l-.376 3.02"/><path fill="#1A4B76" d="M117.033 121.156a.371.371 0 0 1-.362.477l-10.207-.196a.37.37 0 0 1-.344-.489l10.913.208"/><path fill="#FFFFFE" d="M106.61 115.692l-.097 5.047a.473.473 0 0 0 .462.48l9.192.174a.47.47 0 0 0 .48-.461l.096-5.047a.474.474 0 0 0-.462-.48l-9.192-.175a.471.471 0 0 0-.48.462"/><path fill="#F7D0C2" d="M119.25 124.31c-.33 1.324.057 2.056-.495 2.563-.259.237-1.345.475-1.716-.01-.425-.554.003-1.857.113-2.995l2.098.441"/><path fill="#FFB839" d="M116.759 124.224c.244-2.532.484-6.71 1.068-9.784.215-1.138.58-1.608.663-1.94.41-1.64 4.045-.976 3.435 3.275-.407 2.845-2.216 8.446-2.498 9.102l-2.668-.653"/><path fill="#2879FF" d="M118.041 124.842c1.257.097.839.71.965 1.12.176.577-.037 1-.037 1 .047.924.406 1.316-.295 1.356-.263.015-1.116-.22-1.553-.193-1.365.085-1.118-1.1-.246-2.636 0 0-.096-.845 1.166-.647"/><path fill="#FFB839" d="M116.96 128.705c.758.16 2.052.26 2.226-.323l-.094-.273c-.439.187-1.555.093-1.861-.03-.216-.09-.962-.278-1.065-.534 0 0-.056-.14-.064-.016-.048.709.738 1.15.859 1.176"/><path fill="#289163" d="M90.495 123.075l.637-.967-.063-.628c.499-.492.58-1.171.73-1.71.15-.532.15-.76.334-1.366.036-.117.203-.155.366-.11.657.178.708.792.762 1.16.055.367.01 1.135.01 1.506.005.835-.255 1.285.038 1.366.195.052.145.926-.198.921-.883-.014-2.168-.18-2.616-.172"/><g fill="#2879FF" transform="translate(60.547 109.017)"><use xlink:href="#c"/><use xlink:href="#d"/></g><path fill="#BCDFD1" d="M82.419 113.787c-.026-.016-.585-.41-.818-.699l-2.345 4.314.472 1.28c.035-.044.349-.292.374-.336l2.376-4.24c.068-.117.072-.242-.06-.32"/><path fill="#2879FF" d="M82.797 113.794c-.18-.074-.87-.716-.986-.723-.079-.004-.133.018-.21.017-.077-.001.83.735.818.699l-2.7 4.788c.002.023-.007.02-.445-1.204l-5.592-.281c.429 1.24-.083 1.697-.083 1.728 0 .158.104.222.236.219l5.65.029c.094 0 .175-.032.211-.114l.009.019c.135.08.246.016.315-.103l2.686-4.58c.069-.12.202-.452.091-.494"/><path fill="#F7D0C2" d="M74.94 117.929c-.095.052-.59-.107-.685-.068-1.096.467-1.758.196-2.07.255-.117.02-.225.043-.332.063l.266.872c.88-.023.869.034 1.234.093 1.044-.428 2.544-.155 2.615-.118.144.073.278.04.66-.024.247.022-1.313-.908-1.688-1.073"/><path fill="#F7D0C2" d="M74.912 116.437a2.192 2.192 0 0 1-.278.14c-1.097.467-1.771.225-2.084.282-.117.025-.225.045-.333.066l.266.87c.882-.022 2.284.119 2.8.09.676-.034.744-.115.744-.115-.09-.204-.7-.213-1.026-.267-.249.008-.56-.012-.58-.027-.103-.078.345-.212.708-.152.36-.014 1.133.413 1.203.448.146.073.473.125.58.089.248.022-1.622-1.26-2-1.424"/><path fill="#086B59" d="M73.284 116.796c-1.082-.058-1.951-.326-2.7-.632-4.048-1.674-4.667-4.63-5.462-6.966-.472-1.14-1.647-2.798-1.59-.518.207 2.127 1.821 7.753 1.84 7.77 2.501 2.334 4.93 2.695 7.65 1.864-.051-.53.351-1.513.262-1.518"/><path fill="#289163" d="M68.21 118.09c-1.121-2.416-1.749-10.57-2.176-10.683-.049-.012-.157.554-.157.554s-2.158-.984-2.36-1.088c-.245-.124-.084-.018-.319-.166-.78-.493-3.845.268-3.868 3.017l.041.433c-.037.595 0 1.21.076 1.608.042.215.102.438.166.656.023.18.043.368.067.559.094 1.877-.29 3.818.759 5.175.029.161.06.323.09.48-.285 1.094-.198 1.634.868 1.632 1.978.781 7.659-.351 6.813-2.176"/><path fill="#187070" d="M66.11 108.541c.103-.258.13-.459.038-.604l-.039.604"/><path fill="#289163" d="M73.018 118.047c-2.414-.543-3.133-.89-4.803-2.497-2.345-2.255-4.017-5.405-5.808-7.977-.977-1.217-3.261.197-2.385 2.953.627 3.049 4.053 6.725 5.787 7.533 2.167 1.315 5.679 1.654 7.42 1.142l-.211-1.154"/><path fill="#086B59" d="M61.581 107.25c-.42-.027-.858.198-1.174.602-.503.646-.603 1.607-.276 2.64.642 3.12 4.098 6.705 5.726 7.464 1.197.724 2.96 1.22 4.724 1.335.974.063 1.864 0 2.516-.173l-.179-.976c-2.415-.549-3.144-.934-4.78-2.51-1.694-1.629-3.03-3.705-4.32-5.713-.517-.8-1-1.556-1.506-2.28a1.006 1.006 0 0 0-.73-.388zm8.986 12.27c-1.827-.119-3.583-.615-4.817-1.366-1.655-.77-5.187-4.43-5.837-7.601-.351-1.097-.236-2.136.314-2.843.363-.461.872-.719 1.367-.687.357.022.668.188.902.48.511.732.997 1.49 1.514 2.292 1.284 1.996 2.612 4.062 4.283 5.673 1.635 1.57 2.302 1.918 4.75 2.468l.072.016.246 1.33-.1.027c-.687.204-1.644.278-2.694.21z"/><path fill="#F7D0C2" d="M67.702 103.971c.016-.622.224-1.305-.468-1.632-.263-.126-.203-.457-1.509-.614-.095-.002-.484 1.414-.549 1.97-.024.066.103.31.008.105-.405-.812-1.083-.411-1.05.01.048.603-.185.255-.399.387l-.2.9-.742 1.442s.605 1.307 2.082 1.826c.934.327 1.026-.412 1.026-.412s.284-1.51.49-1.444c1.073.356.555.434.977-1.38.012-.046.273.07.45.036.129-.026-.135-.526-.116-1.194"/><g transform="translate(64.886 105.225)"><mask id="f" fill="#fff"><use xlink:href="#e"/></mask><path fill="#DEAB8C" d="M-.059 2.253h1.592v-.77H-.06z" mask="url(#f)"/><path fill="#DEAA8B" d="M-.025 1.483l1.557.077.001-.007-1.557-.077" mask="url(#f)"/><path fill="#DEAA8C" d="M-.024 1.476l1.557.077v-.015L-.024 1.46" mask="url(#f)"/><path fill="#DEA98C" d="M-.024 1.461l1.557.077.002-.03-1.557-.077" mask="url(#f)"/><path fill="#DEA88B" d="M-.022 1.431l1.557.077V1.5l-1.557-.076" mask="url(#f)"/><path fill="#DEA88C" d="M-.022 1.424l1.558.076v-.007l-1.558-.077m0 0l1.558.077.001-.03-1.557-.076" mask="url(#f)"/><path fill="#DDA78B" d="M-.02 1.387l1.557.076v-.007L-.02 1.379" mask="url(#f)"/><path fill="#DEA78C" d="M-.02 1.38l1.558.076V1.44l-1.557-.077" mask="url(#f)"/><path fill="#DEA68C" d="M-.02 1.364l1.558.077.001-.023-1.557-.076" mask="url(#f)"/><path fill="#DEA68C" d="M-.018 1.342l1.557.076.001-.022-1.557-.077" mask="url(#f)"/><path fill="#DDA58C" d="M-.017 1.32l1.557.076.002-.022-1.558-.077" mask="url(#f)"/><path fill="#DDA48B" d="M-.016 1.297l1.558.077v-.008L-.015 1.29" mask="url(#f)"/><path fill="#DDA48C" d="M-.015 1.29l1.557.076V1.36l-1.557-.077" mask="url(#f)"/><path fill="#DDA38C" d="M-.015 1.282l1.557.077.002-.03-1.558-.077" mask="url(#f)"/><path fill="#DDA38C" d="M-.014 1.252l1.558.077v-.023L-.011 1.23" mask="url(#f)"/><path fill="#DDA28B" d="M-.012 1.23l1.557.077v-.015l-1.557-.077" mask="url(#f)"/><path fill="#DEA28C" d="M-.012 1.215l1.558.077v-.008L-.01 1.208" mask="url(#f)"/><path fill="#DEA28C" d="M-.011 1.208l1.557.076.001-.022-1.557-.077" mask="url(#f)"/><path fill="#DEA18B" d="M-.01 1.185l1.557.077v-.015L-.01 1.17" mask="url(#f)"/><path fill="#DDA18C" d="M-.01 1.17l1.558.077v-.008l-1.557-.076" mask="url(#f)"/><path fill="#DDA08B" d="M-.01 1.163l1.558.076.001-.022-1.557-.077" mask="url(#f)"/><path fill="#DD9F8B" d="M-.008 1.14l1.557.077.001-.015-1.557-.076m0 0l1.557.076v-.007l-1.557-.077m0 0l1.557.077.001-.015-1.557-.077" mask="url(#f)"/><path fill="#DD9E8B" d="M-.006 1.18H1.61V-.09H-.006z" mask="url(#f)"/></g><path fill="#252529" d="M68.486 101.812c-.065-.706-.588-1.504-1.802-1.3-.456.074-.724-.546-1.056-.26-.872-.591-1.834.645-1.985 1.212-.035.131-.05.276-.059.418-.412.036-.454.351-.422.713-.968.53.557 1.716.37 2.35-.254.854.784-.172.88-.388 0 0-.213-.1-.132-.474.091-.423.593-.828.873.062.036.131.126-.428.22-.963.561.356 1.155-.025 1.542-.497.48.094.962.126 1.207-.031.194-.124.407-.39.364-.842"/><path fill="#FFFFFE" d="M67.056 105.59l-.053.235c-.114-.029-.318-.426-.318-.426l.371.19"/><path fill="#D9593B" d="M147.459 107.115c-.659.161-3.848 4.408-6.025 4.837-.126.22.064.77.612 1.386 1.78.63 4.916-3.276 5.523-3.757 1.407-1.111 2.178-1.876.817-2.53 0 0-.185-.118-.927.064"/><path fill="#F7D0C2" d="M141.39 119.517l.288-.325c.779-.508.861.034.861.034s.29 2.616-.202 3.625c-.323.655-1.062.768-1.062.768s.23-3.346.114-4.102"/><path fill="#226DE7" d="M143.992 110.668c.311.289 3.064 4.193 3.067 4.549.015 1.762-.016 3.94.094 4.305.487 1.418-2.672.948-3.854-.76-1.012-1.425-1.233-4.77-1.217-4.971.085-1.034.925 4.574.598 6.08-.582-.073-.961-.066-1.404-.128.194-.038-2.466-13.253 2.716-9.075"/><path fill="#0B0B0B" d="M146.753 100.045c1.54-.505 3.631-.29 4.148 2.034.196.872 1.226 1.755.884 2.592 1.919 1.02.773 3.919-.308 4.688-.249.177-1.249.22-1.538.356.243.76-.39 1.114-1.179 1.375-.363 2.179-4.014-2.75-2.961-3.385-1.189-.676-.842-2.06-.158-3.162-.567-.767-.883-1.73-.74-2.3.113-.453.866-1.874 1.852-2.198"/><path fill="#FFFFFE" d="M146.3 103.856c-.019-.034.223-.07.454.007 0 0-.474.118-.451.065.017-.036.033-.035-.003-.072"/><path fill="#F7D0C2" d="M148.85 104.586c-.118-.514.483-1.838.478-2.006-.01-.345-1.725-2.516-2.165-2.467-.3.034-1.357.107-.58 4.847a.58.58 0 0 0 .35-.126c.395-.311.525 1.35.294 2.413-.152.722-.187 2.697-.604 3.18.187.519.47.362.752.205.282-.157.564-.313.75.204.76.227.415.478.654.2.033-.569 2.068-1.283 2.07-1.843-2.275-1.153-2-4.71-2-4.607"/><path fill="#F7D0C2" d="M145.904 102.627c.062-.246.186-1.868.494-1.974 1.078-.176.876.148 1.1 1.047.115.471.426 2.927.4 2.942-.062.014-1.386.676-1.726.413-.045-.035.023-.697-.109-.75-.129-.053-.134-.13-.103-.234.026-.106.048-.08-.051-.131-.099-.048-.095-.159.01-.212.165-.08-.148-.22-.333-.368-.184-.145.18-.18.318-.733"/><path fill="#2879FF" d="M154.559 121.71c.336.292.926.362 1.466.645 1.628.875.75.965-.055.68-1.078-.672-2.252-.459-3.41-.66-.246-1.69 2.396-.974 1.999-.665"/><path fill="#F7D0C2" d="M152.067 123.633l.148-.581c-.644-.673.346-.677.346-.677s1.919.067 3 .364c.703.195.82.368.82.368s-3.594.27-4.314.526"/><path fill="#2879FF" d="M139.612 121.55c.288-.313.758-.507 3.002-.887 5.542-.992 3.518-2.407 4.287-3.029.252-.242.23.36.585.358 1.76-.015 2.754-.231 3.135-.234.768-.006 1.493 3.095-.213 4.28-1.422 1.012-7.477 1.442-7.678 1.424-1.032-.085 8.15-1.629 9.468-1.143.032.618.117 1.066.054 1.509-.037-.194-16.81 2.911-12.64-2.278"/><path fill="#F57C02" d="M150.756 108.3c-.105-.645-.883-2.61-2.195-1.816-.84.507-.975 1.02-1.235.328-.094-.251-.692 2.148-2.464 5.097 0 0 .187 1.01.84 1.263.808.314.815 2.395.96 5.304.013.27 4.716-.08 4.492-.782-.986-3.084.124-6.592-.398-9.395"/><path fill="#0B0B0B" d="M150.471 101.62c1.275 6.177-1.539 5.033-1.539 5.033-1.667-.202-1.106-2.951-1.002-2.816.214.277.377-.081.427-.377.268-1.599-.49-.466-.49-.466.097-.386-1.85-2.151-1.521-2.493.82-.855 1.42-.306 1.42-.306.615-.515 2.421.053 2.705 1.426"/><path fill="#0A0B09" d="M146.477 115.263c-.06-.35-.062-.773-.206-1.11a.466.466 0 0 0 .026-.038 7.9 7.9 0 0 1 .18 1.148"/><path fill="#DB362A" d="M146.496 115.356a2.317 2.317 0 0 1-.019-.093 8.09 8.09 0 0 0-.18-1.148c.232-.372-.193-.738-.6-1.078.282-.128 4.637-3.916 4.882-3.916.01 0 .013.006.01.019-.663 2.063-2.047 3.945-4.093 6.216"/><path fill="#F7D0C2" d="M141.568 110.784c-.366-.52-.788-.717-1.314-1.662-.236-.425-.3-.392-.3-.392-.08.112.138.305.134.44-.015.327-.523-.222-.63-.318-.258-.234-.404-.449-.48-.336-.083.131.68.597.528.602-.137.003-.164.04-.206.194-.01.03-.08.048-.124.094-.271.291 1.184.877 1.53 1.23.062.061.868.632.923.69.138-.172-.198-.375-.06-.542"/><path fill="#F7D0C2" d="M140.507 110.47c1.247.649 2.73 3.287 3.866 4.086.59.417 1.656-.067.354-1.399 0 0-2.588-1.92-3.818-3.055-.232-.213-.605.262-.402.368"/><path fill="#F57C02" d="M148.428 109.099c-.922.993-1.766 2.6-3.63 3.786-.368.565-.547 1.547-.268 1.734 1.287.874 2.89-1.313 3.591-1.843 4.097-3.09 2.153-5.606.43-3.855l-.123.178"/><path fill="#F7D0C2" d="M140.839 115.402c-.223.022-.34-.015-.303-.125.043-.13-.048-.094-.048-.21 0-.059.076-.119.066-.128-.06-.056-.025-.17.007-.184.062-.025.053-.041.025-.081-.041-.058-.046-.14.04-.177a.441.441 0 0 1 .213-.01c.121-.022.23-.03.294-.003.089.037.086.118.047.176-.027.04-.035.057.027.083.034.013.071.128.014.183-.01.01.062.035.064.094.004.114-.054.14-.034.22.04.154-.153.177-.412.162"/><path fill="#E5C3B9" d="M141.157 114.725l-.004-.007c-.121-.04-.26-.028-.394-.017-.047.004-.09.006-.133.008l-.007.009.007.007c.044 0 .087-.005.134-.008.134-.011.271-.022.388.016l.01-.004v-.004m.074.225l-.006-.007a2.428 2.428 0 0 0-.649-.004l-.007.008.008.007c.203-.018.42-.034.646.005l.008-.007v-.001m.011.239l-.006-.009a1.525 1.525 0 0 0-.675.002l-.006.009h.001l.007.007c.241-.051.405-.051.671-.002l.008-.006v-.002"/><path fill="#D46D06" d="M138.566 37.367c.34.58.654 1.02 1.277 1.02.623 0 1.128-.506 1.128-1.13v-2.112c0-.623 1.31-1.572.686-1.572l-.44-.492c-.624 0-.36 1.525-1.39 2.852l-1.261 1.434"/><path fill="#F7D0C2" d="M138.566 37.367c.057.037.114.072.172.101.68.342 1.12.33 1.316.38l.209.056c-.066.18-.135.362-.203.544-.562-.05-1.46-.019-1.788-.058-.43-.05-.47-.105-.47-.105.068-.125.456-.105.666-.127.157.015.356.015.37.007.071-.045-.21-.15-.444-.128-.23-.022-.74.218-.784.237-.096.041-.603.05-.67.022-.159.004 1.38-.84 1.626-.929"/><path fill="#FFB839" d="M142.172 21.467c.126.629.554 4.862.07 5.336.164.19.299.414.391.66l.006.006c-.07-.24.136.11 0 0l.008.025.007.003c.073.043.459.181.2.102.088.027.177.054.266.074.075.008.26.032.301.032.133.003.08.207.213.2-.096-.004.925-.424.807-1.426-.137-1.177-.165-3.609-.399-4.56-.597-2.43-1.655-1.892-2.42-1.991-1.335.075-1.102 1.614-1.206 1.814-.51.968 1.65-.804 1.756-.275"/><path fill="#0A0B09" d="M143.446 51.18c-.319.497-.765-.074-1.176-.351-.17.411.108.96.011 1.555-.058.34-.854 1.655-1.473 1.502.5-.95.647-1.087.656-1.3.295-1.23-.269-2.27-.441-3.424 1.51-.774 1.358 1.312 2.423 2.018"/><path fill="#E9C6BB" d="M132.817 39.848c.045-.754 1.36-.92 1.995.33a5319.298 5319.298 0 0 0 5.631 8.93c.225.044.58.054.58.054s.538 1.828.591 2.944c.036.721-.324.884-.324.884s.039-.06-.036-.413c-.136-.644-.084-1.644-.417-2.214-1.543-1.636-6.499-6.72-7.827-9.17-.325-.597-.21-1.038-.193-1.345"/><path fill="#2F192B" d="M143.734 51.468c-.318.497-.766-.072-1.175-.347-.17.41.107.955.01 1.553-.057.339-.853 1.653-1.473 1.5.501-.95.648-1.089.655-1.299.297-1.23-.267-2.27-.44-3.425 1.51-.774 1.36 1.31 2.423 2.018"/><path fill="#F7D0C2" d="M141.607 24.78c-.234-.43.409-1.784.362-1.932-.095-.307-2.51-1.262-2.89-1.106-.261.105-1.292-.101.594 3.945a.553.553 0 0 0 .28-.204c.277-.375.809 1.076.87 2.087.069 1.048.291 4.326.342 4.427.036.069 1.743-.88 1.997-1.43-.112-.517 1.49-3.122 1.351-3.625-1.514.415-2.25-.303-2.602-1.02-.289-.592-.317-1.183-.304-1.141"/><path fill="#F7D0C2" d="M138.48 23.77c-.007-.236-.317-1.19-.272-1.529.921-.43 1.04-.45 1.464.297.223.394 1.116 2.51 1.096 2.531-.05.029-1.068.955-1.44.804-.049-.02-.153-.627-.283-.642-.13-.015-.154-.084-.154-.185-.002-.1.026-.082-.078-.103-.099-.018-.123-.117-.042-.191.126-.115-.19-.16-.393-.247-.2-.084.118-.206.102-.734"/><path fill="#FFFFFE" d="M138.868 24.956c-.024-.024.183-.12.407-.11 0 0-.395.226-.386.173.007-.036.02-.038-.02-.063"/><g transform="translate(140.08 25.273)"><mask id="h" fill="#fff"><use xlink:href="#g"/></mask><path fill="#DDA48C" d="M.77.167l.302.606-.04.006L.73.173" mask="url(#h)"/><path fill="#DDA38C" d="M.73.173l.302.606-.014.002-.3-.606" mask="url(#h)"/><path fill="#DDA38C" d="M.717.175L1.02.78.94.792.638.187" mask="url(#h)"/><path fill="#DDA28B" d="M.638.187l.3.606-.092.014L.545.201" mask="url(#h)"/><path fill="#DDA18B" d="M.545.201l.3.606L.833.81l-.3-.606" mask="url(#h)"/><path fill="#DEA28C" d="M.531.203L.833.81.766.82.465.215" mask="url(#h)"/><path fill="#DEA18B" d="M.465.214L.766.82.739.824.44.218" mask="url(#h)"/><path fill="#DDA08B" d="M.439.218l.3.606-.093.014-.3-.606" mask="url(#h)"/><path fill="#DD9F8B" d="M.345.232l.301.606L.633.84l-.3-.606m-.001 0L.633.84l-.08.012-.3-.606m0 0l.3.606L.54.854.24.248" mask="url(#h)"/><path fill="#DD9E8B" d="M-.047.898H.54v-.65h-.587z" mask="url(#h)"/></g><g transform="translate(140.08 24.241)"><mask id="j" fill="#fff"><use xlink:href="#i"/></mask><path fill="#D88A6E" d="M.87-.174l.568 2.061-.523.144-.567-2.06" mask="url(#j)"/><path fill="#D7896D" d="M.348-.03l.567 2.061-.057.016L.29-.013" mask="url(#j)"/><path fill="#D7896D" d="M.29-.014l.568 2.061-.007.002L.283-.012" mask="url(#j)"/><path fill="#D7886D" d="M.283-.012l.568 2.061-.007.002L.276-.01" mask="url(#j)"/><path fill="#D8886D" d="M.276-.01l.568 2.06-.036.01L.24 0" mask="url(#j)"/><path fill="#D8876D" d="M.24 0l.568 2.06-.008.003L.233.002" mask="url(#j)"/><path fill="#D8876D" d="M.233.002l.568 2.061-.007.002L.226.004" mask="url(#j)"/><path fill="#D8876D" d="M.226.004l.568 2.06-.043.013L.183.016" mask="url(#j)"/><path fill="#D8866D" d="M.183.016l.568 2.06-.108.03L.076.046" mask="url(#j)"/><path fill="#D8856D" d="M.076.045l.567 2.061-.007.002L.068.048" mask="url(#j)"/><path fill="#D8856D" d="M.068.047l.568 2.061-.043.012L.026.06" mask="url(#j)"/><path fill="#D8846D" d="M.026.06l.567 2.06-.05.014L-.024.073" mask="url(#j)"/><path fill="#D7846D" d="M-.024.073l.567 2.061-.007.002-.568-2.06" mask="url(#j)"/><path fill="#D7836D" d="M-.032.075l.568 2.061-.036.01L-.067.085" mask="url(#j)"/><path fill="#D7826D" d="M-.067.085L.5 2.146l-.014.004L-.082.089" mask="url(#j)"/><path fill="#D7826D" d="M-.082.089l.568 2.06-.05.015L-.132.103" mask="url(#j)"/><path fill="#D7826D" d="M-.132.103l.568 2.06-.007.003L-.14.105" mask="url(#j)"/><path fill="#D7816D" d="M-.386 2.234h.815V.104h-.815z" mask="url(#j)"/></g><g transform="translate(140.595 25.015)"><mask id="l" fill="#fff"><use xlink:href="#k"/></mask><path fill="#D88A6E" d="M.329-.053l.09.33-.226.062L.103.01" mask="url(#l)"/><path fill="#D7896D" d="M.103.01l.09.329-.106.029-.09-.329" mask="url(#l)"/><path fill="#D7896D" d="M-.003.04l.09.328-.013.004-.09-.329" mask="url(#l)"/></g><path fill="#FFB839" d="M141.094 20.387c2.277 1.87.517 4.45.517 4.45-.14-.244-.39-1.01-.337-1.16.071-.205.29-.227.184-.486-.344-.832-.432.13-.432.13-.095-.36-1.11-1.5-1.464-1.762-.35-.263-.703-.205-.703-.205.063-.502 1.266-1.762 2.235-.967"/><path fill="#EB7600" d="M139.875 33.352c1.551 3.63-.75 7.27-.263 7.27 1.35 0 4.542.611 4.908-1.858 0 0-1.33-4.46.147-10.868.214-.929-.393-1.567-1.402-1.567-1.01 0-4.905 3.358-4.164 4.375 0 0 1.322 1.911.774 2.648"/><path fill="#E26342" d="M140.298 34.519a6.473 6.473 0 0 0 .002-.002l-.002.002m-.362-1.21c.258-.4-.183-.888-.636-1.247.047-.02.198-.129.42-.298.263.545.457 1.172.216 1.545"/><path fill="#D46D06" d="M140.25 34.517a6.69 6.69 0 0 0-.375-1.165.632.632 0 0 0 .029-.043c.228-.373.044-1-.205-1.545 1.19-.956 4.557-3.856 4.779-3.856.01 0 .014.007.01.02-.704 2.189-2.07 4.182-4.239 6.59"/><path fill="#FFB839" d="M137.56 21.427c.4.09.572.36.696.654.22-.361.645-.824 1.07-1.19a3.847 3.847 0 0 0 1.017.49c.027.422.813.635.864 1.053-.18.212-1.1.656-1.33.88-.76.739-1.55.355-1.862-.566-.12-.357-.186-1.048-.521-1.335.021.005.042.01.066.014"/><path fill="#F7D0C2" d="M133.579 39.64c.068-.753 1.39-.874 1.982.395.036.078 5.291 9.052 5.291 9.052s.08.139.184.347c.15.012.276.016.276.016s.536 1.828.59 2.944c.036.723-.324.884-.324.884s.039-.06-.035-.412c-.182-.854-.587-1.884-1.023-2.573-.157-.181-.328-.387-.514-.611a.93.93 0 0 0-.098-.07l.03-.011c-1.913-2.316-5.172-6.528-6.212-8.61-.304-.609-.174-1.045-.147-1.35"/><path fill="#393636" d="M144.033 34.954c.109 1.902 3.359 4.76.446 7.11-.912.131-7.398.47-7.946-.369-1.39-2.134-2.039-2.523-2.445-2.611 5.649-.609 6.612-2.185 6.258-3.612"/><path fill="#B4B5B4" d="M131.132 33.362c.027-.019.24.138.269.13l3.006 4.837-.465.022a2.396 2.396 0 0 1-.142-.207l-2.72-4.44c-.077-.12-.086-.253.052-.342"/><path fill="#F2F1F0" d="M130.869 33.517c.027-.017.212-.133.232-.195l3.089 5.013.01.007 6.525-.288c.008.029.022.25.023.282.008.17-.102.24-.24.245l-6.046.267c-.103.005-.19-.028-.234-.113l-.005.022c-.143.091-.262.026-.343-.098l-3.065-4.79c-.08-.124-.091-.26.054-.352"/><path fill="#F7D0C2" d="M135.636 29.862c-.391-.502-.822-.679-1.395-1.598-.257-.413-.32-.377-.32-.377-.075.116.153.298.156.434.001.328-.535-.197-.647-.288-.27-.22-.426-.43-.496-.312-.078.135.71.563.558.576-.136.01-.163.048-.197.204-.009.03-.078.053-.118.1-.26.306 1.227.82 1.589 1.156.066.059.9.59.958.644.13-.177-.216-.364-.088-.539"/><path fill="#F7D0C2" d="M134.559 29.601c1.28.588 2.893 3.155 4.07 3.9.612.388 1.654-.149.285-1.418 0 0-2.684-1.793-3.97-2.87-.243-.203-.593.293-.385.388"/><path fill="#F57C02" d="M142.42 27.839c-.872 1.04-1.64 2.69-3.45 3.969-.337.583-.47 1.574-.181 1.749 1.331.81 2.828-1.457 3.504-2.021 3.95-3.295 1.88-5.718.242-3.881l-.115.184"/></g></svg>