<svg xmlns="http://www.w3.org/2000/svg" xmlns:xlink="http://www.w3.org/1999/xlink" width="581" height="500"><defs><path id="a" d="M220.703 445.672c-21.827.001-44.07-2.385-65.507-7.885-48.294-12.726-94.455-36.094-124.332-75.329.436.031.877.047 1.32.047H390.57c-1.943 7.743-4.942 16.38-9.151 26.026-11.963 27.427-83.698 57.14-160.715 57.141M13.483 229.317c-2.527-5.92-7.47-12.388-13.004-17.75a337.825 337.825 0 0 1 3.505-18.528 462.812 462.812 0 0 1 3.825-15.54l5.674 19.801v32.017m403.13-.78l-.998-2.948v-99.995c0-10.313-8.384-18.702-18.69-18.702h-21.49l-6.081-17.968-82.903 7.986-9.629-17.578-10.18 18.59-.518.946-83.306 8.024H34.29C69.263 38.995 124.72.29 201.842.29c1.747 0 3.499.02 5.269.06 147.976 3.32 233.838 120.807 232.585 152.557.383 40.332-8.846 63.224-23.084 75.63"/><path id="b" d="M50.697 17.087c.65-5.3-5.867-7.375-7.564-4.148.543-5.061-2.528-11.7-7.792-12.272-9.94-1.237-7.06 8.598-11.839 8.74-4.364-.11-1.11-8.51-11.036-4.3-2.376.939-3.581 4.477-5.26 8.849-3.404-4.984-9.032 2.953-5.237 4.284 16.45 3.12 49.924 2.67 48.728-1.153z"/><path id="c" d="M.68 25.947c-1.637-8.253 14.818-11.48 19.102-6.46-1.371-7.878 6.378-18.212 19.68-19.1 25.092-1.93 17.82 13.384 29.88 13.604C80.362 13.82 72.15.74 97.21 7.294c5.999 1.464 9.035 6.968 13.278 13.777 8.586-7.758 13.847-2.704 15.427 4.876a540.466 540.466 0 0 1-125.234 0z"/><path id="d" d="M.487 26c-1.3-8.161 11.706-11.358 15.095-6.389C14.496 11.815 20.618 1.59 31.122.709 50.944-1.196 45.2 13.951 54.727 14.172c8.709-.169 2.218-13.107 22.02-6.625 4.737 1.447 7.142 6.896 10.49 13.629C94.021 13.5 98.18 18.498 99.426 26a341.473 341.473 0 0 1-98.94 0z"/><path id="e" d="M.525 23.147c-.945-7.4 8.478-10.299 10.933-5.794-.786-7.07 3.647-16.336 11.257-17.135 14.363-1.73 10.199 12.004 17.103 12.204 6.305-.153 1.606-11.887 15.949-6.009 3.436 1.314 5.177 6.255 7.6 12.36 4.915-6.956 7.928-2.428 8.83 4.374a198.29 198.29 0 0 1-71.672 0z"/><path id="f" d="M5.892.695C6.356.387 1.323 5.79 1.323 5.79S.583 3.293.105 2.723c-.05-.066 2.138.371 5.787-2.028z"/><path id="h" d="M.757.079C.462-.375 2.819 6.373 2.819 6.373s1.632-1.918 2.276-2.24C5.166 4.095 3.06 3.63.757.08z"/><path id="j" d="M.762.262C.373-.06 5.526 7.467 5.526 7.467s-.34-4.933.313-4.76c.205.054-2.037.106-5.077-2.445z"/><path id="l" d="M10.12 18.17L.493.592l9.629 17.578h-.002"/><path id="n" d="M.547 19.183L10.726.593.547 19.182"/></defs><g fill="none" fill-rule="evenodd"><use fill="#E7EEF9" transform="translate(86.599 53.543)" xlink:href="#a"/><path fill="#669FFF" d="M240.425 74.388l-.313-.277c1.083-1.26 2.22-2.524 3.382-3.766l.303.292a117.986 117.986 0 0 0-3.372 3.751zm-6.557 7.685c.955-1.345 1.97-2.71 3.026-4.053l.337.257a95.996 95.996 0 0 0-3.018 4.04l-.345-.244zm13.455-15.044l-.295-.302c1.192-1.171 2.43-2.34 3.674-3.472l.281.313a132.733 132.733 0 0 0-3.66 3.461zm7.458-6.786l-.27-.322a143.505 143.505 0 0 1 3.932-3.187l.26.336a131.16 131.16 0 0 0-3.922 3.173zM228.51 90.656a75.227 75.227 0 0 1 2.553-4.373l.357.223a78.373 78.373 0 0 0-2.539 4.35l-.371-.2zm34.233-36.606l-.247-.342a128.063 128.063 0 0 1 4.173-2.867l.232.351a125.08 125.08 0 0 0-4.158 2.858zm-38.346 45.856a56.864 56.864 0 0 1 1.863-4.707l.385.169a55.616 55.616 0 0 0-1.849 4.676l-.4-.138zm46.775-51.387l-.212-.365a105.28 105.28 0 0 1 4.404-2.491l.196.372c-1.453.776-2.926 1.61-4.388 2.484zm-48.95 61.273c.138-1.62.398-3.307.783-5.015l.412.095a37.964 37.964 0 0 0-.78 4.958l-.415-.038zm57.843-66.018l-.178-.384a88.964 88.964 0 0 1 4.64-2.018l.154.39a85.785 85.785 0 0 0-4.616 2.012zm9.354-3.724l-.129-.404c1.65-.531 3.29-.989 4.878-1.366l.094.41a61.78 61.78 0 0 0-4.843 1.36zm-66.294 79.811a25.191 25.191 0 0 1-.914-4.996l.413-.034a25.58 25.58 0 0 0 .899 4.914l-.398.116zm76.08-82.093l-.058-.414c1.73-.234 3.43-.361 5.056-.38l.006.418c-1.605.019-3.29.147-5.004.376zm-71.26 90.96a24.673 24.673 0 0 1-2.887-4.174l.365-.201a23.821 23.821 0 0 0 2.843 4.099l-.322.276zM331.23 18.806a33.049 33.049 0 0 1 2.924-4.15l.325.267a32.829 32.829 0 0 0-2.888 4.099l-.36-.216zm-22.028 18.897l.06-.416c1.726.248 3.385.641 4.932 1.172l-.137.4a26.712 26.712 0 0 0-4.855-1.156zm28.752-26.387l-.28-.316a37.072 37.072 0 0 1 4.003-3.104l.235.349a36.087 36.087 0 0 0-3.958 3.07zm-10.527 16.87c.407-1.662.931-3.29 1.553-4.83l.39.157a35.528 35.528 0 0 0-1.536 4.772l-.407-.1zM346.25 5.728l-.185-.377c1.48-.737 3.05-1.41 4.662-1.991l.142.397a43.026 43.026 0 0 0-4.62 1.971zm-19.968 32.514a45.231 45.231 0 0 1 .267-5.063l.418.047a44.904 44.904 0 0 0-.265 5.013l-.42.003zm-3.79 5.799a22.728 22.728 0 0 0-.834-.776c-.963-.854-2-1.622-3.09-2.29l.221-.36a22.987 22.987 0 0 1 3.996 3.124l-.292.302zM355.68 2.3l-.1-.408a52.595 52.595 0 0 1 4.974-.964l.057.416c-1.668.24-3.329.565-4.93.956zm-28.396 46.012a58.917 58.917 0 0 1-.73-5.013l.42-.043a56.8 56.8 0 0 0 .725 4.977l-.415.08zM365.615.858l-.018-.419a55.132 55.132 0 0 1 5.065-.032l-.016.419a58.547 58.547 0 0 0-5.03.032zM328.07 52.292a29.607 29.607 0 0 0-2.404-4.391l.352-.233a30.215 30.215 0 0 1 2.434 4.456l-.382.168zm47.592-51.054l.053-.418c1.677.213 3.355.501 4.995.858l-.092.411a56.53 56.53 0 0 0-4.956-.851zm9.816 2.15l.126-.402a51.272 51.272 0 0 1 4.75 1.764l-.167.388a50.243 50.243 0 0 0-4.709-1.75zm9.216 3.975l.205-.367a42.676 42.676 0 0 1 4.264 2.74l-.247.342a42.396 42.396 0 0 0-4.222-2.715zm11.445 9.64a34.078 34.078 0 0 0-3.372-3.712l.291-.306a34.484 34.484 0 0 1 3.41 3.76l-.33.257zm4.849 8.73a31.417 31.417 0 0 0-2.074-4.562l.364-.202a30.972 30.972 0 0 1 2.104 4.618l-.394.146zm1.866 9.812a33.941 33.941 0 0 0-.553-4.982l.414-.075c.305 1.632.496 3.33.561 5.04l-.422.017zm-.942 9.97a42.24 42.24 0 0 0 .786-4.958l.416.042a42.619 42.619 0 0 1-.786 5.007l-.416-.09z"/><path fill="#669FFF" d="M128.018 115.966l-.304-.292a62.509 62.509 0 0 1 3.614-3.545l.283.31a62.823 62.823 0 0 0-3.593 3.527zm-6.649 7.59a67.356 67.356 0 0 1 3.02-4.06l.33.263a64.85 64.85 0 0 0-3.007 4.035l-.343-.237zm14.113-14.324l-.253-.338a53.463 53.463 0 0 1 4.186-2.86l.222.358a51.642 51.642 0 0 0-4.155 2.84zm-19.203 23.077a68.054 68.054 0 0 1 2.373-4.47l.368.21a62.54 62.54 0 0 0-2.36 4.445l-.381-.185zm-3.652 9.447a63.076 63.076 0 0 1 1.634-4.802l.392.157a59.381 59.381 0 0 0-1.62 4.76l-.406-.115zm31.428-37.75l-.178-.378a37.748 37.748 0 0 1 4.724-1.848l.127.403a37.563 37.563 0 0 0-4.673 1.823zm-33.386 47.677a52.26 52.26 0 0 1 .753-5.011l.411.082a52.731 52.731 0 0 0-.748 4.97l-.416-.041zm42.94-50.616l-.061-.418a25.772 25.772 0 0 1 5.075-.218l-.023.42a25.282 25.282 0 0 0-4.992.216zM110.663 161.8a49.268 49.268 0 0 1-.26-5.058l.422.001a48.107 48.107 0 0 0 .254 5.012l-.416.045zm52.847-60.09l.115-.4a20.774 20.774 0 0 1 4.655 2.039l-.213.363a20.542 20.542 0 0 0-4.557-2.002zm-50.703 69.976a45.31 45.31 0 0 1-1.346-4.883l.411-.088c.354 1.632.8 3.263 1.331 4.841l-.396.13zm62.49-61.163a26.9 26.9 0 0 0-3.272-3.788l.294-.305a27.173 27.173 0 0 1 3.317 3.85l-.34.243zm12.794-13.456l-.326-.271a38.208 38.208 0 0 1 3.463-3.703l.29.31a36.873 36.873 0 0 0-3.427 3.664zm-5.934 8.158a62.288 62.288 0 0 1 2.611-4.341l.35.234a62.306 62.306 0 0 0-2.592 4.31l-.37-.203zm-65.11 75.642a49.563 49.563 0 0 1-2.372-4.472l.387-.182a46.867 46.867 0 0 0 2.342 4.443l-.356.21zm78.407-90.544l-.228-.354a22.021 22.021 0 0 1 4.561-2.249l.137.396a21.889 21.889 0 0 0-4.47 2.207zm-17.593 24.063a98.37 98.37 0 0 1 2.013-4.644l.38.175a95.012 95.012 0 0 0-1.996 4.62l-.397-.151zm26.931-27.272l-.03-.417a17.61 17.61 0 0 1 5.073.412l-.09.409a17.384 17.384 0 0 0-4.953-.404zm9.622 2.131l.193-.375a23.43 23.43 0 0 1 4.224 2.83l-.268.325a23.037 23.037 0 0 0-4.149-2.78zm10.573 10.417a32.012 32.012 0 0 0-2.896-4.09l.322-.275a32.006 32.006 0 0 1 2.933 4.148l-.36.217zm3.824 9.243a36.91 36.91 0 0 0-1.587-4.76l.393-.162a35.836 35.836 0 0 1 1.596 4.82l-.402.102zm1.073 9.946a34.388 34.388 0 0 0-.179-5.012l.423-.046a34.95 34.95 0 0 1 .175 5.074l-.42-.016zm-1.913 9.807a32.406 32.406 0 0 0 1.344-4.827l.409.08a31.819 31.819 0 0 1-1.354 4.889l-.399-.142z"/><use fill="#CDE0FF" transform="translate(51.96 181.102)" xlink:href="#b"/><path fill="#FFFFFE" d="M359.637 125.996l-70.245 63.857-65.575-72.147 70.247-63.863 65.573 72.153"/><path fill="#FFB839" d="M290.34 179.019l58.42-53.11-55.643-61.228-58.424 53.116 55.646 61.222zm69.297-53.023l-70.245 63.857-65.575-72.147 70.247-63.863 65.573 72.153z"/><path fill="#F57C02" d="M262.474 123.91c-15.57-18.482 22.668-11.553 22.668-11.553s-9.508-37.704 10.607-20.485c19.693 16.874 16.374 51.426 16.374 51.426s-34.39-1.28-49.649-19.389"/><path fill="#FFFFFE" d="M301.675 118.835c-2.907 1.275-6.167 2.61-9.967 4.08l-.003.004a573.363 573.363 0 0 1-8.473 3.179l-.114.043.195.54.121-.049c2.33-.856 5.398-1.992 8.492-3.183 3.803-1.476 7.064-2.808 9.969-4.084l.12-.052-.229-.527-.11.05m1.841 4.777c-2.902 1.276-6.164 2.61-9.962 4.076l-.005.002a535.69 535.69 0 0 1-8.473 3.187l-.113.039.197.537.119-.04c2.33-.861 5.397-1.994 8.494-3.191 3.8-1.471 7.06-2.806 9.965-4.08l.122-.05-.23-.526-.114.046m-21.882-1.685c2.9-1.274 6.15-2.603 9.947-4.068 3.102-1.2 6.167-2.337 8.495-3.19l.118-.047-.2-.536-.12.043c-2.346.86-5.428 2.005-8.5 3.193a236.64 236.64 0 0 0-9.96 4.075l-.12.052.233.527.107-.049"/><use fill="#CDE0FF" transform="translate(73.215 57.48)" xlink:href="#c"/><use fill="#CDE0FF" transform="translate(451.889 104.724)" xlink:href="#d"/><use fill="#CDE0FF" transform="translate(508.572 206.3)" xlink:href="#e"/><path fill="#2879FF" d="M42.855 154.57h103.957v-17.98H42.855z"/><path fill="#FFFFFE" d="M46.213 150.881c5.698.017 67.139.209 79.19.463l.012.468v-.468a.5.5 0 0 0 .42-.215c1.074-1.375.1-7.528-.813-11.327-2.559-.09-18.692-.617-37.847-.617-16.458 0-30.61.38-42.064 1.13l1.102 10.566zm79.202 1.396l-.034-.001c-12.563-.266-78.92-.463-79.59-.465h-.422l-1.285-12.36.484-.035c11.558-.775 25.895-1.166 42.607-1.166 20.812 0 38.062.626 38.234.631l.354.013.084.343c.257 1.04 2.473 10.226.722 12.466a1.425 1.425 0 0 1-1.154.574zm10.913-7.147a2.04 2.04 0 0 1-2.397-3.3 2.04 2.04 0 1 1 2.397 3.3zm1.101-3.32a2.845 2.845 0 0 0-3.967-.631 2.847 2.847 0 0 0-.632 3.971c.86 1.182 2.672 1.575 3.912.865l2.667 3.736.651-.471-2.964-3.533c.943-.974 1.158-2.806.333-3.938z"/><path fill="#207F55" d="M17.369 348.922c2.267 8.087.876 22.46 8.79 26.17 3.271 1.535 7.807.93 12.374.326 5.37-.71 10.783-1.42 14.236 1.347 9.295 7.447-4.196 13.877 7.668 19.02 4.888 2.118 27.244 7.713 32.539 7.72 3.024.004 12.064 4.523 16.986-1.833 10.825-13.98-66.127-93.801-103.72-84.408-17.234 4.305 9.147 24.594 11.127 31.658"/><path fill="#187070" d="M99.697 405.335a19.195 19.195 0 0 1-1.049-.146l-.007-.535.22.041c.272.222.55.436.836.64"/><path fill="#176945" d="M98.861 404.695l-.22-.041-.002-.145.222.186m-11.014-3.761a46.021 46.021 0 0 1-1.702-1.037c.435-2.323.855-4.575 1.244-6.719.21.202.423.402.637.602-.09 2.307-.149 4.706-.18 7.154M73.603 388.17c-4.163-5.565-7.399-12.232-9.6-19.877 1.64-.682 3.344-1.65 5.041-2.124-.52-2.803-.735-5.327-.498-8.001 2.422 2 4.895 4.133 7.428 6.42-.889 5.931-1.683 14.406-2.371 23.582m-10.277-22.392c-1.063-4.223-1.823-8.73-2.266-13.496.372.278.745.559 1.119.842-.072 4.188.244 8.679 1.147 12.654m12.918-2.89a219.365 219.365 0 0 0-7.49-6.42c.251-1.608.667-3.297 1.276-5.154a51.382 51.382 0 0 1 1.749-4.563 223.202 223.202 0 0 1 5.68 5.062c0 1.63-.07 3.166-.227 4.535a.277.277 0 0 0-.003.027v.002l-.003.026v.006l-.004.022v.007l-.003.02c0 .005 0 .009-.002.013a.129.129 0 0 0-.001.017l-.004.028a2.36 2.36 0 0 0 .187 1.26c-.4 1.169-.786 2.914-1.155 5.113m-14.011-11.535c-.446-.335-.89-.665-1.333-.992a115.316 115.316 0 0 1-.22-12.539c1.035.774 2.064 1.561 3.089 2.36a58.294 58.294 0 0 0-1.362 8.472 65.48 65.48 0 0 0-.174 2.7"/><path fill="#67C79D" d="M110.257 401.243l1.113-.913c-39.016-47.606-63.768-59.953-89.978-73.03-2.065-1.03-4.135-2.065-6.22-3.117l-.649 1.284c2.086 1.055 4.16 2.089 6.23 3.123 26.063 13.004 50.684 25.286 89.504 72.653"/><path fill="#67C79D" d="M33.172 350.46c8.177-4.415 13.865-3.003 21.74-1.045 1.15.284 2.342.583 3.592.874l.323-1.406c-1.239-.286-2.425-.58-3.568-.865-7.882-1.958-14.106-3.504-22.77 1.175l.683 1.266m47.51 18.491l.342-1.396c-1.388-.339-2.632-.683-3.73-.986-5.04-1.395-8.082-2.239-15.077-.179l.407 1.379c6.605-1.946 9.33-1.187 14.285.187 1.108.304 2.364.654 3.773.995M41.73 339.303l1.53-.042c-3.14-2.361-6.09-6.767-8.3-9.956-1.404-2.03-2.859-4.123-4.533-6l-1.073.96c1.615 1.808 3.043 3.867 4.424 5.86 2.275 3.282 4.625 6.679 7.952 9.178"/><path fill="#289163" d="M61.791 294.94c-3.607 8.866-5.826 18.548-1.293 27.416 4.076 7.98 22.568 25.038 24.744 34.114 3.168 13.2-12.445 14.166-5.357 27.09 2.92 5.323 7.095 9.662 11.86 13.367 2.719 2.114 7.703 12.504 16.576 10.221 19.516-5.024 15.818-18.65 19.848-26.25 8.28-15.623 13.81-35.042 5.038-47.238-3.591-4.99-12.664-1.641-16.002-6.784-3.057-4.713 1.535-20.528.141-26.897-2.896-13.23-14.407-5.536-15.782-12.475-2.938-14.842-27.002-36.886-36.48-33.8-19.249 6.266-.139 33.491-3.293 41.236"/><path fill="#67C79D" d="M108.99 406.961l1.446-.809c-1.88-70.117-15.547-97.755-30.01-127.835-1.14-2.369-2.28-4.741-3.42-7.146l-1.3.616c1.14 2.405 2.283 4.782 3.423 7.154 14.394 29.937 27.99 58.214 29.86 128.02"/><path fill="#67C79D" d="M97.956 324.848l1.116-.906a268.424 268.424 0 0 1-2.607-3.274c-5.715-7.253-10.228-12.981-21.262-14.82l-.237 1.421c10.486 1.744 14.632 7.006 20.368 14.29.837 1.06 1.702 2.158 2.622 3.289"/><path fill="#185C5A" d="M104.891 357.161l1.128-.895c-1.015-1.276-1.894-2.457-2.67-3.498-3.55-4.766-5.695-7.643-13.408-10.666l-.525 1.341c7.33 2.87 9.264 5.47 12.78 10.185.781 1.048 1.668 2.239 2.695 3.533"/><path fill="#67C79D" d="M90.546 303.275l1.458 1.342c-1.182-4.335-1.004-10.632-.767-15.057.152-2.803.307-5.702.11-8.554l-1.44.101c.196 2.76.043 5.616-.107 8.379-.245 4.537-.497 9.229.746 13.789"/><path fill="#5997FF" d="M118.784 414.41c-9.43 0-17.063-7.65-17.063-17.06V179.138c0-9.43 7.633-17.064 17.063-17.064h364.74c9.414 0 17.053 7.635 17.053 17.064V397.35c0 9.41-7.64 17.06-17.054 17.06h-364.74"/><path fill="#2879FF" d="M498.937 179.138c0-8.507-6.913-15.426-15.414-15.426h-364.74c-8.503 0-15.424 6.92-15.424 15.426V397.35c0 8.503 6.92 15.42 15.425 15.42h364.74c8.5 0 15.413-6.917 15.413-15.42V179.138M100.082 397.35V179.138c0-10.314 8.389-18.703 18.702-18.703h364.74c10.306 0 18.69 8.39 18.69 18.703V397.35c0 10.31-8.384 18.698-18.69 18.698h-364.74c-10.313 0-18.702-8.388-18.702-18.698"/><path fill="#F2F1F0" d="M120.783 392.928h361.054V178.782H120.783z"/><path fill="#D4CDC8" d="M120.463 190.844h361.052v-13.177H120.463z"/><path fill="#2879FF" d="M497.532 403.782H104.766a15.312 15.312 0 0 1-1.39-5.695h25.935l.872.673.744-.673h10.834l.048 1.998s4.875.158 10.742.158c5.857 0 12.703-.157 16.674-.785.794-.125 1.517-.613 2.175-1.37h327.52a15.31 15.31 0 0 1-1.388 5.694"/><path fill="#14323B" d="M500.574 403.782h-3.042a15.31 15.31 0 0 0 1.388-5.695h1.657v5.68l-.003.015m-395.808 0h-3.042l-.003-.014v-5.68h1.655a15.312 15.312 0 0 0 1.39 5.694"/><path fill="#5997FF" d="M532.828 400.355H69.468v13.75c5.501 8.193 18.874 14.045 25.742 14.045h411.965c6.815 0 20.102-5.795 25.653-13.928v-13.867"/><path fill="#2879FF" d="M69.717 414.524c5.669 7.974 18.706 13.626 25.456 13.626h411.965c6.732 0 19.77-5.652 25.441-13.626H69.717"/><path fill="#F2F1F0" d="M262.11 400.705c.431 5.306 4.868 9.484 10.292 9.484h57.493c5.42 0 9.862-4.178 10.295-9.484h-78.08"/><path fill="#1A4B76" d="M415.1 128.651c.027.35 1.985 4.808 2.013 5.16h9.73c-.038-.352 1.467-4.81 1.428-5.161l-13.17.001"/><path fill="#FFB839" d="M409.28 98.154c.983 2.463 1.896 14.642 2.773 17.137h20.692c.958-2.506 1.953-14.693 3.025-17.157 2.356-3.4 13.194-16.016 16.868-27.834 4.948-14.832-8.912-35.777-30.389-35.807-21.412-.186-36.515 19.3-31.578 34.183 3.699 12.34 14.025 23.942 18.608 29.478"/><path fill="#FFFFFE" d="M423.941 54.91c-.11 0-.238.071-.316.125-.995.675-2.056 3.326-1.302 7.1.17.848.355 1.652.553 2.415.503-1.698.978-3.732 1.41-6.163.416-2.333.021-3.277-.245-3.45l-.1-.028zm-16 4.62c-.329.44-.107 2.748 1.523 6.064.945 1.921 2.284 3.97 3.784 5.377a194.5 194.5 0 0 0-.993-5.757l-.017-.091c-.302-1.594-1.011-5.327-2.576-5.973-.481-.197-1.043-.072-1.721.38zm27.202 1.812c-.356.197-1.027 1.358-1.356 1.929l-.244.423c-1.181 2.007-2.214 4.72-3.097 7.869.366-.31.743-.682 1.128-1.124 1.748-2.005 4.541-6.548 3.885-8.457-.14-.405-.258-.576-.316-.64zm-8.976 52.35c-1.572-8.621-.807-26.754 2.33-39.81-.428.046-.85.013-1.27-.095-1.961-.522-3.397-2.754-4.419-5.296-1.477 3.334-3.28 5.166-5.393 5.466-.833.12-1.664-.012-2.465-.337 1.86 12.48 3.865 30.597 3.357 39.995l-1.284-.07c.485-8.903-1.495-27.608-3.483-40.7-2.105-1.458-3.952-4.09-5.228-6.683-1.347-2.742-2.479-6.372-1.241-7.58l.083-.071c1.076-.74 2.086-.92 2.997-.547 2.207.908 2.95 4.82 3.349 6.92l.017.09c.364 1.923.776 4.354 1.2 7.115.826.48 1.68.717 2.518.596 1.445-.202 3.274-1.543 4.932-5.986a40.018 40.018 0 0 1-1.102-4.312c-.828-4.14.299-7.367 1.84-8.415.624-.422 1.294-.464 1.834-.111.957.62 1.247 2.308.81 4.75-.566 3.191-1.245 5.89-2.033 8.096 1.128 3.341 2.551 5.443 4.043 5.84.407.107.833.093 1.283-.045.986-3.78 2.184-7.062 3.594-9.459l.24-.412c.8-1.385 1.551-2.695 2.604-2.588.898.086 1.27 1.167 1.392 1.522 1.018 2.962-2.999 8.418-4.132 9.717-.875 1.005-1.74 1.722-2.587 2.15-3.189 12.809-4.1 31.385-2.522 40.031l-1.264.23z"/><path fill="#2879FF" d="M408.517 112.522c1.286 1.408 1.89 2.069 2.496 2.73-2.343-.22-2.46 3.521.492 3.7-3.013-.118-3.135 3.739-.192 3.78-2.945-.16-3.064 4.182-.292 4.426l-1.855 2.018c3.808 1.784 24.863 1.668 25.305-.19-.52-.616-1.093-1.301-1.68-1.994 2.956-.26 2.172-4.177-.294-3.995 3.307-.365 2.043-4.284-.014-4.014 2.78-.512 1.935-3.344.353-3.692.666-.91 1.188-1.626 2.02-2.769h-26.339"/><path fill="#FFB839" d="M449.343 35.228l1.642-2.034c2.123-2.648 4.324-5.379 6.652-8.011l.69.612c-2.314 2.615-4.505 5.34-6.625 7.974l-1.642 2.04-.717-.58m-14.089-6.242l-.44-2.567c-.58-3.347-1.18-6.808-1.614-10.3l.916-.11c.431 3.466 1.025 6.917 1.606 10.252l.442 2.57-.91.155m23.33 25.153l.222-.896 2.528.634c3.282.827 6.679 1.68 10.103 2.372l-.183.904c-3.447-.697-6.854-1.554-10.145-2.383l-2.525-.632"/><path fill="#FC5D16" d="M524.387 344.636l-68.434-202.168L79.42 178.736l60.487 211.095 385.88-34.74-1.4-10.455"/><path fill="#F57C02" d="M524.329 344.636l-373.942 40.45-61.932-206.853 191.375-15.387 176.123-20.378 68.376 202.168"/><path fill="#C3C3C3" d="M514.454 337.467l-353.676 39.827-5.461-18.077 353.678-39.829 5.46 18.079"/><path fill="#F9F8F7" d="M306.818 159.36c-11.762 3.122-20.757 8.44-25.082 14.61l50.417 166.887 3.568 9.324c1.563-2.982 3.063-8.525 14.848-11.396l158.48-17.846-53.096-178.471-149.135 16.891"/><path fill="#FFFFFE" d="M250.542 165.697c12.816.355 24.323 3.364 31.974 8.186l49.366 163.411 1.052 3.476 2.807 9.295c-5.434-3.427-12.818-5.927-21.22-7.222L156.04 360.69 101.356 182.4l149.186-16.704"/><path fill="#E4E4E3" d="M254.316 170.946c23.897 138.315 50.613 172.978 50.613 172.978s15.165-2.734 30.664 6.4l-53.077-176.441c-7.535-4.75-29.694-11.568-28.2-2.937"/><path fill="#FFFFFE" d="M313.621 342.036c-1.567.641-2.945.9-3.07.57l-.677-1.793c-.121-.33 1.052-1.122 2.618-1.764 1.565-.639 2.946-.899 3.07-.566l.678 1.791c.124.328-1.054 1.127-2.619 1.762"/><path fill="#2489A6" d="M312.132 341.472c-.42-3.584 1.157-5.941 5.105-7.641 3.65-1.567 9.313-2.535 17.318-2.95 4.186-.222 7.58.135 9.813 1.027 3.3 1.312 4.091 3.754 2.292 7.052h-.383c1.777-3.258 1.01-5.655-2.214-6.944-2.167-.86-5.464-1.203-9.535-.995-7.884.417-13.45 1.36-17.015 2.89-3.868 1.662-5.405 3.984-4.994 7.525l-.387.036"/><path fill="#2879FF" d="M324.754 331.918zm10.556-1c3.606-.13 6.579.195 8.625.937-2.17-.786-5.362-1.104-9.238-.91.205-.01.41-.022.613-.026zm-20.733 4.584c-1.825 1.484-2.534 3.38-2.26 5.878-.274-2.499.435-4.394 2.26-5.878zm-2.634 6.056l-.009-.071c-.421-3.603 1.174-5.978 5.168-7.694 3.69-1.584 9.4-2.565 17.464-2.982 4.228-.228 7.694.137 9.96 1.044 3.328 1.325 4.136 3.784 2.328 7.106l-.042.07h-.768l.045-.071c1.76-3.236 1.007-5.617-2.186-6.89-2.12-.843-5.374-1.183-9.385-.976-7.828.408-13.345 1.344-16.87 2.859-3.822 1.645-5.343 3.945-4.931 7.467l.007.069-.781.07z"/><path fill="#FFFFFE" d="M307.98 326.99c-1.565.645-2.947.898-3.07.568l-.678-1.793c-.123-.33 1.054-1.119 2.619-1.762 1.565-.64 2.946-.898 3.07-.568l.678 1.796c.123.326-1.055 1.121-2.619 1.759"/><path fill="#2489A6" d="M307.088 326.193c-.42-3.584 1.156-5.943 5.107-7.639 3.649-1.569 9.31-2.537 17.315-2.956 4.186-.217 7.578.136 9.815 1.031 3.297 1.316 4.09 3.751 2.294 7.054l-.384-.003c1.774-3.256 1.007-5.657-2.218-6.943-2.166-.863-5.462-1.203-9.53-.993-7.887.41-13.453 1.355-17.018 2.89-3.868 1.66-5.407 3.982-4.992 7.521l-.389.038"/><path fill="#2879FF" d="M319.71 316.636zm10.556-.997c3.608-.127 6.58.193 8.626.937-2.168-.787-5.363-1.103-9.24-.913.21-.005.411-.017.614-.024zm-20.732 4.584c-1.828 1.483-2.535 3.378-2.259 5.882-.276-2.504.431-4.4 2.259-5.882zm-2.634 6.057l-.007-.07c-.421-3.605 1.17-5.983 5.165-7.699 3.69-1.586 9.403-2.56 17.463-2.983 4.23-.224 7.695.142 9.958 1.044 3.335 1.331 4.14 3.787 2.33 7.108l-.04.075-.764-.004.04-.068c1.76-3.236 1.008-5.62-2.184-6.889-2.12-.844-5.376-1.186-9.386-.98-7.83.41-13.346 1.344-16.87 2.86-3.825 1.644-5.345 3.946-4.932 7.464l.008.072-.78.07z"/><path fill="#FFFFFE" d="M303.883 311.383c-1.566.64-2.947.896-3.072.569l-.675-1.796c-.125-.325 1.054-1.12 2.619-1.76 1.563-.644 2.943-.896 3.066-.57l.678 1.792c.123.33-1.054 1.125-2.616 1.765"/><path fill="#2489A6" d="M302.045 310.912c-.42-3.582 1.154-5.94 5.106-7.64 3.65-1.566 9.311-2.534 17.315-2.952 4.186-.22 7.58.136 9.817 1.025 3.295 1.318 4.088 3.756 2.292 7.059l-.383-.002c1.774-3.26 1.006-5.659-2.22-6.945-2.165-.865-5.46-1.205-9.53-.994-7.885.411-13.452 1.357-17.016 2.888-3.868 1.666-5.404 3.985-4.993 7.525l-.388.036"/><path fill="#2879FF" d="M314.666 301.357zm10.558-1c3.605-.126 6.577.197 8.625.94-2.171-.79-5.363-1.104-9.238-.913.204-.008.41-.02.613-.027zm-20.734 4.584c-1.824 1.487-2.535 3.38-2.26 5.882-.275-2.502.436-4.395 2.26-5.882zM301.855 311l-.006-.072c-.422-3.603 1.17-5.98 5.166-7.697 3.689-1.585 9.403-2.558 17.462-2.979 4.23-.23 7.693.14 9.96 1.043 3.332 1.326 4.137 3.782 2.327 7.107l-.038.07h-.766l.037-.074c1.764-3.234 1.013-5.613-2.177-6.883-2.123-.85-5.378-1.188-9.389-.979-7.829.407-13.345 1.344-16.87 2.86-3.825 1.64-5.343 3.943-4.932 7.463l.008.07-.782.071z"/><path fill="#FFFFFE" d="M298.49 296.198c-1.564.645-2.945.898-3.07.57l-.677-1.795c-.124-.328 1.054-1.122 2.62-1.762 1.565-.638 2.945-.894 3.068-.567l.676 1.79c.127.33-1.053 1.124-2.616 1.764"/><path fill="#2489A6" d="M297 295.63c-.42-3.579 1.156-5.939 5.107-7.639 3.65-1.566 9.311-2.535 17.316-2.952 4.185-.22 7.58.137 9.816 1.03 3.295 1.314 4.088 3.752 2.292 7.053l-.381-.003c1.772-3.254 1.005-5.654-2.222-6.944-2.166-.862-5.459-1.201-9.528-.99-7.888.41-13.454 1.354-17.02 2.887-3.866 1.663-5.405 3.984-4.991 7.525l-.389.033"/><path fill="#2879FF" d="M320.183 285.08c3.603-.13 6.576.196 8.624.935-2.172-.785-5.365-1.1-9.242-.913.205-.004.41-.017.617-.022m-20.736 4.581c-1.826 1.486-2.535 3.382-2.26 5.885-.275-2.503.434-4.399 2.26-5.885m-2.632 6.057l-.012-.07c-.42-3.607 1.174-5.979 5.168-7.698 3.69-1.584 9.404-2.556 17.463-2.981 4.23-.223 7.693.141 9.96 1.044 3.333 1.332 4.138 3.785 2.327 7.109l-.04.07h-.763l.04-.073c1.762-3.232 1.007-5.613-2.183-6.89-2.12-.84-5.376-1.183-9.386-.972-7.83.408-13.346 1.34-16.87 2.856-3.823 1.644-5.345 3.944-4.933 7.465l.009.07-.78.07"/><path fill="#FFFFFE" d="M292.85 281.152c-1.566.644-2.948.894-3.072.57l-.677-1.797c-.123-.327 1.055-1.121 2.62-1.762 1.564-.638 2.945-.896 3.069-.565l.677 1.792c.123.328-1.054 1.125-2.618 1.762"/><path fill="#2489A6" d="M291.956 280.355c-.418-3.583 1.156-5.942 5.108-7.642 3.647-1.567 9.31-2.536 17.316-2.952 4.187-.22 7.581.138 9.816 1.03 3.296 1.314 4.089 3.752 2.29 7.052h-.379c1.773-3.26 1.005-5.657-2.22-6.943-2.167-.864-5.462-1.206-9.53-.995-7.888.41-13.454 1.357-17.019 2.887-3.867 1.662-5.407 3.985-4.991 7.526l-.39.037"/><path fill="#2879FF" d="M315.136 269.802c3.606-.132 6.58.193 8.624.938-2.167-.79-5.361-1.105-9.24-.917.209-.007.413-.017.616-.021m-20.733 4.58c-1.827 1.485-2.535 3.384-2.262 5.883-.273-2.499.435-4.398 2.262-5.884m-2.633 6.058l-.009-.069c-.422-3.602 1.17-5.978 5.167-7.698 3.69-1.584 9.402-2.559 17.463-2.982 4.228-.225 7.693.142 9.959 1.045 3.332 1.329 4.137 3.787 2.326 7.106l-.04.072h-.764l.04-.07c1.763-3.235 1.008-5.62-2.182-6.889-2.121-.846-5.374-1.19-9.385-.978-7.83.407-13.348 1.341-16.871 2.86-3.823 1.643-5.344 3.945-4.933 7.465l.01.07-.781.068"/><path fill="#FFFFFE" d="M288.75 265.543c-1.564.643-2.946.902-3.07.57l-.677-1.794c-.122-.328 1.054-1.12 2.62-1.762 1.564-.643 2.944-.898 3.07-.569l.675 1.793c.126.33-1.054 1.123-2.619 1.762"/><path fill="#2489A6" d="M286.912 265.072c-.42-3.582 1.16-5.937 5.107-7.637 3.65-1.568 9.313-2.537 17.319-2.954 4.184-.219 7.579.138 9.812 1.03 3.298 1.314 4.091 3.755 2.292 7.05h-.382c1.775-3.256 1.007-5.655-2.219-6.944-2.165-.86-5.46-1.202-9.53-.991-7.885.413-13.451 1.356-17.018 2.888-3.867 1.663-5.404 3.984-4.99 7.527l-.391.031"/><path fill="#2879FF" d="M310.093 254.523c3.606-.13 6.577.19 8.624.937-2.169-.788-5.362-1.103-9.238-.914.206-.01.409-.02.614-.023m-20.735 4.579c-1.824 1.487-2.535 3.38-2.258 5.884-.277-2.503.434-4.397 2.258-5.884m-2.631 6.059l-.01-.07c-.421-3.605 1.172-5.978 5.166-7.699 3.69-1.586 9.403-2.559 17.464-2.98 4.228-.226 7.692.14 9.96 1.042 3.331 1.33 4.135 3.788 2.326 7.107l-.04.075-.765-.002.04-.073c1.762-3.233 1.008-5.615-2.18-6.885-2.12-.845-5.375-1.187-9.388-.978-7.829.405-13.343 1.344-16.869 2.856-3.823 1.645-5.345 3.948-4.933 7.468l.01.072-.781.067"/><path fill="#FFFFFE" d="M283.36 250.362c-1.567.638-2.946.896-3.072.567l-.677-1.794c-.122-.33 1.053-1.12 2.62-1.765 1.563-.638 2.946-.894 3.068-.564l.678 1.788c.124.33-1.052 1.127-2.617 1.768"/><path fill="#2489A6" d="M281.87 249.795c-.422-3.586 1.156-5.945 5.105-7.641 3.65-1.569 9.313-2.535 17.318-2.95 4.184-.223 7.577.134 9.815 1.027 3.295 1.312 4.089 3.752 2.29 7.052h-.382c1.773-3.257 1.008-5.659-2.219-6.945-2.164-.862-5.46-1.202-9.53-.99-7.887.407-13.451 1.354-17.018 2.887-3.867 1.659-5.404 3.983-4.99 7.525l-.389.035"/><path fill="#2879FF" d="M305.051 239.243c3.602-.131 6.575.194 8.624.935-2.17-.789-5.363-1.102-9.241-.913.206-.007.412-.019.617-.022m-20.737 4.581c-1.824 1.484-2.534 3.382-2.259 5.883-.275-2.5.435-4.4 2.259-5.883m-2.631 6.057l-.01-.07c-.423-3.605 1.172-5.979 5.167-7.698 3.688-1.585 9.4-2.561 17.463-2.985 4.23-.222 7.694.144 9.958 1.048 3.333 1.326 4.138 3.787 2.327 7.107l-.037.071h-.765l.039-.071c1.762-3.236 1.01-5.617-2.181-6.888-2.12-.845-5.375-1.185-9.387-.977-7.829.406-13.348 1.34-16.871 2.858-3.823 1.643-5.344 3.944-4.933 7.467l.009.069-.78.07"/><path fill="#FFFFFE" d="M277.717 235.315c-1.563.64-2.946.898-3.07.564l-.678-1.79c-.124-.33 1.054-1.124 2.62-1.763 1.564-.641 2.944-.897 3.07-.566l.677 1.793c.125.325-1.054 1.122-2.619 1.762"/><path fill="#2489A6" d="M276.824 234.514c-.42-3.584 1.157-5.94 5.108-7.637 3.648-1.575 9.312-2.538 17.315-2.955 4.187-.219 7.582.14 9.817 1.028 3.298 1.318 4.089 3.754 2.29 7.054l-.383-.004c1.775-3.256 1.01-5.657-2.217-6.94-2.164-.864-5.461-1.206-9.531-.992-7.885.408-13.45 1.354-17.017 2.887-3.866 1.662-5.405 3.981-4.991 7.523l-.39.036"/><path fill="#2879FF" d="M300.004 223.96c3.606-.13 6.579.193 8.626.94-2.169-.787-5.363-1.106-9.24-.913l.614-.028m-20.733 4.584c-1.825 1.487-2.536 3.382-2.26 5.885-.276-2.503.435-4.398 2.26-5.885m-2.632 6.062l-.009-.074c-.423-3.604 1.171-5.978 5.166-7.698 3.688-1.585 9.402-2.56 17.463-2.984 4.23-.225 7.693.142 9.96 1.045 3.331 1.33 4.136 3.788 2.328 7.112l-.04.071-.766-.005.04-.072c1.76-3.232 1.008-5.613-2.183-6.888-2.12-.842-5.374-1.18-9.385-.973-7.829.408-13.348 1.338-16.87 2.855-3.825 1.648-5.345 3.946-4.931 7.467l.007.072-.78.072"/><path fill="#FFFFFE" d="M273.62 219.703c-1.565.643-2.944.902-3.07.573l-.676-1.795c-.126-.33 1.052-1.12 2.617-1.766 1.565-.636 2.945-.895 3.068-.567l.679 1.793c.123.328-1.054 1.121-2.618 1.762"/><path fill="#2489A6" d="M271.781 219.237c-.42-3.584 1.158-5.942 5.11-7.643 3.647-1.567 9.31-2.53 17.315-2.95 4.185-.22 7.578.136 9.815 1.026 3.295 1.318 4.088 3.755 2.29 7.054l-.382-.002c1.774-3.257 1.007-5.655-2.219-6.942-2.167-.866-5.46-1.205-9.53-.994-7.884.412-13.453 1.357-17.015 2.89-3.87 1.663-5.406 3.986-4.993 7.525l-.39.036"/><path fill="#2879FF" d="M284.404 209.683zm10.558-1.003c3.607-.128 6.58.199 8.625.94-2.17-.789-5.365-1.104-9.24-.911.206-.01.412-.022.615-.029zm-20.735 4.585c-1.825 1.487-2.535 3.38-2.257 5.886-.278-2.505.432-4.399 2.257-5.886zm-2.632 6.058l-.01-.073c-.42-3.601 1.173-5.976 5.168-7.695 3.688-1.586 9.402-2.562 17.462-2.984 4.23-.223 7.693.142 9.96 1.047 3.331 1.327 4.138 3.787 2.326 7.106l-.038.071h-.766l.042-.07c1.76-3.235 1.008-5.617-2.184-6.891-2.118-.843-5.374-1.182-9.385-.977-7.83.407-13.348 1.341-16.87 2.86-3.824 1.645-5.346 3.948-4.933 7.465l.007.072-.78.069z"/><path fill="#FFFFFE" d="M268.228 204.522c-1.564.641-2.943.9-3.07.572l-.676-1.793c-.124-.328 1.055-1.126 2.617-1.77 1.567-.636 2.946-.892 3.07-.565l.678 1.795c.125.329-1.055 1.118-2.619 1.761"/><path fill="#2489A6" d="M266.735 203.954c-.417-3.58 1.158-5.94 5.112-7.638 3.646-1.569 9.31-2.534 17.315-2.953 4.184-.217 7.579.14 9.814 1.028 3.298 1.315 4.087 3.754 2.292 7.056l-.382-.002c1.776-3.26 1.005-5.658-2.218-6.944-2.167-.862-5.462-1.205-9.532-.992-7.886.41-13.452 1.356-17.016 2.886-3.867 1.664-5.406 3.985-4.993 7.525l-.392.034"/><path fill="#2879FF" d="M279.36 194.398zm10.559-.994c3.606-.13 6.578.195 8.623.94-2.168-.79-5.362-1.108-9.24-.916.208-.008.413-.02.617-.024zm-20.737 4.582c-1.824 1.486-2.532 3.378-2.258 5.883-.274-2.505.434-4.397 2.258-5.883zm-2.63 6.057l-.01-.073c-.421-3.6 1.172-5.975 5.165-7.694 3.69-1.588 9.405-2.562 17.465-2.985 4.23-.222 7.694.142 9.961 1.048 3.331 1.326 4.136 3.785 2.326 7.106l-.04.07-.763.002.038-.072c1.763-3.235 1.007-5.617-2.181-6.89-2.123-.842-5.376-1.183-9.388-.98-7.828.412-13.344 1.347-16.868 2.863-3.825 1.642-5.346 3.945-4.935 7.464l.01.074-.78.067z"/><path fill="#FFFFFE" d="M262.586 189.476c-1.564.642-2.944.898-3.07.567l-.677-1.792c-.123-.33 1.055-1.123 2.62-1.763 1.563-.64 2.945-.897 3.068-.568l.678 1.793c.125.33-1.055 1.12-2.619 1.763"/><path fill="#2489A6" d="M261.694 188.674c-.419-3.582 1.157-5.939 5.107-7.637 3.65-1.567 9.311-2.535 17.317-2.952 4.185-.219 7.579.137 9.814 1.028 3.298 1.314 4.089 3.752 2.292 7.053l-.382-.003c1.776-3.257 1.006-5.657-2.22-6.942-2.163-.862-5.46-1.204-9.529-.992-7.887.41-13.453 1.356-17.016 2.887-3.869 1.665-5.408 3.985-4.993 7.527l-.39.031"/><path fill="#2879FF" d="M274.315 179.12zm10.56-.998c3.604-.128 6.576.194 8.624.937-2.168-.784-5.363-1.102-9.24-.913.207-.006.412-.015.615-.024zm-20.735 4.584c-1.826 1.487-2.535 3.38-2.259 5.881-.276-2.501.433-4.394 2.26-5.881zm-2.631 6.06l-.011-.073c-.421-3.606 1.174-5.978 5.167-7.697 3.69-1.587 9.404-2.56 17.464-2.982 4.228-.223 7.693.143 9.959 1.043 3.33 1.327 4.134 3.785 2.327 7.11l-.039.068h-.765l.04-.072c1.76-3.235 1.008-5.613-2.184-6.887-2.118-.842-5.374-1.186-9.386-.974-7.829.405-13.344 1.341-16.867 2.857-3.825 1.643-5.348 3.947-4.936 7.464l.009.07-.778.072z"/><path fill="#FFFFFE" d="M258.488 173.863c-1.564.647-2.946.902-3.07.572l-.676-1.792c-.124-.328 1.054-1.12 2.619-1.767 1.564-.637 2.944-.891 3.067-.568l.678 1.796c.124.327-1.053 1.124-2.618 1.759"/><path fill="#2489A6" d="M256.65 173.397c-.42-3.584 1.155-5.943 5.108-7.64 3.648-1.568 9.312-2.536 17.316-2.953 4.186-.216 7.58.139 9.815 1.03 3.296 1.312 4.089 3.752 2.292 7.053l-.382-.002c1.774-3.257 1.005-5.657-2.218-6.944-2.166-.864-5.463-1.203-9.531-.992-7.888.408-13.453 1.357-17.02 2.887-3.865 1.662-5.402 3.987-4.99 7.525l-.39.036"/><path fill="#2879FF" d="M269.273 163.842zm10.557-.996c3.607-.13 6.58.191 8.624.935-2.169-.789-5.36-1.1-9.238-.913.206-.008.412-.016.614-.022zm-20.733 4.582c-1.827 1.481-2.536 3.378-2.26 5.884-.276-2.506.433-4.403 2.26-5.884zm-2.634 6.058l-.007-.073c-.425-3.607 1.172-5.98 5.163-7.698 3.692-1.584 9.403-2.56 17.465-2.985 4.231-.222 7.693.144 9.96 1.047 3.332 1.33 4.137 3.79 2.326 7.108l-.039.073-.764-.004.04-.067c1.761-3.236 1.008-5.618-2.183-6.889-2.12-.845-5.375-1.186-9.387-.978-7.827.41-13.344 1.343-16.869 2.857-3.824 1.645-5.345 3.946-4.934 7.468l.008.07-.779.07z"/><path fill="#E1F1E9" d="M308.225 258.985l-1.252-4.146c.21-.015.42-.03.634-.043.28 1.391.485 2.789.618 4.189m-1.335-4.422l-3.343-11.066a41.12 41.12 0 0 1 4.004 11.02l-.661.046"/><path fill="#F3F3F3" d="M267.224 304.146c-14.36 0-28.305-7.514-35.895-20.901a41.824 41.824 0 0 1-1.797-3.557 44.725 44.725 0 0 1-.834-11.961c1.339-20.89 16.812-37.503 36.504-41.111 7.071 31.914 14.002 55.783 20.045 73.356a40.97 40.97 0 0 1-18.023 4.174m41.047-44.648l-1.4-4.652.102-.007 1.252 4.146c.017.172.032.342.046.513m-1.483-4.928l-3.442-11.444c.067.122.135.247.2.37l3.344 11.067-.102.007"/><path fill="#CCC" d="M285.247 299.972c-6.043-17.573-12.974-41.442-20.045-73.356a44.617 44.617 0 0 1 10.949-.637c1.995.128 3.952.385 5.862.763l-.217.091c-3.106 1.337-4.76 3.07-5.145 5.468l-.061.025c-1.567.639-2.745 1.433-2.62 1.762l.678 1.79c.037.1.185.148.418.148.546 0 1.555-.261 2.651-.711 1.565-.64 2.744-1.437 2.619-1.762l-.677-1.793c-.038-.099-.185-.145-.416-.145-.394 0-1.028.135-1.764.38.445-2.186 2.015-3.774 4.864-5.001.097-.042.196-.083.296-.124a44.311 44.311 0 0 1 9.344 3.102 40.968 40.968 0 0 1 9.022 9.37c-6.347.5-11.002 1.41-14.165 2.771-3.115 1.34-4.772 3.08-5.149 5.492-1.288.591-2.187 1.24-2.08 1.53l.677 1.794c.037.098.184.143.412.143.545 0 1.557-.26 2.66-.71 1.565-.64 2.74-1.438 2.617-1.768l-.678-1.788c-.037-.097-.184-.144-.414-.144-.496 0-1.376.215-2.358.59.452-2.174 2.021-3.757 4.859-4.976 3.045-1.312 7.579-2.187 13.806-2.663a41.859 41.859 0 0 1 2.154 3.513l3.442 11.444c-6.726.484-11.618 1.41-14.905 2.822-3.148 1.357-4.804 3.118-5.159 5.57-1.092.54-1.818 1.096-1.721 1.357l.677 1.794c.037.098.185.144.414.144.546 0 1.555-.262 2.655-.714 1.565-.64 2.745-1.432 2.62-1.762l-.677-1.793c-.037-.097-.184-.143-.415-.143-.545 0-1.554.26-2.654.712l-.062.025c.44-2.2 2.012-3.798 4.87-5.028 3.15-1.35 7.885-2.244 14.44-2.708l1.4 4.652a41.31 41.31 0 0 1-.52 10.724c-4.672.532-8.242 1.342-10.823 2.45-3.105 1.337-4.759 3.069-5.144 5.466l-.064.025c-1.564.64-2.742 1.435-2.619 1.762l.677 1.796c.037.096.184.142.413.142.546 0 1.557-.258 2.658-.711 1.564-.637 2.74-1.434 2.618-1.762l-.677-1.792c-.037-.098-.184-.144-.415-.144-.394 0-1.028.136-1.764.38.446-2.185 2.016-3.775 4.863-4.998 2.427-1.046 5.8-1.815 10.223-2.325-2.165 11.516-9.197 22.036-20.185 28.266a41.63 41.63 0 0 1-2.265 1.195"/><path fill="#E7F3EE" d="M290.191 281.863c-.229 0-.376-.046-.413-.142l-.677-1.796c-.123-.327 1.055-1.121 2.62-1.762l.063-.025c-.111.687-.116 1.429-.023 2.232l.009.07.78-.07-.009-.07c-.104-.898-.084-1.717.07-2.466.736-.244 1.37-.38 1.764-.38.23 0 .378.046.415.144l.677 1.792c.123.328-1.054 1.125-2.618 1.762-1.101.453-2.112.711-2.658.711"/><path fill="#5AAAB6" d="M291.77 280.44l-.009-.07c-.093-.803-.088-1.545.023-2.232.385-2.397 2.039-4.13 5.144-5.466 2.58-1.108 6.15-1.918 10.823-2.45l-.054.289c-4.423.51-7.796 1.279-10.223 2.325-2.847 1.223-4.417 2.813-4.863 4.998-.154.749-.174 1.568-.07 2.467l.01.07-.781.068m.315-1.165"/><path fill="#E7F3EE" d="M286.094 266.257c-.23 0-.377-.046-.414-.144l-.677-1.794c-.097-.26.63-.817 1.721-1.358a8.182 8.182 0 0 0-.007 2.13l.01.07.78-.067-.009-.072c-.104-.887-.085-1.698.063-2.44l.062-.025c1.1-.452 2.11-.712 2.654-.712.23 0 .378.046.415.143l.676 1.793c.126.33-1.054 1.123-2.619 1.762-1.1.452-2.109.714-2.655.714"/><path fill="#5AAAB6" d="M286.727 265.16l-.01-.069a8.182 8.182 0 0 1 .007-2.13c.355-2.45 2.011-4.212 5.16-5.569 3.286-1.412 8.178-2.338 14.904-2.822l.102-.007.66-.046c.02.093.04.185.057.28-.213.012-.424.027-.634.042l-.101.007c-6.556.464-11.292 1.357-14.44 2.708-2.86 1.23-4.432 2.829-4.87 5.028-.149.742-.168 1.553-.064 2.44l.01.072-.781.067m.315-1.196"/><path fill="#E7F3EE" d="M280.7 251.072c-.228 0-.375-.045-.412-.143l-.677-1.794c-.107-.29.792-.939 2.08-1.53a8.141 8.141 0 0 0-.018 2.207l.01.07.779-.07-.009-.07c-.105-.907-.083-1.734.074-2.49.982-.375 1.862-.59 2.358-.59.23 0 .377.047.414.144l.678 1.788c.124.33-1.052 1.127-2.617 1.768-1.103.45-2.115.71-2.66.71"/><path fill="#5AAAB6" d="M281.683 249.881l-.01-.07a8.141 8.141 0 0 1 .018-2.206c.377-2.412 2.034-4.151 5.149-5.492 3.163-1.36 7.818-2.271 14.165-2.77l.187.27c-6.227.476-10.761 1.35-13.806 2.663-2.838 1.22-4.407 2.802-4.859 4.977-.157.755-.18 1.582-.074 2.49l.009.069-.78.07m.316-1.168"/><path fill="#E7F3EE" d="M275.066 236.026c-.233 0-.381-.047-.418-.147l-.679-1.79c-.124-.33 1.054-1.124 2.62-1.763l.062-.025a8.113 8.113 0 0 0-.021 2.23l.009.074.78-.072-.007-.072c-.106-.898-.085-1.717.067-2.466.736-.245 1.37-.38 1.764-.38.23 0 .378.046.416.145l.677 1.793c.125.325-1.054 1.122-2.619 1.762-1.096.45-2.105.711-2.651.711"/><path fill="#5AAAB6" d="M276.639 234.605l-.009-.074a8.113 8.113 0 0 1 .021-2.23c.384-2.399 2.04-4.13 5.145-5.468l.217-.091c.209.04.418.084.626.128-.1.041-.199.082-.296.124-2.849 1.227-4.419 2.815-4.864 5.001-.152.75-.173 1.568-.067 2.466l.007.072-.78.072m.315-1.197"/><path fill="#D6D6D6" d="M196.596 312.647l12.947 14.567 23.828-27.854-6.624-7.452-30.15 20.74"/><path fill="#207F55" d="M114.892 386.984l15.291 11.776 80.002-72.375-12.692-14.279-82.6 74.878"/><path fill="#F57C02" d="M246.853 227.052c19.806-11.23 44.958-4.275 56.19 15.53 11.225 19.807 4.27 44.968-15.53 56.195-19.801 11.228-44.955 4.277-56.184-15.532-11.225-19.806-4.276-44.965 15.524-56.193m-29.603 32.66c-1.767 27.584 19.156 51.375 46.737 53.144 27.574 1.772 51.368-19.157 53.137-46.742 1.765-27.58-19.163-51.377-46.738-53.144-27.58-1.77-51.368 19.161-53.136 46.742"/><path fill="#E1E1E1" d="M229.532 279.688c-8.565-19.17-1.312-42.07 17.32-52.636a41.071 41.071 0 0 1 17.294-5.26c.351 1.625.705 3.238 1.056 4.824-19.692 3.608-35.165 20.222-36.504 41.11a44.725 44.725 0 0 0 .834 11.962"/><path fill="#C2CFC6" d="M291.983 229.972a44.311 44.311 0 0 0-9.344-3.102 23.415 23.415 0 0 1 2.796-.924 41.122 41.122 0 0 1 6.548 4.026m-9.97-3.23a45.073 45.073 0 0 0-8.763-.856c-2.742 0-5.431.25-8.048.73-.351-1.586-.705-3.2-1.056-4.825a41.422 41.422 0 0 1 20.865 3.949c-1.115.3-2.113.635-2.998 1.002"/><path fill="#529CA5" d="M282.64 226.87a42.044 42.044 0 0 0-.627-.128 24.591 24.591 0 0 1 2.997-1.002c.141.068.285.137.425.206a23.415 23.415 0 0 0-2.796.924"/><path fill="#DA5B38" d="M237.2 296.939c-9.286-8.811-14.74-21.526-13.857-35.299 1.517-23.666 21.178-41.84 44.556-41.84.962 0 1.927.03 2.9.092 13.772.884 25.686 7.917 33.237 18.255a44.63 44.63 0 0 0-12.053-8.175 41.122 41.122 0 0 0-6.973-4.232 41.422 41.422 0 0 0-20.864-3.949 41.071 41.071 0 0 0-17.293 5.261c-18.633 10.566-25.886 33.467-17.321 52.636a44.567 44.567 0 0 0 7.668 17.25"/><path fill="#FFFFFE" d="M269.995 219.05c-24.184-1.55-45.119 16.865-46.67 41.053-.755 11.809 3.159 23.179 11.017 32.02 7.74 8.708 18.408 13.912 30.033 14.658 11.713.752 23.02-3.105 31.836-10.86 8.816-7.755 14.082-18.477 14.834-30.195.756-11.806-3.154-23.176-11.016-32.019-7.741-8.708-18.406-13.914-30.034-14.657zm-48.149 40.96c1.605-25.002 23.247-44.04 48.243-42.44 12.019.77 23.044 6.152 31.048 15.151 8.125 9.141 12.168 20.896 11.384 33.102-.774 12.108-6.22 23.195-15.33 31.21-9.116 8.016-20.8 12-32.91 11.226-12.018-.77-23.045-6.151-31.046-15.151v-.002c-8.123-9.14-12.168-20.893-11.389-33.096zm-16.506 70.848l1.85-1.702-13.08-14.225-1.85 1.704 13.08 14.223"/><path fill="#F7D0C2" d="M502.413 361.092a.989.989 0 0 1-.494 1.304l-1.987.903a.991.991 0 0 1-1.304-.494.993.993 0 0 1 .487-1.301l1.996-.897a.983.983 0 0 1 1.302.485"/><path fill="#F7D0C2" d="M510.773 358.083s-9.207 1.441-10.238 1.51c-.829.043-2.246-.17-2.246-.17-.375-.057-.542.116-.53.329.045.568 3.093 1.398 3.168 1.466 0 0-2.002.472-2.18 1.05-.253.83.005.975.524 1.633.563.706 1.685.812 1.672.917-.003.128.775.265.775.265.129.148.308.182.52.165l1.9-.39c.227-.125 3.768-2.823 3.83-3.227l1.697-.972c-.678-.877 1.735-1.66 1.108-2.576"/><path fill="#F7D0C2" d="M503.161 359.352l14.227-5.556 4.82-18.224c-1.25-2.158-.016 1.52 2.473.694 2.487-.83 3.783 3.074 4.28 5.38 1.051 4.84-1.84 16.837-3.202 17.103-11.43 2.212-20.365 4.471-20.365 4.471-.127.763-1.382-2.877-2.233-3.868m17.192 78.978l.072-14.343c2.426.989 3.215 2.719 5.63 3.914.407 3.521-.322 7.749-.31 10.516-2.194-1.05-5.11.017-5.392-.087"/><path fill="#0E1220" d="M526.771 435.787l-6.608.347-2.993 2.683s-6.223 1.248-8.097 2.811c-.892.745-1.233 3.1-1.233 3.1l18.886-.508.045-8.433"/><path fill="#FC5D16" d="M507.803 444.009l19.226-1.01.058 1.203-19.223 1.006-.061-1.2"/><path fill="#FFFFFE" d="M520.353 438.33l.304-.073c-.181-.722-.599-1.096-1.59-1.193l-.182.178c.853.077 1.32.501 1.468 1.088m-.789.875l.306-.071c-.183-.726-.774-1.143-1.76-1.241l-.159.198c.86.088 1.469.526 1.613 1.114"/><path fill="#F7D0C2" d="M569.256 423.227l-12.828-5.028a106.444 106.444 0 0 1 6.276-4.891c3.307 1.284 6.694 3.905 9.15 5.189-1.956 1.45-2.38 4.529-2.598 4.73"/><path fill="#0E1220" d="M570.009 416.365l-2.786 6 .975 3.9s-1.815 6.085-1.31 8.475c.239 1.142 2.164 2.54 2.164 2.54l8.394-16.933-7.437-3.982"/><path fill="#FC5D16" d="M568.396 436.969l8.106-17.458 1.092.51-8.105 17.46-1.093-.512"/><path fill="#FFFFFE" d="M569.256 423.227l.073-.307c-.726-.178-1.249.02-1.797.84l.069.249c.476-.711 1.064-.93 1.655-.782m.404 1.104l.075-.307c-.72-.172-1.368.152-1.918.98l.103.231c.476-.715 1.15-1.05 1.74-.904"/><path fill="#1056CA" d="M520.325 361.28l13.474-2.453c5.05 6.667-.692 22.335 5.417 32.244 7.899 12.814 20.485 19.667 28.869 23.275-.87 2.696-3.31 4.824-5.104 7.575-9.3-2.959-22-9.413-32.02-19.287-2.149-2.123-9.336-40.088-10.636-41.354"/><path fill="#1056CA" d="M512.23 400.14c-.595-5.59 7.697-31.964 7.697-31.964l.309-1.238c-.108-2.458-.16-4.29-.155-5.714l16.588-.038c3.029 7.032 5.545 12.937-.896 21.81l-10.554 23.298 2.627 28.62-8.931-.352s-6.698-32.566-6.685-34.421"/><path fill="#2879FF" d="M539.57 366.536s-7.302 2.79-12.718 3.118c-5.697.338-9.522-1.777-9.522-1.777-.151-30.894-1.096-39.603 8.094-47.066.897-.728 3.78-.2 4.622-.233 0 0 9.653 5.43 9.918 16.689.01.682-.63 27.189-.394 29.27"/><path fill="#F7D0C2" d="M522.556 307.075c.74-2.024 2.404-7.565 3.577-4.649.372.939 1.232-1.209 5.624-.051.315.11 3.119 7.4 2.479 8.705-.93 1.887.666 1.282-.2 1.235-.213-.008-.813 2.761-.813 2.761l.832 6.822s-.832 1.485-6.24 1.726c-2.867.124-2.78-2.623-2.78-2.623s-.734-4.07-1.48-4.105c-3.903-.23-2.337.674-1.387-5.683.019-.153-.972-.12-1.495-.457-.386-.25 1.099-1.521 1.883-3.681"/><g transform="translate(523.53 314.173)"><mask id="g" fill="#fff"><use xlink:href="#f"/></mask><path fill="#DEAB8C" d="M-1.59 7.709h8.067V2.957H-1.59z" mask="url(#g)"/><path fill="#DEAA8B" d="M6.477 5.434L-.817 2.957l.007-.022 7.295 2.478" mask="url(#g)"/><path fill="#DEAA8C" d="M6.485 5.413L-.81 2.935l.022-.064 7.294 2.477" mask="url(#g)"/><path fill="#DEA98C" d="M6.506 5.348L-.788 2.871l.021-.064 7.295 2.477" mask="url(#g)"/><path fill="#DEA88B" d="M6.528 5.284L-.767 2.807l.008-.021 7.294 2.477" mask="url(#g)"/><path fill="#DEA88C" d="M6.535 5.263L-.759 2.786l.014-.043L6.55 5.22" mask="url(#g)"/><path fill="#DEA88C" d="M6.55 5.22L-.745 2.743l.022-.064 7.294 2.477" mask="url(#g)"/><path fill="#DDA78B" d="M6.571 5.156L-.723 2.679l.007-.022L6.58 5.135" mask="url(#g)"/><path fill="#DEA78C" d="M6.58 5.135L-.717 2.657l.022-.064L6.6 5.07" mask="url(#g)"/><path fill="#DEA68C" d="M6.6 5.07L-.694 2.593l.022-.064 7.294 2.477" mask="url(#g)"/><path fill="#DEA68C" d="M6.622 5.006L-.672 2.53l.022-.064 7.294 2.477" mask="url(#g)"/><path fill="#DDA58C" d="M6.644 4.942L-.65 2.465l.022-.064 7.294 2.477" mask="url(#g)"/><path fill="#DDA48B" d="M6.666 4.878L-.628 2.401l.007-.022 7.295 2.477" mask="url(#g)"/><path fill="#DDA48C" d="M6.674 4.856L-.621 2.379l.014-.043 7.295 2.477" mask="url(#g)"/><path fill="#DDA38C" d="M6.688 4.813L-.607 2.336l.022-.064L6.71 4.75" mask="url(#g)"/><path fill="#DDA38C" d="M6.71 4.75L-.585 2.272l.022-.064 7.294 2.477" mask="url(#g)"/><path fill="#DDA28B" d="M6.731 4.685L-.563 2.208l.014-.043 7.295 2.478" mask="url(#g)"/><path fill="#DEA28C" d="M6.746 4.643L-.549 2.165l.007-.02L6.753 4.62" mask="url(#g)"/><path fill="#DEA28C" d="M6.753 4.621L-.542 2.144l.03-.086 7.294 2.477" mask="url(#g)"/><path fill="#DEA18B" d="M6.782 4.535L-.513 2.058l.015-.042 7.294 2.477" mask="url(#g)"/><path fill="#DDA08B" d="M6.796 4.493L-.498 2.016l.03-.086 7.294 2.477" mask="url(#g)"/><path fill="#DD9F8B" d="M6.826 4.407L-.468 1.93l.007-.021 7.294 2.477" mask="url(#g)"/><path fill="#DD9F8B" d="M6.833 4.386L-.461 1.909l.014-.044 7.295 2.478" mask="url(#g)"/><path fill="#DD9F8B" d="M6.848 4.343L-.447 1.865l.015-.042L6.862 4.3" mask="url(#g)"/><path fill="#DD9E8B" d="M-.432 4.3H8v-5.832H-.432z" mask="url(#g)"/></g><path fill="#FFFFFE" d="M522.58 313.089l-.127.826c.398.05 1.563-.963 1.563-.963l-1.436.137"/><path fill="#0A0B09" d="M522.138 297.416c1.255-.988 2.15.147 2.15.147l3.303 1.703s3.256.411 4.79 1.054c2.093.877 4.87 3.364 4.739 4.606-.759 7.162-3.58 9.803-3.588 10.995-.003.357-.28.188-.551.153-.575-1.067-.661-1.566-.952-2.437.235-.058.814-.325 1.001-1.44.219-1.351-1.219-3.267-2.472-.994-.233.651-.2.236-.554.055.15-.728.555-2.936.923-5.108-1.203-.71-2.193-.91-2.405-.94-4.73-.593-5.356-1.912-5.356-1.912s-2.588-4.65-1.028-5.882"/><path fill="#FFB839" d="M462.558 409.15l101.82.439v-62.398l-98.918 3.899-2.902 58.06"/><path fill="#FFFFFE" d="M503.192 364.878c13.14-6.572 19.592-4.717 26.182 5.022 3.227 4.766.733 17.63-3.337 21.7-5.827 5.83-20.989 3.005-26.818-2.825-4.068-4.071-5.46-19.179 3.973-23.897"/><path fill="#F57C02" stroke="#F57C02" d="M523.734 379.082l-14.726-8.514v17.02l14.726-8.506-14.726-8.514v17.02l14.726-8.506"/><path fill="#FFFFFE" d="M558.565 403.166l.006-.61c-7.052-.072-14.33-.162-21.724-.256-23.701-.292-48.208-.598-70.64-.357l.008.612c22.423-.242 46.928.065 70.624.36 7.394.09 14.673.181 21.726.251"/><path fill="#F57C02" d="M539.347 402.77a3.67 3.67 0 0 0 7.34 0 3.669 3.669 0 1 0-7.34 0"/><path fill="#F7D0C2" d="M547.13 367.731a.99.99 0 0 1 .707 1.204l-.541 2.112a.994.994 0 0 1-1.202.71.996.996 0 0 1-.71-1.196l.551-2.118a.985.985 0 0 1 1.195-.712"/><path fill="#F7D0C2" d="M550.02 359.328s-4.643 8.084-5.235 8.929c-.486.674-1.54 1.645-1.54 1.645-.28.257-.248.496-.074.618.469.32 3.026-1.534 3.124-1.55 0 0-.886 1.854-.544 2.36.487.715.763.603 1.599.612.904.001 1.688-.806 1.764-.73.097.083.69-.439.69-.439.196-.008.335-.125.456-.302l.884-1.725c.046-.256.161-4.707-.114-5.009l.304-1.93c-1.11-.021-.207-2.394-1.314-2.479"/><path fill="#F7D0C2" d="M546.242 366.057l4.58-14.572-8.155-11.966c-2.467-.376-1.856-2.241-.94-4.698.908-2.46 4.763-1.025 6.872.03 4.431 2.214 11.972 11.982 11.324 13.21-5.433 10.299-9.266 18.68-9.266 18.68.513.577-3.11-.723-4.415-.684"/><path fill="#2879FF" d="M546.29 347.046c-5.727-5.35-16.286-22.797-16.286-22.797 6.153-6.837 10.419 1.955 23.318 13.412-3.691 4.25-5.364 6.067-7.032 9.385"/><path fill="#F7D0C2" d="M385.286 273.553c.102-1.596.585-4.094.62-5.022.046-1.215-.535-1.512-.535-1.512-.341.093-.212.81-.436 1.062-.542.619-1.157-1-1.214-1.353-.132-.869-.293-1.737-.501-2.172-.198-.44-.312-.047-.614-.275-.277-.214-.647-.444-.972-.209-.07.043-.266-.655-.392-.013-.18.924 2.999 8.065 3.11 9.293.026.214.187 1.146.204 1.35.542-.113.202-1.038.73-1.15"/><path fill="#F7D0C2" d="M383.198 269.998c1.912 4.382.205 14.516 1.503 19.058.68 2.362 4.528 3.353 3.922-2.94 0 0-2.753-10.598-3.586-16.224-.154-1.061-2.152-.603-1.84.106"/><path fill="#F7D0C2" d="M387.89 286.552l6.445-1.75.921 6.629s-9.3 1.382-10.22-1.933c-.24-.87 2.855-2.946 2.855-2.946"/><path fill="#E27609" d="M405.537 273.875c-4.112 2.078-6.043 9.734-13.383 11.307-1.835 1.374-2.118 4.016-1.457 4.951 3.083 4.293 9.232-.927 12.183-1.376 12.303-1.879 2.917-5.56 5.968-11.185l-3.31-3.697"/><path fill="#F7D0C2" d="M401.125 270.781c1.412-1.074 1.791 4.819.906 8.576-.19.841-.34 2.177-.517 3.635l8.633.015c-2.774-5.423-2.21-13.291-2.21-12.99-.392-1.834 1.813-6.494 1.808-7.086-.01-1.227-5.985-9.018-7.552-8.854-1.066.095-4.824.295-2.323 17.137.41 0 .83-.116 1.255-.433"/><path fill="#F7D0C2" d="M397.594 262.91c.236-.87.756-6.61 1.852-6.963 3.843-.568 3.11.565 3.85 3.764.385 1.678 1.358 10.392 1.261 10.451-.227.045-4.954 2.32-6.145 1.365-.16-.12.118-2.469-.352-2.662-.453-.193-.466-.468-.35-.844.1-.364.176-.275-.175-.459-.341-.178-.326-.566.053-.745.591-.28-.514-.794-1.168-1.324-.645-.53.654-.632 1.174-2.583"/><path fill="#FFFFFE" d="M397.7 267.657c-.06-.069.47-.29 1.025-.254 0 0-.996.547-.968.409.018-.093.047-.093-.057-.155"/><path fill="#941800" d="M409.988 255.408c-.204-1.495-10.058-3.087-12.178.57-3.823 6.621 7.544 7.857 7.544 7.857s-6.005-5.08-.844-5.928c5.724-.938 4.564-3.344 4.564-3.344l.914.845"/><path fill="#0E1220" d="M409.76 400.048c-1.45-.496-6.267.553-8.364.353-6.336-.697-3.64-2.12-.7-2.25 4.314.751 7.8-1.44 11.77-2.29 1.417 4.914-1.608 4.133-2.707 4.187"/><path fill="#F7D0C2" d="M408.16 387.39l1.72-.878c.138.85 2.585 9.35 2.585 9.35s-6.235 2.262-10.078 2.704c-2.503.287-3.094-.112-3.094-.112s10.29-2.978 8.867-11.063"/><path fill="#0E1220" d="M398.445 400.708c-1.42-.578-6.293.207-8.37-.113-6.287-1.043-3.523-2.315-.57-2.28 4.266.99 7.86-1.008 11.87-1.641 1.145 4.99-1.827 4.044-2.93 4.034"/><path fill="#F7D0C2" d="M396.247 387.736l3.068-.532c.1.855 2.06 9.47 2.06 9.47s-6.343 1.922-10.205 2.15c-2.513.146-3.091-.284-3.091-.284s11.034-2.372 8.168-10.804"/><path fill="#0743A8" d="M410.319 329.768c.143-4.167.18-14.28-.97-17.225l-8.743 1.646c.463 4.002.364 18.09 1.682 20.618-.232 4.686-2.49 29.042-2.326 33.354.197 4.811 4.906 17.877 6.139 24.925l5.346-.595c-.627-6.463-4.227-33.743-4.727-35.203 0 0 3.76-26.95 3.599-27.52"/><path fill="#1056CA" d="M411.503 321.38c.957-7.122-2.673-9.831-4.57-9.448-2.963.607-7.576-.976-7.576-.976-7.042-3.098-3.36 3.21-3.394 15.958-2.198 28.017-1.717 59.473-.872 66.566l5.969.19c1.57-14.668 2.773-26.594.456-30.486 3.747-21.021 9.289-28.296 9.987-41.804"/><path fill="#F57C02" d="M412.444 282.96l-1.373 1.025c.18-1.073.275-2.219.218-3.47-.046-2.467-1.442-5.833-3.406-5.056-2.917 1.151-4.862 3.675-5.459.96-.21-.995-5.414 7.948-8.653 17.094-.473 1.329 1.041 5.636 1.984 10.365l-1.197 11.565s6.898 1.156 10.357-.005c3.53-1.199 4.618-2.263 4.618-2.263s-2.757-4.839 1.654-17.645c.703-7.876 1.257-12.57 1.257-12.57"/><path fill="#941800" d="M412.763 287.54c-.468-.38-4.29-12.314-4.88-12.08-2.917 1.15-6.942-17.733-5.15-18.688 4.376-2.32 3.184-2.068 3.184-2.068 3.431-2.639 9.392 2.092 7.97 9.635-.683 3.61 4.564 8.514 2.26 11.981 1.906 6.14-2.504 11.455-3.384 11.22"/><path fill="#F7D0C2" d="M206.998 393.225l-.006-16.512c-2.797 1.12-3.716 3.108-6.503 4.474-.488 4.056.33 8.922.3 12.11 2.532-1.197 5.885.044 6.21-.072"/><path fill="#0E1220" d="M199.625 391.689l7.606.261 3.431 3.111s10.184 3.363 7.956 4.968c-.627.452-18.99-.053-18.99-.053l-.003-8.287"/><path fill="#1A4B76" d="M219.294 399.04l-20.002-.47-.078 1.383 20 .47.08-1.384"/><path fill="#FFFFFE" d="M206.685 394.063l-.357-.052c.124-.845.56-1.323 1.683-1.551l.232.18c-.97.198-1.458.735-1.558 1.423m1.003.911l-.356-.052c.124-.845.755-1.391 1.873-1.617l.201.208c-.97.197-1.617.771-1.718 1.461"/><path fill="#F7D0C2" d="M129.009 398.654l15.486.822c-1.117-2.797.352-3.51-1.01-6.297-4.058-.488-7.28-.181-10.466-.21-7.325.627-3.584 3.774-4.01 5.685"/><path fill="#0E1220" d="M136.577 392.549l-5.64 6.346-4.581-.663s-7.491 1.108-10.29.807a13.264 13.264 0 0 1-2.42-.502l18.412-11.587 4.519 5.599"/><path fill="#1A4B76" d="M114.07 399.252l19.055-11.324-.71-1.192-19.052 11.325.707 1.191"/><path fill="#FFFFFE" d="M129.719 396.668l.338-.123c.287.805.126 1.433-.759 2.158l-.29-.05c.765-.63.943-1.331.71-1.985m-1.313-.337l.338-.12c.287.806-.013 1.583-.895 2.309l-.274-.09c.763-.63 1.066-1.442.83-2.099"/><path fill="#F7D0C2" d="M209.773 329.61s4.177-11.052 4.522-12.31c.273-1.017.379-2.831.379-2.831.02-.476.282-.64.543-.568.695.196.936 4.197.996 4.304 0 0 1.11-2.356 1.875-2.428 1.091-.101 1.2.254 1.882 1.075.73.877.57 2.294.705 2.317.159.023.131 1.03.131 1.03.146.188.146.424.064.681l-.97 2.258c-.217.247-4.488 3.931-4.998 3.907l-1.641 1.859c-.922-1.075-2.515 1.724-3.488.705"/><path fill="#FFB839" d="M210.038 324.31l-14.65 8.684s-4.396-9.418-6.907-13.5c-1.66-2.7-9.838 1.745-9.418 4.71.88 6.216 11.337 23.619 18.625 20.41 5.235-2.303 16.535-15.491 16.535-15.491.483.853-2.301-2.512-4.185-4.814"/><path fill="#F7D0C2" d="M195.666 302.928c.134-2.08.811-7.643-1.36-5.51-.696.686-.623-1.556-4.97-2.235-.317-.024-5.637 5.35-5.581 6.759.09 2.026-1.093.87-.303 1.168.196.073-.35 2.766-.35 2.766l-3.394 5.724s.161 1.639 4.864 3.957c2.491 1.226 3.48-1.245 3.48-1.245s2.237-3.318 2.911-3.066c3.55 1.315 1.812 1.513 3.444-4.497.04-.143.905.279 1.501.178.435-.071-.385-1.773-.242-3.999"/><g transform="translate(185.794 307.087)"><mask id="i" fill="#fff"><use xlink:href="#h"/></mask><path fill="#DEAB8C" d="M-.117 6.777h5.432V4.191H-.117z" mask="url(#i)"/><path fill="#DEAA8B" d="M.068 4.191l5.248.453.001-.022L.07 4.169" mask="url(#i)"/><path fill="#DEAA8C" d="M.07 4.169l5.247.453.004-.045-5.247-.453" mask="url(#i)"/><path fill="#DEA98C" d="M.074 4.124l5.247.453.008-.09-5.248-.454" mask="url(#i)"/><path fill="#DEA88B" d="M.081 4.033l5.248.454.002-.022L.083 4.01" mask="url(#i)"/><path fill="#DEA88C" d="M.083 4.011l5.248.454.002-.023-5.248-.454" mask="url(#i)"/><path fill="#DEA88C" d="M.085 3.988l5.248.454.008-.09-5.248-.454" mask="url(#i)"/><path fill="#DDA78B" d="M.093 3.898l5.248.454.001-.023-5.247-.453" mask="url(#i)"/><path fill="#DEA78C" d="M.095 3.876l5.247.453.004-.045L.1 3.831" mask="url(#i)"/><path fill="#DEA68C" d="M.1 3.83l5.246.454.007-.067-5.248-.453m0 0l5.248.453.005-.067L.11 3.696" mask="url(#i)"/><path fill="#DDA58C" d="M.11 3.696l5.248.454.006-.068-5.247-.454" mask="url(#i)"/><path fill="#DDA48B" d="M.117 3.628l5.247.454.002-.023-5.248-.453" mask="url(#i)"/><path fill="#DDA48C" d="M.118 3.606l5.248.453.002-.022L.12 3.583" mask="url(#i)"/><path fill="#DDA38C" d="M.12 3.583l5.248.454.007-.09-5.247-.453" mask="url(#i)"/><path fill="#DDA38C" d="M.128 3.494l5.247.452.007-.066-5.248-.454" mask="url(#i)"/><path fill="#DDA28B" d="M.134 3.426l5.248.454.003-.046L.138 3.38" mask="url(#i)"/><path fill="#DEA28C" d="M.138 3.381l5.247.453.002-.022L.14 3.358" mask="url(#i)"/><path fill="#DEA28C" d="M.14 3.358l5.247.454.006-.068-5.247-.453" mask="url(#i)"/><path fill="#DEA18B" d="M.146 3.29l5.247.454.004-.045L.15 3.246" mask="url(#i)"/><path fill="#DDA18C" d="M.15 3.246l5.247.453.002-.023-5.248-.452" mask="url(#i)"/><path fill="#DDA08B" d="M.151 3.224l5.248.452.006-.067-5.248-.453" mask="url(#i)"/><path fill="#DD9F8B" d="M.157 3.156l5.248.453.003-.045L.161 3.11" mask="url(#i)"/><path fill="#DD9F8B" d="M.161 3.111l5.247.453.003-.022-5.248-.454m0 0l5.248.454.004-.045-5.248-.454" mask="url(#i)"/><path fill="#DD9E8B" d="M.167 3.497h5.578V-.778H.167z" mask="url(#i)"/></g><path fill="#FFFFFE" d="M193.31 308.25l-.213.784c-.375-.108-1.006-1.462-1.006-1.462l1.218.678"/><path fill="#0A0B09" d="M197.486 298.98c1.882-1.074-.5-4.994-2.15-4.929-2.331.087-1.815-.88-3.048-1.076-1.217-.195-2.332-.422-3.942-.447-2.198-.04-5.103 2.522-5.468 3.674-2.114 6.643-.351 10.232-.806 11.293-.134.313.174.272.433.35.923-.725 1.615-2.122 2.213-2.784-.183-.144-.596-.607-.326-1.665.327-1.283 2.351-2.421 2.577.083-.047.662.085.282.467.263.153-.705.647-2.818 1.174-4.893.63-1.212 1.796-.677 2.496.108 1.26 1.414 2.495 1.083 3.423.562 1.216-.685 1.29.414 2.957-.54"/><path fill="#1056CA" d="M177.409 374.319s-1.847 24.14-8.184 25.14c-7.951 1.255-27.416.626-27.416.626l-.21-8.79s1.404.047 15.698-1.256c1.588-.145 2.543-.09 3.105-.033.917.092.792.182.663-.596-.987-5.932-5.533-24.827-3.768-30.562 2.51-8.163 20.53-6.51 20.53-6.51l-.418 21.98"/><path fill="#11172F" d="M174.238 377.466c-3.83 0-9.724-2.049-11.29-8.78-.052-.224-.067-.53-.061-.933 1.075 1.908 2.575 3.43 4.665 4.072 1.7.524 4.29.722 7.243.722.857 0 1.743-.016 2.649-.047l-.035 1.819s-.076.983-.247 2.549c-.576.364-1.633.598-2.924.598"/><path fill="#1056CA" d="M182.203 353.824s25.16-1.732 26.16 4.604c1.257 7.955.42 28.68.42 28.68l-10.048.837-1.673-17.375s-22.452 3.43-29.51 1.255c-8.162-2.51-7.326-18.421-7.326-18.421l21.977.42"/><path fill="#FFFFFE" d="M187.645 316.772l-10.675-3.137s.418-4.187 2.721-3.352c7.92 2.88 7.954 6.49 7.954 6.49"/><path fill="#FFB839" d="M156.785 359.828s2.92-2.011 5.953-2.027c1.513-.007 3.155.14 4.765.289 3.742.344 7.318.688 8.734-.918 5.308-6.011 3.82-6.052 3.872-10.885.209-19.256 14.965-13.92 13.08-15.49 0 0-2.842-11.397-5.544-14.025-2.257-2.19-10.862-3.938-11.931-3.976 0 0-4.437.767-8.162 4.185-5.04 4.63-9.798 13.097-10.047 21.562-.025.892-3.242 15.49-.72 21.285"/><path fill="#194770" d="M161 390.065c-.113 0-.3-.03-.598-.06a12.518 12.518 0 0 0-1.515-.056l-.002-.044c.57-.025 1.018-.03 1.409-.03l.489.002.367.003c.017.141-.011.185-.15.185"/><path fill="#11172F" d="M158.903 390.319l-.016-.37.26-.003c.552 0 .959.03 1.255.06.297.03.485.06.599.06.138 0 .166-.045.149-.186l.116.001c.655 0 1.31-.029 2.441-.186l.057.41c-1.166.162-1.836.189-2.51.189l-.474-.003-.53-.002c-.375 0-.806.005-1.347.03"/><path fill="#1A3C59" d="M197.072 371.62c-.04-.399-.07-.737-.092-1.038l.082-.012.1 1.041-.09.01"/><path fill="#11172F" d="M197.163 371.611l-.1-1.04-.083.01c-.06-.85-.047-1.41.028-2.213l.412.04c-.099 1.055-.086 1.678.064 3.17l-.321.033"/><path fill="#132D3E" d="M194.413 330.938l-.255-.532.031-.013c.078.192.152.373.224.545"/><path fill="#112828" d="M196.813 337.014a171.06 171.06 0 0 0-1.32-2.857 61.541 61.541 0 0 1-1.613-3.639l.278-.112.255.532c.524 1.264.894 2.044 1.38 3.077.35.739.757 1.602 1.326 2.861l-.306.138"/><path fill="#FFFFFE" d="M207.592 324.48a19.068 19.068 0 0 0 2.46-1.015 61.046 61.046 0 0 0 5.288 5.413c-.463.481-1.235 1.081-2.266 1.712a641.996 641.996 0 0 1-5.482-6.11"/><path fill="#185C5A" d="M214.816 329.155l.068-.072c-.732-.795-1.39-1.444-1.97-2.017-.958-.945-1.784-1.762-2.623-2.897l-.075.06c.843 1.143 1.673 1.964 2.634 2.911.58.574 1.236 1.222 1.966 2.015m-5.853-3.894c.13.231.4.325.6.211.202-.114.26-.394.128-.625-.131-.231-.4-.327-.6-.21-.203.115-.26.393-.128.624"/><path fill="#BCDFD1" d="M209.62 385.642l-11.932 1.047.42 2.513h11.302l.21-3.56m-66.136 14.655l-1.047-10.677-2.511.375v10.113l3.558.189"/><path fill="#FFFFFE" d="M97.547 322.484c5.218 3.683 6.706 13.779 14.757 20.385-.173 1.575.02 3.759-.123 5.33-5.624-.94-11.083-2.452-15.3-8.345-.036-.056-5.651-10.387-5.832-19.26 0 0 5.113.92 6.498 1.89"/><path fill="#F7D0C2" d="M110.333 330.697c-.953-3.425-.325-6.504-2.546-11.852-.996-2.411-.634-2.736-.634-2.736.763-.27.829 1.52 1.42 1.79 1.45.613.865-3.774.823-4.656-.1-2.127-.514-3.523.225-3.737.855-.252.194 5.563.744 4.62.492-.856.738-.946 1.542-.879.162-.004.33.218.67.05 2.185-1.083-.198 8.724.117 11.662.045.518-.318 6.83-.261 7.3-1.212.502-.907-2.062-2.1-1.562M67.912 364.24l-3.436 1.59c.537 3.765 1.347 12.042 2.408 11.547.211-.101.42-.158.52-.07.195.17.697-.117.803-.375.107-.26.692.042.775-.2.196-.563.713.11.78-.533.073-.625-.167-1.814-.437-2.986-.113-.483-.056-2.782 1.16-2.11.499.28.71 1.354 1.306 1.295.466-.052.422-.113-.343-1.71-.712-1.485-2.188-1.908-3.536-6.448"/><path fill="#FFFFFE" d="M69.183 376.427c-.284-1.251-.572-2.5-.682-3.784m-.216 4.199c-.283-1.245-.573-2.498-.686-3.779m-.312 4.243c-.28-1.249-.57-2.497-.684-3.782"/><path fill="#F7D0C2" d="M95.939 304.98c-.457-1.905-.253-6.723-2.737-4.567-.687.602-.984-1.222-5.073-.636-.289.066-.322 4.67-.074 6.408-.02.225.565.858.107.318-1.88-2.13-3.61-.372-3.17.872.635 1.794-.354.923-.897 1.497l.119 2.887-.857 8.39s1.03 1.042 5.938 1.359c4.766.248 4.404-3.017 4.404-3.017s-.35-4.88.314-4.761c2.106.377 2.042.855 1.853-4.98-.007-.14.831-.25 1.337-.507.374-.184-.778-1.227-1.264-3.263"/><g transform="translate(88.173 311.024)"><mask id="k" fill="#fff"><use xlink:href="#j"/></mask><path fill="#DEAB8C" d="M.067 8.634h7.526V4.543H.067z" mask="url(#k)"/><path fill="#DEAA8B" d="M.067 6.043l6.968-1.5-.005-.023-6.968 1.5" mask="url(#k)"/><path fill="#DEAA8C" d="M.062 6.02l6.968-1.5-.019-.089L.043 5.932" mask="url(#k)"/><path fill="#DEA98C" d="M.043 5.932l6.968-1.5-.02-.089L.025 5.844" mask="url(#k)"/><path fill="#DEA88B" d="M.024 5.844l6.968-1.5-.005-.023-6.968 1.5" mask="url(#k)"/><path fill="#DEA88C" d="M.019 5.821l6.968-1.5-.014-.067L.005 5.755" mask="url(#k)"/><path fill="#DEA88C" d="M.005 5.755l6.968-1.5-.02-.089-6.967 1.5" mask="url(#k)"/><path fill="#DDA78B" d="M-.014 5.667l6.968-1.5-.005-.023-6.968 1.5" mask="url(#k)"/><path fill="#DEA78C" d="M-.019 5.645l6.968-1.5-.019-.09-6.969 1.5" mask="url(#k)"/><path fill="#DEA68C" d="M-.039 5.556l6.97-1.5-.015-.067-6.969 1.5" mask="url(#k)"/><path fill="#DEA68B" d="M-.053 5.49l6.97-1.501-.006-.022-6.968 1.5" mask="url(#k)"/><path fill="#DEA68C" d="M-.057 5.468L6.91 3.967 6.896 3.9-.072 5.4" mask="url(#k)"/><path fill="#DDA58C" d="M-.072 5.4l6.968-1.5-.018-.088-6.969 1.5" mask="url(#k)"/><path fill="#DDA48B" d="M-.09 5.313l6.968-1.501-.005-.022-6.968 1.5" mask="url(#k)"/><path fill="#DDA48C" d="M-.095 5.29l6.968-1.5-.014-.066-6.968 1.5" mask="url(#k)"/><path fill="#DDA38C" d="M-.11 5.224l6.969-1.5-.02-.09-6.968 1.501" mask="url(#k)"/><path fill="#DDA38C" d="M-.13 5.135l6.97-1.5-.02-.089-6.968 1.501" mask="url(#k)"/><path fill="#DDA28B" d="M-.148 5.047l6.968-1.5-.01-.045-6.967 1.5" mask="url(#k)"/><path fill="#DEA28C" d="M-.157 5.002l6.968-1.5-.01-.045-6.968 1.501" mask="url(#k)"/><path fill="#DEA28C" d="M-.167 4.958l6.968-1.5-.019-.089L-.186 4.87" mask="url(#k)"/><path fill="#DEA18B" d="M-.186 4.87l6.968-1.5-.014-.067-6.968 1.5" mask="url(#k)"/><path fill="#DDA08B" d="M-.2 4.803l6.968-1.5-.024-.11-6.968 1.5" mask="url(#k)"/><path fill="#DD9F8B" d="M-.224 4.693l6.968-1.5-.009-.045-6.969 1.5" mask="url(#k)"/><path fill="#DD9F8B" d="M-.234 4.649l6.969-1.501-.01-.044-6.968 1.5m0 0l6.968-1.5-.014-.067-6.968 1.5" mask="url(#k)"/><path fill="#DD9E8B" d="M-.257 4.538L6.71 3.037l-.918-4.265-6.968 1.5" mask="url(#k)"/></g><path fill="#941800" d="M70.867 440.631l3.46-.063 2.137-.003c1.477 1.06 3.727 1.35 5.486 1.745 1.734.393 2.499.43 4.469.91.376.093.447.42.244.724-.825 1.24-2.89 1.22-4.148 1.26-1.247.036-3.808-.202-5.05-.273-2.805-.15-4.228-.744-4.593-.188-.245.367-2.545.596-2.407-.069.348-1.709.285-3.175.402-4.043m19.466 0l3.46-.063 2.131-.003c1.48 1.06 3.73 1.35 5.489 1.745 1.732.393 2.499.43 4.468.91.38.093.447.42.247.724-.825 1.24-2.893 1.22-4.15 1.26-1.248.036-3.806-.202-5.049-.273-2.805-.15-4.228-.744-4.594-.188-.244.367-2.491.44-2.35-.225.345-1.709.23-3.019.348-3.887"/><path fill="#F57C02" d="M77.477 357.553c-.239-1.244.708-.79.629-1.078l17.68 1.963c3.602 1.623 2.389 69.54 3.78 83.7-1.841 1.086-4.247 1.665-9.351.166-2.008-4.691-3.835-48.144-.732-64.025-.528 12.206-8.966 43.438-8.823 62.964-4.8 2.244-8.036.11-10.047-.675.526-8.326 3.01-72.533 6.864-83.015"/><path fill="#FFFFFE" d="M98.343 328.461c0-3.155-2.224-8.647-4.99-10.312-.136-.081-.964 1.422-.964 1.422s-6.953-2.651-7.609-2.93c-.79-.341-.265-.04-1.031-.46-2.54-1.381-8.674 6.523-8.674 12.753 0 0 3.299 18.044 2.136 27.583-.687 5.628 18.11 6.858 19.503 3.601.758-1.764 1.629-31.657 1.629-31.657"/><path fill="#FFFFFE" d="M95.08 320.92l-1.535-3.658s-.192.86-.63 1.438c-.4.531-6.55-1.857-9.467-2.62 1.196 1.42 1.55 1.72 5.767 6.926l3.928-3.67 2.015 2.172-.077-.588"/><path fill="#FC5D16" d="M93.372 319.219s-1.023-.557-1.498-.277c-.475.277-.825 1.652-.825 1.652l1.228 2.522-.255 23.815 1.584 1.589 1.23-1.936s-1.469-23.567-1.582-23.615c-.17-.062 1.072-3.32.118-3.75"/><path fill="#FFFFFE" d="M70.029 351.315c-1.87 5.705-1.918 9.832-.986 14.855-1.697.473-3.403 1.443-5.043 2.124-1.852-5.888-2.121-13.529-1.594-19.638 1.154-13.27 6.368-22.825 10.643-27.336 6.594-6.226 13.692-1.692 11.584 2.727-4.82 8.565-11.435 17.58-14.604 27.268m25.713-40.646l.055.76c-.702.009-2.491-1.035-2.491-1.035l2.436.275"/><path fill="#941800" d="M82.062 303.772c.235-.13-.458-1.77-.458-3.101 0-1.836 2.173-4.26 5.286-3.19.78-1.13 1.842-1.56 3.17-2.159 3.51-1.598 5.742.395 6.514 2.486.494 1.33.06 2.303-.424 2.84-1.478 1.63-3.733-1.735-4.372 1.083-.182.824-1.763 1.191-2.717 1.078.05 1.761-.46 5.171-.707 4.759-1.565-2.47-2.761-.836-2.695.52.058 1.202.773 1.334.773 1.334-.11.727-2.425 4.67-2.346 1.886.065-2.288-6.704-4.898-2.024-7.536"/><path fill="#FFFFFE" d="M113.044 322.642s4.417 16.799 3.525 23.289c-.35 2.553-3.82 3.395-6.167 2.34a4.664 4.664 0 0 1-2.343-6.166l-.63-19.903c.72.259 2.393.25 3.74.242 1.263-.007 2.24-.015 1.875.198"/><path fill="#207C90" d="M107.875 338.165l-.299-.41-.017-.043-.028-.108c.023.031.154.24.344.56"/><path fill="#BCDFD1" d="M107.947 338.576a12.419 12.419 0 0 1-.37-.822c.098.138.198.274.298.41l.063.105.01.307"/><path fill="#BCDFD1" d="M109.766 341.953l-.282-.11c-.639-1.689-1.09-2.366-1.537-3.267l-.01-.307c.548.925 1.489 2.603 1.829 3.684"/><path fill="#0D1113" d="M88.255 387.796l1.228-9.517.516-.144-1.744 9.661"/><path fill="#289163" d="M336.21 375.412c-1.283 10.012 4.18 22.32 24.055 24.757 22.765.392 31.191-13.873 30.51-24.757H336.21"/><path fill="#FFB839" d="M389.703 370.32V181.48l-52.56-.002V370.32h52.56"/><path fill="#F7D0C2" d="M390.2 181.772l-26.779-48.896-26.777 48.896H390.2"/><g transform="translate(362.928 132.283)"><mask id="m" fill="#fff"><use xlink:href="#l"/></mask><path fill="#1A3753" d="M7.136 25.08L-7.38 18.804l.656-1.516L7.79 23.564m0 0l-14.513-6.276 1.31-3.032L9.103 20.53" mask="url(#m)"/><path fill="#193753" d="M9.102 20.531l-14.514-6.275 1.31-3.032 14.514 6.274" mask="url(#m)"/><path fill="#1A3753" d="M10.412 17.498l-14.514-6.274.655-1.517 14.514 6.276" mask="url(#m)"/><path fill="#1A3652" d="M11.067 15.983L-3.447 9.707-1.48 5.16l14.514 6.275m-.001-.001L-1.48 5.159l.655-1.516L13.69 9.918" mask="url(#m)"/><path fill="#1A3651" d="M13.689 9.918L-.826 3.643l.656-1.517 14.514 6.276" mask="url(#m)"/><path fill="#193651" d="M14.344 8.402L-.17 2.126l1.638-3.79 14.514 6.275" mask="url(#m)"/><path fill="#193550" d="M15.982 4.611L1.468-1.664l.655-1.516 14.514 6.275" mask="url(#m)"/><path fill="#1A3550" d="M16.637 3.095L2.123-3.18l1.311-3.033L17.948.063" mask="url(#m)"/></g><path fill="#0D1715" d="M373.605 151.466h-.002l-.555-1.012h.002l.555 1.012"/><g transform="translate(352.694 132.283)"><mask id="o" fill="#fff"><use xlink:href="#n"/></mask><path fill="#1A3753" d="M7.66 26.28l-15.348-6.636 2.621-6.064 15.348 6.635" mask="url(#o)"/><path fill="#1A3753" d="M10.28 20.215L-5.066 13.58l1.311-3.033 15.348 6.636" mask="url(#o)"/><path fill="#193753" d="M11.592 17.183l-15.348-6.636 1.31-3.033 15.348 6.636" mask="url(#o)"/><path fill="#1A3753" d="M12.902 14.15L-2.445 7.514l.655-1.516 15.347 6.637" mask="url(#o)"/><path fill="#1A3652" d="M13.557 12.635L-1.79 5.998.176 1.45l15.347 6.636" mask="url(#o)"/><path fill="#1A3652" d="M15.523 8.086L.176 1.45.83-.066l15.348 6.635" mask="url(#o)"/><path fill="#1A3651" d="M16.179 6.57L.831-.067l.655-1.517 15.348 6.637" mask="url(#o)"/><path fill="#193651" d="M16.834 5.054L1.486-1.583l1.639-3.79 15.347 6.636" mask="url(#o)"/><path fill="#193550" d="M18.472 1.263L3.125-5.373l.327-.758L18.8.505" mask="url(#o)"/></g><path fill="#289163" d="M373.603 151.466H353.24l10.18-18.59 10.182 18.59"/><path fill="#FFFFFE" d="M374.604 370.32h1.993V182.107h-1.993zm-24.358 0h1.995V182.107h-1.995z"/><path fill="#207F55" d="M391.852 375.856h-56.86v-7.473h56.862l-.002 7.473"/><path fill="#F7D0C2" d="M401.734 301.323s-6.161-.013-12.069-.351c-.255 1.063-.456 1.618-.724 2.676 5.543 1.124 11.647 3.053 14.874 3.032 2.875-.015 5.23-4.053-2.081-5.357"/><path fill="#E27609" d="M404.38 279.582c-.704 5.355.272 12.528-3.05 20.689.117 2.69 1.805 6.288 3.138 6.249 6.203-.144 6.355-10.95 7.413-14.29 6.166-19.513-5.85-23.822-7.52-13.502l.02.854"/><path fill="#F7D0C2" d="M375.398 301.636c.177-.046 3.576-.492 6.132-.567.24-.12.417-.204.417-.204-.037-.047-1.718-.866-1.702-1.219.004-.133.113-.223.318-.148 0 0 .79.275 1.263.328.27.03 1.082.1 2.336.513.337.08.539.296.668.58l.127.02c.216.011.468.02.736.023 1.435-.036 3.1-.06 4.743-.043.647-.017 5.614.205 6.69.498 1.115.3.466.624.256 1.54-.216.931 1.203 3.082-2.18 2.073 0 0-4.365-.833-8.328-1.658l.002-.04c-.877-.063-2.65-.231-2.84-.212-.644.06-2.036-.19-4.36.558-.196.067-1.443.23-1.687-.114-1.09-.21-3.094-2.016-2.591-1.928"/><path fill="#E5C3B9" d="M380.313 302.84l-.01.033c-.435.292-1.007.423-1.548.548-.199.046-.374.088-.544.133l-.039-.02.021-.035c.171-.053.354-.088.546-.136.544-.128 1.101-.257 1.53-.543l.044.01v.01m-.339-.643l-.019.03c-1.008.365-2.018.515-2.96.645l-.04-.027.035-.032c.937-.132 1.942-.28 2.942-.642l.044.016-.002.01m-1.187-.36l-.034-.017c-1.205.275-1.919.337-3.003.247l-.004.057c1.064.088 1.824.03 3.016-.248l.025-.029v-.01"/></g></svg>