<svg xmlns="http://www.w3.org/2000/svg" xmlns:xlink="http://www.w3.org/1999/xlink" width="133" height="132"><defs><path id="a" d="M.146 8.227C-.109 5.592 2.447 4.56 3.113 6.164 2.9 3.648 4.103.348 6.17.064c3.897-.616 2.768 4.274 4.641 4.344 1.712-.054.436-4.23 4.329-2.138.932.468 1.404 2.226 2.062 4.4 1.334-2.478 3.542 1.467 2.054 2.13-6.452 1.55-19.579 1.328-19.11-.572z"/><path id="b" d="M17.166 37.576c-5.406-5.864-5.034-14.996.833-20.4 5.867-5.404 15.003-5.033 20.41.83 5.405 5.864 5.032 14.996-.834 20.402-5.867 5.403-15.007 5.029-20.41-.832zM6.978 38.804l-2.177 4.7 5.468 5.932c1.625-.598 3.252-1.192 4.879-1.789a23.146 23.146 0 0 0 5.715 2.63c.595 1.627 1.19 3.25 1.786 4.871l8.063.329c.73-1.571 1.458-3.143 2.185-4.715a23.26 23.26 0 0 0 5.91-2.173c1.566.726 3.134 1.454 4.703 2.176l5.931-5.464c-.598-1.626-1.192-3.25-1.791-4.876a23.325 23.325 0 0 0 2.638-5.715c1.622-.594 3.244-1.19 4.87-1.787l.326-8.056-4.716-2.185a23.364 23.364 0 0 0-2.174-5.908c.73-1.564 1.45-3.132 2.18-4.7l-5.47-5.932c-1.626.597-3.254 1.195-4.879 1.79A23.374 23.374 0 0 0 34.711 5.3c-.598-1.622-1.193-3.243-1.79-4.865l-8.06-.33c-.729 1.571-1.457 3.146-2.186 4.718a23.146 23.146 0 0 0-5.91 2.171c-1.567-.727-3.133-1.452-4.702-2.178l-5.931 5.467c.597 1.622 1.193 3.248 1.788 4.873a23.452 23.452 0 0 0-2.635 5.716l-4.87 1.787-.33 8.058L4.808 32.9a23.37 23.37 0 0 0 2.17 5.903z"/><path id="c" d="M13.71 4.328c.18-1.371-1.618-1.908-2.087-1.073.15-1.31-.696-3.027-2.148-3.175-2.74-.32-1.946 2.224-3.263 2.26-1.204-.028-.307-2.2-3.044-1.112-.655.243-.987 1.159-1.45 2.29-.938-1.29-1.512-.45-1.685.81 4.536.807 9.14.807 13.677 0z"/><path id="d" d="M.085 4.276c-.18-1.37 1.618-1.907 2.086-1.072-.15-1.31.697-3.027 2.148-3.175 2.741-.32 1.947 2.224 3.264 2.26 1.203-.028.307-2.2 3.044-1.112.655.243.987 1.158 1.45 2.29.938-1.29 1.513-.45 1.685.81-4.536.807-9.14.807-13.677 0z"/><path id="e" d="M73.573 31.611c.418-2.914-1.937-6.736-5.976-7.066-3.474-.324-4.904.675-5.781 1.867-1.618-5.372-2.865-9.648-5.214-10.826-3.412-1.833-5.32-1.844-6.516-1.04C49.685 9.75 48.18 4.964 46.826.04c-2.892-.077-5.812.042-8.695.118.59 3.423.47 6.892-.147 10.358-1.213-.776-2.847-1.136-5.14-.774-5.091.702-8.205 8.323-8.155 14.75-.32.008-.622.029-.9.065-2.235-1.865-6.455.222-6.903 5.002-2.94-.317-.798-4.812-8.195-2.458-1.823.542-2.747 2.58-4.035 5.095-2.417-2.658-3.966-1.25-4.563 1.2h79.311c-.2-2.597-4.617-3.515-5.83-1.785z"/></defs><g fill="none" fill-rule="evenodd"><use fill="#E7EEF9" transform="translate(5.178 16.144)" xlink:href="#a"/><path fill="#2879FF" d="M64.23 6.411l-.018-.223a47.57 47.57 0 0 1 2.69-.135l.006.225a46.72 46.72 0 0 0-2.679.133m8.041.073a44.42 44.42 0 0 0-2.677-.185l.008-.224a44.16 44.16 0 0 1 2.692.186l-.023.223m-13.364.636l-.04-.22c.884-.167 1.78-.31 2.66-.428l.03.223a51.53 51.53 0 0 0-2.65.425m18.658.248a39.907 39.907 0 0 0-2.633-.53l.038-.22c.89.147 1.78.326 2.647.531l-.052.219M53.687 8.369l-.063-.215c.863-.252 1.74-.485 2.605-.692l.053.218a56.07 56.07 0 0 0-2.595.69m29.002.598a37.7 37.7 0 0 0-2.534-.891l.066-.215c.861.269 1.72.57 2.55.897l-.082.209m-34.082 1.147l-.083-.21a58.366 58.366 0 0 1 2.53-.935l.073.212c-.84.29-1.688.603-2.52.933m38.922 1.176a36.128 36.128 0 0 0-2.375-1.25l.097-.203c.809.389 1.613.811 2.39 1.258l-.112.195m-43.826 1.027l-.101-.2a61.092 61.092 0 0 1 2.437-1.162l.092.205c-.812.365-1.63.754-2.428 1.157m48.268 1.98a36.915 36.915 0 0 0-2.166-1.586l.126-.186c.74.501 1.473 1.038 2.179 1.595l-.14.176m-52.96.653l-.118-.19a61.733 61.733 0 0 1 2.326-1.374l.11.196c-.779.437-1.558.897-2.318 1.368m56.924 2.961a39.098 39.098 0 0 0-1.918-1.877l.151-.165c.659.6 1.307 1.235 1.93 1.888l-.163.154m-61.369.079l-.134-.18a61.44 61.44 0 0 1 2.197-1.575l.127.185a60.246 60.246 0 0 0-2.19 1.57m-4.154 3.43l-.152-.166a59.035 59.035 0 0 1 2.047-1.77l.143.173a58.72 58.72 0 0 0-2.038 1.763m68.964.609a42.237 42.237 0 0 0-1.654-2.115l.173-.143a43.401 43.401 0 0 1 1.662 2.125l-.181.133m-72.771 3.189l-.166-.152c.6-.659 1.226-1.316 1.865-1.952l.158.159a54.797 54.797 0 0 0-1.857 1.945m75.684 1.32a47.925 47.925 0 0 0-1.392-2.298l.19-.121c.479.743.95 1.52 1.397 2.307l-.195.111m-79.27 2.706a50.684 50.684 0 0 1 1.655-2.133l.174.142a50.544 50.544 0 0 0-1.649 2.123l-.18-.132zm81.68 2.093a54.233 54.233 0 0 0-1.145-2.43l.202-.101c.396.79.783 1.611 1.149 2.44l-.206.09m-84.433 2.542l-.195-.112c.441-.77.915-1.545 1.41-2.303l.188.123a46.16 46.16 0 0 0-1.403 2.292m86.382 2.465c-.291-.854-.6-1.704-.92-2.524l.21-.082c.32.824.63 1.676.923 2.534l-.213.072M17.89 38.697l-.208-.086c.342-.822.718-1.651 1.12-2.463l.2.1a42.046 42.046 0 0 0-1.112 2.45m90.293 2.795a75.78 75.78 0 0 0-.719-2.59l.215-.064c.252.845.494 1.72.721 2.598l-.217.056M16.17 43.785l-.217-.057a38.32 38.32 0 0 1 .776-2.587l.213.072c-.288.85-.548 1.715-.772 2.572m93.183 2.956a81.474 81.474 0 0 0-.542-2.634l.22-.048c.192.861.375 1.75.543 2.64l-.22.042m-94.155 2.312l-.223-.024c.095-.887.226-1.784.389-2.667l.221.04a35.563 35.563 0 0 0-.387 2.65m95.002 3a96.898 96.898 0 0 0-.386-2.662l.222-.035c.139.873.268 1.77.386 2.668l-.222.029M14.816 54.42a34.36 34.36 0 0 1-.026-2.701l.225.006a34.597 34.597 0 0 0 .026 2.684l-.225.011m95.946 2.981c-.072-.896-.156-1.798-.247-2.678l.222-.023c.093.882.177 1.785.25 2.683l-.225.018m-95.26 2.375a34.931 34.931 0 0 1-.447-2.665l.223-.028c.113.881.263 1.772.445 2.647l-.22.046m95.588 1.92l-.224-.009a32.5 32.5 0 0 0 0-2.683l.225-.01a32.752 32.752 0 0 1 0 2.702m-94.237 3.302a80.19 80.19 0 0 1-.723-2.598l.218-.057c.226.871.469 1.743.72 2.59l-.215.065m93.565 2.051l-.22-.046c.184-.874.333-1.763.444-2.644l.223.028a33.068 33.068 0 0 1-.447 2.662m-91.843 3.058a70.16 70.16 0 0 1-.908-2.539l.213-.07c.287.852.591 1.703.905 2.53l-.21.08m90.315 2.112l-.21-.08c.321-.837.61-1.692.862-2.54l.215.064a34.54 34.54 0 0 1-.867 2.556m-88.194 2.845a62.727 62.727 0 0 1-1.113-2.456l.207-.088a62.45 62.45 0 0 0 1.109 2.448l-.203.096m85.89 2.04l-.195-.11c.441-.784.857-1.586 1.234-2.386l.204.096a37.43 37.43 0 0 1-1.243 2.4m-83.335 2.71a55.547 55.547 0 0 1-1.334-2.344l.199-.107c.425.793.872 1.579 1.328 2.336l-.193.116m80.37 1.805l-.18-.135a40.868 40.868 0 0 0 1.55-2.194l.187.123a41.642 41.642 0 0 1-1.558 2.206M26.27 84.288a50.5 50.5 0 0 1-1.567-2.197l.187-.125a50.218 50.218 0 0 0 1.56 2.187l-.18.135m73.839 1.43l-.162-.155a45.229 45.229 0 0 0 1.81-1.986l.171.146a45.725 45.725 0 0 1-1.82 1.996M29.76 88.402a46.21 46.21 0 0 1-1.804-2.007l.171-.145a45.77 45.77 0 0 0 1.796 1.997l-.163.155m66.382.98l-.144-.174a49.496 49.496 0 0 0 2.026-1.768l.152.166a49.728 49.728 0 0 1-2.034 1.775m-62.428 2.693a43.287 43.287 0 0 1-2.033-1.775l.152-.165a43 43 0 0 0 2.024 1.766l-.143.174m58.09.522l-.125-.187a52.243 52.243 0 0 0 2.202-1.545l.134.18c-.715.53-1.46 1.053-2.211 1.552m-53.707 2.627a42.494 42.494 0 0 1-2.242-1.505l.132-.182a41.826 41.826 0 0 0 2.23 1.496l-.12.19m49.057.138l-.105-.198a55.824 55.824 0 0 0 2.349-1.32l.115.193a55.27 55.27 0 0 1-2.36 1.325m-4.895 2.295l-.085-.207a55.67 55.67 0 0 0 2.465-1.085l.095.204c-.813.381-1.646.747-2.475 1.088m-39.41.129a41.743 41.743 0 0 1-2.417-1.204l.107-.198c.786.424 1.595.827 2.404 1.198l-.093.204m34.318 1.684l-.064-.215a55.965 55.965 0 0 0 2.556-.841l.075.21c-.844.302-1.708.586-2.567.846m-29.277.253a43.234 43.234 0 0 1-2.552-.89l.08-.21c.83.32 1.686.618 2.54.885l-.068.215m24.038 1.058l-.044-.22a54.773 54.773 0 0 0 2.625-.59l.054.219a55.3 55.3 0 0 1-2.635.59m-18.794.24a45.907 45.907 0 0 1-2.641-.57l.054-.217a45.09 45.09 0 0 0 2.628.566l-.041.22m13.451.546l-.022-.223a52.582 52.582 0 0 0 2.67-.324l.033.223c-.888.13-1.79.24-2.68.324m-8.093.122a47.205 47.205 0 0 1-2.689-.256l.028-.223c.88.11 1.781.196 2.676.255l-.015.224m3.267.109c-.19 0-.38-.002-.569-.004l.003-.224c.892.01 1.793-.004 2.688-.042l.01.224c-.71.03-1.426.046-2.132.046"/><use fill="#CDE0FF" transform="translate(77.262 13.634)" xlink:href="#b"/><path fill="#FFFFFE" d="M121.945 41.425h-.148c0 4.624-1.874 8.809-4.906 11.839a16.701 16.701 0 0 1-11.844 4.904 16.7 16.7 0 0 1-11.844-4.904 16.686 16.686 0 0 1-4.906-11.839c0-4.624 1.875-8.808 4.906-11.839a16.7 16.7 0 0 1 11.844-4.903 16.7 16.7 0 0 1 11.844 4.903 16.685 16.685 0 0 1 4.906 11.84h.296c0-9.41-7.632-17.039-17.046-17.039-9.413 0-17.045 7.629-17.045 17.038 0 9.41 7.632 17.038 17.045 17.038 9.414 0 17.046-7.628 17.046-17.038h-.148"/><path fill="#FFB839" d="M120.794 72.684c-.085 0 0 .217 0 .217-3.811-1.55-30.084-2.577-30.92 3.226-1.35 9.364-2.713 15.89 4.396 18.699 4.57 1.806 14.614 1.328 21.08.726l5.184 3.852-.123-4.434c.275-.04.494-.077.64-.104 7.067-1.345 11.071-22.35-.257-22.182"/><path fill="#FFFFFE" d="M118.073 78.734c-3.114.139-6.574.207-10.579.207-3.266 0-6.468-.046-8.892-.085l-.122-.002-.009.563.126.003c2.437.04 5.652.084 8.912.084 4.006 0 7.466-.068 10.578-.206l.13-.006-.025-.563-.12.005m-19.464 4.28c3.108-.14 6.56-.207 10.555-.207 3.266 0 6.48.045 8.916.085l.123.002.008-.564-.126-.002c-2.453-.04-5.684-.085-8.92-.085-4.005 0-7.462.067-10.57.206l-.129.006.024.564.119-.005m9.81 3.364c0-.186.01-.367.028-.543-3.682.008-6.912.075-9.85.206l-.128.006.023.563.12-.005a231.4 231.4 0 0 1 9.807-.206v-.021"/><use fill="#E7EEF9" transform="translate(28.517 91.592)" xlink:href="#c"/><use fill="#E7EEF9" transform="translate(97.5 .788)" xlink:href="#d"/><path fill="#CDE0FF" d="M19.03 92.08a1.88 1.88 0 1 1 1.99-3.19 1.88 1.88 0 0 1-1.99 3.19zm-1.206 1.933c1.947 1.214 4.696.718 5.729-1.328C34.816 70.379 40.73 61.933 40.73 61.933s2.397-1.543 3.1-2.023c.732-.5 1.75-2.133 1.877-3.012.13-.9-.972-3.5-.972-3.5l-2.51 4.025-2.289-1.426 2.51-4.026s-2.823.158-3.572.67c-.734.5-1.752 2.134-1.879 3.012-.122.843-.048 2.278-.048 2.278S23.156 77.904 16.864 87.148c-2.347 3.447-.986 5.654.96 6.865z"/><path fill="#FFFFFE" d="M40.57 53.148c-.563.093-.997.2-1.149.295-.512.35-1.375 1.734-1.464 2.35-.089.611-.059 1.714-.04 2.088l.017.33-.187.271c-.138.2-13.862 20.076-20.08 29.212-1.097 1.61-1.352 2.982-.76 4.076.288.53.77 1.008 1.43 1.42a3.412 3.412 0 0 0 2.676.387c.753-.21 1.347-.683 1.673-1.33 11.166-22.111 17.19-30.785 17.25-30.87l.109-.157.16-.103c.024-.015 2.394-1.54 3.077-2.008.514-.35 1.376-1.734 1.465-2.35.02-.178-.076-.614-.24-1.158l-2.23 2.597-2.943-1.608 1.235-3.442zm-.367.31l-1.095 3.051-.07.193 3.125 1.706.17.093.127-.147 1.937-2.258c.092.356.12.56.113.63-.079.546-.907 1.874-1.363 2.185-.675.462-3.05 1.99-3.072 2.004l-.16.104-.04.026-.027.038-.108.156c-.06.085-6.08 8.747-17.268 30.9-.295.586-.836 1.015-1.523 1.207a3.04 3.04 0 0 1-.818.11c-.589 0-1.18-.166-1.667-.47-.626-.389-1.078-.837-1.345-1.33-.547-1.01-.296-2.297.745-3.827 6.255-9.19 19.95-29.023 20.08-29.21l.188-.273.046-.067-.004-.081-.017-.329c-.019-.368-.048-1.453.037-2.042.079-.547.907-1.875 1.355-2.181.066-.042.274-.11.654-.187z"/><path fill="#B6B8B5" d="M1.584 46.191c-.17 3.79-.55 6.547-.828 8.561-.75 5.436-.846 6.135 5.33 9.786 2.317 1.371 3.375 2.171 4.007 2.65.956.722.956.722 3.08.944 1.306.137 3.282.343 6.677.828.299.042.565.063.816.063 2.128 0 4.231-1.322 11.072-9.16 2.13-2.443 2.134-3.712 2.14-6.493 0-.408.001-.829.008-1.297.113-7.33-1.934-8.916-6.882-12.746-.414-.32-.847-.656-1.301-1.012-3.987-3.124-7.7-3.59-9.558-3.59-1.09 0-1.722.158-1.794.2-.673.433-2.072.858-3.553 1.307-2.38.722-5.078 1.54-5.524 2.581-.743 1.732-.743 1.732-1.024 2.23-.269.48-.828 1.473-2.666 5.148zm19.082 23.086a5.98 5.98 0 0 1-.852-.066c-3.39-.484-5.363-.69-6.668-.827-2.153-.224-2.194-.229-3.206-.994-.628-.475-1.679-1.27-3.984-2.633C-.364 61.019-.25 60.18.505 54.717c.278-2.014.658-4.773.826-8.564l.001-.027.012-.024c1.852-3.7 2.415-4.701 2.685-5.182.274-.488.274-.488 1.011-2.207.493-1.148 3.251-1.985 5.684-2.724 1.464-.444 2.847-.863 3.49-1.277.158-.101.916-.241 1.93-.241 1.892 0 5.669.473 9.715 3.645.454.355.887.69 1.3 1.01 5.019 3.885 7.096 5.493 6.981 12.951-.007.466-.008.887-.009 1.293-.006 2.846-.008 4.146-2.202 6.66-6.906 7.911-9.055 9.247-11.263 9.247z"/><path fill="#1056CA" d="M26.698 39.303l-2.295-1.445.46-.73 2.296 1.445-.46.73M9.213 67.044l-2.295-1.446.46-.73 2.296 1.445-.461.73m20.444-5.263l1.446-2.294.73.46-1.447 2.294-.73-.46"/><path fill="#F57C02" d="M18.67 41.26a10.96 10.96 0 0 1 7.101 4.379c.996-.72 2.031-1.467 3.108-2.243a14.778 14.778 0 0 0-9.6-5.918c-.168 1.041-.368 2.29-.61 3.782m9.03 12.494a10.954 10.954 0 0 1-4.381 7.099l2.245 3.106a14.765 14.765 0 0 0 5.919-9.595l-3.783-.61"/><path fill="#FFFFFE" d="M18.57 62.795a10.87 10.87 0 0 1-3.371-.015l-.61 3.782a14.74 14.74 0 0 0 4.557.017 14.661 14.661 0 0 0 6.417-2.62l-2.245-3.106a10.838 10.838 0 0 1-4.749 1.942m9.145-12.411c.174 1.148.16 2.281-.015 3.37l3.783.61c.237-1.47.253-3.002.017-4.553a14.66 14.66 0 0 0-2.62-6.415c-1.077.776-2.112 1.524-3.108 2.243a10.834 10.834 0 0 1 1.943 4.745m-12.416-9.139a10.87 10.87 0 0 1 3.371.015c.242-1.492.442-2.74.61-3.782a14.737 14.737 0 0 0-4.556-.018 14.667 14.667 0 0 0-6.417 2.62l2.245 3.107a10.843 10.843 0 0 1 4.747-1.942m-9.143 12.41a10.86 10.86 0 0 1 .014-3.37l-3.784-.61a14.691 14.691 0 0 0-.018 4.555c.365 2.4 1.29 4.575 2.621 6.414L8.097 58.4a10.834 10.834 0 0 1-1.942-4.745"/><path fill="#F57C02" d="M10.55 43.187l-2.244-3.108a14.766 14.766 0 0 0-5.92 9.596l3.783.61a10.952 10.952 0 0 1 4.382-7.098"/><path fill="#1056CA" d="M1.904 43.994L3.349 41.7l.731.46-1.446 2.294-.73-.46"/><path fill="#EEECE7" d="M2.367 54.23a14.691 14.691 0 0 1 .018-4.555l-1.377-.222a16.021 16.021 0 0 0-.022 4.986 16.023 16.023 0 0 0 2.874 7.02l1.128-.815a14.663 14.663 0 0 1-2.621-6.414"/><path fill="#F57C02" d="M15.199 62.78a10.96 10.96 0 0 1-7.102-4.38l-3.109 2.244a14.778 14.778 0 0 0 9.6 5.918l.61-3.782"/><path fill="#EEECE7" d="M15.526 42.751a9.375 9.375 0 0 1 2.901.013l.242-1.504a10.87 10.87 0 0 0-3.371-.015 10.85 10.85 0 0 0-4.747 1.942l.891 1.234a9.341 9.341 0 0 1 4.084-1.67"/><path fill="#D77008" d="M11.442 44.42l-.891-1.233a10.952 10.952 0 0 0-4.382 7.098l1.504.242a9.398 9.398 0 0 1 3.77-6.106m13.092 2.11l1.236-.892a10.96 10.96 0 0 0-7.102-4.38l-.242 1.505a9.404 9.404 0 0 1 6.108 3.767m-2.11 13.088l.893 1.234a10.954 10.954 0 0 0 4.38-7.099l-1.504-.242a9.396 9.396 0 0 1-3.769 6.107"/><path fill="#EEECE7" d="M27.714 50.384a10.834 10.834 0 0 0-1.943-4.745l-1.236.892a9.33 9.33 0 0 1 1.671 4.083 9.35 9.35 0 0 1-.012 2.898l1.505.242c.176-1.089.19-2.222.015-3.37M7.66 53.427a9.355 9.355 0 0 1 .013-2.9l-1.504-.242a10.86 10.86 0 0 0-.014 3.37A10.825 10.825 0 0 0 8.097 58.4l1.234-.891a9.336 9.336 0 0 1-1.67-4.082"/><path fill="#D77008" d="M15.441 61.276a9.404 9.404 0 0 1-6.11-3.767l-1.234.891a10.96 10.96 0 0 0 7.102 4.38l.242-1.504"/><path fill="#EEECE7" d="M18.342 61.288a9.39 9.39 0 0 1-2.9-.012l-.243 1.504c1.089.176 2.223.19 3.37.015a10.838 10.838 0 0 0 4.749-1.942l-.893-1.234a9.339 9.339 0 0 1-4.083 1.669"/><path fill="#D77008" d="M4.988 60.644c-.415.3-.79.57-1.128.816a16.215 16.215 0 0 0 10.506 6.48l.222-1.378a14.778 14.778 0 0 1-9.6-5.918"/><path fill="#EEECE7" d="M25.563 63.96a14.661 14.661 0 0 1-6.417 2.619 14.74 14.74 0 0 1-4.558-.017c-.072.452-.146.912-.222 1.377 1.612.26 3.29.28 4.988.023a16.044 16.044 0 0 0 7.024-2.874l-.815-1.129"/><path fill="#D77008" d="M25.563 63.96l.815 1.128a16.207 16.207 0 0 0 6.482-10.502l-1.378-.222a14.765 14.765 0 0 1-5.92 9.595M19.28 37.478a14.778 14.778 0 0 1 9.599 5.918l1.13-.816a16.213 16.213 0 0 0-10.507-6.48l-.223 1.378"/><path fill="#EEECE7" d="M31.5 49.81a14.723 14.723 0 0 1-.018 4.554l1.378.222a16.08 16.08 0 0 0 .023-4.986 16.025 16.025 0 0 0-2.874-7.02l-1.13.816a14.66 14.66 0 0 1 2.62 6.415"/><path fill="#D77008" d="M8.306 40.08c-.3-.415-.572-.79-.816-1.13a16.203 16.203 0 0 0-6.482 10.503l1.377.222a14.766 14.766 0 0 1 5.92-9.596"/><path fill="#EEECE7" d="M14.723 37.46a14.737 14.737 0 0 1 4.556.018l.223-1.377a16.059 16.059 0 0 0-4.989-.023A16.042 16.042 0 0 0 7.49 38.95c.244.34.516.715.816 1.13a14.667 14.667 0 0 1 6.417-2.62"/><path fill="#289163" d="M125.572 107.084c.125-.278.247-.557.365-.835l.113-.262c3.03-7.216 4.214-14.848 3.477-22.438l-.028-.275a59.156 59.156 0 0 0-.1-.881c-.236-1.93-2.292-3.332-4.416-3.141l-2.535.208c.5 2.489.774 4.993.825 7.495l2.562.025a5 5 0 0 0 .342-.012 44.182 44.182 0 0 1-2.333 15.05 4.922 4.922 0 0 0-.327-.077c-.832-.16-1.662-.318-2.493-.476a45.97 45.97 0 0 1-3.089 7.107l2.396.697c2.002.599 4.423-.36 5.241-2.185"/><path fill="#207F55" d="M122.448 79.46c.5 2.489.774 4.993.825 7.495l1.475.014a51.548 51.548 0 0 0-.852-7.628l-1.448.119m-1.424 22.005a45.97 45.97 0 0 1-3.089 7.107l1.443.42a55.995 55.995 0 0 0 3.123-7.246l-1.477-.281"/><path fill="#64840E" d="M124.816 86.845l.148-.018c-.307-2.597-.576-4.936-.996-7.498l-.146.024c.418 2.558.687 4.894.994 7.492z"/><path fill="#FFFFFE" d="M119.445 109.024a107.785 107.785 0 0 0 3.18-7.148l-.137-.055c-1 2.482-1.978 4.68-3.176 7.138l.133.065"/><path fill="#FFB839" d="M60.935 2.737c-.214.453-.324 9.597 0 10.14l7.127-4.537-7.127-5.603"/><path fill="#FFB839" d="M70.862 10.741l-2.8-2.4-7.127 4.535c.53.884 1.75 1.72 2.755 1.894.323.05 13.108.024 13.264 0 1.132-.196 3.25-.782 3.739-1.826l-7.03-4.604-2.801 2.401"/><path fill="#FFB839" d="M81.273 4.165c0-.643-.214-1.293-.575-1.86L73.663 8.34l7.03 4.604a3.35 3.35 0 0 0 .331-1.417c0-2.833.25-4.53.25-7.362"/><path fill="#FFB839" d="M80.698 2.306c-.534-.837-1.393-1.49-2.36-1.656-4.953-.786-9.26-.786-14.213 0-1.128.195-2.698 1.048-3.19 2.087l9.927 8.004 9.836-8.435"/><path fill="#FFFFFE" d="M80.814 12.76l-7.17-4.696-2.782 2.386-2.78-2.385-7.266 4.624.238.374 6.989-4.448 2.819 2.418 2.818-2.416 6.891 4.513.243-.37"/><path fill="#FFFFFE" d="M60.796 2.909l10.07 8.12 9.976-8.555-.288-.336-9.697 8.315-9.782-7.889-.279.345"/><path fill="#289163" d="M46.749 79.579c-.649.162-5.98.998-7.933-.015-2.106-1.093-1.702-3.63-1.302-7.272.248-2.256 8.03-1.858 9.158-1.255 0 0-.025-.084 0-.085 3.356-.064 2.17 8.104.077 8.627z"/><path fill="#207F55" d="M43 77.39a2.09 2.09 0 0 1-2.09-2.087 2.09 2.09 0 0 1 4.178 0A2.088 2.088 0 0 1 43 77.39z"/><path fill="#FFF" stroke="#FFF" stroke-width=".5" d="M42.411 74.772v1.06a.309.309 0 0 0 .463.267l.918-.53a.309.309 0 0 0 0-.534l-.918-.53a.309.309 0 0 0-.463.267v1.06a.309.309 0 0 0 .463.267l.918-.53a.309.309 0 0 0 0-.534l-.918-.53a.309.309 0 0 0-.463.267z"/><path fill="#289163" d="M50.57 3.05C47.205 1.68 24.01.774 23.27 5.898c-1.191 8.267-2.395 14.029 3.882 16.51 4.035 1.594 12.903 1.172 18.611.64l4.578 3.401-.11-3.914c.244-.036.438-.068.566-.092 6.24-1.188 9.775-19.733-.227-19.586-.074.002 0 .193 0 .193z"/><use fill="#CDE0FF" transform="translate(23.199 97.793)" xlink:href="#e"/><path fill="#FFFFFE" d="M50.758 127.453c.041-1.236.393-2.608 1.021-3.655.314-.524.696-.967 1.137-1.277.442-.31.942-.488 1.509-.488.539 0 1.142.163 1.811.546l.194.11.026-.221c.118-.997.627-1.961 1.309-2.67.681-.71 1.532-1.159 2.31-1.157.435 0 .849.134 1.223.442.373.308.707.795.958 1.509l.278-.098c-.263-.75-.623-1.288-1.048-1.639a2.175 2.175 0 0 0-1.41-.51c-.892.002-1.802.498-2.524 1.248-.722.752-1.26 1.767-1.39 2.84l.148.018.073-.129c-.704-.402-1.359-.584-1.958-.584a2.88 2.88 0 0 0-1.678.541c-.727.51-1.278 1.324-1.66 2.246a8.591 8.591 0 0 0-.625 2.919l.296.009m15.078-13.409c.244-.647.485-1.158.799-1.494a1.54 1.54 0 0 1 .54-.383c.207-.087.45-.135.745-.135.269 0 .58.04.943.125l.034-.144-.066.132c.328.163.56.368.73.595.254.34.368.736.418 1.109.05.373.035.717.041.96l.007.231.207-.104c.555-.277 1.057-.398 1.507-.398.462 0 .87.126 1.236.35.547.335.994.898 1.325 1.59.331.691.546 1.509.636 2.343l.294-.032c-.125-1.15-.476-2.274-1.055-3.123a3.52 3.52 0 0 0-1.046-1.03 2.62 2.62 0 0 0-1.39-.393c-.503 0-1.051.135-1.639.43l.066.131.148-.004c-.004-.149.001-.361-.01-.605-.018-.365-.074-.802-.266-1.222a2.236 2.236 0 0 0-1.077-1.092l-.016-.008-.016-.004a4.474 4.474 0 0 0-1.01-.132 2.2 2.2 0 0 0-.861.157c-.374.156-.66.427-.894.775-.234.35-.42.777-.607 1.27l.277.105m.348 11.439c.269-.537.583-.936.925-1.198a1.8 1.8 0 0 1 1.115-.39c.519-.001 1.098.22 1.713.687l.11.084.09-.104c.696-.796 1.526-1.202 2.27-1.2.432 0 .838.133 1.19.409.35.276.648.7.85 1.288l.279-.095c-.216-.632-.544-1.108-.947-1.425a2.188 2.188 0 0 0-1.371-.473c-.854 0-1.754.457-2.493 1.302l.111.097.09-.118c-.65-.494-1.288-.748-1.892-.748-.466 0-.906.154-1.294.451-.389.297-.727.734-1.01 1.302l.264.131m-32.637 3.715a.445.445 0 0 1-.08-.254c0-.128.055-.275.166-.424.165-.224.453-.446.803-.606.35-.163.76-.265 1.171-.265.357 0 .712.077 1.033.254.32.179.61.458.836.877l.26-.14a2.399 2.399 0 0 0-.953-.994 2.4 2.4 0 0 0-1.176-.292c-.612.001-1.207.2-1.658.49a2.132 2.132 0 0 0-.553.5 1.02 1.02 0 0 0-.224.6c0 .143.042.29.13.418l.245-.164m22.35-17.51a.447.447 0 0 1-.079-.254.73.73 0 0 1 .166-.423c.165-.224.453-.446.803-.607.35-.162.76-.264 1.17-.264.357 0 .712.077 1.033.254.321.178.61.457.837.877l.26-.14a2.414 2.414 0 0 0-.954-.995 2.411 2.411 0 0 0-1.175-.291c-.612 0-1.207.2-1.659.49a2.115 2.115 0 0 0-.553.5 1.018 1.018 0 0 0-.223.6c0 .143.042.288.129.417l.245-.164m19.506 17.916a.446.446 0 0 1-.079-.254.73.73 0 0 1 .166-.424c.165-.224.453-.446.803-.606.35-.163.76-.265 1.17-.265.357 0 .712.077 1.033.256.321.177.61.456.837.875l.26-.14a2.41 2.41 0 0 0-.954-.994 2.4 2.4 0 0 0-1.176-.292 3.15 3.15 0 0 0-1.658.49 2.132 2.132 0 0 0-.553.5 1.02 1.02 0 0 0-.223.6c0 .143.042.29.129.418l.245-.164m10.67-.263a3.447 3.447 0 0 1-1.029-2.45c0-.925.373-1.843 1.09-2.533.717-.689 1.781-1.152 3.18-1.152.446 0 .925.047 1.438.15l.058-.29a7.637 7.637 0 0 0-1.496-.156c-1.464 0-2.61.49-3.385 1.235a3.805 3.805 0 0 0-1.18 2.745c0 .951.364 1.91 1.116 2.66l.209-.209"/><path fill="#FFB839" d="M49.905 108.71l.062.278c3.15-2.616 6.166-5.435 9.105-8.364-.993-8.737-2.067-17.455-2.944-26.22-3.554 1.552-6.92 4.482-8.236 7.212-.237 14.942.335 18.67 2.013 27.094"/><path fill="#EEA530" d="M57.958 101.882a.207.207 0 0 1-.118-.042l.192-.188.031.003.02.169a.175.175 0 0 1-.125.058"/><path fill="#19301F" d="M58.063 101.655l-.031-.003.028-.027.003.03"/><path fill="#EEA530" d="M55.15 74.868l.004-.002-.003.002m.01-.005"/><path fill="#F57C02" d="M57.84 101.84c-1.63-1.138-5.42-24.609-5.364-25.315a19.76 19.76 0 0 1 2.675-1.657l.003-.002.006-.003c.32-.164.644-.317.968-.459.87 8.698.96 18.532 1.932 27.22l-.028.028-.192.188"/><path fill="#FFFFFE" d="M50.23 78.627c-.005.155-.007.32-.007.491 0 2.635.513 7.2 1.026 12.064.513 4.862 1.025 10.02 1.025 13.823 0 .698-.017 1.35-.054 1.945l.147.01c.038-.6.055-1.255.055-1.955 0-3.816-.513-8.975-1.026-13.839-.513-4.862-1.026-9.43-1.026-12.048 0-.17.003-.333.007-.486l-.148-.005"/><path fill="#FFB839" d="M82.944 108.71c-.021.093-.04.186-.062.278-3.15-2.616-6.165-5.435-9.105-8.364.993-8.737 2.067-17.455 2.944-26.22 3.554 1.552 6.92 4.482 8.236 7.212.237 14.942-.334 18.67-2.013 27.094"/><path fill="#EEA530" d="M74.891 101.882a.175.175 0 0 1-.124-.058l.022-.2.22.216a.207.207 0 0 1-.118.042m3.231-26.79"/><path fill="#F57C02" d="M75.009 101.84l-.22-.215c.972-8.689 1.062-18.523 1.932-27.221.471.206.94.436 1.401.687.78.425 1.537.909 2.251 1.434.055.706-3.734 24.177-5.364 25.315"/><path fill="#FFFFFE" d="M82.472 78.632c.005.153.007.315.007.486 0 2.617-.512 7.184-1.025 12.047-.513 4.863-1.027 10.023-1.027 13.839 0 .7.018 1.355.055 1.955l.148-.01a31.137 31.137 0 0 1-.055-1.945c0-3.804.512-8.962 1.025-13.824.513-4.863 1.027-9.428 1.027-12.062 0-.172-.002-.336-.007-.49l-.148.004"/><path fill="#2879FF" d="M57.89 99.944a130.284 130.284 0 0 1 0-56.867h17.068a130.284 130.284 0 0 1 0 56.867H57.891z"/><path fill="#1056CA" d="M57.89 103.194h17.068v-3.25H57.891zm8.128-78.801l-8.127 18.684h17.067l-8.94-18.684"/><path fill="#FFB839" d="M58.653 41.326l-.762 1.751h17.067l-.837-1.751H58.653"/><path fill="#CDE0FF" d="M59.587 62.043c0-3.749 3.05-6.815 6.8-6.835 3.807 0 6.875 3.066 6.875 6.835 0 3.768-3.068 6.835-6.838 6.835l-.047-.001c-3.742-.02-6.79-3.087-6.79-6.834z"/><path fill="#1056CA" d="M66.424 54.848h-.045c-3.944.026-7.151 3.251-7.151 7.195 0 3.944 3.208 7.171 7.152 7.194h.044c3.969 0 7.197-3.227 7.197-7.194 0-3.968-3.228-7.195-7.197-7.195zm0 .719a6.485 6.485 0 0 1 6.478 6.476 6.485 6.485 0 0 1-6.478 6.475h-.04c-3.547-.02-6.437-2.924-6.437-6.475 0-3.552 2.89-6.456 6.442-6.475l.035-.001z"/><path fill="#FFFFFE" d="M65.752 56.295a5.787 5.787 0 0 0-5.087 6.4 5.789 5.789 0 0 0 6.404 5.085 5.787 5.787 0 0 0 5.087-6.4 5.789 5.789 0 0 0-6.404-5.085zm1.333 11.62a5.925 5.925 0 0 1-6.555-5.204 5.924 5.924 0 0 1 5.207-6.551 5.924 5.924 0 0 1 6.553 5.203 5.923 5.923 0 0 1-5.205 6.552z"/><path fill="#FFFFFE" d="M69.044 62.666a21.45 21.45 0 0 1-1.318-1.777 48.564 48.564 0 0 1-1.004-1.564l-.013-.022-.227.151.013.023c.269.432.626 1.002 1.006 1.567.468.694.899 1.275 1.318 1.776l.018.021.223-.156-.016-.019m-3.988-2.218c.419.5.849 1.081 1.315 1.773.38.566 1.479 2.472 1.747 2.905l.287-.3-.787-1.166-.014-.023a52.252 52.252 0 0 0-1.006-1.569 21.515 21.515 0 0 0-1.317-1.775l-1.045-1.308-.223.157 1.043 1.306m-.094 2.721a49.44 49.44 0 0 1 1.006 1.568l.014.021.227-.15-.013-.023a49.154 49.154 0 0 0-1.007-1.568c-.467-.694-1.842-2.5-1.842-2.5l-.224.157s1.373 1.803 1.839 2.495"/><path fill="#FFB839" d="M65.033 112.018h1.7c.09-1.63 2.516-23.827 2.619-28.815.015-.717-.153-1.487-.653-2.141-.376-.487-1.446-1.16-2.175-1.147-.308.005-.658.1-.991.246-.54.229-1.04.586-1.276.887a3.683 3.683 0 0 0-.76 2.286s1.467 27.033 1.536 28.684"/><path fill="#FFFFFE" d="M66.52 81.713c-.256 2.656-.256 7.63-.293 12.984-.038 5.353-.114 11.085-.52 15.242l.147.014c.407-4.168.483-9.9.52-15.255.038-5.354.038-10.33.293-12.97l-.146-.015"/><text fill="#FFF" font-family="!PaulMaul, !Paul Maul" font-size="12.343" font-style="italic"><tspan x="24.464" y="16.246">START</tspan></text></g></svg>