<svg width="26" height="30" xmlns="http://www.w3.org/2000/svg"><path d="M17.143 3.287l.836-1.255a.892.892 0 0 0-.245-1.24.911.911 0 0 0-1.235.25l-1.006 1.511a9.39 9.39 0 0 0-5.663 0l-1.007-1.51A.905.905 0 0 0 7.59.795a.89.89 0 0 0-.247 1.233l.84 1.262C6.114 4.51 4.81 6.627 4.81 8.848a.63.63 0 0 0 .631.629h14.496a.63.63 0 0 0 .63-.63c0-2.21-1.322-4.326-3.424-5.56zM6.116 8.215c.242-1.718 1.461-3.287 3.243-4.12a.697.697 0 0 0 .203-.148.612.612 0 0 0 .243-.043 8.062 8.062 0 0 1 5.712 0 .62.62 0 0 0 .247.043c.055.062.123.11.2.148 1.81.846 3.047 2.418 3.296 4.12H6.116zm13.8 1.893H5.406a.633.633 0 0 0-.63.633v11.703a2.276 2.276 0 0 0 2.27 2.276h.493v3.09c0 1.21.979 2.19 2.186 2.19a2.19 2.19 0 0 0 2.184-2.19v-3.09h1.502v3.09c0 1.21.983 2.19 2.186 2.19 1.206 0 2.184-.98 2.184-2.19v-3.09h.493a2.276 2.276 0 0 0 2.271-2.276V10.74a.633.633 0 0 0-.63-.633zm-.631 12.336c0 .558-.453 1.015-1.01 1.015H17.09a.625.625 0 0 0-.501.25.632.632 0 0 0-.102.558c.025.084.037.17.037.252v3.291a.926.926 0 0 1-1.85 0v-3.29c0-.083.013-.17.037-.253a.628.628 0 0 0-.607-.808h-2.886a.625.625 0 0 0-.501.25.635.635 0 0 0-.105.555c.024.087.04.173.04.259v3.287a.926.926 0 0 1-1.853 0v-3.287c0-.086.013-.172.037-.256a.628.628 0 0 0-.603-.808H7.048c-.557 0-1.01-.457-1.01-1.015v-11.07h13.247v11.07zm-17.1-12.055A2.19 2.19 0 0 0 0 12.58v6.661a2.19 2.19 0 0 0 2.185 2.193A2.19 2.19 0 0 0 4.37 19.24v-6.66a2.19 2.19 0 0 0-2.185-2.19zm.923 8.854a.925.925 0 0 1-.923.926.925.925 0 0 1-.923-.926V12.58c0-.512.412-.928.923-.928.511 0 .923.416.923.928v6.664zm20.03-8.854a2.19 2.19 0 0 0-2.185 2.19v6.661c0 1.209.982 2.193 2.185 2.193a2.19 2.19 0 0 0 2.185-2.193v-6.66c0-1.209-.98-2.19-2.185-2.19zm.923 8.854a.925.925 0 0 1-.923.926.928.928 0 0 1-.924-.926V12.58c0-.512.416-.928.924-.928.511 0 .923.416.923.928v6.664zM15.669 5.4a.749.749 0 1 0 .001 1.497.749.749 0 0 0-.001-1.497zm-5.672 0a.75.75 0 1 0 .001 1.498.75.75 0 0 0-.001-1.498z" fill="currentColor" fill-rule="evenodd"/></svg>