<svg viewBox="0 0 19 19" xmlns="http://www.w3.org/2000/svg"><path d="M1.897 1.85c-.13 0-.235.12-.235.267v4.266c0 .148.105.267.235.267h4.706c.13 0 .235-.12.235-.267V2.117c0-.148-.105-.267-.235-.267H1.897zm0-1.6h4.706c.91 0 1.647.836 1.647 1.867v4.266c0 1.031-.737 1.867-1.647 1.867H1.897C.987 8.25.25 7.414.25 6.383V2.117C.25 1.086.987.25 1.897.25zm10 1.6c-.13 0-.235.12-.235.267v4.266c0 .148.105.267.235.267h4.706c.13 0 .235-.12.235-.267V2.117c0-.148-.105-.267-.235-.267h-4.706zm0-1.6h4.706c.91 0 1.647.836 1.647 1.867v4.266c0 1.031-.737 1.867-1.647 1.867h-4.706c-.91 0-1.647-.836-1.647-1.867V2.117c0-1.031.737-1.867 1.647-1.867zm-10 11.6c-.13 0-.235.12-.235.267v4.266c0 .148.105.267.235.267h4.706c.13 0 .235-.12.235-.267v-4.266c0-.148-.105-.267-.235-.267H1.897zm0-1.6h4.706c.91 0 1.647.836 1.647 1.867v4.266c0 1.031-.737 1.867-1.647 1.867H1.897c-.91 0-1.647-.836-1.647-1.867v-4.266c0-1.031.737-1.867 1.647-1.867zm10 1.6c-.13 0-.235.12-.235.267v4.266c0 .148.105.267.235.267h4.706c.13 0 .235-.12.235-.267v-4.266c0-.148-.105-.267-.235-.267h-4.706zm0-1.6h4.706c.91 0 1.647.836 1.647 1.867v4.266c0 1.031-.737 1.867-1.647 1.867h-4.706c-.91 0-1.647-.836-1.647-1.867v-4.266c0-1.031.737-1.867 1.647-1.867z" fill="currentColor"/></svg>