<svg viewBox="0 0 25 18" xmlns="http://www.w3.org/2000/svg" xmlns:xlink="http://www.w3.org/1999/xlink"><defs><path id="a" d="M0 0h25v18H0z"/></defs><g fill="none" fill-rule="evenodd"><mask id="b" fill="#fff"><use xlink:href="#a"/></mask><path d="M8.155.271a.866.866 0 0 1 1.26 0 .926.926 0 0 1 0 1.279L3.027 8.09h21.078c.492 0 .895.402.895.902a.909.909 0 0 1-.895.917H3.027l6.388 6.53c.34.36.34.945 0 1.29a.868.868 0 0 1-1.26 0L.256 9.64a.926.926 0 0 1 0-1.278l7.9-8.09z" fill="currentColor" mask="url(#b)"/></g></svg>