<svg width="38" height="36" xmlns="http://www.w3.org/2000/svg"><g fill="none" fill-rule="evenodd"><path d="M31.89 3.199l5.18 8.848a4.677 4.677 0 0 1-.502 5.427L22.577 33.607a4.677 4.677 0 0 1-7.074-.008L1.445 17.309a4.677 4.677 0 0 1-.634-5.162l4.385-8.692A4.677 4.677 0 0 1 9.37.885h18.483c1.661 0 3.197.88 4.036 2.314z" fill="#FFF"/><path d="M25.572 12.828l2.055-4.265 2.055 4.265h-4.11zm-5.079 12.137l4.253-10.347h4.436l-8.689 10.347zM19 24.033l-3.87-9.415h7.74L19 24.033zM8.818 14.618h4.436l4.253 10.347-8.689-10.347zm1.555-6.055l2.055 4.265h-4.11l2.055-4.265zm6.902-1.106l-3.304 4.57-2.202-4.57h5.506zm5.176 5.37h-6.902L19 8.055l3.45 4.774zm3.78-5.37l-2.202 4.57-3.304-4.57h5.506zm5.619 5.866L28.399 6.16c-.167-.304-.402-.494-.772-.494H10.373c-.36 0-.602.185-.772.494l-3.45 7.162a.917.917 0 0 0 .12.988L18.35 28.693A.85.85 0 0 0 19 29a.85.85 0 0 0 .65-.307L31.728 14.31a.917.917 0 0 0 .122-.988z" fill="#FFB839"/></g></svg>