<svg width="25" height="25" xmlns="http://www.w3.org/2000/svg"><path d="M25 12.5C25 19.39 19.39 25 12.5 25 5.606 25 0 19.39 0 12.5 0 5.606 5.606 0 12.5 0 19.39 0 25 5.606 25 12.5zm-1.252 0c0-6.204-5.044-11.248-11.248-11.248S1.252 6.296 1.252 12.5 6.296 23.748 12.5 23.748 23.748 18.704 23.748 12.5zm-10.195.512c-.208-.078-.528-.121-.955-.121h-.977v1.636c.003.232.013.365.027.405.02.05.047.086.089.104.043.019.156.03.339.03h.549c.32 0 .586-.03.794-.091.213-.058.39-.18.54-.37a1.06 1.06 0 0 0 .22-.677.997.997 0 0 0-.156-.567.952.952 0 0 0-.47-.349zm7.968-.512a9.02 9.02 0 0 1-9.021 9.021A9.02 9.02 0 0 1 3.479 12.5 9.02 9.02 0 0 1 12.5 3.479a9.02 9.02 0 0 1 9.021 9.021zm-5.384 1.63c0-.333-.078-.638-.237-.91a1.7 1.7 0 0 0-.641-.638 3.353 3.353 0 0 0-.812-.295c.326-.114.592-.254.794-.428.201-.17.354-.366.46-.589a1.643 1.643 0 0 0-.14-1.654 1.912 1.912 0 0 0-.866-.659 2.733 2.733 0 0 0-.508-.14V7.482H12.91v1.242h-.82V7.483h-1.28v1.242H8.863v1.044h.296c.198 0 .332.018.402.054a.305.305 0 0 1 .15.147c.03.061.045.204.045.428v4.207c0 .22-.015.364-.045.425a.282.282 0 0 1-.15.147c-.07.033-.204.051-.402.051h-.296v1.044h1.946v1.242h1.28v-1.242h.823v1.242h1.275v-1.35c.218-.041.404-.094.565-.158.44-.176.782-.433 1.025-.768a1.85 1.85 0 0 0 .36-1.108zm-2.728-2.457a.915.915 0 0 0 .468-.324.85.85 0 0 0 .155-.506.87.87 0 0 0-.147-.51.819.819 0 0 0-.43-.299c-.19-.06-.525-.089-1.007-.089h-.827v1.838h.827c.433 0 .754-.037.961-.11z" fill="currentColor" fill-rule="evenodd"/></svg>