<svg xmlns="http://www.w3.org/2000/svg" xmlns:xlink="http://www.w3.org/1999/xlink" width="20" height="23"><defs><path id="a" d="M0 0v24h24V0H0z"/></defs><g fill="none" fill-rule="evenodd" transform="translate(-2 -1)"><mask id="b" fill="#fff"><use xlink:href="#a"/></mask><path fill="#B7B7B9" d="M6.987 18.724A8.229 8.229 0 0 1 4 12.352c0-3.811 2.552-7 6.002-7.911V2.334C5.435 3.28 2 7.406 2 12.352c0 3.055 1.314 5.795 3.391 7.667 1.609 1.532 2.61-.512 1.596-1.295zM18.524 4.608c-1.023-.946-2.525.59-1.54 1.347A8.228 8.228 0 0 1 20 12.352c0 3.808-2.552 7-6.002 7.909v2.109C18.565 21.42 22 17.296 22 12.352c0-3.097-1.348-5.87-3.476-7.744zm-7.64 1.6l3.255-1.994c.474-.29.474-.762.002-1.054l-3.286-2.03c-.471-.293-.852-.074-.85.49l.018 4.091c0 .564.388.786.861.497zm2.261 12.298l-3.286 2.032c-.472.292-.472.764.002 1.056l3.255 1.99c.473.29.861.069.864-.495l.017-4.09c0-.565-.38-.785-.852-.493z" mask="url(#b)"/></g></svg>