<svg xmlns="http://www.w3.org/2000/svg" width="17" height="13"><path d="M.097 8.937c1.42-.99 2.113-1.512 2.079-1.566l-.326-.514.325-.515c.02-.032-.672-.555-2.078-1.568-.192.716-.094 1.483.25 2.082-.344.598-.442 1.366-.25 2.081zm10.225-7.588c.07 0 .133.01.2.012A3.307 3.307 0 0 0 6.62.236 8.005 8.005 0 0 0 3.845 2.07l-.321.324.84 1.272c1.534-1.18 3.618-2.318 5.96-2.318zm-6.45 10.454l-.099.427.364.224c.567.35 1.202.518 1.836.518.787 0 1.571-.263 2.22-.758-1.486-.414-2.8-1.194-3.85-2.005l-.471 1.594zm8.563-8.96c-.63 1.111-1.006 2.564-1.006 4.093 0 1.53.376 2.982 1.006 4.094C15.317 9.984 16.916 7.094 17 6.936c-.08-.15-1.679-3.045-4.565-4.093zm.654 3.534a.553.553 0 0 0 .554-.553v-.01a.553.553 0 0 0-1.107 0v.01c0 .306.248.553.553.553zm-10.514.559c.146.187 3.53 4.47 7.747 4.47.353 0 .687-.039 1.013-.093-.638-1.236-1.013-2.755-1.013-4.377 0-1.621.375-3.14 1.013-4.376a6.074 6.074 0 0 0-1.013-.094c-4.22 0-7.605 4.288-7.747 4.47z" fill="currentColor" fill-rule="evenodd"/></svg>