<svg viewBox="0 0 22 16" xmlns="http://www.w3.org/2000/svg"><path fill="currentColor" d="M17.067 9.188a20.946 20.946 0 0 1 3.543 2.225c.473.377.747.933.747 1.526v1.731a.751.751 0 0 1-.761.744.751.751 0 0 1-.761-.744v-1.73a.47.47 0 0 0-.182-.368 18.752 18.752 0 0 0-2.272-1.515c-.53-.303-.996-.542-1.334-.7a.854.854 0 0 1-.502-.774V7.147c0-.254.13-.49.344-.621a.387.387 0 0 0 .187-.324V3.673c0-.843-.723-1.534-1.619-1.534h-.567c-.896 0-1.618.691-1.618 1.534v2.529c0 .127.067.248.185.324a.74.74 0 0 1 .345.621v2.44a.852.852 0 0 1-.498.771c-.365.173-.81.4-1.337.702-.803.46-1.576.967-2.273 1.515a.46.46 0 0 0-.182.368v1.731a.75.75 0 0 1-.761.744.751.751 0 0 1-.761-.744v-1.731c0-.595.275-1.155.748-1.527a21.323 21.323 0 0 1 3.542-2.227V7.485a1.85 1.85 0 0 1-.531-1.291V3.665c0-1.67 1.412-3.022 3.14-3.022h.568c1.729 0 3.141 1.352 3.141 3.022v2.529c0 .483-.192.942-.53 1.29v1.704z"/><path d="M3.704 6.923v-2.06c0-1.438 1.215-2.6 2.7-2.6h.461c1.487 0 2.7 1.16 2.704 2.6v2.06c0 .41-.155.802-.432 1.105v1.294a.751.751 0 0 1-.762.744.75.75 0 0 1-.76-.744v-1.63c0-.254.13-.49.344-.621a.177.177 0 0 0 .088-.148v-2.06c0-.608-.527-1.112-1.178-1.112h-.46c-.652 0-1.178.504-1.178 1.112v2.06c0 .057.03.112.088.148a.74.74 0 0 1 .344.621v1.986c0 .321-.194.62-.486.753-.291.137-.655.323-1.081.567-.647.37-1.272.78-1.832 1.221a.248.248 0 0 0-.099.194v1.411a.751.751 0 0 1-.76.744.751.751 0 0 1-.762-.744v-1.41c0-.53.243-1.023.663-1.352a17.213 17.213 0 0 1 2.83-1.785V8.028a1.636 1.636 0 0 1-.432-1.105z"/></svg>