<svg width="20" height="22" xmlns="http://www.w3.org/2000/svg"><g fill="none" fill-rule="evenodd"><ellipse cx="11.364" cy="10.542" rx="1.364" ry="1.375"/><ellipse cx="7.727" cy="10.542" rx="1.364" ry="1.375"/><path d="M17.593 0H2.346C1.049 0 0 1.042 0 2.267V17.16c0 1.287 1.05 2.267 2.346 2.267h12.963l-.618-2.022 1.482 1.287 1.358 1.225L20 22V2.267C19.938 1.042 18.889 0 17.593 0zM13.21 14.401s-.432-.49-.74-.92c1.48-.428 2.036-1.286 2.036-1.286-.494.306-.926.49-1.296.674-.556.245-1.111.368-1.667.49-1.11.184-2.099.123-2.963 0a7.785 7.785 0 0 1-1.666-.49 12.145 12.145 0 0 0-.865-.368c-.061 0-.061-.06-.123-.06h-.062a3.212 3.212 0 0 0-.308-.185s.555.858 1.975 1.287c-.37.43-.74.92-.74.92-2.532-.062-3.458-1.655-3.458-1.655C3.333 9.253 5 6.373 5 6.373 6.667 5.148 8.21 5.21 8.21 5.21l.123.122c-2.037.49-2.963 1.41-2.963 1.41s.247-.123.68-.306c1.234-.49 2.16-.675 2.592-.675h.185c.68-.06 1.482-.122 2.284 0 1.111.123 2.222.43 3.457 1.042 0 0-.926-.858-2.84-1.41l.186-.183s1.543-.061 3.21 1.164c0 0 1.666 2.88 1.666 6.435-.062-.061-1.05 1.532-3.58 1.593z" fill="currentColor" fill-rule="nonzero"/></g></svg>