<svg xmlns="http://www.w3.org/2000/svg" width="15" height="15"><path fill="currentColor" fill-rule="evenodd" d="M14.77 5.853c-.206.208-.509.208-.608.208-.185 0-.413-.03-.74-.095-.256-.05-.477-.102-.672-.147-.383-.09-.66-.153-.92-.153-.147 0-.416.06-.7.125-.442.1-.992.225-1.524.225-.538 0-1.103-.04-1.46-.07-.118.422-.4 1.12-1.039 1.62-.869.68-1.513.982-1.54.995a.413.413 0 0 1-.481-.098.367.367 0 0 1-.017-.47c.003-.004.438-.59.421-1.248a16.253 16.253 0 0 0-.027-.623c-.541.152-1.463.492-1.938 1.133-.72.97-1.016 2.464-.937 2.953.083.511.093.511.347.511.553 0 1.018.022 1.541.293.463.241.718.504.746.533.104.11.131.268.07.404a.4.4 0 0 1-.353.232c-.15.006-.602.042-.893.142a4.161 4.161 0 0 0-.417.177c-.205.097-.4.189-.627.214-.074.009-.15.013-.221.011a1.458 1.458 0 0 1-.466.582c-.183.134-.37.217-.534.29-.202.09-.362.161-.485.306a2.25 2.25 0 0 0-.43.796.396.396 0 0 1-.37.292H.478a.398.398 0 0 1-.379-.257c-.025-.07-.235-.706.045-1.639.1-.333.256-.622.406-.9.244-.455.455-.847.366-1.327C.5 8.61.53 6.774 1.002 5.412c.735-2.12 2.514-3.3 2.863-3.515.173-.107.33-.201.46-.28a2.008 2.008 0 0 0-.46-.264 4.756 4.756 0 0 0-.644-.227h-.01a.37.37 0 0 1-.358-.272C2.8.686 2.898.506 3.057.417 3.087.399 3.807 0 4.756 0c.196 0 .39.017.578.05.585.106.999.264 1.399.416.39.149.76.29 1.31.4.268.053.514.095.752.135.82.138 1.528.258 2.586.773 1.382.673 2.159 1.41 2.188 2.074.006.14.003.265-.01.375.13.061.287.14.445.225.646.351.917.614.935.907a.624.624 0 0 1-.17.498z"/></svg>