<svg xmlns="http://www.w3.org/2000/svg" viewBox="0 0 22 17"><path fill="currentColor" fill-rule="evenodd" d="M11.043 13.098c-2.7 0-4.898-2.175-4.898-4.848s2.197-4.848 4.898-4.848c2.701 0 4.899 2.175 4.899 4.848s-2.198 4.848-4.899 4.848zM11.02 16.5c-2.242 0-4.459-.795-6.59-2.363a16.626 16.626 0 0 1-3.863-4.019 3.368 3.368 0 0 1 0-3.736c.46-.693 1.758-2.47 3.863-4.019C6.56.795 8.777 0 11.019 0c2.245 0 4.46.798 6.585 2.37a16.506 16.506 0 0 1 3.84 4.024 3.375 3.375 0 0 1 0 3.713.865.865 0 0 1-1.19.248.845.845 0 0 1-.25-1.177 1.687 1.687 0 0 0 0-1.856c-1.375-2.088-4.813-5.62-8.985-5.62s-7.631 3.53-9.017 5.615a1.683 1.683 0 0 0 0 1.867c1.386 2.085 4.845 5.615 9.017 5.615 2.89 0 5.277-1.654 6.772-3.042a.866.866 0 0 1 1.214.038.844.844 0 0 1-.038 1.203c-1.72 1.597-4.496 3.502-7.948 3.502zm.024-11.397c-1.753 0-3.18 1.412-3.18 3.147 0 1.735 1.427 3.147 3.18 3.147 1.754 0 3.18-1.412 3.18-3.147 0-1.735-1.426-3.147-3.18-3.147z"/></svg>