<svg id="Layer_1" xmlns="http://www.w3.org/2000/svg" viewBox="0 0 186 112"><style>.st0{fill:currentColor}</style><g id="Group-5" transform="translate(133 170)"><path id="G-s" class="st0" d="M-105.9-105.5c-.8 1.3-2.2 2.4-4.2 3.4s-4.6 1.6-7.8 1.6c-4.1 0-7.4-1.3-10.1-3.9s-4-6-4-10.1v-7c0-4.1 1.2-7.5 3.7-10.1s5.7-3.9 9.6-3.9 7 1 9.2 2.9 3.4 4.4 3.4 7.4v.1h-4.4c-.1-2-.9-3.6-2.3-4.9s-3.3-1.9-5.9-1.9-4.7 1-6.3 2.9-2.4 4.4-2.4 7.4v7.1c0 3 .9 5.5 2.7 7.5s4 2.9 6.8 2.9c1.9 0 3.5-.3 4.8-.8s2.1-1.1 2.6-1.8v-7.8h-7.5v-3.6h12.1v12.6zm154.2-4c0-1.6-.6-2.9-1.8-3.9s-3.3-1.9-6.2-2.7c-3.6-.9-6.4-2.1-8.4-3.8s-3-3.8-3-6.3c0-2.7 1.1-4.9 3.3-6.7s5-2.7 8.5-2.7c3.7 0 6.7 1 8.9 3.1s3.3 4.4 3.2 7.1v.1h-4.4c0-2-.7-3.6-2-4.9s-3.2-1.9-5.7-1.9c-2.3 0-4.1.5-5.3 1.6s-1.8 2.4-1.8 4.1c0 1.5.7 2.7 2 3.7s3.5 1.9 6.5 2.6c3.6.9 6.3 2.2 8.2 3.9s2.8 3.9 2.8 6.4c0 2.8-1.1 5-3.4 6.6s-5.2 2.5-8.8 2.5c-3.4 0-6.4-.9-9-2.8s-3.9-4.3-3.8-7.4v-.1h4.4c0 2.2.8 3.9 2.4 5 1.6 1.1 3.6 1.7 6 1.7 2.3 0 4.2-.5 5.5-1.5 1.2-.7 1.9-2.1 1.9-3.7z"/><path id="l" class="st0" d="M-35.9-100.9h-4.7v-36.6h4.7z"/><path id="Explorer" class="st0" d="M-118.6-67.6h-9.1v6.2h10.6v3.4h-15v-21.9h14.9v3.4h-10.6v5.5h9.1l.1 3.4zm17-4.5l4.1-7.7h5.1L-98.9-69l6.9 11h-5.3l-4.2-7.9-4.2 7.9h-5.1l6.7-11-6.5-10.8h5.1l3.9 7.7zm21.4 6.2v7.9h-4.4v-21.9h8.7c2.5 0 4.5.6 5.9 1.9s2.2 3 2.2 5.1-.7 3.8-2.2 5c-1.4 1.3-3.4 1.9-5.9 1.9l-4.3.1zm0-3.4h4.3c1.2 0 2.1-.3 2.8-1 .6-.7.9-1.5.9-2.5 0-1.1-.3-1.9-.9-2.6s-1.6-1-2.8-1h-4.3v7.1zm25.2 8h9.7v3.4h-14.1v-21.9h4.4v18.5zm34-5.6c0 2.7-.8 4.9-2.5 6.7s-3.9 2.6-6.6 2.6-4.9-.9-6.6-2.6-2.5-4-2.5-6.7v-3.9c0-2.7.8-4.9 2.5-6.6 1.7-1.8 3.9-2.6 6.6-2.6s4.9.9 6.6 2.6c1.7 1.8 2.6 4 2.6 6.6l-.1 3.9zm-4.3-4c0-1.7-.4-3.1-1.3-4.2s-2-1.6-3.5-1.6-2.6.5-3.5 1.6c-.8 1.1-1.2 2.5-1.2 4.2v4c0 1.7.4 3.1 1.2 4.2.8 1.1 2 1.6 3.5 1.6s2.7-.5 3.5-1.6 1.3-2.5 1.3-4.2v-4zM-8-66.7v8.7h-4.4v-21.9h8.2c2.5 0 4.4.6 5.8 1.7s2.1 2.7 2.1 4.8c0 1.1-.3 2.1-.9 2.9s-1.5 1.5-2.6 2c1.3.4 2.2 1 2.8 1.9s.8 2 .8 3.3v1.6c0 .6.1 1.2.2 1.9.2.7.4 1.2.8 1.5v.3H.3c-.4-.3-.7-.9-.8-1.6-.1-.8-.2-1.5-.2-2.1v-1.5c0-1.1-.3-1.9-.9-2.5s-1.4-.9-2.5-.9H-8v-.1zm0-3.4h3.8c1.2 0 2.1-.3 2.8-.8.6-.5.9-1.3.9-2.3s-.3-1.8-.9-2.4-1.5-.9-2.7-.9H-8v6.4zm34.5 2.5h-9.1v6.2H28v3.4H13v-21.9h14.9v3.4H17.3v5.5h9.1l.1 3.4zm13.7.9v8.7h-4.4v-21.9H44c2.5 0 4.4.6 5.8 1.7s2.1 2.7 2.1 4.8c0 1.1-.3 2.1-.9 2.9-.6.8-1.5 1.5-2.6 2 1.3.4 2.2 1 2.8 1.9s.8 2 .8 3.3v1.6c0 .6.1 1.2.2 1.9.2.7.4 1.2.8 1.5v.3h-4.5c-.4-.3-.7-.9-.8-1.6-.1-.8-.2-1.5-.2-2.1v-1.5c0-1.1-.3-1.9-.9-2.5s-1.4-.9-2.5-.9h-3.9v-.1zm0-3.4H44c1.2 0 2.1-.3 2.8-.8s.9-1.3.9-2.3-.3-1.8-.9-2.4-1.5-.9-2.7-.9h-3.9v6.4z"/><path id="Fill-1" class="st0" d="M-2.2-96.7c-11.9 0-21.5-9.7-21.5-21.7 0-11.9 9.7-21.7 21.5-21.7s21.5 9.7 21.5 21.7S9.7-96.7-2.2-96.7zm-21.5-65.6c0-2.2 1.7-3.9 3.9-3.9 1 0 1.9.4 2.6 1-2.5 1.1-4.8 2.7-6.5 4.9v-2zm23.6 5.7c.2.4 4.9 8.2 9.3 15.7-3.4-1.8-7.3-2.8-11.4-2.8-9.1 0-17.1 4.9-21.5 12.2v-18.4c0-7.1 5.7-12.8 12.8-12.8 4.4-.1 8.5 2.2 10.8 6.1zm-10.9-9.9c-.8 0-1.6.1-2.4.2-1.4-2.3-3.8-3.6-6.5-3.6-4.2 0-7.6 3.4-7.6 7.6v44c0 14 11.3 25.4 25.2 25.4s25.2-11.4 25.2-25.4c0-4-.9-7.8-2.6-11.2-.8-1.5-17-28.4-17.4-29.1-2.8-4.9-8.1-7.9-13.9-7.9z"/><path id="Fill-5" class="st0" d="M-2.2-104.7c-7.6 0-13.7-6.2-13.7-13.7 0-7.6 6.2-13.7 13.7-13.7 7.6 0 13.7 6.2 13.7 13.7 0 7.5-6.2 13.7-13.7 13.7zm0-31.2c-9.6 0-17.5 7.9-17.5 17.5s7.9 17.5 17.5 17.5 17.5-7.9 17.5-17.5-7.9-17.5-17.5-17.5z"/><path id="Fill-1_1_" class="st0" d="M-74.5-96.7c-11.9 0-21.5-9.7-21.5-21.7 0-11.9 9.7-21.7 21.5-21.7 11.9 0 21.5 9.7 21.5 21.7.1 12-9.6 21.7-21.5 21.7zm15.1-68.5c.7-.6 1.6-1 2.6-1 2.1 0 3.9 1.8 3.9 3.9v1.9c-1.8-2.1-4-3.8-6.5-4.8zm10.2 16.2v-13.3c0-4.2-3.4-7.6-7.6-7.6-2.6 0-5.1 1.4-6.5 3.6-.8-.1-1.6-.2-2.4-.2-5.8 0-11 2.9-14 7.9 0 .1-.2.3-3.2 5.4-.5.9-.2 2 .6 2.6.9.5 2 .2 2.5-.6 2.5-4.2 3.1-5.3 3.2-5.4 2.3-3.8 6.4-6.1 10.9-6.1 7 0 12.8 5.8 12.8 12.8v18.4c-4.4-7.3-12.4-12.2-21.5-12.2-4.1 0-8 1-11.4 2.8.9-1.5 1.8-3.1 2.7-4.6.5-.9.2-2-.6-2.6-.9-.5-2-.2-2.5.6-3.9 6.6-10.1 16.6-10.9 18.3-1.6 3.3-2.5 7-2.5 10.9 0 14 11.3 25.4 25.2 25.4s25.2-11.4 25.2-25.4V-149z"/><path id="Fill-5_1_" class="st0" d="M-74.2-104.7c-7.6 0-13.7-6.2-13.7-13.7 0-7.6 6.2-13.7 13.7-13.7 7.6 0 13.7 6.2 13.7 13.7 0 7.5-6.2 13.7-13.7 13.7zm0-31.2c-9.6 0-17.5 7.9-17.5 17.5s7.9 17.5 17.5 17.5 17.5-7.9 17.5-17.5-7.9-17.5-17.5-17.5z"/></g></svg>