<svg viewBox="0 0 16 20" xmlns="http://www.w3.org/2000/svg"><path d="M14.037 3.34c-.198 0-.388.03-.568.085v-.65a1.936 1.936 0 0 0-2.744-1.752 1.944 1.944 0 0 0-3.635.743 1.937 1.937 0 0 0-2.516 1.842v5.19l-.447-.607C3.422 7.133 2.024 6.784.995 7.419c-.48.303-.815.78-.941 1.344a2.389 2.389 0 0 0 .307 1.758A33.66 33.66 0 0 0 3 15.088c2.212 3.184 4.35 4.798 6.353 4.798 5.439 0 6.63-4.696 6.63-6.506V5.27a1.94 1.94 0 0 0-1.945-1.93zm.573 10.04c0 .051-.06 5.143-5.258 5.143-3.125 0-6.663-6.215-7.762-8.61a.738.738 0 0 0-.046-.084 1.025 1.025 0 0 1-.152-.77.757.757 0 0 1 .331-.485c.4-.247.968-.077 1.265.377l.021.03 1.697 2.308a.688.688 0 0 0 1.24-.402V3.608a.567.567 0 0 1 1.135 0v5.199c0 .377.307.682.686.682a.684.684 0 0 0 .685-.682V1.942a.567.567 0 0 1 1.137 0v6.865c0 .377.307.682.686.682a.683.683 0 0 0 .685-.682V2.776a.568.568 0 0 1 1.137 0v6.863c0 .377.307.682.686.682a.684.684 0 0 0 .686-.682V5.27c0-.312.255-.565.568-.565a.57.57 0 0 1 .573.565v8.11z" fill="currentColor" fill-rule="evenodd"/></svg>