<svg width="23" height="30" xmlns="http://www.w3.org/2000/svg"><g fill="currentColor" fill-rule="evenodd"><path d="M15.988 29.939c-.836 0-1.605-.24-2.285-.713l-.041-.03c-.017-.014-.58-.44-1.538-.44-.6 0-1.228.168-1.867.502-.194.12-1.089.634-2.231.634-.938 0-1.792-.33-2.54-.984C4.3 27.873.406 23.996.02 17.538c-.176-2.941.764-5.756 2.577-7.724 1.647-1.784 3.827-2.584 5.91-2.16.047.007 1.595.272 3.11 1.15.802-.41 2.797-1.3 4.97-1.3 2.595 0 4.612 1.284 5.833 3.713l.277.55-.496.358c-.026.018-2.692 1.974-2.682 4.34.005 1.289.826 2.525 2.44 3.673.505.36.854.918.961 1.538.52 1.937-3.064 6.673-5.21 7.902l-.053.028a4.228 4.228 0 0 1-1.67.333zm-1.485-1.88c.441.302.94.455 1.485.455.546 0 .971-.156 1.073-.197 2.213-1.295 4.736-5.453 4.517-6.256l-.027-.114a.966.966 0 0 0-.39-.64c-2.01-1.43-3.033-3.06-3.037-4.844-.006-2.39 1.854-4.302 2.774-5.101-.984-1.615-2.432-2.433-4.311-2.433-2.393 0-4.623 1.297-4.645 1.31l-.367.217-.358-.233c-1.375-.897-2.943-1.166-2.96-1.168a4.354 4.354 0 0 0-.877-.091c-1.343 0-2.68.649-3.765 1.826-1.529 1.658-2.351 4.148-2.201 6.66.352 5.9 3.9 9.433 4.98 10.376.487.426 1.037.642 1.632.642.842 0 1.5-.423 1.506-.426l.061-.038c.847-.447 1.698-.673 2.53-.673 1.353 0 2.203.592 2.38.728z"/><path d="M11.5 7.652a.689.689 0 0 1-.427-.15.716.716 0 0 1-.27-.543c-.005-.2-.062-4.898 5.68-6.896a.688.688 0 0 1 .6.072.715.715 0 0 1 .32.521c.006.056.538 5.514-5.747 6.978a.692.692 0 0 1-.155.018zM15.975 1.8C13.43 2.998 12.6 4.837 12.329 5.957c2.748-.986 3.469-2.959 3.645-4.156z"/></g></svg>