<svg xmlns="http://www.w3.org/2000/svg" width="14" height="18"><path fill-rule="evenodd" d="M11.268 7.207c0 .43-.06.855-.179 1.264a.68.68 0 0 1-.85.471.707.707 0 0 1-.458-.875c.08-.277.122-.567.122-.86C9.903 5.559 8.6 4.219 7 4.219s-2.903 1.34-2.903 2.988S5.4 10.195 7 10.195c.271 0 .54-.038.797-.113a.68.68 0 0 1 .843.483.706.706 0 0 1-.47.869 4.158 4.158 0 0 1-1.17.168c-2.354 0-4.268-1.972-4.268-4.395 0-2.423 1.914-4.395 4.268-4.395s4.268 1.972 4.268 4.395zM14 7.198c-.001 1.403-.38 2.718-1.155 4.02-.673 1.13-1.546 2.114-2.47 3.156-.907 1.022-1.844 2.08-2.593 3.298a.678.678 0 0 1-.577.328h-.41a.678.678 0 0 1-.577-.328c-.749-1.219-1.686-2.276-2.593-3.298-.924-1.042-1.797-2.026-2.47-3.155C.38 9.916.001 8.6 0 7.2a7.269 7.269 0 0 1 2.053-5.092C3.375.748 5.132 0 7 0c1.868 0 3.625.749 4.947 2.108A7.267 7.267 0 0 1 14 7.198zm-1.366 0C12.631 4.007 10.104 1.407 7 1.407c-3.103 0-5.63 2.6-5.634 5.794.002 2.544 1.516 4.25 3.268 6.226.806.909 1.635 1.844 2.366 2.92.73-1.076 1.56-2.011 2.366-2.92 1.752-1.976 3.266-3.682 3.268-6.227z"/></svg>