<svg xmlns="http://www.w3.org/2000/svg" width="17" height="18"><g fill="currentColor" fill-rule="evenodd"><path d="M3.96 9.377l-.007-.008c-.011-.014-.022-.025-.03-.04-.004-.004-.004-.007-.007-.011-.008-.015-.019-.03-.026-.044 0-.004-.004-.008-.004-.008a.555.555 0 0 1-.023-.047c0-.004 0-.004-.003-.007-.008-.015-.012-.033-.019-.052 0-.003 0-.007-.004-.007-.003-.018-.01-.033-.01-.051 0-.008 0-.011-.005-.019-.003-.014-.003-.029-.007-.044-.004-.022-.004-.04-.004-.062s0-.04.004-.062c0-.015.004-.03.007-.044 0-.007 0-.011.004-.019l.011-.05c0-.004 0-.008.004-.008.004-.018.011-.033.019-.051 0-.004 0-.004.003-.008.008-.014.015-.033.023-.047 0-.004.004-.008.004-.008a.254.254 0 0 1 .026-.044c.003-.003.003-.007.007-.01.011-.015.019-.03.03-.041l.008-.007c.015-.015.026-.033.044-.048l3.696-3.62a.652.652 0 0 1 .908 0c.25.245.25.645 0 .89l-2.6 2.55h10.337c.355 0 .643.283.643.627 0 .348-.288.63-.643.63H6.004l2.582 2.532c.25.246.25.645 0 .89a.646.646 0 0 1-.904 0l-3.673-3.6a.714.714 0 0 0-.048-.051z"/><path d="M3.478 1.26h4.783a.636.636 0 0 0 .643-.626.637.637 0 0 0-.643-.63H3.478C1.562.004 0 1.535 0 3.415v11.128c0 1.88 1.562 3.411 3.478 3.411h4.704a.636.636 0 0 0 .643-.626.637.637 0 0 0-.643-.63H3.478c-1.21 0-2.196-.968-2.196-2.155V3.415c.003-1.19.986-2.154 2.196-2.154z"/></g></svg>