<svg xmlns="http://www.w3.org/2000/svg" width="23" height="12"><path fill="currentColor" fill-rule="evenodd" d="M1.485 6.207c-.063-.135-.5-.703-.894-1.292a10.602 10.602 0 0 1-.257-.399l-.007-.01c-.013-.022-.936-1.478.379-.888.247.125.561.31.956.571.862.568 2.616 1.4 2.616 1.4s.305.163.506.039c1.017-.624 3.498-1.733 5.451-2.35.033-.01.074-.034.018-.085l-.931-.887a.3.3 0 0 1 .082-.49L11.31.948a.3.3 0 0 1 .337.062c.863.868 1.335 1.317 1.418 1.346l.759.266c.088.03.177.067.356.089 1.2.04 1.82-.09 3.82.482 3.21.916 5 2.936 5 3.755 0 .78-.427 1.303-1.99 2.03-.03-.004-.27.164-.793.01a47.88 47.88 0 0 1-1.177-.428c-.04-.018-.066-.027-.082-.025-.021.004-.037.05-.037.06.004.277.533.502.833.75.052.023.066.14-.024.179 0 0-1.062.56-2.743.734-.135.014-1.905 1.129-3.689.83-.943-.159-1.393-.213-1.597-.268-.18-.049-.094-.105-.094-.105l.894-.7c.061-.067.012-.117-.039-.131C10.476 9.328 5.906 8.45 4.971 7.7c-.126-.102-.453.139-.687.255C3.508 8.342.287 9.648.022 9.371c-.023-.023-.024-.058-.001-.105.453-.937 2.09-1.736 1.464-3.059zm18.22-.09a.52.52 0 1 0 0-1.038.52.52 0 0 0 0 1.038zm-2.32 2.957c.031.028.06.07.044.01 0 0-.81-1.198-.914-2.745-.079-1.16.707-2.58.707-2.58s-.002-.041-.03-.008c-.279.333-3.032 2.472.192 5.323z"/></svg>