<svg viewBox="0 0 16 16" xmlns="http://www.w3.org/2000/svg"><g fill="currentColor" fill-rule="evenodd"><path d="M14.18 4.58l-.187.186-2.76-2.759.186-.185a1.938 1.938 0 0 1 1.38-.572c.52 0 1.01.203 1.38.572.368.368.571.858.571 1.38 0 .52-.203 1.01-.57 1.378zm-9.7 9.05l-2.955.84.827-2.974L4.48 13.63zM12.8 0a3.18 3.18 0 0 0-2.264.938L1.588 9.884a.625.625 0 0 0-.16.275L.023 15.207a.625.625 0 0 0 .773.77l5.048-1.435a.625.625 0 0 0 .272-1.042l-3.183-3.193 7.416-7.416 2.759 2.758-.59.632c-.34.366-.173.769.113.945.253.156.587.134.919-.208.479-.494.983-1.011 1.512-1.553A3.18 3.18 0 0 0 16 3.201a3.18 3.18 0 0 0-.938-2.263A3.18 3.18 0 0 0 12.8 0z"/><g fill-rule="nonzero"><path d="M10.4 9a.6.6 0 1 1 1.2 0v6a.6.6 0 1 1-1.2 0V9z"/><path d="M14 11.4a.6.6 0 1 1 0 1.2H8a.6.6 0 1 1 0-1.2h6z"/></g></g></svg>