<svg xmlns="http://www.w3.org/2000/svg" width="15" height="16"><g fill="#393636"><path d="M2.617 6.737a.592.592 0 0 1-.15-1.14l.588-.23c-.536-.664-.813-1.251-.813-1.784 0-1.672 1.422-3.022 3.16-3.022 1.734 0 3.155 1.354 3.145 3.022 0 1.236-.777 2.33-1.939 2.79-.916.448-2.243.562-3.991.364zm3.618-1.16l.036-.016c.841-.327 1.397-1.105 1.397-1.98.007-1.173-1.009-2.142-2.265-2.142-1.263 0-2.282.968-2.282 2.144 0 .349.276.862.854 1.51a.592.592 0 0 1-.07.856c1.012.023 1.79-.103 2.33-.372z"/><path d="M5.399 2.729c-.306 0-.602.108-.912.34-.24.116-.487.092-.62-.14-.129-.22-.044-.442.16-.608A2.23 2.23 0 0 1 5.4 1.837c.702 0 1.364.353 1.837.97.129.217.129.453-.065.613-.194.16-.43.118-.627-.086-.29-.383-.706-.605-1.145-.605zm5.295 6.417c.698-.012 1.085 0 1.55.072.25.04.488.096.712.171 1.371.462 1.67 1.578 1.457 2.861l-.07.412c-.037.214-.072.404-.11.586a6.001 6.001 0 0 1-.23.86c-.18.482-.407.766-.88.572-.277-.114-.353-.314-.394-.635a5.596 5.596 0 0 1-.032-.576c-.007-.28-.01-.38-.02-.524-.036-.574-.14-.859-.225-.88-.675-.176-.05-.496-4.066 1.858l-.258.15c-2.172 1.242-3.056 1.51-4.902 1.349-1.583-.14-2.361-1.202-2.361-2.07 0-.32.274-.538.57-.497a.685.685 0 0 1 .237.08c-.04-.019.227.121.312.16.138.063.272.108.418.136.207.043.395.065.577.065.97 0 1.924-1.314 2.085-2.63-.616-.104-1.384-.34-2.263-.786-.403-.207-.694-.43-1.1-.803a3.483 3.483 0 0 1-.523-.588.782.782 0 0 1 .858-1.193c1.1.31 1.994.464 2.677.464 2.78 0 4.508-1.699 4.508-4.359 0-.506.415-.686.807-.585.162.042.347.137.446.221-.039-.033.046.018.13.083.132.105.256.24.367.415.3.472.47 1.174.479 2.158.014 1.242-.242 2.185-.708 2.967a5.222 5.222 0 0 1-.33.49l.282-.004zm1.958 1.146a3.392 3.392 0 0 0-.556-.133c-.394-.062-.74-.072-1.386-.061-.436.007-.576.006-.752-.013-.368-.04-.63-.163-.72-.506-.078-.29.008-.465.248-.785-.005.006.16-.21.21-.28a3.97 3.97 0 0 0 .228-.341c.376-.632.586-1.403.574-2.471-.007-.82-.136-1.35-.331-1.657a1.03 1.03 0 0 0-.021-.031c-.26 2.845-2.347 4.699-5.433 4.699-.658 0-1.45-.119-2.385-.353l.018.015c.347.32.58.498.888.657.99.502 1.807.7 2.364.74l.437.032.005.438c.02 1.907-1.357 4.006-3.061 4.006-.188 0-.375-.016-.566-.047.228.144.522.24.896.272 1.621.142 2.328-.073 4.346-1.227l.25-.145c-.099.058 2.008-1.224 2.521-1.487.911-.467 1.61-.641 2.263-.472.426.109.667.394.8.845.115-.821-.078-1.44-.837-1.695z"/><path stroke="#FFF" d="M1.431 13.67a.074.074 0 0 1 .006.004zm11.276-7.98c.376-.24.944-.253 1.34-.038.568.307.616 1.001.064 1.352L2.293 14.51c-.376.239-.944.252-1.34.037-.568-.307-.616-1.001-.064-1.352L12.707 5.69z"/></g></svg>