<svg xmlns="http://www.w3.org/2000/svg" width="15" height="16"><path d="M6.94 1.542a6.211 6.211 0 0 0-4.293 1.964 6.53 6.53 0 0 0-.453.554.272.272 0 0 1-.135.193c-.116.17-.227.343-.326.523-.52.937-1.625 3.338-.673 5.381a3.9 3.9 0 0 0 1.181 1.474c.112.082.228.155.35.22.794.435 1.745.567 2.663.695l.042.006a.41.41 0 0 1 .057.009l.038.005.004.001c.035.012.07.024.102.039.028.023.053.047.078.071.018.032.031.065.046.098 0 .004.002.004.002.007a5.04 5.04 0 0 0 1.236 2.385c-.017-1.768 1.154-2.92 1.969-3.505a9.685 9.685 0 0 0-3.035.265H5.79a.261.261 0 0 1-.074.01c-.007 0-.013 0-.02-.002a.31.31 0 0 1-.121-.038c-.005-.001-.01-.002-.013-.005l-.234-.15c-.163-.096-.32-.2-.471-.315l-.012-.01c-.239-.093-1.487-.631-1.9-1.787-.267-.743-.13-1.569.405-2.452 1.738-2.863 5.39-2.62 5.545-2.609a.276.276 0 1 1-.043.55c-.033-.002-3.466-.225-5.024 2.344-.446.738-.568 1.404-.36 1.985.144.37.387.695.703.939a2.182 2.182 0 0 1-.056-.777 2.642 2.642 0 0 1 1.386-2.042 4.106 4.106 0 0 1 1.411-.376 1.435 1.435 0 0 0-.182-.225.273.273 0 0 1 .003-.386.28.28 0 0 1 .39-.004c.785.779.72 1.996.56 2.796 1.654-1.404 1.474-2.821 1.47-2.837a.275.275 0 0 1 .237-.311.278.278 0 0 1 .315.232c.024.257.011.516-.04.769.18 0 .373-.003.565-.018 1.088-.085 1.88-.32 2.495-.737a3.15 3.15 0 0 0 1.123-1.452 3.37 3.37 0 0 0-1.08-.174.276.276 0 0 1-.278-.276c0-.152.124-.274.279-.274.424-.001.847.066 1.25.199a4.97 4.97 0 0 0 .102-.47c.01-.07.02-.14.027-.209-.31-.412-2.154-2.512-7.208-2.273zm4.438 1.376c.154 0 .278.123.278.276a.277.277 0 0 1-.278.275.277.277 0 0 1-.279-.275c0-.153.124-.276.279-.276zm-.328 3.504a.28.28 0 0 1-.373.114 1.722 1.722 0 0 1-.55-.485 1.301 1.301 0 0 1-.06-1.464.28.28 0 0 1 .375-.115.273.273 0 0 1 .116.372.854.854 0 0 0 .38 1.205.273.273 0 0 1 .112.373zm1.063-.325a.28.28 0 0 1-.244.145.279.279 0 0 1-.13-.032 1.733 1.733 0 0 1-.55-.485 1.306 1.306 0 0 1-.06-1.465.28.28 0 0 1 .48-.018.273.273 0 0 1 .012.275A.856.856 0 0 0 12 5.725a.273.273 0 0 1 .113.372zM1.827 3.55c.557-.855 1.246-1.516 2.015-1.934C3.456 1.215 2.463.496.168.219c.68 1.03 1.192 2.262 1.494 3.604a8.42 8.42 0 0 1 .165-.273z" fill="currentColor" fill-rule="evenodd"/></svg>