<svg xmlns="http://www.w3.org/2000/svg" width="20" height="20"><path fill="#393636" fill-rule="evenodd" d="M10.977 14.785a.977.977 0 1 1-1.954 0 .977.977 0 0 1 1.954 0zm2.148-6.64a3.13 3.13 0 0 1-2.344 3.026v1.27a.781.781 0 1 1-1.562 0v-1.953c0-.431.35-.781.781-.781a1.564 1.564 0 0 0 0-3.125c-.862 0-1.563.701-1.563 1.563a.781.781 0 1 1-1.562 0A3.129 3.129 0 0 1 10 5.02a3.129 3.129 0 0 1 3.125 3.125zM10 18.438A8.433 8.433 0 0 1 1.562 10 8.433 8.433 0 0 1 10 1.562 8.433 8.433 0 0 1 18.438 10 8.433 8.433 0 0 1 10 18.438zM10 0C4.473 0 0 4.473 0 10s4.473 10 10 10 10-4.473 10-10S15.527 0 10 0z"/></svg>