<svg width="32" height="22" xmlns="http://www.w3.org/2000/svg"><g fill="currentColor" fill-rule="evenodd"><path d="M9.516 18.144l3.472-6.441 11.886-.01-15.358 6.45zm15.361-8.535l-11.887.009-3.462-6.436 15.35 6.427zm6.052 1.606a1.049 1.049 0 0 0 .13-.295c.024-.087.04-.178.04-.273a1.027 1.027 0 0 0-.059-.335 1.044 1.044 0 0 0-.112-.237l-.003-.005a1.043 1.043 0 0 0-.227-.24 1.036 1.036 0 0 0-.237-.144L7.618.12a1.044 1.044 0 0 0-1.322 1.456l4.886 9.085-4.9 9.092a1.04 1.04 0 0 0 .145 1.194l.035.037a1.04 1.04 0 0 0 1.14.223l22.858-9.6c.086-.036.162-.085.234-.141.017-.015.035-.028.051-.043.067-.06.128-.124.178-.198l.006-.011z"/><path d="M8.986 10.663a1.04 1.04 0 0 0-1.042-1.041l-3.685.002a1.044 1.044 0 0 0-.739 1.78c.189.189.45.305.737.305l3.686-.003c.576 0 1.043-.467 1.043-1.043M1.68 7.657l2.212-.002c.575 0 1.042-.467 1.043-1.043a1.04 1.04 0 0 0-1.042-1.041l-2.211.001a1.044 1.044 0 0 0-.738 1.78c.188.189.448.305.736.305m2.207 6.022l-2.211.002a1.044 1.044 0 0 0-.738 1.78c.188.188.448.304.736.304l2.212-.002c.575 0 1.042-.467 1.043-1.043a1.04 1.04 0 0 0-1.042-1.041"/></g></svg>