<svg width="32" height="16" xmlns="http://www.w3.org/2000/svg"><path d="M13.336 13.736l4.58-4.58L19.46 10.7c.96.96 2.52.96 3.48 0l1.543-1.544 4.58 4.58H13.337zM12.18 3.42L16.76 8l-4.58 4.58V3.42zm16.884-1.156l-7.28 7.28a.83.83 0 0 1-1.168 0l-7.28-7.28h15.728zm1.155 10.316L25.64 8l4.58-4.58v9.16zm1.64-9.5c0-1.36-1.1-2.46-2.46-2.46H13a2.458 2.458 0 0 0-2.459 2.46v9.84c0 1.36 1.1 2.46 2.46 2.46h16.4c1.36 0 2.46-1.1 2.46-2.46V3.08zM8.053 5.54H1a.82.82 0 1 0 0 1.64h7.052a.82.82 0 1 0 0-1.64m.001-3.28H4.28a.82.82 0 1 0 0 1.64h3.773a.82.82 0 0 0 0-1.64m0 6.56H1a.82.82 0 0 0 0 1.64h7.052a.82.82 0 1 0 0-1.64m-4.592 4.1c0 .453.368.82.82.82h3.773a.82.82 0 1 0 0-1.64H4.28a.82.82 0 0 0-.82.82" fill="currentColor" fill-rule="evenodd"/></svg>