<svg width="18" height="18" xmlns="http://www.w3.org/2000/svg"><path d="M14.472 5.473a1.954 1.954 0 0 0 1.957-1.951 1.954 1.954 0 0 0-1.957-1.951 1.954 1.954 0 0 0-1.958 1.95c0 1.077.876 1.952 1.958 1.952zm0 1.57a3.525 3.525 0 0 1-3.529-3.521A3.525 3.525 0 0 1 14.472 0 3.525 3.525 0 0 1 18 3.522a3.525 3.525 0 0 1-3.528 3.521zm0 9.386a1.954 1.954 0 0 0 1.957-1.95 1.955 1.955 0 0 0-1.957-1.952 1.954 1.954 0 0 0-1.958 1.951c0 1.077.876 1.951 1.958 1.951zm0 1.571a3.525 3.525 0 0 1-3.529-3.522 3.525 3.525 0 0 1 3.529-3.521A3.525 3.525 0 0 1 18 14.478 3.525 3.525 0 0 1 14.472 18zM3.528 10.95A1.954 1.954 0 0 0 5.486 9c0-1.077-.876-1.95-1.958-1.95A1.954 1.954 0 0 0 1.571 9c0 1.077.876 1.95 1.957 1.95zm2.715.3a3.524 3.524 0 0 1-2.715 1.272A3.525 3.525 0 0 1 0 9a3.525 3.525 0 0 1 3.528-3.522c1.092 0 2.068.495 2.715 1.272l5.444-2.717.702 1.406-5.435 2.712a3.523 3.523 0 0 1 0 1.698l5.435 2.712-.702 1.406-5.444-2.717z"/><use fill="currentColor"/></svg>