<svg width="22" height="22" xmlns="http://www.w3.org/2000/svg"><path d="M11 1.719c-5.118 0-9.281 4.163-9.281 9.281S5.882 20.281 11 20.281s9.281-4.163 9.281-9.281S16.118 1.719 11 1.719zM11 22c-2.938 0-5.7-1.144-7.778-3.222A10.928 10.928 0 0 1 0 11c0-2.938 1.144-5.7 3.222-7.778A10.928 10.928 0 0 1 11 0c2.938 0 5.7 1.144 7.778 3.222A10.928 10.928 0 0 1 22 11c0 2.938-1.144 5.7-3.222 7.778A10.928 10.928 0 0 1 11 22zm-5.016-6.82a8.358 8.358 0 0 1-1.075-1.502.797.797 0 0 1 .42-1.131.946.946 0 0 1 1.148.411c.22.379.497.753.83 1.123 1.038 1.149 2.315 1.732 3.796 1.732 1.47 0 2.708-.576 3.677-1.712.31-.362.563-.729.761-1.1a.95.95 0 0 1 1.131-.456.796.796 0 0 1 .465 1.115 7.861 7.861 0 0 1-1.002 1.5c-1.298 1.552-3.038 2.371-5.032 2.371-1.984 0-3.754-.813-5.119-2.351zM7.22 6.365a1.375 1.375 0 1 1 0 2.75 1.375 1.375 0 0 1 0-2.75m7.562 0a1.375 1.375 0 1 1 0 2.75 1.375 1.375 0 0 1 0-2.75" fill="currentColor" fill-rule="evenodd"/></svg>