<svg viewBox="0 0 27 28" xmlns="http://www.w3.org/2000/svg"><path d="M10.073 6.843c-3.638 1.41-6.068 4.982-6.068 8.887v2.6c0 .356-.316.653-.671.653H1.992c-1.095 0-1.992-.9-1.992-1.996V14.05c0-.866.557-1.626 1.382-1.892a.645.645 0 0 1 .395 1.226.71.71 0 0 0-.49.666v2.937c0 .385.32.708.705.708h.726V15.73c0-2.225.656-4.362 1.923-6.18a10.76 10.76 0 0 1 4.953-3.908.644.644 0 0 1 .833.368.638.638 0 0 1-.354.833zm10.459.366a2.453 2.453 0 0 1-2.45 2.45 2.452 2.452 0 0 1-2.449-2.45 2.453 2.453 0 0 1 2.45-2.45 2.452 2.452 0 0 1 2.449 2.45zm-1.287 0c0-.64-.522-1.162-1.162-1.162a1.163 1.163 0 0 0 0 2.325c.64 0 1.162-.522 1.162-1.163zm7.72 6.84v2.938c0 1.095-.862 1.996-1.957 1.996h-1.19a11.07 11.07 0 0 1-1.843 3.47 10.878 10.878 0 0 1-5.356 3.644A2.09 2.09 0 0 1 14.549 28h-2.098a2.078 2.078 0 0 1-2.078-2.075c0-1.147.932-2.076 2.078-2.076h2.098c.754 0 1.416.39 1.78.994a9.522 9.522 0 0 0 6.693-9.114 9.458 9.458 0 0 0-.758-3.732l-.847-.378c-.365.277-.76.505-1.18.683l-.105 1.017c-.035.67-.814 1.085-2.05 1.085-1.238 0-2.017-.416-2.049-1.088l-.105-1.014a5.48 5.48 0 0 1-1.18-.683l-.936.418c-.597.305-1.345-.164-1.962-1.234a3.809 3.809 0 0 1-.45-1.133c-.139-.72.151-1.047.364-1.185l.832-.603a5.57 5.57 0 0 1 .001-1.357l-.831-.603c-.566-.364-.536-1.247.083-2.32.617-1.07 1.365-1.538 1.963-1.234l.945.423a5.493 5.493 0 0 1 1.169-.675l.106-1.027c.032-.672.81-1.087 2.05-1.087 1.235 0 2.015.415 2.049 1.085l.106 1.029c.416.176.808.402 1.169.675l.944-.421c.226-.115.654-.204 1.208.277.265.23.534.57.756.955.618 1.07.65 1.953.086 2.319l-.834.604a5.592 5.592 0 0 1 .001 1.357l.834.604c.562.366.53 1.248-.087 2.318a3.813 3.813 0 0 1-.757.958 10.76 10.76 0 0 1 .751 3.972c0 .664-.058 1.317-.173 1.96h.872c.385 0 .669-.322.669-.707V14.05c0-.3-.19-.573-.476-.666a.638.638 0 0 1-.405-.81.636.636 0 0 1 .803-.416 1.97 1.97 0 0 1 1.365 1.892zM15.34 25.916a.865.865 0 0 0-.015-.16l-.005-.016a.78.78 0 0 0-.77-.602h-2.1a.788.788 0 1 0 0 1.575h2.1c.435 0 .79-.361.79-.797zm7.15-20.2l1.01-.732a2.538 2.538 0 0 0-.3-.736 2.532 2.532 0 0 0-.486-.629l-1.144.511a.644.644 0 0 1-.688-.105 4.21 4.21 0 0 0-1.448-.836.644.644 0 0 1-.435-.545l-.13-1.245a2.533 2.533 0 0 0-.786-.108c-.37 0-.643.058-.788.108l-.129 1.245a.644.644 0 0 1-.435.544 4.207 4.207 0 0 0-1.448.837.643.643 0 0 1-.689.105l-1.142-.51a2.538 2.538 0 0 0-.487.627 2.5 2.5 0 0 0-.3.736l1.01.733a.644.644 0 0 1 .253.649 4.275 4.275 0 0 0-.002 1.681c.05.247-.05.5-.253.648l-1.009.73c.03.151.116.416.3.737.186.32.372.527.488.628l1.134-.507c.23-.103.5-.062.69.105.428.38.918.664 1.456.844.24.08.41.293.436.544l.127 1.234c.146.05.418.108.788.108.37 0 .642-.058.787-.108l.128-1.233a.645.645 0 0 1 .435-.545 4.205 4.205 0 0 0 1.457-.844.642.642 0 0 1 .69-.105l1.134.507c.115-.101.302-.308.486-.628.185-.321.271-.586.301-.737l-1.008-.73a.645.645 0 0 1-.254-.649 4.254 4.254 0 0 0-.002-1.68.645.645 0 0 1 .254-.65z" fill="currentColor" fill-rule="evenodd"/></svg>