<svg viewBox="0 0 20 16" xmlns="http://www.w3.org/2000/svg"><path d="M14.786.235a.706.706 0 0 0-1.01 0 .732.732 0 0 0-.209.514v2.179H8.57a.72.72 0 0 0-.714.726c0 .401.32.726.714.726h5.713a.72.72 0 0 0 .714-.726V2.502l3.274 3.33-3.274 3.331V8.011a.72.72 0 0 0-.714-.726H6.427V5.106a.72.72 0 0 0-.715-.726.708.708 0 0 0-.504.213L.209 9.677a.735.735 0 0 0 0 1.027l4.999 5.083a.708.708 0 0 0 .778.158.726.726 0 0 0 .44-.671v-2.179h5a.72.72 0 0 0 .713-.726.72.72 0 0 0-.714-.726H5.713a.72.72 0 0 0-.715.726v1.152l-3.274-3.33L4.998 6.86v1.15c0 .401.32.727.715.727h7.854v2.178c0 .401.32.726.715.726.189 0 .37-.076.504-.212l5-5.084a.735.735 0 0 0 0-1.027l-5-5.084" fill="currentColor" fill-rule="evenodd"/></svg>