<svg width="23" height="15" fill="none" xmlns="http://www.w3.org/2000/svg"><rect x=".25" y=".25" width="22.5" height="14.5" rx="1.75" stroke="currentColor" stroke-width=".5"/><path d="M7.999 4.403H5.563V11h-.601V4.403H2.53v-.512H8v.512zm3.809 3.638H9.742V11h-.605V3.89h2.31c.758 0 1.35.185 1.777.552.426.368.64.883.64 1.543 0 .456-.134.858-.401 1.206-.267.349-.625.59-1.074.723l1.777 3.023V11h-.64l-1.718-2.959zm-2.066-.513h1.841c.505 0 .91-.143 1.216-.43.306-.286.459-.657.459-1.113 0-.501-.16-.89-.479-1.167-.319-.276-.766-.415-1.342-.415H9.742v3.125zm7.92-.63l2.002-3.007h.718l-2.354 3.505L20.455 11h-.723l-2.07-3.105L15.582 11h-.713l2.432-3.604-2.359-3.505h.718l2.002 3.007z" fill="currentColor"/></svg>
