<svg width="16" height="16" xmlns="http://www.w3.org/2000/svg"><g fill="none" fill-rule="evenodd"><path d="M12.065 5.942a.61.61 0 0 1 .935 0A.822.822 0 0 1 13 7l-5 5a.61.61 0 0 1-.935 0L3.757 8.63a.822.822 0 0 1 0-1.058.61.61 0 0 1 .935 0l2.842 2.843 4.531-4.473z" fill="#2879FF" fill-rule="nonzero"/><path d="M8 0C3.602 0 0 3.602 0 8s3.602 8 8 8 8-3.602 8-8-3.602-8-8-8zM1.602 8C1.602 4.48 4.48 1.602 8 1.602c1.441 0 2.801.476 3.922 1.359l-8.961 8.961A6.291 6.291 0 0 1 1.602 8zM8 14.398a6.291 6.291 0 0 1-3.922-1.359l8.961-8.961A6.291 6.291 0 0 1 14.398 8c0 3.52-2.878 6.398-6.398 6.398z" fill="#393636"/></g></svg>