<svg viewBox="0 0 18 18" xmlns="http://www.w3.org/2000/svg"><g fill="currentColor" fill-rule="evenodd"><path d="M14.936 1.73v2.076H5.685l9.251-2.076zM16.5 8.294h-3.144a2.617 2.617 0 0 0-2.618 2.61 2.617 2.617 0 0 0 2.618 2.61H16.5v2.99h-15V5.302h15v2.992zm0 3.723h-3.144c-.617 0-1.118-.5-1.118-1.113 0-.614.502-1.114 1.118-1.114H16.5v2.227zM.75 18h16.5a.75.75 0 0 0 .75-.748V4.554a.75.75 0 0 0-.75-.748h-.814V.795a.748.748 0 0 0-.914-.73L.586 3.416a.749.749 0 0 0-.586.73v13.106A.75.75 0 0 0 .75 18z"/><path d="M5.064 8.438H3.887v4.867h1.177V8.438zm.65-1.4a.75.75 0 0 1 .75.748v6.171a.75.75 0 0 1-.75.748H3.237a.75.75 0 0 1-.75-.748v-6.17a.75.75 0 0 1 .75-.749h2.477z" fill-rule="nonzero"/></g></svg>