<svg xmlns="http://www.w3.org/2000/svg" width="21" height="13"><path fill="currentColor" fill-rule="evenodd" d="M2.423 4.179c.376 0 1.13.364 1.13.73 0-.256.368-.511.718-.641.15-.056.297-.09.41-.09h1.506c0 .912-.784 1.823-1.916 2.102v.452c0 .898.75 1.625 1.677 1.625.926 0 1.677-.727 1.677-1.625V3.296C7.625 1.99 8.719.93 10.069.93h7.57c1.35 0 2.444 1.06 2.444 2.367v4.55c0 .095-.006.188-.017.279h-4.535c-.66 0-1.198-.52-1.198-1.16h-.958c0 1.151.967 2.089 2.156 2.089h4.21a2.458 2.458 0 0 1-2.101 1.16h-4.265c0 1.026-.858 1.857-1.917 1.857v-1.857h-6.18c-1.35 0-2.445-1.06-2.445-2.368V6.28C1.701 6.001.917 5.09.917 4.18h1.506zm11.431 1.857c.265 0 .48-.208.48-.465a.472.472 0 0 0-.48-.464.472.472 0 0 0-.479.464c0 .257.215.465.48.465z"/></svg>