<svg viewBox="0 0 18 12" xmlns="http://www.w3.org/2000/svg"><path d="M16.533.323H13.52c-.416 0-.753.35-.753.781 0 .432.337.781.753.781h.462L12.013 8.01l-1.968-6.124h.462c.416 0 .753-.35.753-.78 0-.432-.337-.782-.753-.782H7.493c-.416 0-.753.35-.753.781 0 .432.337.781.753.781h.462L5.987 8.01 4.018 1.885h.462c.416 0 .753-.35.753-.78 0-.432-.337-.782-.753-.782H1.467a.768.768 0 0 0-.754.781c0 .432.337.781.754.781h.963l2.842 8.841c.102.32.39.534.715.534a.756.756 0 0 0 .714-.534L9 3.575l2.299 7.151c.102.32.39.534.714.534a.756.756 0 0 0 .715-.534l2.842-8.84h.963c.417 0 .754-.35.754-.782a.768.768 0 0 0-.754-.781" fill="currentColor" fill-rule="evenodd"/></svg>