<svg xmlns="http://www.w3.org/2000/svg" width="15" height="16"><g fill="none" stroke="currentColor"><path stroke-width=".879" d="M6.43 5.971c.988-.384 1.678-1.31 1.678-2.388C8.116 2.16 6.896 1 5.403 1 3.902 1 2.682 2.16 2.682 3.583c0 .482.322 1.082.966 1.802a.153.153 0 0 1-.058.245l-.962.376a.153.153 0 0 0 .038.294c1.683.19 2.938.081 3.764-.329z"/><path stroke-width=".583" d="M5.399 2.437c.55 0 1.044.281 1.377.72.076.078.146.09.21.038.063-.052.063-.132 0-.24-.388-.5-.96-.826-1.587-.826-.442 0-.852.158-1.192.422-.101.082-.13.16-.089.232.043.073.124.08.243.023a1.69 1.69 0 0 1 1.038-.37z"/><path stroke-width=".952" d="M12.804 9.84c-1.365-.459-3.005 0-3.107-.383-.102-.385 1.309-1.032 1.277-3.759-.016-1.996-.745-2.245-.807-2.297-.061-.052-.47-.279-.47 0 0 2.892-1.91 4.835-4.984 4.835-.733 0-1.669-.16-2.807-.482a.305.305 0 0 0-.335.466c.11.162.262.33.452.506.261.24.57.512.996.73 1.38.701 2.44.784 2.544.791.016 1.47-1.06 3.525-2.584 3.525-.233 0-.458-.03-.675-.075-.594-.113-.963-.468-.963-.346 0 .123.209 1.446 1.927 1.596 1.886.166 2.753-.218 4.623-1.288 2-1.144 3.516-2.357 4.68-2.056.883.226.43 2.511.733 2.636s.56-1.612.64-2.071c.08-.482.225-1.868-1.14-2.327z"/></g></svg>