<?xml version="1.0" standalone="no"?>
<!DOCTYPE svg PUBLIC "-//W3C//DTD SVG 20010904//EN"
 "http://www.w3.org/TR/2001/REC-SVG-20010904/DTD/svg10.dtd">
<svg version="1.0" xmlns="http://www.w3.org/2000/svg"
 width="928.000000pt" height="928.000000pt" viewBox="0 0 928.000000 928.000000"
 preserveAspectRatio="xMidYMid meet">
<metadata>
Created by potrace 1.11, written by Peter Selinger 2001-2013
</metadata>
<g transform="translate(0.000000,928.000000) scale(0.100000,-0.100000)"
fill="#000000" stroke="none">
<path d="M3188 9275 c-3 -4 -73 -15 -121 -19 -18 -2 -46 -6 -62 -10 -17 -3
-40 -8 -53 -11 -13 -2 -32 -7 -42 -10 -10 -3 -29 -8 -42 -11 -28 -6 -39 -9
-58 -17 -8 -3 -40 -13 -70 -23 -30 -9 -71 -24 -90 -32 -19 -9 -37 -16 -40 -17
-3 0 -31 -13 -64 -28 -32 -15 -62 -27 -67 -27 -5 0 -9 -3 -9 -8 0 -4 -28 -22
-62 -40 -57 -30 -81 -45 -158 -100 -179 -127 -357 -315 -482 -508 -70 -109
-188 -366 -203 -444 -2 -8 -11 -44 -20 -80 -9 -36 -19 -78 -21 -95 -2 -16 -6
-41 -9 -55 -10 -49 -18 -156 -19 -245 0 -163 24 -277 93 -440 16 -37 96 -200
101 -205 3 -3 16 -25 29 -50 29 -54 63 -104 74 -108 4 -2 7 -8 7 -14 0 -12
129 -191 141 -196 5 -2 9 -10 9 -17 0 -7 3 -15 8 -17 4 -1 38 -41 76 -88 39
-47 72 -87 76 -90 21 -18 68 -89 70 -105 7 -65 -26 -116 -88 -136 -20 -6 -50
-17 -67 -25 -16 -7 -151 -61 -300 -120 -240 -95 -327 -139 -323 -163 1 -3 -2
-14 -6 -23 -12 -27 18 -91 50 -110 16 -9 61 -20 99 -23 39 -4 84 -9 100 -10
212 -21 330 -30 545 -40 95 -5 514 -5 600 0 88 4 238 15 275 20 41 5 110 13
170 20 28 4 57 8 65 10 8 3 32 7 54 11 21 3 48 8 60 10 11 2 32 6 46 9 27 5
57 12 93 21 12 3 31 7 42 9 48 11 188 56 275 89 52 20 103 39 114 41 10 2 26
11 36 20 9 8 22 15 28 15 7 0 20 4 30 10 30 17 152 70 161 70 5 0 11 3 13 8 2
4 23 18 48 31 58 31 210 132 262 174 37 30 226 215 257 253 44 52 151 201 151
210 0 3 14 26 30 51 17 24 30 46 30 48 0 3 17 40 37 82 20 43 38 83 40 88 4
16 52 150 54 150 0 0 2 8 4 17 2 9 10 45 19 80 8 35 18 80 22 102 3 21 7 48
10 60 29 152 18 458 -22 620 -9 32 -17 71 -19 85 -13 89 -123 343 -201 464
-24 37 -44 70 -44 72 0 3 -6 13 -14 22 -8 10 -41 52 -74 93 -83 104 -165 187
-269 270 -148 118 -167 132 -273 186 -19 10 -37 20 -40 23 -5 6 -99 53 -110
56 -3 1 -23 9 -45 19 -72 32 -204 73 -320 101 -27 7 -120 23 -175 31 -46 6
-416 14 -422 9z"/>
<path d="M6275 8301 c-44 -20 -90 -67 -106 -109 -6 -15 -13 -79 -15 -142 -8
-225 -16 -345 -30 -450 -2 -19 -9 -69 -14 -110 -6 -41 -12 -81 -14 -90 -3 -8
-7 -31 -10 -50 -3 -19 -9 -48 -12 -65 -4 -16 -8 -39 -9 -50 -2 -11 -4 -20 -5
-20 -1 0 -3 -7 -5 -16 -8 -43 -49 -194 -73 -269 -14 -47 -26 -89 -27 -95 0 -5
-3 -13 -8 -16 -4 -3 -9 -15 -12 -27 -2 -11 -8 -29 -13 -39 -6 -10 -10 -20 -10
-23 -1 -18 -68 -172 -121 -280 -40 -80 -71 -138 -136 -249 -37 -63 -148 -221
-156 -221 -5 0 -9 -5 -9 -11 0 -15 -90 -124 -192 -233 -32 -34 -58 -64 -58
-68 0 -5 -6 -8 -14 -8 -8 0 -18 -9 -21 -20 -3 -11 -10 -20 -15 -20 -5 0 -28
-19 -52 -42 -24 -24 -59 -55 -78 -69 -19 -15 -44 -35 -55 -45 -11 -11 -47 -39
-80 -63 -33 -25 -61 -48 -63 -53 -2 -4 -8 -8 -13 -8 -5 0 -37 -19 -71 -43 -62
-42 -118 -77 -168 -105 -61 -34 -160 -83 -166 -82 -4 1 -10 -2 -13 -7 -5 -8
-115 -63 -125 -63 -2 0 -21 -8 -42 -17 -22 -9 -42 -16 -46 -15 -5 1 -8 -2 -8
-6 0 -5 -6 -9 -12 -10 -7 0 -58 -17 -113 -37 -55 -20 -104 -38 -110 -39 -5 -1
-41 -12 -80 -24 -38 -11 -87 -24 -108 -28 -20 -3 -40 -10 -43 -15 -3 -5 -9 -7
-13 -4 -5 2 -23 0 -42 -6 -19 -6 -43 -12 -54 -13 -20 -4 -56 -11 -105 -21 -27
-6 -50 -9 -120 -20 -25 -4 -53 -9 -63 -11 -10 -2 -38 -4 -63 -5 -24 -2 -44 -5
-44 -8 0 -3 -17 -6 -38 -7 -20 0 -89 -5 -152 -9 -211 -16 -541 -10 -655 12
-16 3 -43 7 -60 8 -16 2 -30 4 -30 5 0 1 -13 3 -30 5 -16 2 -87 15 -158 29
-70 14 -135 28 -145 30 -9 1 -24 6 -32 9 -8 3 -46 13 -85 22 -38 8 -77 17 -85
19 -50 13 -183 50 -230 64 -30 9 -57 16 -60 17 -3 1 -32 9 -65 20 -33 10 -66
20 -74 21 -18 3 -329 103 -356 114 -11 4 -56 20 -100 35 -44 15 -87 29 -95 33
-8 3 -17 6 -20 7 -3 1 -12 5 -20 8 -8 4 -35 13 -60 21 -25 8 -72 24 -105 36
-151 56 -291 -16 -313 -161 -7 -53 4 -129 20 -129 4 0 8 -7 8 -14 0 -16 233
-251 454 -459 71 -67 146 -139 167 -159 22 -20 39 -35 39 -33 0 2 17 -13 38
-34 30 -30 105 -94 157 -134 6 -4 21 -16 34 -27 13 -11 27 -20 31 -20 3 0 15
-8 26 -18 33 -29 112 -82 122 -82 6 0 12 -4 14 -8 9 -23 218 -132 498 -260
115 -52 473 -190 498 -192 4 0 25 -7 47 -15 47 -16 170 -53 205 -61 40 -9 55
-12 55 -14 0 -1 7 -3 15 -5 8 -1 35 -8 60 -15 54 -15 76 -19 112 -25 15 -2 32
-6 37 -9 5 -3 26 -8 47 -11 22 -3 50 -7 64 -10 65 -13 93 -18 200 -30 92 -11
87 -7 84 -82 -4 -85 -14 -227 -18 -250 -2 -10 -7 -40 -10 -68 -10 -74 -15
-103 -32 -175 -9 -36 -17 -74 -18 -85 -2 -11 -6 -27 -9 -35 -4 -8 -8 -27 -11
-42 -5 -28 -22 -86 -37 -123 -11 -29 -29 -88 -29 -100 -1 -5 -8 -20 -16 -32
-8 -13 -12 -23 -8 -23 4 0 1 -7 -6 -15 -7 -8 -10 -15 -6 -15 4 0 -2 -17 -13
-39 -11 -21 -17 -41 -14 -45 4 -3 1 -6 -5 -6 -7 0 -12 -7 -12 -15 0 -17 -115
-255 -165 -340 -19 -33 -42 -75 -52 -92 -9 -18 -20 -33 -24 -33 -4 0 -9 -8
-13 -17 -6 -21 -25 -51 -44 -71 -6 -7 -26 -35 -44 -60 -17 -26 -34 -49 -37
-52 -3 -3 -24 -27 -45 -55 -52 -65 -240 -253 -291 -290 -22 -16 -42 -32 -45
-36 -7 -10 -131 -91 -165 -109 -17 -8 -32 -17 -35 -20 -3 -3 -27 -15 -54 -28
-113 -53 -260 -100 -341 -109 -22 -2 -60 -6 -85 -8 -84 -9 -191 -6 -340 10
-59 6 -209 32 -260 45 -19 5 -57 14 -85 20 -27 7 -66 18 -85 25 -42 15 -140
17 -157 3 -7 -6 -13 -7 -13 -4 0 10 -60 -33 -83 -59 -11 -11 -26 -33 -35 -50
-18 -34 -24 -134 -9 -153 5 -6 7 -12 3 -12 -8 0 50 -97 87 -145 149 -192 367
-339 616 -417 35 -11 72 -21 83 -23 10 -2 22 -6 26 -9 5 -3 19 -7 33 -10 13
-2 63 -11 111 -20 93 -18 100 -19 373 -42 105 -9 598 -10 700 -1 74 6 146 14
205 23 19 3 46 7 60 9 84 10 291 55 392 86 37 11 71 21 75 21 25 2 408 147
438 166 5 4 15 7 20 8 20 3 110 48 117 58 4 6 8 8 8 3 0 -7 377 180 390 193 3
3 43 25 90 49 47 24 102 55 122 68 21 12 40 23 43 23 3 0 22 11 43 23 20 13
64 39 97 57 84 46 125 70 160 91 17 10 41 24 55 32 14 7 86 50 160 94 74 44
146 86 159 94 14 8 30 17 35 22 41 29 86 55 86 49 0 -4 4 -2 8 4 4 5 36 28 72
49 36 21 68 43 71 48 3 5 8 8 10 6 2 -1 22 9 44 23 22 14 90 56 150 93 61 38
121 75 135 84 29 19 38 24 122 74 89 53 102 61 108 67 4 5 56 36 123 75 9 5
59 35 110 66 50 31 115 69 142 84 28 16 66 38 85 50 19 12 67 39 105 59 39 21
84 47 101 57 17 10 34 16 37 12 4 -3 7 -2 7 4 0 6 15 16 33 24 17 7 34 15 37
18 10 11 213 106 221 104 5 -2 9 2 9 7 0 5 3 10 8 9 15 -2 52 14 52 23 0 5 4
7 8 4 5 -3 21 2 37 10 16 8 88 35 159 59 112 38 170 54 291 81 11 2 46 6 77 8
32 3 61 7 65 9 10 6 245 0 283 -6 92 -17 195 -58 240 -96 14 -12 36 -32 50
-44 14 -12 41 -44 60 -72 19 -27 38 -52 41 -55 24 -20 124 -286 133 -355 12
-80 39 -141 82 -182 68 -66 162 -81 246 -38 69 35 96 78 132 216 18 68 32 132
30 142 -1 9 1 17 5 17 4 0 8 6 8 13 1 6 4 35 8 62 12 85 15 107 21 185 9 104
8 282 0 360 -5 36 -10 80 -11 98 -2 18 -6 41 -9 50 -3 9 -8 31 -11 48 -2 17
-15 62 -27 100 -12 38 -22 71 -23 74 -12 41 -85 187 -106 215 -11 14 -17 25
-12 25 4 0 3 4 -2 8 -6 4 -23 25 -40 47 -51 69 -225 234 -248 235 -4 0 -16 8
-27 18 -31 28 -252 135 -305 146 -5 2 -41 12 -80 23 -59 18 -140 37 -205 49
-15 3 -75 12 -135 20 -16 2 -72 6 -124 9 -52 3 -98 8 -102 11 -4 2 -10 0 -14
-6 -4 -6 -11 -8 -16 -4 -23 14 -277 -1 -443 -26 -32 -5 -61 -9 -65 -8 -3 1
-19 -1 -36 -5 -16 -4 -43 -9 -60 -12 -16 -3 -41 -7 -55 -10 -14 -3 -36 -8 -50
-10 -14 -2 -88 -20 -165 -40 -77 -20 -147 -38 -155 -40 -48 -11 -349 -113
-423 -142 -90 -35 -119 -36 -137 -4 -10 19 -11 17 75 125 22 28 58 76 80 106
22 30 42 57 45 60 5 5 119 174 135 202 6 9 32 54 60 100 68 114 70 117 140
258 34 69 81 170 104 225 23 55 49 112 57 128 8 15 13 27 9 27 -3 0 1 14 10
30 9 17 13 30 9 30 -4 0 -2 6 4 13 5 6 20 44 32 82 12 39 25 77 28 85 3 8 6
18 7 23 2 4 4 9 5 12 3 6 3 6 14 55 5 19 11 40 14 45 4 6 7 15 8 20 1 6 7 30
14 55 25 99 43 176 46 200 1 14 3 25 4 25 5 0 47 219 54 280 3 28 8 61 11 75
5 30 15 122 31 285 23 254 23 709 -1 902 -3 21 -7 61 -10 88 -13 121 -58 351
-92 464 -9 31 -18 61 -19 66 -6 26 -78 225 -96 265 -12 25 -20 45 -19 45 3 0
-99 198 -128 248 -60 106 -145 219 -182 244 -52 34 -137 41 -194 14z"/>
</g>
</svg>
